%TF.GenerationSoftware,KiCad,Pcbnew,9.0.2*%
%TF.CreationDate,2026-06-24T13:40:07-04:00*%
%TF.ProjectId,NaviCore_V1,4e617669-436f-4726-955f-56312e6b6963,rev?*%
%TF.SameCoordinates,Original*%
%TF.FileFunction,Copper,L2,Bot*%
%TF.FilePolarity,Positive*%
%FSLAX46Y46*%
G04 Gerber Fmt 4.6, Leading zero omitted, Abs format (unit mm)*
G04 Created by KiCad (PCBNEW 9.0.2) date 2026-06-24 13:40:07*
%MOMM*%
%LPD*%
G01*
G04 APERTURE LIST*
G04 Aperture macros list*
%AMRoundRect*
0 Rectangle with rounded corners*
0 $1 Rounding radius*
0 $2 $3 $4 $5 $6 $7 $8 $9 X,Y pos of 4 corners*
0 Add a 4 corners polygon primitive as box body*
4,1,4,$2,$3,$4,$5,$6,$7,$8,$9,$2,$3,0*
0 Add four circle primitives for the rounded corners*
1,1,$1+$1,$2,$3*
1,1,$1+$1,$4,$5*
1,1,$1+$1,$6,$7*
1,1,$1+$1,$8,$9*
0 Add four rect primitives between the rounded corners*
20,1,$1+$1,$2,$3,$4,$5,0*
20,1,$1+$1,$4,$5,$6,$7,0*
20,1,$1+$1,$6,$7,$8,$9,0*
20,1,$1+$1,$8,$9,$2,$3,0*%
G04 Aperture macros list end*
%TA.AperFunction,ComponentPad*%
%ADD10R,1.700000X1.700000*%
%TD*%
%TA.AperFunction,ComponentPad*%
%ADD11C,1.700000*%
%TD*%
%TA.AperFunction,ComponentPad*%
%ADD12RoundRect,0.250000X1.050000X1.050000X-1.050000X1.050000X-1.050000X-1.050000X1.050000X-1.050000X0*%
%TD*%
%TA.AperFunction,ComponentPad*%
%ADD13C,2.600000*%
%TD*%
%TA.AperFunction,ComponentPad*%
%ADD14C,1.600000*%
%TD*%
%TA.AperFunction,ComponentPad*%
%ADD15R,1.530000X1.530000*%
%TD*%
%TA.AperFunction,ComponentPad*%
%ADD16C,1.530000*%
%TD*%
%TA.AperFunction,Conductor*%
%ADD17C,0.250000*%
%TD*%
G04 APERTURE END LIST*
D10*
%TO.P,J5,1,Pin_1*%
%TO.N,GND*%
X176055000Y-100408334D03*
D11*
%TO.P,J5,2,Pin_2*%
%TO.N,5V*%
X173515000Y-100408334D03*
%TO.P,J5,3,Pin_3*%
%TO.N,SERIAL_2_RX*%
X170975000Y-100408334D03*
%TO.P,J5,4,Pin_4*%
%TO.N,SERIAL_2_TX*%
X168435000Y-100408334D03*
%TD*%
D10*
%TO.P,J6,1,Pin_1*%
%TO.N,GND*%
X176055000Y-108466667D03*
D11*
%TO.P,J6,2,Pin_2*%
%TO.N,5V*%
X173515000Y-108466667D03*
%TO.P,J6,3,Pin_3*%
%TO.N,SERIAL_3_RX*%
X170975000Y-108466667D03*
%TO.P,J6,4,Pin_4*%
%TO.N,SERIAL_3_TX*%
X168435000Y-108466667D03*
%TD*%
D12*
%TO.P,J7,1,Pin_1*%
%TO.N,GND*%
X176570000Y-63677500D03*
D13*
%TO.P,J7,2,Pin_2*%
%TO.N,5V*%
X171490000Y-63677500D03*
%TD*%
D14*
%TO.P,R1,1*%
%TO.N,3.3V*%
X166125000Y-69725000D03*
%TO.P,R1,2*%
%TO.N,Net-(U1-GPIO0)*%
X166125000Y-82425000D03*
%TD*%
D10*
%TO.P,J2,1,Pin_1*%
%TO.N,GND*%
X176055000Y-79275000D03*
D11*
%TO.P,J2,2,Pin_2*%
%TO.N,5V*%
X173515000Y-79275000D03*
%TO.P,J2,3,Pin_3*%
%TO.N,SBUS_OUT*%
X170975000Y-79275000D03*
%TD*%
D10*
%TO.P,J1,1,Pin_1*%
%TO.N,GND*%
X176055000Y-73225000D03*
D11*
%TO.P,J1,2,Pin_2*%
%TO.N,5V*%
X173515000Y-73225000D03*
%TO.P,J1,3,Pin_3*%
%TO.N,SBUS_IN*%
X170975000Y-73225000D03*
%TD*%
D15*
%TO.P,U1,J1_1,3V3*%
%TO.N,3.3V*%
X136350000Y-61660000D03*
D16*
%TO.P,U1,J1_2,3V3*%
X136350000Y-64200000D03*
%TO.P,U1,J1_3,RST*%
%TO.N,unconnected-(U1-RST-PadJ1_3)*%
X136350000Y-66740000D03*
%TO.P,U1,J1_4,GPIO4*%
%TO.N,SBUS_IN*%
X136350000Y-69280000D03*
%TO.P,U1,J1_5,GPIO5*%
%TO.N,SBUS_OUT*%
X136350000Y-71820000D03*
%TO.P,U1,J1_6,GPIO6*%
%TO.N,MAESTRO_TX*%
X136350000Y-74360000D03*
%TO.P,U1,J1_7,GPIO7*%
%TO.N,MAESTRO_RX*%
X136350000Y-76900000D03*
%TO.P,U1,J1_8,GPIO15*%
%TO.N,unconnected-(U1-GPIO15-PadJ1_8)*%
X136350000Y-79440000D03*
%TO.P,U1,J1_9,GPIO16*%
%TO.N,unconnected-(U1-GPIO16-PadJ1_9)*%
X136350000Y-81980000D03*
%TO.P,U1,J1_10,GPIO17*%
%TO.N,unconnected-(U1-GPIO17-PadJ1_10)*%
X136350000Y-84520000D03*
%TO.P,U1,J1_11,GPIO18*%
%TO.N,unconnected-(U1-GPIO18-PadJ1_11)*%
X136350000Y-87060000D03*
%TO.P,U1,J1_12,GPIO8*%
%TO.N,SERIAL_1_TX*%
X136350000Y-89600000D03*
%TO.P,U1,J1_13,GPIO3*%
%TO.N,unconnected-(U1-GPIO3-PadJ1_13)*%
X136350000Y-92140000D03*
%TO.P,U1,J1_14,GPIO46*%
%TO.N,unconnected-(U1-GPIO46-PadJ1_14)*%
X136350000Y-94680000D03*
%TO.P,U1,J1_15,GPIO9*%
%TO.N,SERIAL_1_RX*%
X136350000Y-97220000D03*
%TO.P,U1,J1_16,GPIO10*%
%TO.N,SERIAL_2_TX*%
X136350000Y-99760000D03*
%TO.P,U1,J1_17,GPIO11*%
%TO.N,unconnected-(U1-GPIO11-PadJ1_17)*%
X136350000Y-102300000D03*
%TO.P,U1,J1_18,GPIO12*%
%TO.N,unconnected-(U1-GPIO12-PadJ1_18)*%
X136350000Y-104840000D03*
%TO.P,U1,J1_19,GPIO13*%
%TO.N,unconnected-(U1-GPIO13-PadJ1_19)*%
X136350000Y-107380000D03*
%TO.P,U1,J1_20,GPIO14*%
%TO.N,unconnected-(U1-GPIO14-PadJ1_20)*%
X136350000Y-109920000D03*
%TO.P,U1,J1_21,5V0*%
%TO.N,5V*%
X136350000Y-112460000D03*
%TO.P,U1,J1_22,GND*%
%TO.N,GND*%
X136350000Y-115000000D03*
%TO.P,U1,J3_1,GND*%
X159210000Y-61660000D03*
X161750000Y-61660000D03*
%TO.P,U1,J3_2,U0TXD/GPIO43*%
%TO.N,unconnected-(U1-U0TXD{slash}GPIO43-PadJ3_2)*%
X159210000Y-64200000D03*
X161750000Y-64170000D03*
%TO.P,U1,J3_3,U0RXD/GPIO44*%
%TO.N,unconnected-(U1-U0RXD{slash}GPIO44-PadJ3_3)*%
X159210000Y-66740000D03*
X161750000Y-66740000D03*
%TO.P,U1,J3_4,GPIO1*%
%TO.N,unconnected-(U1-GPIO1-PadJ3_4)*%
X159210000Y-69280000D03*
X161750000Y-69280000D03*
%TO.P,U1,J3_5,GPIO2*%
%TO.N,unconnected-(U1-GPIO2-PadJ3_5)*%
X159210000Y-71820000D03*
X161750000Y-71820000D03*
%TO.P,U1,J3_6,MTMS/GPIO42*%
%TO.N,unconnected-(U1-MTMS{slash}GPIO42-PadJ3_6)*%
X159210000Y-74360000D03*
X161750000Y-74360000D03*
%TO.P,U1,J3_7,MTDI/GPIO41*%
%TO.N,unconnected-(U1-MTDI{slash}GPIO41-PadJ3_7)*%
X159210000Y-76900000D03*
X161750000Y-76900000D03*
%TO.P,U1,J3_8,MTDO/GPIO40*%
%TO.N,unconnected-(U1-MTDO{slash}GPIO40-PadJ3_8)*%
X159210000Y-79440000D03*
X161750000Y-79440000D03*
%TO.P,U1,J3_9,MTCK/GPIO39*%
%TO.N,unconnected-(U1-MTCK{slash}GPIO39-PadJ3_9)*%
X159210000Y-81980000D03*
X161750000Y-81980000D03*
%TO.P,U1,J3_10,GPIO38*%
%TO.N,SERIAL_3_TX*%
X159210000Y-84520000D03*
X161750000Y-84520000D03*
%TO.P,U1,J3_11,GPIO37*%
%TO.N,unconnected-(U1-GPIO37-PadJ3_11)*%
X159210000Y-87060000D03*
X161750000Y-87060000D03*
%TO.P,U1,J3_12,GPIO36*%
%TO.N,unconnected-(U1-GPIO36-PadJ3_12)*%
X159210000Y-89600000D03*
X161750000Y-89600000D03*
%TO.P,U1,J3_13,GPIO35*%
%TO.N,unconnected-(U1-GPIO35-PadJ3_13)*%
X159210000Y-92140000D03*
X161750000Y-92140000D03*
%TO.P,U1,J3_14,GPIO0*%
%TO.N,Net-(U1-GPIO0)*%
X159210000Y-94680000D03*
X161750000Y-94680000D03*
%TO.P,U1,J3_15,GPIO45*%
%TO.N,unconnected-(U1-GPIO45-PadJ3_15)*%
X159210000Y-97220000D03*
X161750000Y-97220000D03*
%TO.P,U1,J3_16,GPIO48*%
%TO.N,unconnected-(U1-GPIO48-PadJ3_16)*%
X159210000Y-99760000D03*
X161750000Y-99760000D03*
%TO.P,U1,J3_17,GPIO47*%
%TO.N,SERIAL_3_RX*%
X159210000Y-102300000D03*
X161750000Y-102300000D03*
%TO.P,U1,J3_18,GPIO21*%
%TO.N,SERIAL_2_RX*%
X159210000Y-104840000D03*
X161750000Y-104840000D03*
%TO.P,U1,J3_19,USB_D+/GPIO20*%
%TO.N,unconnected-(U1-USB_D+{slash}GPIO20-PadJ3_19)*%
X159210000Y-107380000D03*
X161750000Y-107380000D03*
%TO.P,U1,J3_20,USB_D-/GPIO19*%
%TO.N,unconnected-(U1-USB_D-{slash}GPIO19-PadJ3_20)*%
X159210000Y-109920000D03*
X161750000Y-109920000D03*
%TO.P,U1,J3_21,GND*%
%TO.N,GND*%
X159210000Y-112460000D03*
X161750000Y-112460000D03*
%TO.P,U1,J3_22,GND*%
X159210000Y-115000000D03*
X161750000Y-115000000D03*
%TD*%
D10*
%TO.P,J3,1,Pin_1*%
%TO.N,GND*%
X176055000Y-85550000D03*
D11*
%TO.P,J3,2,Pin_2*%
%TO.N,5V*%
X173515000Y-85550000D03*
%TO.P,J3,3,Pin_3*%
%TO.N,MAESTRO_RX*%
X170975000Y-85550000D03*
%TO.P,J3,4,Pin_4*%
%TO.N,MAESTRO_TX*%
X168435000Y-85550000D03*
%TD*%
D10*
%TO.P,J4,1,Pin_1*%
%TO.N,GND*%
X176055000Y-92350000D03*
D11*
%TO.P,J4,2,Pin_2*%
%TO.N,5V*%
X173515000Y-92350000D03*
%TO.P,J4,3,Pin_3*%
%TO.N,SERIAL_1_RX*%
X170975000Y-92350000D03*
%TO.P,J4,4,Pin_4*%
%TO.N,SERIAL_1_TX*%
X168435000Y-92350000D03*
%TD*%
D17*
%TO.N,Net-(U1-GPIO0)*%
X166125000Y-82425000D02*
X165750000Y-82425000D01*
X165750000Y-82425000D02*
X164900000Y-83275000D01*
X157500000Y-84687093D02*
X157500000Y-92970000D01*
X164900000Y-83275000D02*
X158912093Y-83275000D01*
X158912093Y-83275000D02*
X157500000Y-84687093D01*
X157500000Y-92970000D02*
X159210000Y-94680000D01*
%TO.N,SERIAL_3_TX*%
X165750000Y-103700000D02*
X165750000Y-86725000D01*
X165750000Y-86725000D02*
X163545000Y-84520000D01*
X168925000Y-106875000D02*
X165750000Y-103700000D01*
X168925000Y-108466667D02*
X168925000Y-106875000D01*
X163545000Y-84520000D02*
X161750000Y-84520000D01*
%TD*%
%TA.AperFunction,Conductor*%
%TO.N,GND*%
G36*
X161274755Y-112656853D02*
G01*
X161341898Y-112773147D01*
X161436853Y-112868102D01*
X161553147Y-112935245D01*
X161612425Y-112951128D01*
X161049134Y-113514417D01*
X161086999Y-113541928D01*
X161239272Y-113619516D01*
X161290068Y-113667490D01*
X161306863Y-113735311D01*
X161284325Y-113801446D01*
X161239272Y-113840484D01*
X161086996Y-113918073D01*
X161086995Y-113918074D01*
X161049135Y-113945580D01*
X161049135Y-113945581D01*
X161612425Y-114508871D01*
X161553147Y-114524755D01*
X161436853Y-114591898D01*
X161341898Y-114686853D01*
X161274755Y-114803147D01*
X161258871Y-114862425D01*
X160695581Y-114299135D01*
X160695580Y-114299135D01*
X160668074Y-114336995D01*
X160668073Y-114336996D01*
X160590484Y-114489272D01*
X160542510Y-114540068D01*
X160474689Y-114556863D01*
X160408554Y-114534325D01*
X160369516Y-114489272D01*
X160291928Y-114336999D01*
X160264417Y-114299135D01*
X160264417Y-114299134D01*
X159701128Y-114862424D01*
X159685245Y-114803147D01*
X159618102Y-114686853D01*
X159523147Y-114591898D01*
X159406853Y-114524755D01*
X159347574Y-114508871D01*
X159910864Y-113945581D01*
X159910863Y-113945580D01*
X159873008Y-113918077D01*
X159720727Y-113840485D01*
X159669931Y-113792510D01*
X159653136Y-113724689D01*
X159675674Y-113658554D01*
X159720727Y-113619515D01*
X159873005Y-113541924D01*
X159910863Y-113514418D01*
X159910863Y-113514417D01*
X159347574Y-112951128D01*
X159406853Y-112935245D01*
X159523147Y-112868102D01*
X159618102Y-112773147D01*
X159685245Y-112656853D01*
X159701128Y-112597574D01*
X160264417Y-113160863D01*
X160264418Y-113160863D01*
X160291924Y-113123005D01*
X160369515Y-112970727D01*
X160417490Y-112919931D01*
X160485311Y-112903136D01*
X160551446Y-112925674D01*
X160590485Y-112970727D01*
X160668077Y-113123008D01*
X160695580Y-113160863D01*
X160695581Y-113160864D01*
X161258871Y-112597574D01*
X161274755Y-112656853D01*
G37*
%TD.AperFunction*%
%TA.AperFunction,Conductor*%
G36*
X160551446Y-110386773D02*
G01*
X160590485Y-110431827D01*
X160667647Y-110583266D01*
X160784731Y-110744418D01*
X160925582Y-110885269D01*
X161086734Y-111002353D01*
X161176909Y-111048299D01*
X161238722Y-111079795D01*
X161289518Y-111127770D01*
X161306313Y-111195591D01*
X161283776Y-111261726D01*
X161238723Y-111300764D01*
X161086993Y-111378075D01*
X161049135Y-111405580D01*
X161049135Y-111405581D01*
X161612425Y-111968871D01*
X161553147Y-111984755D01*
X161436853Y-112051898D01*
X161341898Y-112146853D01*
X161274755Y-112263147D01*
X161258871Y-112322425D01*
X160695581Y-111759135D01*
X160695580Y-111759135D01*
X160668074Y-111796995D01*
X160668073Y-111796996D01*
X160590484Y-111949272D01*
X160542510Y-112000068D01*
X160474689Y-112016863D01*
X160408554Y-111994325D01*
X160369516Y-111949272D01*
X160291928Y-111796999D01*
X160264417Y-111759135D01*
X160264417Y-111759134D01*
X159701128Y-112322424D01*
X159685245Y-112263147D01*
X159618102Y-112146853D01*
X159523147Y-112051898D01*
X159406853Y-111984755D01*
X159347574Y-111968871D01*
X159910864Y-111405581D01*
X159910863Y-111405580D01*
X159873008Y-111378077D01*
X159721277Y-111300765D01*
X159670481Y-111252790D01*
X159653686Y-111184969D01*
X159676224Y-111118834D01*
X159721277Y-111079795D01*
X159721827Y-111079515D01*
X159873266Y-111002353D01*
X160034418Y-110885269D01*
X160175269Y-110744418D01*
X160292353Y-110583266D01*
X160369515Y-110431827D01*
X160417490Y-110381031D01*
X160485311Y-110364236D01*
X160551446Y-110386773D01*
G37*
%TD.AperFunction*%
%TA.AperFunction,Conductor*%
G36*
X161274755Y-61856853D02*
G01*
X161341898Y-61973147D01*
X161436853Y-62068102D01*
X161553147Y-62135245D01*
X161612425Y-62151128D01*
X161049134Y-62714417D01*
X161086994Y-62741924D01*
X161209283Y-62804234D01*
X161260079Y-62852209D01*
X161276874Y-62920030D01*
X161254337Y-62986165D01*
X161209284Y-63025203D01*
X161086736Y-63087645D01*
X161027478Y-63130699D01*
X160925582Y-63204731D01*
X160925580Y-63204733D01*
X160925579Y-63204733D01*
X160784733Y-63345579D01*
X160784733Y-63345580D01*
X160784731Y-63345582D01*
X160767274Y-63369610D01*
X160667647Y-63506733D01*
X160582842Y-63673172D01*
X160534867Y-63723968D01*
X160467046Y-63740763D01*
X160400911Y-63718225D01*
X160361872Y-63673172D01*
X160292352Y-63536733D01*
X160175269Y-63375582D01*
X160034418Y-63234731D01*
X159873266Y-63117647D01*
X159814384Y-63087645D01*
X159721277Y-63040204D01*
X159670481Y-62992229D01*
X159653686Y-62924408D01*
X159676224Y-62858273D01*
X159721277Y-62819234D01*
X159873005Y-62741924D01*
X159910863Y-62714418D01*
X159910863Y-62714417D01*
X159347574Y-62151128D01*
X159406853Y-62135245D01*
X159523147Y-62068102D01*
X159618102Y-61973147D01*
X159685245Y-61856853D01*
X159701128Y-61797574D01*
X160264417Y-62360863D01*
X160264418Y-62360863D01*
X160291924Y-62323005D01*
X160369515Y-62170727D01*
X160417490Y-62119931D01*
X160485311Y-62103136D01*
X160551446Y-62125674D01*
X160590485Y-62170727D01*
X160668077Y-62323008D01*
X160695580Y-62360863D01*
X160695581Y-62360864D01*
X161258871Y-61797574D01*
X161274755Y-61856853D01*
G37*
%TD.AperFunction*%
%TA.AperFunction,Conductor*%
G36*
X188002539Y-53470185D02*
G01*
X188048294Y-53522989D01*
X188059500Y-53574500D01*
X188059500Y-124060500D01*
X188039815Y-124127539D01*
X187987011Y-124173294D01*
X187935500Y-124184500D01*
X134069500Y-124184500D01*
X134002461Y-124164815D01*
X133956706Y-124112011D01*
X133945500Y-124060500D01*
X133945500Y-121003711D01*
X135174500Y-121003711D01*
X135174500Y-121246288D01*
X135206161Y-121486785D01*
X135268947Y-121721104D01*
X135289658Y-121771104D01*
X135361776Y-121945212D01*
X135483064Y-122155289D01*
X135483066Y-122155292D01*
X135483067Y-122155293D01*
X135630733Y-122347736D01*
X135630739Y-122347743D01*
X135802256Y-122519260D01*
X135802262Y-122519265D01*
X135994711Y-122666936D01*
X136204788Y-122788224D01*
X136428900Y-122881054D01*
X136663211Y-122943838D01*
X136843586Y-122967584D01*
X136903711Y-122975500D01*
X136903712Y-122975500D01*
X137146289Y-122975500D01*
X137194388Y-122969167D01*
X137386789Y-122943838D01*
X137621100Y-122881054D01*
X137845212Y-122788224D01*
X138055289Y-122666936D01*
X138247738Y-122519265D01*
X138419265Y-122347738D01*
X138566936Y-122155289D01*
X138688224Y-121945212D01*
X138781054Y-121721100D01*
X138843838Y-121486789D01*
X138875500Y-121246288D01*
X138875500Y-121053711D01*
X183149500Y-121053711D01*
X183149500Y-121296288D01*
X183181161Y-121536785D01*
X183243947Y-121771104D01*
X183316062Y-121945205D01*
X183336776Y-121995212D01*
X183458064Y-122205289D01*
X183458066Y-122205292D01*
X183458067Y-122205293D01*
X183605733Y-122397736D01*
X183605739Y-122397743D01*
X183777256Y-122569260D01*
X183777262Y-122569265D01*
X183969711Y-122716936D01*
X184179788Y-122838224D01*
X184403900Y-122931054D01*
X184638211Y-122993838D01*
X184818586Y-123017584D01*
X184878711Y-123025500D01*
X184878712Y-123025500D01*
X185121289Y-123025500D01*
X185169388Y-123019167D01*
X185361789Y-122993838D01*
X185596100Y-122931054D01*
X185820212Y-122838224D01*
X186030289Y-122716936D01*
X186222738Y-122569265D01*
X186394265Y-122397738D01*
X186541936Y-122205289D01*
X186663224Y-121995212D01*
X186756054Y-121771100D01*
X186818838Y-121536789D01*
X186850500Y-121296288D01*
X186850500Y-121053712D01*
X186843917Y-121003712D01*
X186818838Y-120813214D01*
X186818838Y-120813211D01*
X186756054Y-120578900D01*
X186663224Y-120354788D01*
X186541936Y-120144711D01*
X186394265Y-119952262D01*
X186394260Y-119952256D01*
X186222743Y-119780739D01*
X186222736Y-119780733D01*
X186030293Y-119633067D01*
X186030292Y-119633066D01*
X186030289Y-119633064D01*
X185820212Y-119511776D01*
X185820205Y-119511773D01*
X185596104Y-119418947D01*
X185361785Y-119356161D01*
X185121289Y-119324500D01*
X185121288Y-119324500D01*
X184878712Y-119324500D01*
X184878711Y-119324500D01*
X184638214Y-119356161D01*
X184403895Y-119418947D01*
X184179794Y-119511773D01*
X184179785Y-119511777D01*
X183969706Y-119633067D01*
X183777263Y-119780733D01*
X183777256Y-119780739D01*
X183605739Y-119952256D01*
X183605733Y-119952263D01*
X183458067Y-120144706D01*
X183336777Y-120354785D01*
X183336773Y-120354794D01*
X183243947Y-120578895D01*
X183181161Y-120813214D01*
X183149500Y-121053711D01*
X138875500Y-121053711D01*
X138875500Y-121003712D01*
X138843838Y-120763211D01*
X138781054Y-120528900D01*
X138688224Y-120304788D01*
X138566936Y-120094711D01*
X138419265Y-119902262D01*
X138419260Y-119902256D01*
X138247743Y-119730739D01*
X138247736Y-119730733D01*
X138055293Y-119583067D01*
X138055292Y-119583066D01*
X138055289Y-119583064D01*
X137845212Y-119461776D01*
X137845205Y-119461773D01*
X137621104Y-119368947D01*
X137386785Y-119306161D01*
X137146289Y-119274500D01*
X137146288Y-119274500D01*
X136903712Y-119274500D01*
X136903711Y-119274500D01*
X136663214Y-119306161D01*
X136428895Y-119368947D01*
X136204794Y-119461773D01*
X136204785Y-119461777D01*
X135994706Y-119583067D01*
X135802263Y-119730733D01*
X135802256Y-119730739D01*
X135630739Y-119902256D01*
X135630733Y-119902263D01*
X135483067Y-120094706D01*
X135361777Y-120304785D01*
X135361773Y-120304794D01*
X135268947Y-120528895D01*
X135206161Y-120763214D01*
X135174500Y-121003711D01*
X133945500Y-121003711D01*
X133945500Y-60847135D01*
X135084500Y-60847135D01*
X135084500Y-62472870D01*
X135084501Y-62472876D01*
X135090908Y-62532483D01*
X135141202Y-62667328D01*
X135141206Y-62667335D01*
X135227452Y-62782544D01*
X135227455Y-62782547D01*
X135342664Y-62868793D01*
X135342671Y-62868797D01*
X135477517Y-62919091D01*
X135477516Y-62919091D01*
X135484444Y-62919835D01*
X135537127Y-62925500D01*
X135569568Y-62925499D01*
X135636605Y-62945182D01*
X135682361Y-62997984D01*
X135692306Y-63067143D01*
X135663283Y-63130699D01*
X135642455Y-63149816D01*
X135525582Y-63234730D01*
X135384733Y-63375579D01*
X135384733Y-63375580D01*
X135384731Y-63375582D01*
X135347010Y-63427500D01*
X135267647Y-63536733D01*
X135177213Y-63714219D01*
X135115661Y-63903656D01*
X135115661Y-63903659D01*
X135084500Y-64100403D01*
X135084500Y-64299597D01*
X135100080Y-64397968D01*
X135115661Y-64496340D01*
X135115661Y-64496343D01*
X135177213Y-64685780D01*
X135223933Y-64777473D01*
X135267647Y-64863266D01*
X135384731Y-65024418D01*
X135525582Y-65165269D01*
X135686734Y-65282353D01*
X135713094Y-65295784D01*
X135838172Y-65359515D01*
X135888968Y-65407490D01*
X135905763Y-65475311D01*
X135883225Y-65541446D01*
X135838172Y-65580485D01*
X135686733Y-65657647D01*
X135594790Y-65724447D01*
X135525582Y-65774731D01*
X135525580Y-65774733D01*
X135525579Y-65774733D01*
X135384733Y-65915579D01*
X135384733Y-65915580D01*
X135384731Y-65915582D01*
X135334447Y-65984790D01*
X135267647Y-66076733D01*
X135177213Y-66254219D01*
X135115661Y-66443656D01*
X135115661Y-66443659D01*
X135084500Y-66640403D01*
X135084500Y-66839596D01*
X135115661Y-67036340D01*
X135115661Y-67036343D01*
X135177213Y-67225780D01*
X135177215Y-67225783D01*
X135267647Y-67403266D01*
X135384731Y-67564418D01*
X135525582Y-67705269D01*
X135686734Y-67822353D01*
X135756453Y-67857877D01*
X135838172Y-67899515D01*
X135888968Y-67947490D01*
X135905763Y-68015311D01*
X135883225Y-68081446D01*
X135838172Y-68120485D01*
X135686733Y-68197647D01*
X135594790Y-68264447D01*
X135525582Y-68314731D01*
X135525580Y-68314733D01*
X135525579Y-68314733D01*
X135384733Y-68455579D01*
X135384733Y-68455580D01*
X135384731Y-68455582D01*
X135338088Y-68519780D01*
X135267647Y-68616733D01*
X135177213Y-68794219D01*
X135115661Y-68983656D01*
X135115661Y-68983659D01*
X135084500Y-69180403D01*
X135084500Y-69379596D01*
X135115661Y-69576340D01*
X135115661Y-69576343D01*
X135177213Y-69765780D01*
X135190485Y-69791827D01*
X135267647Y-69943266D01*
X135384731Y-70104418D01*
X135525582Y-70245269D01*
X135686734Y-70362353D01*
X135756453Y-70397877D01*
X135838172Y-70439515D01*
X135888968Y-70487490D01*
X135905763Y-70555311D01*
X135883225Y-70621446D01*
X135838172Y-70660485D01*
X135686733Y-70737647D01*
X135594790Y-70804447D01*
X135525582Y-70854731D01*
X135525580Y-70854733D01*
X135525579Y-70854733D01*
X135384733Y-70995579D01*
X135384733Y-70995580D01*
X135384731Y-70995582D01*
X135334447Y-71064790D01*
X135267647Y-71156733D01*
X135177213Y-71334219D01*
X135115661Y-71523656D01*
X135115661Y-71523659D01*
X135084500Y-71720403D01*
X135084500Y-71919596D01*
X135115661Y-72116340D01*
X135115661Y-72116343D01*
X135177213Y-72305780D01*
X135267647Y-72483266D01*
X135384731Y-72644418D01*
X135525582Y-72785269D01*
X135686734Y-72902353D01*
X135756453Y-72937877D01*
X135838172Y-72979515D01*
X135888968Y-73027490D01*
X135905763Y-73095311D01*
X135883225Y-73161446D01*
X135838172Y-73200485D01*
X135686733Y-73277647D01*
X135612906Y-73331286D01*
X135525582Y-73394731D01*
X135525580Y-73394733D01*
X135525579Y-73394733D01*
X135384733Y-73535579D01*
X135384733Y-73535580D01*
X135384731Y-73535582D01*
X135334447Y-73604790D01*
X135267647Y-73696733D01*
X135177213Y-73874219D01*
X135115661Y-74063656D01*
X135115661Y-74063659D01*
X135084500Y-74260403D01*
X135084500Y-74459596D01*
X135115661Y-74656340D01*
X135115661Y-74656343D01*
X135177213Y-74845780D01*
X135190485Y-74871827D01*
X135267647Y-75023266D01*
X135384731Y-75184418D01*
X135525582Y-75325269D01*
X135686734Y-75442353D01*
X135756453Y-75477877D01*
X135838172Y-75519515D01*
X135888968Y-75567490D01*
X135905763Y-75635311D01*
X135883225Y-75701446D01*
X135838172Y-75740485D01*
X135686733Y-75817647D01*
X135594790Y-75884447D01*
X135525582Y-75934731D01*
X135525580Y-75934733D01*
X135525579Y-75934733D01*
X135384733Y-76075579D01*
X135384733Y-76075580D01*
X135384731Y-76075582D01*
X135334447Y-76144790D01*
X135267647Y-76236733D01*
X135177213Y-76414219D01*
X135115661Y-76603656D01*
X135115661Y-76603659D01*
X135084500Y-76800403D01*
X135084500Y-76999596D01*
X135115661Y-77196340D01*
X135115661Y-77196343D01*
X135177213Y-77385780D01*
X135177215Y-77385783D01*
X135267647Y-77563266D01*
X135384731Y-77724418D01*
X135525582Y-77865269D01*
X135686734Y-77982353D01*
X135756453Y-78017877D01*
X135838172Y-78059515D01*
X135888968Y-78107490D01*
X135905763Y-78175311D01*
X135883225Y-78241446D01*
X135838172Y-78280485D01*
X135686733Y-78357647D01*
X135594790Y-78424447D01*
X135525582Y-78474731D01*
X135525580Y-78474733D01*
X135525579Y-78474733D01*
X135384733Y-78615579D01*
X135384733Y-78615580D01*
X135384731Y-78615582D01*
X135334447Y-78684790D01*
X135267647Y-78776733D01*
X135177213Y-78954219D01*
X135115661Y-79143656D01*
X135115661Y-79143659D01*
X135084500Y-79340403D01*
X135084500Y-79539596D01*
X135115661Y-79736340D01*
X135115661Y-79736343D01*
X135177213Y-79925780D01*
X135267647Y-80103266D01*
X135384731Y-80264418D01*
X135525582Y-80405269D01*
X135686734Y-80522353D01*
X135756453Y-80557877D01*
X135838172Y-80599515D01*
X135888968Y-80647490D01*
X135905763Y-80715311D01*
X135883225Y-80781446D01*
X135838172Y-80820485D01*
X135686733Y-80897647D01*
X135594790Y-80964447D01*
X135525582Y-81014731D01*
X135525580Y-81014733D01*
X135525579Y-81014733D01*
X135384733Y-81155579D01*
X135384733Y-81155580D01*
X135384731Y-81155582D01*
X135338088Y-81219780D01*
X135267647Y-81316733D01*
X135177213Y-81494219D01*
X135115661Y-81683656D01*
X135115661Y-81683659D01*
X135084500Y-81880403D01*
X135084500Y-82079596D01*
X135115661Y-82276340D01*
X135115661Y-82276343D01*
X135177213Y-82465780D01*
X135208585Y-82527351D01*
X135267647Y-82643266D01*
X135384731Y-82804418D01*
X135525582Y-82945269D01*
X135686734Y-83062353D01*
X135756453Y-83097877D01*
X135838172Y-83139515D01*
X135888968Y-83187490D01*
X135905763Y-83255311D01*
X135883225Y-83321446D01*
X135838172Y-83360485D01*
X135686733Y-83437647D01*
X135594790Y-83504447D01*
X135525582Y-83554731D01*
X135525580Y-83554733D01*
X135525579Y-83554733D01*
X135384733Y-83695579D01*
X135384733Y-83695580D01*
X135384731Y-83695582D01*
X135337306Y-83760857D01*
X135267647Y-83856733D01*
X135177213Y-84034219D01*
X135115661Y-84223656D01*
X135115661Y-84223659D01*
X135088531Y-84394951D01*
X135084500Y-84420403D01*
X135084500Y-84619597D01*
X135090102Y-84654969D01*
X135115661Y-84816340D01*
X135115661Y-84816343D01*
X135177213Y-85005780D01*
X135219284Y-85088349D01*
X135267647Y-85183266D01*
X135384731Y-85344418D01*
X135525582Y-85485269D01*
X135686734Y-85602353D01*
X135756453Y-85637877D01*
X135838172Y-85679515D01*
X135888968Y-85727490D01*
X135905763Y-85795311D01*
X135883225Y-85861446D01*
X135838172Y-85900485D01*
X135686733Y-85977647D01*
X135634049Y-86015925D01*
X135525582Y-86094731D01*
X135525580Y-86094733D01*
X135525579Y-86094733D01*
X135384733Y-86235579D01*
X135384733Y-86235580D01*
X135384731Y-86235582D01*
X135384416Y-86236016D01*
X135267647Y-86396733D01*
X135177213Y-86574219D01*
X135115661Y-86763656D01*
X135115661Y-86763659D01*
X135084500Y-86960403D01*
X135084500Y-87159596D01*
X135115661Y-87356340D01*
X135115661Y-87356343D01*
X135177213Y-87545780D01*
X135190485Y-87571827D01*
X135267647Y-87723266D01*
X135384731Y-87884418D01*
X135525582Y-88025269D01*
X135686734Y-88142353D01*
X135756453Y-88177877D01*
X135838172Y-88219515D01*
X135888968Y-88267490D01*
X135905763Y-88335311D01*
X135883225Y-88401446D01*
X135838172Y-88440485D01*
X135686733Y-88517647D01*
X135594790Y-88584447D01*
X135525582Y-88634731D01*
X135525580Y-88634733D01*
X135525579Y-88634733D01*
X135384733Y-88775579D01*
X135384733Y-88775580D01*
X135384731Y-88775582D01*
X135334447Y-88844790D01*
X135267647Y-88936733D01*
X135177213Y-89114219D01*
X135115661Y-89303656D01*
X135115661Y-89303659D01*
X135084500Y-89500403D01*
X135084500Y-89699596D01*
X135115661Y-89896340D01*
X135115661Y-89896343D01*
X135177213Y-90085780D01*
X135190485Y-90111827D01*
X135267647Y-90263266D01*
X135384731Y-90424418D01*
X135525582Y-90565269D01*
X135686734Y-90682353D01*
X135756453Y-90717877D01*
X135838172Y-90759515D01*
X135888968Y-90807490D01*
X135905763Y-90875311D01*
X135883225Y-90941446D01*
X135838172Y-90980485D01*
X135686733Y-91057647D01*
X135594790Y-91124447D01*
X135525582Y-91174731D01*
X135525580Y-91174733D01*
X135525579Y-91174733D01*
X135384733Y-91315579D01*
X135384733Y-91315580D01*
X135384731Y-91315582D01*
X135381597Y-91319896D01*
X135267647Y-91476733D01*
X135177213Y-91654219D01*
X135115661Y-91843656D01*
X135115661Y-91843659D01*
X135084500Y-92040403D01*
X135084500Y-92239596D01*
X135115661Y-92436340D01*
X135115661Y-92436343D01*
X135177213Y-92625780D01*
X135177215Y-92625783D01*
X135267647Y-92803266D01*
X135384731Y-92964418D01*
X135525582Y-93105269D01*
X135686734Y-93222353D01*
X135736730Y-93247827D01*
X135838172Y-93299515D01*
X135888968Y-93347490D01*
X135905763Y-93415311D01*
X135883225Y-93481446D01*
X135838172Y-93520485D01*
X135686733Y-93597647D01*
X135623829Y-93643350D01*
X135525582Y-93714731D01*
X135525580Y-93714733D01*
X135525579Y-93714733D01*
X135384733Y-93855579D01*
X135384733Y-93855580D01*
X135384731Y-93855582D01*
X135334447Y-93924790D01*
X135267647Y-94016733D01*
X135177213Y-94194219D01*
X135115661Y-94383656D01*
X135115661Y-94383659D01*
X135084500Y-94580403D01*
X135084500Y-94779596D01*
X135115661Y-94976340D01*
X135115661Y-94976343D01*
X135177213Y-95165780D01*
X135190485Y-95191827D01*
X135267647Y-95343266D01*
X135384731Y-95504418D01*
X135525582Y-95645269D01*
X135686734Y-95762353D01*
X135756453Y-95797877D01*
X135838172Y-95839515D01*
X135888968Y-95887490D01*
X135905763Y-95955311D01*
X135883225Y-96021446D01*
X135838172Y-96060485D01*
X135686733Y-96137647D01*
X135594790Y-96204447D01*
X135525582Y-96254731D01*
X135525580Y-96254733D01*
X135525579Y-96254733D01*
X135384733Y-96395579D01*
X135384733Y-96395580D01*
X135384731Y-96395582D01*
X135334447Y-96464790D01*
X135267647Y-96556733D01*
X135177213Y-96734219D01*
X135115661Y-96923656D01*
X135115661Y-96923659D01*
X135084500Y-97120403D01*
X135084500Y-97319596D01*
X135115661Y-97516340D01*
X135115661Y-97516343D01*
X135177213Y-97705780D01*
X135177215Y-97705783D01*
X135267647Y-97883266D01*
X135384731Y-98044418D01*
X135525582Y-98185269D01*
X135686734Y-98302353D01*
X135756453Y-98337877D01*
X135838172Y-98379515D01*
X135888968Y-98427490D01*
X135905763Y-98495311D01*
X135883225Y-98561446D01*
X135838172Y-98600485D01*
X135686733Y-98677647D01*
X135594790Y-98744447D01*
X135525582Y-98794731D01*
X135525580Y-98794733D01*
X135525579Y-98794733D01*
X135384733Y-98935579D01*
X135384733Y-98935580D01*
X135384731Y-98935582D01*
X135334447Y-99004790D01*
X135267647Y-99096733D01*
X135177213Y-99274219D01*
X135115661Y-99463656D01*
X135115661Y-99463659D01*
X135084500Y-99660403D01*
X135084500Y-99859596D01*
X135115661Y-100056340D01*
X135115661Y-100056343D01*
X135177213Y-100245780D01*
X135190485Y-100271827D01*
X135267647Y-100423266D01*
X135384731Y-100584418D01*
X135525582Y-100725269D01*
X135686734Y-100842353D01*
X135740963Y-100869984D01*
X135838172Y-100919515D01*
X135888968Y-100967490D01*
X135905763Y-101035311D01*
X135883225Y-101101446D01*
X135838172Y-101140485D01*
X135686733Y-101217647D01*
X135594790Y-101284447D01*
X135525582Y-101334731D01*
X135525580Y-101334733D01*
X135525579Y-101334733D01*
X135384733Y-101475579D01*
X135384733Y-101475580D01*
X135384731Y-101475582D01*
X135366685Y-101500420D01*
X135267647Y-101636733D01*
X135177213Y-101814219D01*
X135115661Y-102003656D01*
X135115661Y-102003659D01*
X135084500Y-102200403D01*
X135084500Y-102399596D01*
X135115661Y-102596340D01*
X135115661Y-102596343D01*
X135177213Y-102785780D01*
X135177215Y-102785783D01*
X135267647Y-102963266D01*
X135384731Y-103124418D01*
X135525582Y-103265269D01*
X135686734Y-103382353D01*
X135752586Y-103415906D01*
X135838172Y-103459515D01*
X135888968Y-103507490D01*
X135905763Y-103575311D01*
X135883225Y-103641446D01*
X135838172Y-103680485D01*
X135686733Y-103757647D01*
X135594790Y-103824447D01*
X135525582Y-103874731D01*
X135525580Y-103874733D01*
X135525579Y-103874733D01*
X135384733Y-104015579D01*
X135384733Y-104015580D01*
X135384731Y-104015582D01*
X135384729Y-104015585D01*
X135267647Y-104176733D01*
X135177213Y-104354219D01*
X135115661Y-104543656D01*
X135115661Y-104543659D01*
X135084500Y-104740403D01*
X135084500Y-104939596D01*
X135115661Y-105136340D01*
X135115661Y-105136343D01*
X135177213Y-105325780D01*
X135190485Y-105351827D01*
X135267647Y-105503266D01*
X135384731Y-105664418D01*
X135525582Y-105805269D01*
X135686734Y-105922353D01*
X135756453Y-105957877D01*
X135838172Y-105999515D01*
X135888968Y-106047490D01*
X135905763Y-106115311D01*
X135883225Y-106181446D01*
X135838172Y-106220485D01*
X135686733Y-106297647D01*
X135594790Y-106364447D01*
X135525582Y-106414731D01*
X135525580Y-106414733D01*
X135525579Y-106414733D01*
X135384733Y-106555579D01*
X135384733Y-106555580D01*
X135384731Y-106555582D01*
X135367925Y-106578714D01*
X135267647Y-106716733D01*
X135177213Y-106894219D01*
X135115661Y-107083656D01*
X135115661Y-107083659D01*
X135087814Y-107259479D01*
X135084500Y-107280403D01*
X135084500Y-107479597D01*
X135089204Y-107509294D01*
X135115661Y-107676340D01*
X135115661Y-107676343D01*
X135177213Y-107865780D01*
X135228618Y-107966667D01*
X135267647Y-108043266D01*
X135384731Y-108204418D01*
X135525582Y-108345269D01*
X135686734Y-108462353D01*
X135756453Y-108497877D01*
X135838172Y-108539515D01*
X135888968Y-108587490D01*
X135905763Y-108655311D01*
X135883225Y-108721446D01*
X135838172Y-108760485D01*
X135686733Y-108837647D01*
X135646655Y-108866766D01*
X135525582Y-108954731D01*
X135525580Y-108954733D01*
X135525579Y-108954733D01*
X135384733Y-109095579D01*
X135384733Y-109095580D01*
X135384731Y-109095582D01*
X135334447Y-109164790D01*
X135267647Y-109256733D01*
X135177213Y-109434219D01*
X135115661Y-109623656D01*
X135115661Y-109623659D01*
X135084500Y-109820403D01*
X135084500Y-110019596D01*
X135115661Y-110216340D01*
X135115661Y-110216343D01*
X135177213Y-110405780D01*
X135177215Y-110405783D01*
X135267647Y-110583266D01*
X135384731Y-110744418D01*
X135525582Y-110885269D01*
X135686734Y-111002353D01*
X135756453Y-111037877D01*
X135838172Y-111079515D01*
X135888968Y-111127490D01*
X135905763Y-111195311D01*
X135883225Y-111261446D01*
X135838172Y-111300485D01*
X135686733Y-111377647D01*
X135648286Y-111405581D01*
X135525582Y-111494731D01*
X135525580Y-111494733D01*
X135525579Y-111494733D01*
X135384733Y-111635579D01*
X135384733Y-111635580D01*
X135384731Y-111635582D01*
X135334447Y-111704790D01*
X135267647Y-111796733D01*
X135177213Y-111974219D01*
X135115661Y-112163656D01*
X135115661Y-112163659D01*
X135084500Y-112360403D01*
X135084500Y-112559596D01*
X135115661Y-112756340D01*
X135115661Y-112756343D01*
X135177213Y-112945780D01*
X135267514Y-113123005D01*
X135267647Y-113123266D01*
X135384731Y-113284418D01*
X135525582Y-113425269D01*
X135686734Y-113542353D01*
X135776909Y-113588299D01*
X135838722Y-113619795D01*
X135889518Y-113667770D01*
X135906313Y-113735591D01*
X135883776Y-113801726D01*
X135838723Y-113840764D01*
X135686993Y-113918075D01*
X135649135Y-113945580D01*
X135649135Y-113945581D01*
X136212425Y-114508871D01*
X136153147Y-114524755D01*
X136036853Y-114591898D01*
X135941898Y-114686853D01*
X135874755Y-114803147D01*
X135858871Y-114862425D01*
X135295581Y-114299135D01*
X135295580Y-114299135D01*
X135268077Y-114336990D01*
X135177679Y-114514405D01*
X135116147Y-114703777D01*
X135085000Y-114900436D01*
X135085000Y-115099563D01*
X135116147Y-115296222D01*
X135177679Y-115485594D01*
X135268077Y-115663008D01*
X135295580Y-115700863D01*
X135295581Y-115700864D01*
X135858871Y-115137574D01*
X135874755Y-115196853D01*
X135941898Y-115313147D01*
X136036853Y-115408102D01*
X136153147Y-115475245D01*
X136212425Y-115491128D01*
X135649134Y-116054417D01*
X135686994Y-116081924D01*
X135864405Y-116172320D01*
X136053777Y-116233852D01*
X136250437Y-116265000D01*
X136449563Y-116265000D01*
X136646222Y-116233852D01*
X136835594Y-116172320D01*
X137013005Y-116081924D01*
X137050863Y-116054418D01*
X137050863Y-116054417D01*
X136487574Y-115491128D01*
X136546853Y-115475245D01*
X136663147Y-115408102D01*
X136758102Y-115313147D01*
X136825245Y-115196853D01*
X136841128Y-115137574D01*
X137404417Y-115700863D01*
X137404418Y-115700863D01*
X137431924Y-115663005D01*
X137522320Y-115485594D01*
X137583852Y-115296222D01*
X137615000Y-115099563D01*
X137615000Y-114900436D01*
X137583852Y-114703777D01*
X137522320Y-114514405D01*
X137431924Y-114336994D01*
X137404417Y-114299135D01*
X137404417Y-114299134D01*
X136841128Y-114862424D01*
X136825245Y-114803147D01*
X136758102Y-114686853D01*
X136663147Y-114591898D01*
X136546853Y-114524755D01*
X136487574Y-114508871D01*
X137050864Y-113945581D01*
X137050863Y-113945580D01*
X137013008Y-113918077D01*
X136861277Y-113840765D01*
X136810481Y-113792790D01*
X136793686Y-113724969D01*
X136816224Y-113658834D01*
X136861277Y-113619795D01*
X136861827Y-113619515D01*
X137013266Y-113542353D01*
X137174418Y-113425269D01*
X137315269Y-113284418D01*
X137432353Y-113123266D01*
X137522785Y-112945783D01*
X137584339Y-112756339D01*
X137615500Y-112559597D01*
X137615500Y-112360403D01*
X137584339Y-112163661D01*
X137584338Y-112163657D01*
X137584338Y-112163656D01*
X137522786Y-111974219D01*
X137432486Y-111796996D01*
X137432353Y-111796734D01*
X137315269Y-111635582D01*
X137174418Y-111494731D01*
X137013266Y-111377647D01*
X136861827Y-111300485D01*
X136811031Y-111252510D01*
X136794236Y-111184689D01*
X136816773Y-111118554D01*
X136861827Y-111079515D01*
X136871116Y-111074781D01*
X137013266Y-111002353D01*
X137174418Y-110885269D01*
X137315269Y-110744418D01*
X137432353Y-110583266D01*
X137522785Y-110405783D01*
X137530827Y-110381031D01*
X137584338Y-110216343D01*
X137584338Y-110216342D01*
X137584339Y-110216339D01*
X137615500Y-110019597D01*
X137615500Y-109820403D01*
X137584339Y-109623661D01*
X137584338Y-109623657D01*
X137584338Y-109623656D01*
X137522786Y-109434219D01*
X137509514Y-109408172D01*
X137432353Y-109256734D01*
X137315269Y-109095582D01*
X137174418Y-108954731D01*
X137013266Y-108837647D01*
X136861827Y-108760485D01*
X136811031Y-108712510D01*
X136794236Y-108644689D01*
X136816773Y-108578554D01*
X136861827Y-108539515D01*
X136875608Y-108532493D01*
X137013266Y-108462353D01*
X137174418Y-108345269D01*
X137315269Y-108204418D01*
X137432353Y-108043266D01*
X137522785Y-107865783D01*
X137534997Y-107828199D01*
X137584338Y-107676343D01*
X137584338Y-107676342D01*
X137584339Y-107676339D01*
X137615500Y-107479597D01*
X137615500Y-107280403D01*
X137584339Y-107083661D01*
X137584338Y-107083657D01*
X137584338Y-107083656D01*
X137522786Y-106894219D01*
X137509514Y-106868172D01*
X137432353Y-106716734D01*
X137315269Y-106555582D01*
X137174418Y-106414731D01*
X137013266Y-106297647D01*
X136861827Y-106220485D01*
X136811031Y-106172510D01*
X136794236Y-106104689D01*
X136816773Y-106038554D01*
X136861827Y-105999515D01*
X136871116Y-105994781D01*
X137013266Y-105922353D01*
X137174418Y-105805269D01*
X137315269Y-105664418D01*
X137432353Y-105503266D01*
X137522785Y-105325783D01*
X137535140Y-105287758D01*
X137584338Y-105136343D01*
X137584338Y-105136342D01*
X137584339Y-105136339D01*
X137615500Y-104939597D01*
X137615500Y-104740403D01*
X137584339Y-104543661D01*
X137584338Y-104543657D01*
X137584338Y-104543656D01*
X137522786Y-104354219D01*
X137439203Y-104190178D01*
X137432353Y-104176734D01*
X137315269Y-104015582D01*
X137174418Y-103874731D01*
X137013266Y-103757647D01*
X136861827Y-103680485D01*
X136811031Y-103632510D01*
X136794236Y-103564689D01*
X136816773Y-103498554D01*
X136861827Y-103459515D01*
X136898341Y-103440910D01*
X137013266Y-103382353D01*
X137174418Y-103265269D01*
X137315269Y-103124418D01*
X137432353Y-102963266D01*
X137522785Y-102785783D01*
X137530827Y-102761031D01*
X137584338Y-102596343D01*
X137584338Y-102596342D01*
X137584339Y-102596339D01*
X137615500Y-102399597D01*
X137615500Y-102200403D01*
X137584339Y-102003661D01*
X137584338Y-102003657D01*
X137584338Y-102003656D01*
X137522786Y-101814219D01*
X137477622Y-101725580D01*
X137432353Y-101636734D01*
X137315269Y-101475582D01*
X137174418Y-101334731D01*
X137013266Y-101217647D01*
X136861827Y-101140485D01*
X136811031Y-101092510D01*
X136794236Y-101024689D01*
X136816773Y-100958554D01*
X136861827Y-100919515D01*
X136883771Y-100908334D01*
X137013266Y-100842353D01*
X137174418Y-100725269D01*
X137315269Y-100584418D01*
X137432353Y-100423266D01*
X137522785Y-100245783D01*
X137535140Y-100207758D01*
X137584338Y-100056343D01*
X137584338Y-100056342D01*
X137584339Y-100056339D01*
X137615500Y-99859597D01*
X137615500Y-99660403D01*
X137584339Y-99463661D01*
X137584338Y-99463657D01*
X137584338Y-99463656D01*
X137522786Y-99274219D01*
X137509514Y-99248172D01*
X137432353Y-99096734D01*
X137315269Y-98935582D01*
X137174418Y-98794731D01*
X137013266Y-98677647D01*
X136861827Y-98600485D01*
X136811031Y-98552510D01*
X136794236Y-98484689D01*
X136816773Y-98418554D01*
X136861827Y-98379515D01*
X136871116Y-98374781D01*
X137013266Y-98302353D01*
X137174418Y-98185269D01*
X137315269Y-98044418D01*
X137432353Y-97883266D01*
X137522785Y-97705783D01*
X137530827Y-97681031D01*
X137584338Y-97516343D01*
X137584338Y-97516342D01*
X137584339Y-97516339D01*
X137615500Y-97319597D01*
X137615500Y-97120403D01*
X137584339Y-96923661D01*
X137584338Y-96923657D01*
X137584338Y-96923656D01*
X137522786Y-96734219D01*
X137432352Y-96556733D01*
X137315269Y-96395582D01*
X137174418Y-96254731D01*
X137013266Y-96137647D01*
X136861827Y-96060485D01*
X136811031Y-96012510D01*
X136794236Y-95944689D01*
X136816773Y-95878554D01*
X136861827Y-95839515D01*
X136871116Y-95834781D01*
X137013266Y-95762353D01*
X137174418Y-95645269D01*
X137315269Y-95504418D01*
X137432353Y-95343266D01*
X137522785Y-95165783D01*
X137535140Y-95127758D01*
X137584338Y-94976343D01*
X137584338Y-94976342D01*
X137584339Y-94976339D01*
X137615500Y-94779597D01*
X137615500Y-94580403D01*
X137584339Y-94383661D01*
X137584338Y-94383657D01*
X137584338Y-94383656D01*
X137522786Y-94194219D01*
X137432352Y-94016733D01*
X137315269Y-93855582D01*
X137174418Y-93714731D01*
X137013266Y-93597647D01*
X136861827Y-93520485D01*
X136811031Y-93472510D01*
X136794236Y-93404689D01*
X136816773Y-93338554D01*
X136861827Y-93299515D01*
X136901008Y-93279551D01*
X137013266Y-93222353D01*
X137174418Y-93105269D01*
X137315269Y-92964418D01*
X137432353Y-92803266D01*
X137522785Y-92625783D01*
X137531162Y-92600000D01*
X137584338Y-92436343D01*
X137584338Y-92436342D01*
X137584339Y-92436339D01*
X137615500Y-92239597D01*
X137615500Y-92040403D01*
X137584339Y-91843661D01*
X137584338Y-91843657D01*
X137584338Y-91843656D01*
X137522786Y-91654219D01*
X137509514Y-91628172D01*
X137432353Y-91476734D01*
X137315269Y-91315582D01*
X137174418Y-91174731D01*
X137013266Y-91057647D01*
X136861827Y-90980485D01*
X136811031Y-90932510D01*
X136794236Y-90864689D01*
X136816773Y-90798554D01*
X136861827Y-90759515D01*
X136871116Y-90754781D01*
X137013266Y-90682353D01*
X137174418Y-90565269D01*
X137315269Y-90424418D01*
X137432353Y-90263266D01*
X137522785Y-90085783D01*
X137535140Y-90047758D01*
X137584338Y-89896343D01*
X137584338Y-89896342D01*
X137584339Y-89896339D01*
X137615500Y-89699597D01*
X137615500Y-89500403D01*
X137584339Y-89303661D01*
X137584338Y-89303657D01*
X137584338Y-89303656D01*
X137522786Y-89114219D01*
X137509514Y-89088172D01*
X137432353Y-88936734D01*
X137315269Y-88775582D01*
X137174418Y-88634731D01*
X137013266Y-88517647D01*
X136861827Y-88440485D01*
X136811031Y-88392510D01*
X136794236Y-88324689D01*
X136816773Y-88258554D01*
X136861827Y-88219515D01*
X136871116Y-88214781D01*
X137013266Y-88142353D01*
X137174418Y-88025269D01*
X137315269Y-87884418D01*
X137432353Y-87723266D01*
X137522785Y-87545783D01*
X137535140Y-87507758D01*
X137584338Y-87356343D01*
X137584338Y-87356342D01*
X137584339Y-87356339D01*
X137615500Y-87159597D01*
X137615500Y-86960403D01*
X137584339Y-86763661D01*
X137584338Y-86763657D01*
X137584338Y-86763656D01*
X137522786Y-86574219D01*
X137467738Y-86466181D01*
X137432353Y-86396734D01*
X137315269Y-86235582D01*
X137174418Y-86094731D01*
X137013266Y-85977647D01*
X136861827Y-85900485D01*
X136811031Y-85852510D01*
X136794236Y-85784689D01*
X136816773Y-85718554D01*
X136861827Y-85679515D01*
X136907416Y-85656286D01*
X137013266Y-85602353D01*
X137174418Y-85485269D01*
X137315269Y-85344418D01*
X137432353Y-85183266D01*
X137522785Y-85005783D01*
X137535140Y-84967758D01*
X137584338Y-84816343D01*
X137584338Y-84816342D01*
X137584339Y-84816339D01*
X137614567Y-84625487D01*
X156874500Y-84625487D01*
X156874500Y-84628529D01*
X156874500Y-93031611D01*
X156898535Y-93152444D01*
X156898540Y-93152461D01*
X156945685Y-93266280D01*
X156945687Y-93266283D01*
X156945688Y-93266286D01*
X156976268Y-93312051D01*
X157014142Y-93368733D01*
X157101267Y-93455858D01*
X157101270Y-93455860D01*
X157108724Y-93463314D01*
X157938287Y-94292877D01*
X157971772Y-94354200D01*
X157973079Y-94399955D01*
X157944500Y-94580402D01*
X157944500Y-94779596D01*
X157975661Y-94976340D01*
X157975661Y-94976343D01*
X158037213Y-95165780D01*
X158050485Y-95191827D01*
X158127647Y-95343266D01*
X158244731Y-95504418D01*
X158385582Y-95645269D01*
X158546734Y-95762353D01*
X158616453Y-95797877D01*
X158698172Y-95839515D01*
X158748968Y-95887490D01*
X158765763Y-95955311D01*
X158743225Y-96021446D01*
X158698172Y-96060485D01*
X158546733Y-96137647D01*
X158454790Y-96204447D01*
X158385582Y-96254731D01*
X158385580Y-96254733D01*
X158385579Y-96254733D01*
X158244733Y-96395579D01*
X158244733Y-96395580D01*
X158244731Y-96395582D01*
X158194447Y-96464790D01*
X158127647Y-96556733D01*
X158037213Y-96734219D01*
X157975661Y-96923656D01*
X157975661Y-96923659D01*
X157944500Y-97120403D01*
X157944500Y-97319596D01*
X157975661Y-97516340D01*
X157975661Y-97516343D01*
X158037213Y-97705780D01*
X158037215Y-97705783D01*
X158127647Y-97883266D01*
X158244731Y-98044418D01*
X158385582Y-98185269D01*
X158546734Y-98302353D01*
X158616453Y-98337877D01*
X158698172Y-98379515D01*
X158748968Y-98427490D01*
X158765763Y-98495311D01*
X158743225Y-98561446D01*
X158698172Y-98600485D01*
X158546733Y-98677647D01*
X158454790Y-98744447D01*
X158385582Y-98794731D01*
X158385580Y-98794733D01*
X158385579Y-98794733D01*
X158244733Y-98935579D01*
X158244733Y-98935580D01*
X158244731Y-98935582D01*
X158194447Y-99004790D01*
X158127647Y-99096733D01*
X158037213Y-99274219D01*
X157975661Y-99463656D01*
X157975661Y-99463659D01*
X157944500Y-99660403D01*
X157944500Y-99859596D01*
X157975661Y-100056340D01*
X157975661Y-100056343D01*
X158037213Y-100245780D01*
X158050485Y-100271827D01*
X158127647Y-100423266D01*
X158244731Y-100584418D01*
X158385582Y-100725269D01*
X158546734Y-100842353D01*
X158600963Y-100869984D01*
X158698172Y-100919515D01*
X158748968Y-100967490D01*
X158765763Y-101035311D01*
X158743225Y-101101446D01*
X158698172Y-101140485D01*
X158546733Y-101217647D01*
X158454790Y-101284447D01*
X158385582Y-101334731D01*
X158385580Y-101334733D01*
X158385579Y-101334733D01*
X158244733Y-101475579D01*
X158244733Y-101475580D01*
X158244731Y-101475582D01*
X158226685Y-101500420D01*
X158127647Y-101636733D01*
X158037213Y-101814219D01*
X157975661Y-102003656D01*
X157975661Y-102003659D01*
X157944500Y-102200403D01*
X157944500Y-102399596D01*
X157975661Y-102596340D01*
X157975661Y-102596343D01*
X158037213Y-102785780D01*
X158037215Y-102785783D01*
X158127647Y-102963266D01*
X158244731Y-103124418D01*
X158385582Y-103265269D01*
X158546734Y-103382353D01*
X158612586Y-103415906D01*
X158698172Y-103459515D01*
X158748968Y-103507490D01*
X158765763Y-103575311D01*
X158743225Y-103641446D01*
X158698172Y-103680485D01*
X158546733Y-103757647D01*
X158454790Y-103824447D01*
X158385582Y-103874731D01*
X158385580Y-103874733D01*
X158385579Y-103874733D01*
X158244733Y-104015579D01*
X158244733Y-104015580D01*
X158244731Y-104015582D01*
X158244729Y-104015585D01*
X158127647Y-104176733D01*
X158037213Y-104354219D01*
X157975661Y-104543656D01*
X157975661Y-104543659D01*
X157944500Y-104740403D01*
X157944500Y-104939596D01*
X157975661Y-105136340D01*
X157975661Y-105136343D01*
X158037213Y-105325780D01*
X158050485Y-105351827D01*
X158127647Y-105503266D01*
X158244731Y-105664418D01*
X158385582Y-105805269D01*
X158546734Y-105922353D01*
X158616453Y-105957877D01*
X158698172Y-105999515D01*
X158748968Y-106047490D01*
X158765763Y-106115311D01*
X158743225Y-106181446D01*
X158698172Y-106220485D01*
X158546733Y-106297647D01*
X158454790Y-106364447D01*
X158385582Y-106414731D01*
X158385580Y-106414733D01*
X158385579Y-106414733D01*
X158244733Y-106555579D01*
X158244733Y-106555580D01*
X158244731Y-106555582D01*
X158227925Y-106578714D01*
X158127647Y-106716733D01*
X158037213Y-106894219D01*
X157975661Y-107083656D01*
X157975661Y-107083659D01*
X157947814Y-107259479D01*
X157944500Y-107280403D01*
X157944500Y-107479597D01*
X157949204Y-107509294D01*
X157975661Y-107676340D01*
X157975661Y-107676343D01*
X158037213Y-107865780D01*
X158088618Y-107966667D01*
X158127647Y-108043266D01*
X158244731Y-108204418D01*
X158385582Y-108345269D01*
X158546734Y-108462353D01*
X158616453Y-108497877D01*
X158698172Y-108539515D01*
X158748968Y-108587490D01*
X158765763Y-108655311D01*
X158743225Y-108721446D01*
X158698172Y-108760485D01*
X158546733Y-108837647D01*
X158506655Y-108866766D01*
X158385582Y-108954731D01*
X158385580Y-108954733D01*
X158385579Y-108954733D01*
X158244733Y-109095579D01*
X158244733Y-109095580D01*
X158244731Y-109095582D01*
X158194447Y-109164790D01*
X158127647Y-109256733D01*
X158037213Y-109434219D01*
X157975661Y-109623656D01*
X157975661Y-109623659D01*
X157944500Y-109820403D01*
X157944500Y-110019596D01*
X157975661Y-110216340D01*
X157975661Y-110216343D01*
X158037213Y-110405780D01*
X158037215Y-110405783D01*
X158127647Y-110583266D01*
X158244731Y-110744418D01*
X158385582Y-110885269D01*
X158546734Y-111002353D01*
X158636909Y-111048299D01*
X158698722Y-111079795D01*
X158749518Y-111127770D01*
X158766313Y-111195591D01*
X158743776Y-111261726D01*
X158698723Y-111300764D01*
X158546993Y-111378075D01*
X158509135Y-111405580D01*
X158509135Y-111405581D01*
X159072425Y-111968871D01*
X159013147Y-111984755D01*
X158896853Y-112051898D01*
X158801898Y-112146853D01*
X158734755Y-112263147D01*
X158718871Y-112322425D01*
X158155581Y-111759135D01*
X158155580Y-111759135D01*
X158128077Y-111796990D01*
X158037679Y-111974405D01*
X157976147Y-112163777D01*
X157945000Y-112360436D01*
X157945000Y-112559563D01*
X157976147Y-112756222D01*
X158037679Y-112945594D01*
X158128077Y-113123008D01*
X158155580Y-113160863D01*
X158155581Y-113160864D01*
X158718871Y-112597574D01*
X158734755Y-112656853D01*
X158801898Y-112773147D01*
X158896853Y-112868102D01*
X159013147Y-112935245D01*
X159072425Y-112951128D01*
X158509134Y-113514417D01*
X158546999Y-113541928D01*
X158699272Y-113619516D01*
X158750068Y-113667490D01*
X158766863Y-113735311D01*
X158744325Y-113801446D01*
X158699272Y-113840484D01*
X158546996Y-113918073D01*
X158546995Y-113918074D01*
X158509135Y-113945580D01*
X158509135Y-113945581D01*
X159072425Y-114508871D01*
X159013147Y-114524755D01*
X158896853Y-114591898D01*
X158801898Y-114686853D01*
X158734755Y-114803147D01*
X158718871Y-114862425D01*
X158155581Y-114299135D01*
X158155580Y-114299135D01*
X158128077Y-114336990D01*
X158037679Y-114514405D01*
X157976147Y-114703777D01*
X157945000Y-114900436D01*
X157945000Y-115099563D01*
X157976147Y-115296222D01*
X158037679Y-115485594D01*
X158128077Y-115663008D01*
X158155580Y-115700863D01*
X158155581Y-115700864D01*
X158718871Y-115137574D01*
X158734755Y-115196853D01*
X158801898Y-115313147D01*
X158896853Y-115408102D01*
X159013147Y-115475245D01*
X159072425Y-115491128D01*
X158509134Y-116054417D01*
X158546994Y-116081924D01*
X158724405Y-116172320D01*
X158913777Y-116233852D01*
X159110437Y-116265000D01*
X159309563Y-116265000D01*
X159506222Y-116233852D01*
X159695594Y-116172320D01*
X159873005Y-116081924D01*
X159910863Y-116054418D01*
X159910863Y-116054417D01*
X159347574Y-115491128D01*
X159406853Y-115475245D01*
X159523147Y-115408102D01*
X159618102Y-115313147D01*
X159685245Y-115196853D01*
X159701128Y-115137574D01*
X160264417Y-115700863D01*
X160264418Y-115700863D01*
X160291924Y-115663005D01*
X160369515Y-115510727D01*
X160417490Y-115459931D01*
X160485311Y-115443136D01*
X160551446Y-115465674D01*
X160590485Y-115510727D01*
X160668077Y-115663008D01*
X160695580Y-115700863D01*
X160695581Y-115700864D01*
X161258871Y-115137574D01*
X161274755Y-115196853D01*
X161341898Y-115313147D01*
X161436853Y-115408102D01*
X161553147Y-115475245D01*
X161612425Y-115491128D01*
X161049134Y-116054417D01*
X161086994Y-116081924D01*
X161264405Y-116172320D01*
X161453777Y-116233852D01*
X161650437Y-116265000D01*
X161849563Y-116265000D01*
X162046222Y-116233852D01*
X162235594Y-116172320D01*
X162413005Y-116081924D01*
X162450863Y-116054418D01*
X162450863Y-116054417D01*
X161887574Y-115491128D01*
X161946853Y-115475245D01*
X162063147Y-115408102D01*
X162158102Y-115313147D01*
X162225245Y-115196853D01*
X162241128Y-115137574D01*
X162804417Y-115700863D01*
X162804418Y-115700863D01*
X162831924Y-115663005D01*
X162922320Y-115485594D01*
X162983852Y-115296222D01*
X163015000Y-115099563D01*
X163015000Y-114900436D01*
X162983852Y-114703777D01*
X162922320Y-114514405D01*
X162831924Y-114336994D01*
X162804417Y-114299135D01*
X162804417Y-114299134D01*
X162241128Y-114862424D01*
X162225245Y-114803147D01*
X162158102Y-114686853D01*
X162063147Y-114591898D01*
X161946853Y-114524755D01*
X161887574Y-114508871D01*
X162450864Y-113945581D01*
X162450863Y-113945580D01*
X162413008Y-113918077D01*
X162260727Y-113840485D01*
X162209931Y-113792510D01*
X162193136Y-113724689D01*
X162215674Y-113658554D01*
X162260727Y-113619515D01*
X162413005Y-113541924D01*
X162450863Y-113514418D01*
X162450863Y-113514417D01*
X161887574Y-112951128D01*
X161946853Y-112935245D01*
X162063147Y-112868102D01*
X162158102Y-112773147D01*
X162225245Y-112656853D01*
X162241128Y-112597574D01*
X162804417Y-113160863D01*
X162804418Y-113160863D01*
X162831924Y-113123005D01*
X162922320Y-112945594D01*
X162983852Y-112756222D01*
X163015000Y-112559563D01*
X163015000Y-112360436D01*
X162983852Y-112163777D01*
X162922320Y-111974405D01*
X162831924Y-111796994D01*
X162804417Y-111759135D01*
X162804417Y-111759134D01*
X162241128Y-112322424D01*
X162225245Y-112263147D01*
X162158102Y-112146853D01*
X162063147Y-112051898D01*
X161946853Y-111984755D01*
X161887574Y-111968871D01*
X162450864Y-111405581D01*
X162450863Y-111405580D01*
X162413008Y-111378077D01*
X162261277Y-111300765D01*
X162210481Y-111252790D01*
X162193686Y-111184969D01*
X162216224Y-111118834D01*
X162261277Y-111079795D01*
X162261827Y-111079515D01*
X162413266Y-111002353D01*
X162574418Y-110885269D01*
X162715269Y-110744418D01*
X162832353Y-110583266D01*
X162922785Y-110405783D01*
X162930827Y-110381031D01*
X162984338Y-110216343D01*
X162984338Y-110216342D01*
X162984339Y-110216339D01*
X163015500Y-110019597D01*
X163015500Y-109820403D01*
X162984339Y-109623661D01*
X162984338Y-109623657D01*
X162984338Y-109623656D01*
X162922786Y-109434219D01*
X162909514Y-109408172D01*
X162832353Y-109256734D01*
X162715269Y-109095582D01*
X162574418Y-108954731D01*
X162413266Y-108837647D01*
X162261827Y-108760485D01*
X162211031Y-108712510D01*
X162194236Y-108644689D01*
X162216773Y-108578554D01*
X162261827Y-108539515D01*
X162275608Y-108532493D01*
X162413266Y-108462353D01*
X162574418Y-108345269D01*
X162715269Y-108204418D01*
X162832353Y-108043266D01*
X162922785Y-107865783D01*
X162934997Y-107828199D01*
X162984338Y-107676343D01*
X162984338Y-107676342D01*
X162984339Y-107676339D01*
X163015500Y-107479597D01*
X163015500Y-107280403D01*
X162984339Y-107083661D01*
X162984338Y-107083657D01*
X162984338Y-107083656D01*
X162922786Y-106894219D01*
X162909514Y-106868172D01*
X162832353Y-106716734D01*
X162715269Y-106555582D01*
X162574418Y-106414731D01*
X162413266Y-106297647D01*
X162261827Y-106220485D01*
X162211031Y-106172510D01*
X162194236Y-106104689D01*
X162216773Y-106038554D01*
X162261827Y-105999515D01*
X162271116Y-105994781D01*
X162413266Y-105922353D01*
X162574418Y-105805269D01*
X162715269Y-105664418D01*
X162832353Y-105503266D01*
X162922785Y-105325783D01*
X162935140Y-105287758D01*
X162984338Y-105136343D01*
X162984338Y-105136342D01*
X162984339Y-105136339D01*
X163015500Y-104939597D01*
X163015500Y-104740403D01*
X162984339Y-104543661D01*
X162984338Y-104543657D01*
X162984338Y-104543656D01*
X162922786Y-104354219D01*
X162839203Y-104190178D01*
X162832353Y-104176734D01*
X162715269Y-104015582D01*
X162574418Y-103874731D01*
X162413266Y-103757647D01*
X162261827Y-103680485D01*
X162211031Y-103632510D01*
X162194236Y-103564689D01*
X162216773Y-103498554D01*
X162261827Y-103459515D01*
X162298341Y-103440910D01*
X162413266Y-103382353D01*
X162574418Y-103265269D01*
X162715269Y-103124418D01*
X162832353Y-102963266D01*
X162922785Y-102785783D01*
X162930827Y-102761031D01*
X162984338Y-102596343D01*
X162984338Y-102596342D01*
X162984339Y-102596339D01*
X163015500Y-102399597D01*
X163015500Y-102200403D01*
X162984339Y-102003661D01*
X162984338Y-102003657D01*
X162984338Y-102003656D01*
X162922786Y-101814219D01*
X162877622Y-101725580D01*
X162832353Y-101636734D01*
X162715269Y-101475582D01*
X162574418Y-101334731D01*
X162413266Y-101217647D01*
X162261827Y-101140485D01*
X162211031Y-101092510D01*
X162194236Y-101024689D01*
X162216773Y-100958554D01*
X162261827Y-100919515D01*
X162283771Y-100908334D01*
X162413266Y-100842353D01*
X162574418Y-100725269D01*
X162715269Y-100584418D01*
X162832353Y-100423266D01*
X162922785Y-100245783D01*
X162935140Y-100207758D01*
X162984338Y-100056343D01*
X162984338Y-100056342D01*
X162984339Y-100056339D01*
X163015500Y-99859597D01*
X163015500Y-99660403D01*
X162984339Y-99463661D01*
X162984338Y-99463657D01*
X162984338Y-99463656D01*
X162922786Y-99274219D01*
X162909514Y-99248172D01*
X162832353Y-99096734D01*
X162715269Y-98935582D01*
X162574418Y-98794731D01*
X162413266Y-98677647D01*
X162261827Y-98600485D01*
X162211031Y-98552510D01*
X162194236Y-98484689D01*
X162216773Y-98418554D01*
X162261827Y-98379515D01*
X162271116Y-98374781D01*
X162413266Y-98302353D01*
X162574418Y-98185269D01*
X162715269Y-98044418D01*
X162832353Y-97883266D01*
X162922785Y-97705783D01*
X162930827Y-97681031D01*
X162984338Y-97516343D01*
X162984338Y-97516342D01*
X162984339Y-97516339D01*
X163015500Y-97319597D01*
X163015500Y-97120403D01*
X162984339Y-96923661D01*
X162984338Y-96923657D01*
X162984338Y-96923656D01*
X162922786Y-96734219D01*
X162832352Y-96556733D01*
X162715269Y-96395582D01*
X162574418Y-96254731D01*
X162413266Y-96137647D01*
X162261827Y-96060485D01*
X162211031Y-96012510D01*
X162194236Y-95944689D01*
X162216773Y-95878554D01*
X162261827Y-95839515D01*
X162271116Y-95834781D01*
X162413266Y-95762353D01*
X162574418Y-95645269D01*
X162715269Y-95504418D01*
X162832353Y-95343266D01*
X162922785Y-95165783D01*
X162935140Y-95127758D01*
X162984338Y-94976343D01*
X162984338Y-94976342D01*
X162984339Y-94976339D01*
X163015500Y-94779597D01*
X163015500Y-94580403D01*
X162984339Y-94383661D01*
X162984338Y-94383657D01*
X162984338Y-94383656D01*
X162922786Y-94194219D01*
X162832352Y-94016733D01*
X162715269Y-93855582D01*
X162574418Y-93714731D01*
X162413266Y-93597647D01*
X162261827Y-93520485D01*
X162211031Y-93472510D01*
X162194236Y-93404689D01*
X162216773Y-93338554D01*
X162261827Y-93299515D01*
X162301008Y-93279551D01*
X162413266Y-93222353D01*
X162574418Y-93105269D01*
X162715269Y-92964418D01*
X162832353Y-92803266D01*
X162922785Y-92625783D01*
X162931162Y-92600000D01*
X162984338Y-92436343D01*
X162984338Y-92436342D01*
X162984339Y-92436339D01*
X163015500Y-92239597D01*
X163015500Y-92040403D01*
X162984339Y-91843661D01*
X162984338Y-91843657D01*
X162984338Y-91843656D01*
X162922786Y-91654219D01*
X162909514Y-91628172D01*
X162832353Y-91476734D01*
X162715269Y-91315582D01*
X162574418Y-91174731D01*
X162413266Y-91057647D01*
X162261827Y-90980485D01*
X162211031Y-90932510D01*
X162194236Y-90864689D01*
X162216773Y-90798554D01*
X162261827Y-90759515D01*
X162271116Y-90754781D01*
X162413266Y-90682353D01*
X162574418Y-90565269D01*
X162715269Y-90424418D01*
X162832353Y-90263266D01*
X162922785Y-90085783D01*
X162935140Y-90047758D01*
X162984338Y-89896343D01*
X162984338Y-89896342D01*
X162984339Y-89896339D01*
X163015500Y-89699597D01*
X163015500Y-89500403D01*
X162984339Y-89303661D01*
X162984338Y-89303657D01*
X162984338Y-89303656D01*
X162922786Y-89114219D01*
X162909514Y-89088172D01*
X162832353Y-88936734D01*
X162715269Y-88775582D01*
X162574418Y-88634731D01*
X162413266Y-88517647D01*
X162261827Y-88440485D01*
X162211031Y-88392510D01*
X162194236Y-88324689D01*
X162216773Y-88258554D01*
X162261827Y-88219515D01*
X162271116Y-88214781D01*
X162413266Y-88142353D01*
X162574418Y-88025269D01*
X162715269Y-87884418D01*
X162832353Y-87723266D01*
X162922785Y-87545783D01*
X162935140Y-87507758D01*
X162984338Y-87356343D01*
X162984338Y-87356342D01*
X162984339Y-87356339D01*
X163015500Y-87159597D01*
X163015500Y-86960403D01*
X162984339Y-86763661D01*
X162984338Y-86763657D01*
X162984338Y-86763656D01*
X162922786Y-86574219D01*
X162867738Y-86466181D01*
X162832353Y-86396734D01*
X162715269Y-86235582D01*
X162574418Y-86094731D01*
X162413266Y-85977647D01*
X162261827Y-85900485D01*
X162211031Y-85852510D01*
X162194236Y-85784689D01*
X162216773Y-85718554D01*
X162261827Y-85679515D01*
X162307416Y-85656286D01*
X162413266Y-85602353D01*
X162574418Y-85485269D01*
X162715269Y-85344418D01*
X162822655Y-85196613D01*
X162877985Y-85153949D01*
X162922973Y-85145500D01*
X163234548Y-85145500D01*
X163301587Y-85165185D01*
X163322229Y-85181819D01*
X165088181Y-86947771D01*
X165121666Y-87009094D01*
X165124500Y-87035452D01*
X165124500Y-103761611D01*
X165148535Y-103882444D01*
X165148540Y-103882461D01*
X165195684Y-103996278D01*
X165195687Y-103996285D01*
X165208583Y-104015583D01*
X165208584Y-104015585D01*
X165264141Y-104098732D01*
X165264144Y-104098736D01*
X165355586Y-104190178D01*
X165355608Y-104190198D01*
X168123664Y-106958254D01*
X168157149Y-107019577D01*
X168152165Y-107089269D01*
X168110293Y-107145202D01*
X168074302Y-107163865D01*
X167916588Y-107215110D01*
X167916585Y-107215111D01*
X167727179Y-107311618D01*
X167555213Y-107436557D01*
X167404890Y-107586880D01*
X167279951Y-107758846D01*
X167183444Y-107948252D01*
X167117753Y-108150427D01*
X167084500Y-108360380D01*
X167084500Y-108572953D01*
X167106603Y-108712510D01*
X167117754Y-108782910D01*
X167173582Y-108954731D01*
X167183444Y-108985081D01*
X167279951Y-109174487D01*
X167404890Y-109346453D01*
X167555213Y-109496776D01*
X167727179Y-109621715D01*
X167727181Y-109621716D01*
X167727184Y-109621718D01*
X167916588Y-109718224D01*
X168118757Y-109783913D01*
X168328713Y-109817167D01*
X168328714Y-109817167D01*
X168541286Y-109817167D01*
X168541287Y-109817167D01*
X168751243Y-109783913D01*
X168953412Y-109718224D01*
X169142816Y-109621718D01*
X169229478Y-109558755D01*
X169314786Y-109496776D01*
X169314788Y-109496773D01*
X169314792Y-109496771D01*
X169465104Y-109346459D01*
X169465106Y-109346455D01*
X169465109Y-109346453D01*
X169590048Y-109174487D01*
X169590047Y-109174487D01*
X169590051Y-109174483D01*
X169594514Y-109165721D01*
X169642488Y-109114926D01*
X169710308Y-109098130D01*
X169776444Y-109120666D01*
X169815486Y-109165723D01*
X169819951Y-109174487D01*
X169944890Y-109346453D01*
X170095213Y-109496776D01*
X170267179Y-109621715D01*
X170267181Y-109621716D01*
X170267184Y-109621718D01*
X170456588Y-109718224D01*
X170658757Y-109783913D01*
X170868713Y-109817167D01*
X170868714Y-109817167D01*
X171081286Y-109817167D01*
X171081287Y-109817167D01*
X171291243Y-109783913D01*
X171493412Y-109718224D01*
X171682816Y-109621718D01*
X171769478Y-109558755D01*
X171854786Y-109496776D01*
X171854788Y-109496773D01*
X171854792Y-109496771D01*
X172005104Y-109346459D01*
X172005106Y-109346455D01*
X172005109Y-109346453D01*
X172130048Y-109174487D01*
X172130047Y-109174487D01*
X172130051Y-109174483D01*
X172134514Y-109165721D01*
X172182488Y-109114926D01*
X172250308Y-109098130D01*
X172316444Y-109120666D01*
X172355486Y-109165723D01*
X172359951Y-109174487D01*
X172484890Y-109346453D01*
X172635213Y-109496776D01*
X172807179Y-109621715D01*
X172807181Y-109621716D01*
X172807184Y-109621718D01*
X172996588Y-109718224D01*
X173198757Y-109783913D01*
X173408713Y-109817167D01*
X173408714Y-109817167D01*
X173621286Y-109817167D01*
X173621287Y-109817167D01*
X173831243Y-109783913D01*
X174033412Y-109718224D01*
X174222816Y-109621718D01*
X174309478Y-109558755D01*
X174394784Y-109496777D01*
X174394784Y-109496776D01*
X174394792Y-109496771D01*
X174508717Y-109382845D01*
X174570036Y-109349363D01*
X174639728Y-109354347D01*
X174695662Y-109396218D01*
X174712577Y-109427195D01*
X174761646Y-109558755D01*
X174761649Y-109558760D01*
X174847809Y-109673854D01*
X174847812Y-109673857D01*
X174962906Y-109760017D01*
X174962913Y-109760021D01*
X175097620Y-109810263D01*
X175097627Y-109810265D01*
X175157155Y-109816666D01*
X175157172Y-109816667D01*
X175805000Y-109816667D01*
X175805000Y-108899679D01*
X175862007Y-108932592D01*
X175989174Y-108966667D01*
X176120826Y-108966667D01*
X176247993Y-108932592D01*
X176305000Y-108899679D01*
X176305000Y-109816667D01*
X176952828Y-109816667D01*
X176952844Y-109816666D01*
X177012372Y-109810265D01*
X177012379Y-109810263D01*
X177147086Y-109760021D01*
X177147093Y-109760017D01*
X177262187Y-109673857D01*
X177262190Y-109673854D01*
X177348350Y-109558760D01*
X177348354Y-109558753D01*
X177398596Y-109424046D01*
X177398598Y-109424039D01*
X177404999Y-109364511D01*
X177405000Y-109364494D01*
X177405000Y-108716667D01*
X176488012Y-108716667D01*
X176520925Y-108659660D01*
X176555000Y-108532493D01*
X176555000Y-108400841D01*
X176520925Y-108273674D01*
X176488012Y-108216667D01*
X177405000Y-108216667D01*
X177405000Y-107568839D01*
X177404999Y-107568822D01*
X177398598Y-107509294D01*
X177398596Y-107509287D01*
X177348354Y-107374580D01*
X177348350Y-107374573D01*
X177262190Y-107259479D01*
X177262187Y-107259476D01*
X177147093Y-107173316D01*
X177147086Y-107173312D01*
X177012379Y-107123070D01*
X177012372Y-107123068D01*
X176952844Y-107116667D01*
X176305000Y-107116667D01*
X176305000Y-108033655D01*
X176247993Y-108000742D01*
X176120826Y-107966667D01*
X175989174Y-107966667D01*
X175862007Y-108000742D01*
X175805000Y-108033655D01*
X175805000Y-107116667D01*
X175157155Y-107116667D01*
X175097627Y-107123068D01*
X175097620Y-107123070D01*
X174962913Y-107173312D01*
X174962906Y-107173316D01*
X174847812Y-107259476D01*
X174847809Y-107259479D01*
X174761649Y-107374573D01*
X174761646Y-107374579D01*
X174712577Y-107506138D01*
X174670705Y-107562071D01*
X174605241Y-107586488D01*
X174536968Y-107571636D01*
X174508714Y-107550485D01*
X174394786Y-107436557D01*
X174222820Y-107311618D01*
X174033414Y-107215111D01*
X174033413Y-107215110D01*
X174033412Y-107215110D01*
X173831243Y-107149421D01*
X173831241Y-107149420D01*
X173831240Y-107149420D01*
X173669957Y-107123875D01*
X173621287Y-107116167D01*
X173408713Y-107116167D01*
X173360042Y-107123875D01*
X173198760Y-107149420D01*
X172996585Y-107215111D01*
X172807179Y-107311618D01*
X172635213Y-107436557D01*
X172484890Y-107586880D01*
X172359949Y-107758849D01*
X172355484Y-107767613D01*
X172307509Y-107818409D01*
X172239688Y-107835203D01*
X172173553Y-107812665D01*
X172134516Y-107767613D01*
X172130050Y-107758849D01*
X172005109Y-107586880D01*
X171854786Y-107436557D01*
X171682820Y-107311618D01*
X171493414Y-107215111D01*
X171493413Y-107215110D01*
X171493412Y-107215110D01*
X171291243Y-107149421D01*
X171291241Y-107149420D01*
X171291240Y-107149420D01*
X171129957Y-107123875D01*
X171081287Y-107116167D01*
X170868713Y-107116167D01*
X170820042Y-107123875D01*
X170658760Y-107149420D01*
X170456585Y-107215111D01*
X170267179Y-107311618D01*
X170095213Y-107436557D01*
X169944890Y-107586880D01*
X169819949Y-107758849D01*
X169815484Y-107767613D01*
X169811220Y-107772127D01*
X169809486Y-107778090D01*
X169787515Y-107797226D01*
X169767509Y-107818409D01*
X169761481Y-107819901D01*
X169756799Y-107823980D01*
X169727970Y-107828199D01*
X169699688Y-107835203D01*
X169693809Y-107833199D01*
X169687666Y-107834099D01*
X169661133Y-107822064D01*
X169633553Y-107812665D01*
X169628258Y-107807152D01*
X169624036Y-107805237D01*
X169613405Y-107791687D01*
X169600856Y-107778622D01*
X169597400Y-107773274D01*
X169590051Y-107758851D01*
X169572197Y-107734277D01*
X169570356Y-107731428D01*
X169561350Y-107701046D01*
X169550702Y-107671199D01*
X169550509Y-107664472D01*
X169550500Y-107664439D01*
X169550508Y-107664410D01*
X169550500Y-107664123D01*
X169550500Y-106813396D01*
X169550500Y-106813394D01*
X169526463Y-106692548D01*
X169512652Y-106659207D01*
X169479312Y-106578714D01*
X169445084Y-106527490D01*
X169410858Y-106476267D01*
X169410856Y-106476264D01*
X169320637Y-106386045D01*
X169320606Y-106386016D01*
X166411819Y-103477229D01*
X166378334Y-103415906D01*
X166375500Y-103389548D01*
X166375500Y-100302047D01*
X167084500Y-100302047D01*
X167084500Y-100514621D01*
X167117754Y-100724577D01*
X167181093Y-100919515D01*
X167183444Y-100926748D01*
X167279951Y-101116154D01*
X167404890Y-101288120D01*
X167555213Y-101438443D01*
X167727179Y-101563382D01*
X167727181Y-101563383D01*
X167727184Y-101563385D01*
X167916588Y-101659891D01*
X168118757Y-101725580D01*
X168328713Y-101758834D01*
X168328714Y-101758834D01*
X168541286Y-101758834D01*
X168541287Y-101758834D01*
X168751243Y-101725580D01*
X168953412Y-101659891D01*
X169142816Y-101563385D01*
X169229478Y-101500422D01*
X169314786Y-101438443D01*
X169314788Y-101438440D01*
X169314792Y-101438438D01*
X169465104Y-101288126D01*
X169465106Y-101288122D01*
X169465109Y-101288120D01*
X169590048Y-101116154D01*
X169590047Y-101116154D01*
X169590051Y-101116150D01*
X169594514Y-101107388D01*
X169642488Y-101056593D01*
X169710308Y-101039797D01*
X169776444Y-101062333D01*
X169815486Y-101107390D01*
X169819951Y-101116154D01*
X169944890Y-101288120D01*
X170095213Y-101438443D01*
X170267179Y-101563382D01*
X170267181Y-101563383D01*
X170267184Y-101563385D01*
X170456588Y-101659891D01*
X170658757Y-101725580D01*
X170868713Y-101758834D01*
X170868714Y-101758834D01*
X171081286Y-101758834D01*
X171081287Y-101758834D01*
X171291243Y-101725580D01*
X171493412Y-101659891D01*
X171682816Y-101563385D01*
X171769478Y-101500422D01*
X171854786Y-101438443D01*
X171854788Y-101438440D01*
X171854792Y-101438438D01*
X172005104Y-101288126D01*
X172005106Y-101288122D01*
X172005109Y-101288120D01*
X172130048Y-101116154D01*
X172130047Y-101116154D01*
X172130051Y-101116150D01*
X172134514Y-101107388D01*
X172182488Y-101056593D01*
X172250308Y-101039797D01*
X172316444Y-101062333D01*
X172355486Y-101107390D01*
X172359951Y-101116154D01*
X172484890Y-101288120D01*
X172635213Y-101438443D01*
X172807179Y-101563382D01*
X172807181Y-101563383D01*
X172807184Y-101563385D01*
X172996588Y-101659891D01*
X173198757Y-101725580D01*
X173408713Y-101758834D01*
X173408714Y-101758834D01*
X173621286Y-101758834D01*
X173621287Y-101758834D01*
X173831243Y-101725580D01*
X174033412Y-101659891D01*
X174222816Y-101563385D01*
X174309478Y-101500422D01*
X174394784Y-101438444D01*
X174394784Y-101438443D01*
X174394792Y-101438438D01*
X174508717Y-101324512D01*
X174570036Y-101291030D01*
X174639728Y-101296014D01*
X174695662Y-101337885D01*
X174712577Y-101368862D01*
X174761646Y-101500422D01*
X174761649Y-101500427D01*
X174847809Y-101615521D01*
X174847812Y-101615524D01*
X174962906Y-101701684D01*
X174962913Y-101701688D01*
X175097620Y-101751930D01*
X175097627Y-101751932D01*
X175157155Y-101758333D01*
X175157172Y-101758334D01*
X175805000Y-101758334D01*
X175805000Y-100841346D01*
X175862007Y-100874259D01*
X175989174Y-100908334D01*
X176120826Y-100908334D01*
X176247993Y-100874259D01*
X176305000Y-100841346D01*
X176305000Y-101758334D01*
X176952828Y-101758334D01*
X176952844Y-101758333D01*
X177012372Y-101751932D01*
X177012379Y-101751930D01*
X177147086Y-101701688D01*
X177147093Y-101701684D01*
X177262187Y-101615524D01*
X177262190Y-101615521D01*
X177348350Y-101500427D01*
X177348354Y-101500420D01*
X177398596Y-101365713D01*
X177398598Y-101365706D01*
X177404999Y-101306178D01*
X177405000Y-101306161D01*
X177405000Y-100658334D01*
X176488012Y-100658334D01*
X176520925Y-100601327D01*
X176555000Y-100474160D01*
X176555000Y-100342508D01*
X176520925Y-100215341D01*
X176488012Y-100158334D01*
X177405000Y-100158334D01*
X177405000Y-99510506D01*
X177404999Y-99510489D01*
X177398598Y-99450961D01*
X177398596Y-99450954D01*
X177348354Y-99316247D01*
X177348350Y-99316240D01*
X177262190Y-99201146D01*
X177262187Y-99201143D01*
X177147093Y-99114983D01*
X177147086Y-99114979D01*
X177012379Y-99064737D01*
X177012372Y-99064735D01*
X176952844Y-99058334D01*
X176305000Y-99058334D01*
X176305000Y-99975322D01*
X176247993Y-99942409D01*
X176120826Y-99908334D01*
X175989174Y-99908334D01*
X175862007Y-99942409D01*
X175805000Y-99975322D01*
X175805000Y-99058334D01*
X175157155Y-99058334D01*
X175097627Y-99064735D01*
X175097620Y-99064737D01*
X174962913Y-99114979D01*
X174962906Y-99114983D01*
X174847812Y-99201143D01*
X174847809Y-99201146D01*
X174761649Y-99316240D01*
X174761646Y-99316246D01*
X174712577Y-99447805D01*
X174670705Y-99503738D01*
X174605241Y-99528155D01*
X174536968Y-99513303D01*
X174508714Y-99492152D01*
X174394786Y-99378224D01*
X174222820Y-99253285D01*
X174033414Y-99156778D01*
X174033413Y-99156777D01*
X174033412Y-99156777D01*
X173831243Y-99091088D01*
X173831241Y-99091087D01*
X173831240Y-99091087D01*
X173669957Y-99065542D01*
X173621287Y-99057834D01*
X173408713Y-99057834D01*
X173360042Y-99065542D01*
X173198760Y-99091087D01*
X172996585Y-99156778D01*
X172807179Y-99253285D01*
X172635213Y-99378224D01*
X172484890Y-99528547D01*
X172359949Y-99700516D01*
X172355484Y-99709280D01*
X172307509Y-99760076D01*
X172239688Y-99776870D01*
X172173553Y-99754332D01*
X172134516Y-99709280D01*
X172130050Y-99700516D01*
X172005109Y-99528547D01*
X171854786Y-99378224D01*
X171682820Y-99253285D01*
X171493414Y-99156778D01*
X171493413Y-99156777D01*
X171493412Y-99156777D01*
X171291243Y-99091088D01*
X171291241Y-99091087D01*
X171291240Y-99091087D01*
X171129957Y-99065542D01*
X171081287Y-99057834D01*
X170868713Y-99057834D01*
X170820042Y-99065542D01*
X170658760Y-99091087D01*
X170456585Y-99156778D01*
X170267179Y-99253285D01*
X170095213Y-99378224D01*
X169944890Y-99528547D01*
X169819949Y-99700516D01*
X169815484Y-99709280D01*
X169767509Y-99760076D01*
X169699688Y-99776870D01*
X169633553Y-99754332D01*
X169594516Y-99709280D01*
X169590050Y-99700516D01*
X169465109Y-99528547D01*
X169314786Y-99378224D01*
X169142820Y-99253285D01*
X168953414Y-99156778D01*
X168953413Y-99156777D01*
X168953412Y-99156777D01*
X168751243Y-99091088D01*
X168751241Y-99091087D01*
X168751240Y-99091087D01*
X168589957Y-99065542D01*
X168541287Y-99057834D01*
X168328713Y-99057834D01*
X168280042Y-99065542D01*
X168118760Y-99091087D01*
X167916585Y-99156778D01*
X167727179Y-99253285D01*
X167555213Y-99378224D01*
X167404890Y-99528547D01*
X167279951Y-99700513D01*
X167183444Y-99889919D01*
X167117753Y-100092094D01*
X167097332Y-100221031D01*
X167084500Y-100302047D01*
X166375500Y-100302047D01*
X166375500Y-92243713D01*
X167084500Y-92243713D01*
X167084500Y-92456286D01*
X167117753Y-92666239D01*
X167183444Y-92868414D01*
X167279951Y-93057820D01*
X167404890Y-93229786D01*
X167555213Y-93380109D01*
X167727179Y-93505048D01*
X167727181Y-93505049D01*
X167727184Y-93505051D01*
X167916588Y-93601557D01*
X168118757Y-93667246D01*
X168328713Y-93700500D01*
X168328714Y-93700500D01*
X168541286Y-93700500D01*
X168541287Y-93700500D01*
X168751243Y-93667246D01*
X168953412Y-93601557D01*
X169142816Y-93505051D01*
X169187605Y-93472510D01*
X169314786Y-93380109D01*
X169314788Y-93380106D01*
X169314792Y-93380104D01*
X169465104Y-93229792D01*
X169465106Y-93229788D01*
X169465109Y-93229786D01*
X169590048Y-93057820D01*
X169590047Y-93057820D01*
X169590051Y-93057816D01*
X169594514Y-93049054D01*
X169642488Y-92998259D01*
X169710308Y-92981463D01*
X169776444Y-93003999D01*
X169815486Y-93049056D01*
X169819951Y-93057820D01*
X169944890Y-93229786D01*
X170095213Y-93380109D01*
X170267179Y-93505048D01*
X170267181Y-93505049D01*
X170267184Y-93505051D01*
X170456588Y-93601557D01*
X170658757Y-93667246D01*
X170868713Y-93700500D01*
X170868714Y-93700500D01*
X171081286Y-93700500D01*
X171081287Y-93700500D01*
X171291243Y-93667246D01*
X171493412Y-93601557D01*
X171682816Y-93505051D01*
X171727605Y-93472510D01*
X171854786Y-93380109D01*
X171854788Y-93380106D01*
X171854792Y-93380104D01*
X172005104Y-93229792D01*
X172005106Y-93229788D01*
X172005109Y-93229786D01*
X172130048Y-93057820D01*
X172130047Y-93057820D01*
X172130051Y-93057816D01*
X172134514Y-93049054D01*
X172182488Y-92998259D01*
X172250308Y-92981463D01*
X172316444Y-93003999D01*
X172355486Y-93049056D01*
X172359951Y-93057820D01*
X172484890Y-93229786D01*
X172635213Y-93380109D01*
X172807179Y-93505048D01*
X172807181Y-93505049D01*
X172807184Y-93505051D01*
X172996588Y-93601557D01*
X173198757Y-93667246D01*
X173408713Y-93700500D01*
X173408714Y-93700500D01*
X173621286Y-93700500D01*
X173621287Y-93700500D01*
X173831243Y-93667246D01*
X174033412Y-93601557D01*
X174222816Y-93505051D01*
X174309478Y-93442088D01*
X174394784Y-93380110D01*
X174394784Y-93380109D01*
X174394792Y-93380104D01*
X174508717Y-93266178D01*
X174570036Y-93232696D01*
X174639728Y-93237680D01*
X174695662Y-93279551D01*
X174712577Y-93310528D01*
X174761646Y-93442088D01*
X174761649Y-93442093D01*
X174847809Y-93557187D01*
X174847812Y-93557190D01*
X174962906Y-93643350D01*
X174962913Y-93643354D01*
X175097620Y-93693596D01*
X175097627Y-93693598D01*
X175157155Y-93699999D01*
X175157172Y-93700000D01*
X175805000Y-93700000D01*
X175805000Y-92783012D01*
X175862007Y-92815925D01*
X175989174Y-92850000D01*
X176120826Y-92850000D01*
X176247993Y-92815925D01*
X176305000Y-92783012D01*
X176305000Y-93700000D01*
X176952828Y-93700000D01*
X176952844Y-93699999D01*
X177012372Y-93693598D01*
X177012379Y-93693596D01*
X177147086Y-93643354D01*
X177147093Y-93643350D01*
X177262187Y-93557190D01*
X177262190Y-93557187D01*
X177348350Y-93442093D01*
X177348354Y-93442086D01*
X177398596Y-93307379D01*
X177398598Y-93307372D01*
X177404999Y-93247844D01*
X177405000Y-93247827D01*
X177405000Y-92600000D01*
X176488012Y-92600000D01*
X176520925Y-92542993D01*
X176555000Y-92415826D01*
X176555000Y-92284174D01*
X176520925Y-92157007D01*
X176488012Y-92100000D01*
X177405000Y-92100000D01*
X177405000Y-91452172D01*
X177404999Y-91452155D01*
X177398598Y-91392627D01*
X177398596Y-91392620D01*
X177348354Y-91257913D01*
X177348350Y-91257906D01*
X177262190Y-91142812D01*
X177262187Y-91142809D01*
X177147093Y-91056649D01*
X177147086Y-91056645D01*
X177012379Y-91006403D01*
X177012372Y-91006401D01*
X176952844Y-91000000D01*
X176305000Y-91000000D01*
X176305000Y-91916988D01*
X176247993Y-91884075D01*
X176120826Y-91850000D01*
X175989174Y-91850000D01*
X175862007Y-91884075D01*
X175805000Y-91916988D01*
X175805000Y-91000000D01*
X175157155Y-91000000D01*
X175097627Y-91006401D01*
X175097620Y-91006403D01*
X174962913Y-91056645D01*
X174962906Y-91056649D01*
X174847812Y-91142809D01*
X174847809Y-91142812D01*
X174761649Y-91257906D01*
X174761646Y-91257912D01*
X174712577Y-91389471D01*
X174670705Y-91445404D01*
X174605241Y-91469821D01*
X174536968Y-91454969D01*
X174508714Y-91433818D01*
X174394786Y-91319890D01*
X174222820Y-91194951D01*
X174033414Y-91098444D01*
X174033413Y-91098443D01*
X174033412Y-91098443D01*
X173831243Y-91032754D01*
X173831241Y-91032753D01*
X173831240Y-91032753D01*
X173669957Y-91007208D01*
X173621287Y-90999500D01*
X173408713Y-90999500D01*
X173360042Y-91007208D01*
X173198760Y-91032753D01*
X172996585Y-91098444D01*
X172807179Y-91194951D01*
X172635213Y-91319890D01*
X172484890Y-91470213D01*
X172359949Y-91642182D01*
X172355484Y-91650946D01*
X172307509Y-91701742D01*
X172239688Y-91718536D01*
X172173553Y-91695998D01*
X172134516Y-91650946D01*
X172130050Y-91642182D01*
X172005109Y-91470213D01*
X171854786Y-91319890D01*
X171682820Y-91194951D01*
X171493414Y-91098444D01*
X171493413Y-91098443D01*
X171493412Y-91098443D01*
X171291243Y-91032754D01*
X171291241Y-91032753D01*
X171291240Y-91032753D01*
X171129957Y-91007208D01*
X171081287Y-90999500D01*
X170868713Y-90999500D01*
X170820042Y-91007208D01*
X170658760Y-91032753D01*
X170456585Y-91098444D01*
X170267179Y-91194951D01*
X170095213Y-91319890D01*
X169944890Y-91470213D01*
X169819949Y-91642182D01*
X169815484Y-91650946D01*
X169767509Y-91701742D01*
X169699688Y-91718536D01*
X169633553Y-91695998D01*
X169594516Y-91650946D01*
X169590050Y-91642182D01*
X169465109Y-91470213D01*
X169314786Y-91319890D01*
X169142820Y-91194951D01*
X168953414Y-91098444D01*
X168953413Y-91098443D01*
X168953412Y-91098443D01*
X168751243Y-91032754D01*
X168751241Y-91032753D01*
X168751240Y-91032753D01*
X168589957Y-91007208D01*
X168541287Y-90999500D01*
X168328713Y-90999500D01*
X168280042Y-91007208D01*
X168118760Y-91032753D01*
X167916585Y-91098444D01*
X167727179Y-91194951D01*
X167555213Y-91319890D01*
X167404890Y-91470213D01*
X167279951Y-91642179D01*
X167183444Y-91831585D01*
X167117753Y-92033760D01*
X167084500Y-92243713D01*
X166375500Y-92243713D01*
X166375500Y-86663393D01*
X166375499Y-86663389D01*
X166358933Y-86580104D01*
X166351463Y-86542548D01*
X166304758Y-86429792D01*
X166304756Y-86429786D01*
X166304315Y-86428721D01*
X166304313Y-86428719D01*
X166304312Y-86428715D01*
X166282943Y-86396734D01*
X166235858Y-86326267D01*
X166235855Y-86326263D01*
X166145637Y-86236045D01*
X166145606Y-86236016D01*
X165353303Y-85443713D01*
X167084500Y-85443713D01*
X167084500Y-85656287D01*
X167117754Y-85866243D01*
X167124568Y-85887215D01*
X167183444Y-86068414D01*
X167279951Y-86257820D01*
X167404890Y-86429786D01*
X167555213Y-86580109D01*
X167727179Y-86705048D01*
X167727181Y-86705049D01*
X167727184Y-86705051D01*
X167916588Y-86801557D01*
X168118757Y-86867246D01*
X168328713Y-86900500D01*
X168328714Y-86900500D01*
X168541286Y-86900500D01*
X168541287Y-86900500D01*
X168751243Y-86867246D01*
X168953412Y-86801557D01*
X169142816Y-86705051D01*
X169164789Y-86689086D01*
X169314786Y-86580109D01*
X169314788Y-86580106D01*
X169314792Y-86580104D01*
X169465104Y-86429792D01*
X169465106Y-86429788D01*
X169465109Y-86429786D01*
X169590048Y-86257820D01*
X169590047Y-86257820D01*
X169590051Y-86257816D01*
X169594514Y-86249054D01*
X169642488Y-86198259D01*
X169710308Y-86181463D01*
X169776444Y-86203999D01*
X169815486Y-86249056D01*
X169819951Y-86257820D01*
X169944890Y-86429786D01*
X170095213Y-86580109D01*
X170267179Y-86705048D01*
X170267181Y-86705049D01*
X170267184Y-86705051D01*
X170456588Y-86801557D01*
X170658757Y-86867246D01*
X170868713Y-86900500D01*
X170868714Y-86900500D01*
X171081286Y-86900500D01*
X171081287Y-86900500D01*
X171291243Y-86867246D01*
X171493412Y-86801557D01*
X171682816Y-86705051D01*
X171704789Y-86689086D01*
X171854786Y-86580109D01*
X171854788Y-86580106D01*
X171854792Y-86580104D01*
X172005104Y-86429792D01*
X172005106Y-86429788D01*
X172005109Y-86429786D01*
X172130048Y-86257820D01*
X172130047Y-86257820D01*
X172130051Y-86257816D01*
X172134514Y-86249054D01*
X172182488Y-86198259D01*
X172250308Y-86181463D01*
X172316444Y-86203999D01*
X172355486Y-86249056D01*
X172359951Y-86257820D01*
X172484890Y-86429786D01*
X172635213Y-86580109D01*
X172807179Y-86705048D01*
X172807181Y-86705049D01*
X172807184Y-86705051D01*
X172996588Y-86801557D01*
X173198757Y-86867246D01*
X173408713Y-86900500D01*
X173408714Y-86900500D01*
X173621286Y-86900500D01*
X173621287Y-86900500D01*
X173831243Y-86867246D01*
X174033412Y-86801557D01*
X174222816Y-86705051D01*
X174309478Y-86642088D01*
X174394784Y-86580110D01*
X174394784Y-86580109D01*
X174394792Y-86580104D01*
X174508717Y-86466178D01*
X174570036Y-86432696D01*
X174639728Y-86437680D01*
X174695662Y-86479551D01*
X174712577Y-86510528D01*
X174761646Y-86642088D01*
X174761649Y-86642093D01*
X174847809Y-86757187D01*
X174847812Y-86757190D01*
X174962906Y-86843350D01*
X174962913Y-86843354D01*
X175097620Y-86893596D01*
X175097627Y-86893598D01*
X175157155Y-86899999D01*
X175157172Y-86900000D01*
X175805000Y-86900000D01*
X175805000Y-85983012D01*
X175862007Y-86015925D01*
X175989174Y-86050000D01*
X176120826Y-86050000D01*
X176247993Y-86015925D01*
X176305000Y-85983012D01*
X176305000Y-86900000D01*
X176952828Y-86900000D01*
X176952844Y-86899999D01*
X177012372Y-86893598D01*
X177012379Y-86893596D01*
X177147086Y-86843354D01*
X177147093Y-86843350D01*
X177262187Y-86757190D01*
X177262190Y-86757187D01*
X177348350Y-86642093D01*
X177348354Y-86642086D01*
X177398596Y-86507379D01*
X177398598Y-86507372D01*
X177404999Y-86447844D01*
X177405000Y-86447827D01*
X177405000Y-85800000D01*
X176488012Y-85800000D01*
X176520925Y-85742993D01*
X176555000Y-85615826D01*
X176555000Y-85484174D01*
X176520925Y-85357007D01*
X176488012Y-85300000D01*
X177405000Y-85300000D01*
X177405000Y-84652172D01*
X177404999Y-84652155D01*
X177398598Y-84592627D01*
X177398596Y-84592620D01*
X177348354Y-84457913D01*
X177348350Y-84457906D01*
X177262190Y-84342812D01*
X177262187Y-84342809D01*
X177147093Y-84256649D01*
X177147086Y-84256645D01*
X177012379Y-84206403D01*
X177012372Y-84206401D01*
X176952844Y-84200000D01*
X176305000Y-84200000D01*
X176305000Y-85116988D01*
X176247993Y-85084075D01*
X176120826Y-85050000D01*
X175989174Y-85050000D01*
X175862007Y-85084075D01*
X175805000Y-85116988D01*
X175805000Y-84200000D01*
X175157155Y-84200000D01*
X175097627Y-84206401D01*
X175097620Y-84206403D01*
X174962913Y-84256645D01*
X174962906Y-84256649D01*
X174847812Y-84342809D01*
X174847809Y-84342812D01*
X174761649Y-84457906D01*
X174761646Y-84457912D01*
X174712577Y-84589471D01*
X174670705Y-84645404D01*
X174605241Y-84669821D01*
X174536968Y-84654969D01*
X174508714Y-84633818D01*
X174394786Y-84519890D01*
X174222820Y-84394951D01*
X174033414Y-84298444D01*
X174033413Y-84298443D01*
X174033412Y-84298443D01*
X173831243Y-84232754D01*
X173831241Y-84232753D01*
X173831240Y-84232753D01*
X173669957Y-84207208D01*
X173621287Y-84199500D01*
X173408713Y-84199500D01*
X173360042Y-84207208D01*
X173198760Y-84232753D01*
X172996585Y-84298444D01*
X172807179Y-84394951D01*
X172635213Y-84519890D01*
X172484890Y-84670213D01*
X172359949Y-84842182D01*
X172355484Y-84850946D01*
X172307509Y-84901742D01*
X172239688Y-84918536D01*
X172173553Y-84895998D01*
X172134516Y-84850946D01*
X172130050Y-84842182D01*
X172005109Y-84670213D01*
X171854786Y-84519890D01*
X171682820Y-84394951D01*
X171493414Y-84298444D01*
X171493413Y-84298443D01*
X171493412Y-84298443D01*
X171291243Y-84232754D01*
X171291241Y-84232753D01*
X171291240Y-84232753D01*
X171129957Y-84207208D01*
X171081287Y-84199500D01*
X170868713Y-84199500D01*
X170820042Y-84207208D01*
X170658760Y-84232753D01*
X170456585Y-84298444D01*
X170267179Y-84394951D01*
X170095213Y-84519890D01*
X169944890Y-84670213D01*
X169819949Y-84842182D01*
X169815484Y-84850946D01*
X169767509Y-84901742D01*
X169699688Y-84918536D01*
X169633553Y-84895998D01*
X169594516Y-84850946D01*
X169590050Y-84842182D01*
X169465109Y-84670213D01*
X169314786Y-84519890D01*
X169142820Y-84394951D01*
X168953414Y-84298444D01*
X168953413Y-84298443D01*
X168953412Y-84298443D01*
X168751243Y-84232754D01*
X168751241Y-84232753D01*
X168751240Y-84232753D01*
X168589957Y-84207208D01*
X168541287Y-84199500D01*
X168328713Y-84199500D01*
X168280042Y-84207208D01*
X168118760Y-84232753D01*
X167916585Y-84298444D01*
X167727179Y-84394951D01*
X167555213Y-84519890D01*
X167404890Y-84670213D01*
X167279951Y-84842179D01*
X167183444Y-85031585D01*
X167117753Y-85233760D01*
X167085584Y-85436868D01*
X167084500Y-85443713D01*
X165353303Y-85443713D01*
X164035198Y-84125608D01*
X164030860Y-84121270D01*
X164030858Y-84121267D01*
X164021766Y-84112175D01*
X164002984Y-84077773D01*
X163988288Y-84050858D01*
X163988288Y-84050853D01*
X163988286Y-84050849D01*
X163991203Y-84010098D01*
X163993272Y-83981166D01*
X163993274Y-83981162D01*
X163993275Y-83981158D01*
X164016415Y-83950252D01*
X164035144Y-83925233D01*
X164035147Y-83925231D01*
X164035151Y-83925227D01*
X164073764Y-83910828D01*
X164100608Y-83900816D01*
X164100614Y-83900815D01*
X164100619Y-83900815D01*
X164109454Y-83900500D01*
X164961607Y-83900500D01*
X165022029Y-83888481D01*
X165082452Y-83876463D01*
X165130082Y-83856734D01*
X165196286Y-83829312D01*
X165247509Y-83795084D01*
X165298733Y-83760858D01*
X165385858Y-83673733D01*
X165385858Y-83673731D01*
X165396066Y-83663524D01*
X165396068Y-83663521D01*
X165431963Y-83627625D01*
X165493284Y-83594142D01*
X165562976Y-83599126D01*
X165575937Y-83604823D01*
X165625776Y-83630218D01*
X165625778Y-83630218D01*
X165625781Y-83630220D01*
X165728262Y-83663518D01*
X165820465Y-83693477D01*
X165921557Y-83709488D01*
X166022648Y-83725500D01*
X166022649Y-83725500D01*
X166227351Y-83725500D01*
X166227352Y-83725500D01*
X166429534Y-83693477D01*
X166624219Y-83630220D01*
X166806610Y-83537287D01*
X166943754Y-83437647D01*
X166972213Y-83416971D01*
X166972215Y-83416968D01*
X166972219Y-83416966D01*
X167116966Y-83272219D01*
X167116968Y-83272215D01*
X167116971Y-83272213D01*
X167213380Y-83139515D01*
X167237287Y-83106610D01*
X167330220Y-82924219D01*
X167393477Y-82729534D01*
X167425500Y-82527352D01*
X167425500Y-82322648D01*
X167393477Y-82120466D01*
X167330220Y-81925781D01*
X167330218Y-81925778D01*
X167330218Y-81925776D01*
X167296503Y-81859607D01*
X167237287Y-81743390D01*
X167193892Y-81683661D01*
X167116971Y-81577786D01*
X166972213Y-81433028D01*
X166806613Y-81312715D01*
X166806612Y-81312714D01*
X166806610Y-81312713D01*
X166749653Y-81283691D01*
X166624223Y-81219781D01*
X166429534Y-81156522D01*
X166254995Y-81128878D01*
X166227352Y-81124500D01*
X166022648Y-81124500D01*
X165998329Y-81128351D01*
X165820465Y-81156522D01*
X165625776Y-81219781D01*
X165443386Y-81312715D01*
X165277786Y-81433028D01*
X165133028Y-81577786D01*
X165012715Y-81743386D01*
X164919781Y-81925776D01*
X164856522Y-82120465D01*
X164824500Y-82322648D01*
X164824500Y-82414547D01*
X164815854Y-82443990D01*
X164809332Y-82473973D01*
X164805577Y-82478988D01*
X164804815Y-82481586D01*
X164788185Y-82502223D01*
X164677227Y-82613182D01*
X164615907Y-82646666D01*
X164589548Y-82649500D01*
X163031527Y-82649500D01*
X162964488Y-82629815D01*
X162918733Y-82577011D01*
X162908789Y-82507853D01*
X162921040Y-82469210D01*
X162922784Y-82465785D01*
X162922785Y-82465782D01*
X162939433Y-82414547D01*
X162984339Y-82276339D01*
X163015500Y-82079597D01*
X163015500Y-81880403D01*
X162984339Y-81683661D01*
X162984338Y-81683657D01*
X162984338Y-81683656D01*
X162922786Y-81494219D01*
X162832352Y-81316733D01*
X162829433Y-81312715D01*
X162715269Y-81155582D01*
X162574418Y-81014731D01*
X162413266Y-80897647D01*
X162261827Y-80820485D01*
X162211031Y-80772510D01*
X162194236Y-80704689D01*
X162216773Y-80638554D01*
X162261827Y-80599515D01*
X162276093Y-80592246D01*
X162413266Y-80522353D01*
X162574418Y-80405269D01*
X162715269Y-80264418D01*
X162832353Y-80103266D01*
X162922785Y-79925783D01*
X162935140Y-79887758D01*
X162984338Y-79736343D01*
X162984338Y-79736342D01*
X162984339Y-79736339D01*
X163015500Y-79539597D01*
X163015500Y-79340403D01*
X162990608Y-79183239D01*
X162988307Y-79168713D01*
X169624500Y-79168713D01*
X169624500Y-79381286D01*
X169657753Y-79591239D01*
X169723444Y-79793414D01*
X169819951Y-79982820D01*
X169944890Y-80154786D01*
X170095213Y-80305109D01*
X170267179Y-80430048D01*
X170267181Y-80430049D01*
X170267184Y-80430051D01*
X170456588Y-80526557D01*
X170658757Y-80592246D01*
X170868713Y-80625500D01*
X170868714Y-80625500D01*
X171081286Y-80625500D01*
X171081287Y-80625500D01*
X171291243Y-80592246D01*
X171493412Y-80526557D01*
X171682816Y-80430051D01*
X171769478Y-80367088D01*
X171854786Y-80305109D01*
X171854788Y-80305106D01*
X171854792Y-80305104D01*
X172005104Y-80154792D01*
X172005106Y-80154788D01*
X172005109Y-80154786D01*
X172130048Y-79982820D01*
X172130047Y-79982820D01*
X172130051Y-79982816D01*
X172134514Y-79974054D01*
X172182488Y-79923259D01*
X172250308Y-79906463D01*
X172316444Y-79928999D01*
X172355486Y-79974056D01*
X172359951Y-79982820D01*
X172484890Y-80154786D01*
X172635213Y-80305109D01*
X172807179Y-80430048D01*
X172807181Y-80430049D01*
X172807184Y-80430051D01*
X172996588Y-80526557D01*
X173198757Y-80592246D01*
X173408713Y-80625500D01*
X173408714Y-80625500D01*
X173621286Y-80625500D01*
X173621287Y-80625500D01*
X173831243Y-80592246D01*
X174033412Y-80526557D01*
X174222816Y-80430051D01*
X174309478Y-80367088D01*
X174394784Y-80305110D01*
X174394784Y-80305109D01*
X174394792Y-80305104D01*
X174508717Y-80191178D01*
X174570036Y-80157696D01*
X174639728Y-80162680D01*
X174695662Y-80204551D01*
X174712577Y-80235528D01*
X174761646Y-80367088D01*
X174761649Y-80367093D01*
X174847809Y-80482187D01*
X174847812Y-80482190D01*
X174962906Y-80568350D01*
X174962913Y-80568354D01*
X175097620Y-80618596D01*
X175097627Y-80618598D01*
X175157155Y-80624999D01*
X175157172Y-80625000D01*
X175805000Y-80625000D01*
X175805000Y-79708012D01*
X175862007Y-79740925D01*
X175989174Y-79775000D01*
X176120826Y-79775000D01*
X176247993Y-79740925D01*
X176305000Y-79708012D01*
X176305000Y-80625000D01*
X176952828Y-80625000D01*
X176952844Y-80624999D01*
X177012372Y-80618598D01*
X177012379Y-80618596D01*
X177147086Y-80568354D01*
X177147093Y-80568350D01*
X177262187Y-80482190D01*
X177262190Y-80482187D01*
X177348350Y-80367093D01*
X177348354Y-80367086D01*
X177398596Y-80232379D01*
X177398598Y-80232372D01*
X177404999Y-80172844D01*
X177405000Y-80172827D01*
X177405000Y-79525000D01*
X176488012Y-79525000D01*
X176520925Y-79467993D01*
X176555000Y-79340826D01*
X176555000Y-79209174D01*
X176520925Y-79082007D01*
X176488012Y-79025000D01*
X177405000Y-79025000D01*
X177405000Y-78377172D01*
X177404999Y-78377155D01*
X177398598Y-78317627D01*
X177398596Y-78317620D01*
X177348354Y-78182913D01*
X177348350Y-78182906D01*
X177262190Y-78067812D01*
X177262187Y-78067809D01*
X177147093Y-77981649D01*
X177147086Y-77981645D01*
X177012379Y-77931403D01*
X177012372Y-77931401D01*
X176952844Y-77925000D01*
X176305000Y-77925000D01*
X176305000Y-78841988D01*
X176247993Y-78809075D01*
X176120826Y-78775000D01*
X175989174Y-78775000D01*
X175862007Y-78809075D01*
X175805000Y-78841988D01*
X175805000Y-77925000D01*
X175157155Y-77925000D01*
X175097627Y-77931401D01*
X175097620Y-77931403D01*
X174962913Y-77981645D01*
X174962906Y-77981649D01*
X174847812Y-78067809D01*
X174847809Y-78067812D01*
X174761649Y-78182906D01*
X174761646Y-78182912D01*
X174712577Y-78314471D01*
X174670705Y-78370404D01*
X174605241Y-78394821D01*
X174536968Y-78379969D01*
X174508714Y-78358818D01*
X174394786Y-78244890D01*
X174222820Y-78119951D01*
X174033414Y-78023444D01*
X174033413Y-78023443D01*
X174033412Y-78023443D01*
X173831243Y-77957754D01*
X173831241Y-77957753D01*
X173831240Y-77957753D01*
X173669957Y-77932208D01*
X173621287Y-77924500D01*
X173408713Y-77924500D01*
X173360042Y-77932208D01*
X173198760Y-77957753D01*
X172996585Y-78023444D01*
X172807179Y-78119951D01*
X172635213Y-78244890D01*
X172484890Y-78395213D01*
X172359949Y-78567182D01*
X172355484Y-78575946D01*
X172307509Y-78626742D01*
X172239688Y-78643536D01*
X172173553Y-78620998D01*
X172134516Y-78575946D01*
X172130050Y-78567182D01*
X172005109Y-78395213D01*
X171854786Y-78244890D01*
X171682820Y-78119951D01*
X171493414Y-78023444D01*
X171493413Y-78023443D01*
X171493412Y-78023443D01*
X171291243Y-77957754D01*
X171291241Y-77957753D01*
X171291240Y-77957753D01*
X171129957Y-77932208D01*
X171081287Y-77924500D01*
X170868713Y-77924500D01*
X170820042Y-77932208D01*
X170658760Y-77957753D01*
X170456585Y-78023444D01*
X170267179Y-78119951D01*
X170095213Y-78244890D01*
X169944890Y-78395213D01*
X169819951Y-78567179D01*
X169723444Y-78756585D01*
X169657753Y-78958760D01*
X169624500Y-79168713D01*
X162988307Y-79168713D01*
X162984338Y-79143657D01*
X162984338Y-79143656D01*
X162922786Y-78954219D01*
X162909514Y-78928172D01*
X162832353Y-78776734D01*
X162715269Y-78615582D01*
X162574418Y-78474731D01*
X162413266Y-78357647D01*
X162334722Y-78317627D01*
X162261827Y-78280485D01*
X162211031Y-78232510D01*
X162194236Y-78164689D01*
X162216773Y-78098554D01*
X162261827Y-78059515D01*
X162271116Y-78054781D01*
X162413266Y-77982353D01*
X162574418Y-77865269D01*
X162715269Y-77724418D01*
X162832353Y-77563266D01*
X162922785Y-77385783D01*
X162930827Y-77361031D01*
X162984338Y-77196343D01*
X162984338Y-77196342D01*
X162984339Y-77196339D01*
X163015500Y-76999597D01*
X163015500Y-76800403D01*
X162984339Y-76603661D01*
X162984338Y-76603657D01*
X162984338Y-76603656D01*
X162922786Y-76414219D01*
X162832352Y-76236733D01*
X162715269Y-76075582D01*
X162574418Y-75934731D01*
X162413266Y-75817647D01*
X162261827Y-75740485D01*
X162211031Y-75692510D01*
X162194236Y-75624689D01*
X162216773Y-75558554D01*
X162261827Y-75519515D01*
X162271116Y-75514781D01*
X162413266Y-75442353D01*
X162574418Y-75325269D01*
X162715269Y-75184418D01*
X162832353Y-75023266D01*
X162922785Y-74845783D01*
X162935140Y-74807758D01*
X162984338Y-74656343D01*
X162984338Y-74656342D01*
X162984339Y-74656339D01*
X163015500Y-74459597D01*
X163015500Y-74260403D01*
X162984339Y-74063661D01*
X162984338Y-74063657D01*
X162984338Y-74063656D01*
X162922786Y-73874219D01*
X162909514Y-73848172D01*
X162832353Y-73696734D01*
X162715269Y-73535582D01*
X162574418Y-73394731D01*
X162413266Y-73277647D01*
X162308618Y-73224326D01*
X162308618Y-73224325D01*
X162261828Y-73200485D01*
X162211031Y-73152511D01*
X162202661Y-73118713D01*
X169624500Y-73118713D01*
X169624500Y-73331287D01*
X169657754Y-73541243D01*
X169708276Y-73696734D01*
X169723444Y-73743414D01*
X169819951Y-73932820D01*
X169944890Y-74104786D01*
X170095213Y-74255109D01*
X170267179Y-74380048D01*
X170267181Y-74380049D01*
X170267184Y-74380051D01*
X170456588Y-74476557D01*
X170658757Y-74542246D01*
X170868713Y-74575500D01*
X170868714Y-74575500D01*
X171081286Y-74575500D01*
X171081287Y-74575500D01*
X171291243Y-74542246D01*
X171493412Y-74476557D01*
X171682816Y-74380051D01*
X171769478Y-74317088D01*
X171854786Y-74255109D01*
X171854788Y-74255106D01*
X171854792Y-74255104D01*
X172005104Y-74104792D01*
X172005106Y-74104788D01*
X172005109Y-74104786D01*
X172130048Y-73932820D01*
X172130047Y-73932820D01*
X172130051Y-73932816D01*
X172134514Y-73924054D01*
X172182488Y-73873259D01*
X172250308Y-73856463D01*
X172316444Y-73878999D01*
X172355486Y-73924056D01*
X172359951Y-73932820D01*
X172484890Y-74104786D01*
X172635213Y-74255109D01*
X172807179Y-74380048D01*
X172807181Y-74380049D01*
X172807184Y-74380051D01*
X172996588Y-74476557D01*
X173198757Y-74542246D01*
X173408713Y-74575500D01*
X173408714Y-74575500D01*
X173621286Y-74575500D01*
X173621287Y-74575500D01*
X173831243Y-74542246D01*
X174033412Y-74476557D01*
X174222816Y-74380051D01*
X174309478Y-74317088D01*
X174394784Y-74255110D01*
X174394784Y-74255109D01*
X174394792Y-74255104D01*
X174508717Y-74141178D01*
X174570036Y-74107696D01*
X174639728Y-74112680D01*
X174695662Y-74154551D01*
X174712577Y-74185528D01*
X174761646Y-74317088D01*
X174761649Y-74317093D01*
X174847809Y-74432187D01*
X174847812Y-74432190D01*
X174962906Y-74518350D01*
X174962913Y-74518354D01*
X175097620Y-74568596D01*
X175097627Y-74568598D01*
X175157155Y-74574999D01*
X175157172Y-74575000D01*
X175805000Y-74575000D01*
X175805000Y-73658012D01*
X175862007Y-73690925D01*
X175989174Y-73725000D01*
X176120826Y-73725000D01*
X176247993Y-73690925D01*
X176305000Y-73658012D01*
X176305000Y-74575000D01*
X176952828Y-74575000D01*
X176952844Y-74574999D01*
X177012372Y-74568598D01*
X177012379Y-74568596D01*
X177147086Y-74518354D01*
X177147093Y-74518350D01*
X177262187Y-74432190D01*
X177262190Y-74432187D01*
X177348350Y-74317093D01*
X177348354Y-74317086D01*
X177398596Y-74182379D01*
X177398598Y-74182372D01*
X177404999Y-74122844D01*
X177405000Y-74122827D01*
X177405000Y-73475000D01*
X176488012Y-73475000D01*
X176520925Y-73417993D01*
X176555000Y-73290826D01*
X176555000Y-73159174D01*
X176520925Y-73032007D01*
X176488012Y-72975000D01*
X177405000Y-72975000D01*
X177405000Y-72327172D01*
X177404999Y-72327155D01*
X177398598Y-72267627D01*
X177398596Y-72267620D01*
X177348354Y-72132913D01*
X177348350Y-72132906D01*
X177262190Y-72017812D01*
X177262187Y-72017809D01*
X177147093Y-71931649D01*
X177147086Y-71931645D01*
X177012379Y-71881403D01*
X177012372Y-71881401D01*
X176952844Y-71875000D01*
X176305000Y-71875000D01*
X176305000Y-72791988D01*
X176247993Y-72759075D01*
X176120826Y-72725000D01*
X175989174Y-72725000D01*
X175862007Y-72759075D01*
X175805000Y-72791988D01*
X175805000Y-71875000D01*
X175157155Y-71875000D01*
X175097627Y-71881401D01*
X175097620Y-71881403D01*
X174962913Y-71931645D01*
X174962906Y-71931649D01*
X174847812Y-72017809D01*
X174847809Y-72017812D01*
X174761649Y-72132906D01*
X174761646Y-72132912D01*
X174712577Y-72264471D01*
X174670705Y-72320404D01*
X174605241Y-72344821D01*
X174536968Y-72329969D01*
X174508714Y-72308818D01*
X174394786Y-72194890D01*
X174222820Y-72069951D01*
X174033414Y-71973444D01*
X174033413Y-71973443D01*
X174033412Y-71973443D01*
X173831243Y-71907754D01*
X173831241Y-71907753D01*
X173831240Y-71907753D01*
X173669957Y-71882208D01*
X173621287Y-71874500D01*
X173408713Y-71874500D01*
X173360042Y-71882208D01*
X173198760Y-71907753D01*
X172996585Y-71973444D01*
X172807179Y-72069951D01*
X172635213Y-72194890D01*
X172484890Y-72345213D01*
X172359949Y-72517182D01*
X172355484Y-72525946D01*
X172307509Y-72576742D01*
X172239688Y-72593536D01*
X172173553Y-72570998D01*
X172134516Y-72525946D01*
X172130050Y-72517182D01*
X172005109Y-72345213D01*
X171854786Y-72194890D01*
X171682820Y-72069951D01*
X171493414Y-71973444D01*
X171493413Y-71973443D01*
X171493412Y-71973443D01*
X171291243Y-71907754D01*
X171291241Y-71907753D01*
X171291240Y-71907753D01*
X171129957Y-71882208D01*
X171081287Y-71874500D01*
X170868713Y-71874500D01*
X170820042Y-71882208D01*
X170658760Y-71907753D01*
X170456585Y-71973444D01*
X170267179Y-72069951D01*
X170095213Y-72194890D01*
X169944890Y-72345213D01*
X169819951Y-72517179D01*
X169723444Y-72706585D01*
X169657753Y-72908760D01*
X169624500Y-73118713D01*
X162202661Y-73118713D01*
X162194236Y-73084690D01*
X162216773Y-73018555D01*
X162261827Y-72979515D01*
X162271116Y-72974781D01*
X162413266Y-72902353D01*
X162574418Y-72785269D01*
X162715269Y-72644418D01*
X162832353Y-72483266D01*
X162922785Y-72305783D01*
X162936208Y-72264471D01*
X162984338Y-72116343D01*
X162984338Y-72116342D01*
X162984339Y-72116339D01*
X163015500Y-71919597D01*
X163015500Y-71720403D01*
X162984339Y-71523661D01*
X162984338Y-71523657D01*
X162984338Y-71523656D01*
X162922786Y-71334219D01*
X162832352Y-71156733D01*
X162715269Y-70995582D01*
X162574418Y-70854731D01*
X162413266Y-70737647D01*
X162261827Y-70660485D01*
X162211031Y-70612510D01*
X162194236Y-70544689D01*
X162216773Y-70478554D01*
X162261827Y-70439515D01*
X162271116Y-70434781D01*
X162413266Y-70362353D01*
X162574418Y-70245269D01*
X162715269Y-70104418D01*
X162832353Y-69943266D01*
X162922785Y-69765783D01*
X162935140Y-69727758D01*
X162969293Y-69622648D01*
X164824500Y-69622648D01*
X164824500Y-69827351D01*
X164856522Y-70029534D01*
X164919781Y-70224223D01*
X165012715Y-70406613D01*
X165133028Y-70572213D01*
X165277786Y-70716971D01*
X165432749Y-70829556D01*
X165443390Y-70837287D01*
X165559607Y-70896503D01*
X165625776Y-70930218D01*
X165625778Y-70930218D01*
X165625781Y-70930220D01*
X165730137Y-70964127D01*
X165820465Y-70993477D01*
X165921557Y-71009488D01*
X166022648Y-71025500D01*
X166022649Y-71025500D01*
X166227351Y-71025500D01*
X166227352Y-71025500D01*
X166429534Y-70993477D01*
X166624219Y-70930220D01*
X166806610Y-70837287D01*
X166943754Y-70737647D01*
X166972213Y-70716971D01*
X166972215Y-70716968D01*
X166972219Y-70716966D01*
X167116966Y-70572219D01*
X167116968Y-70572215D01*
X167116971Y-70572213D01*
X167213380Y-70439515D01*
X167237287Y-70406610D01*
X167330220Y-70224219D01*
X167393477Y-70029534D01*
X167425500Y-69827352D01*
X167425500Y-69622648D01*
X167393477Y-69420466D01*
X167330220Y-69225781D01*
X167330218Y-69225778D01*
X167330218Y-69225776D01*
X167296503Y-69159607D01*
X167237287Y-69043390D01*
X167193892Y-68983661D01*
X167116971Y-68877786D01*
X166972213Y-68733028D01*
X166806613Y-68612715D01*
X166806612Y-68612714D01*
X166806610Y-68612713D01*
X166749653Y-68583691D01*
X166624223Y-68519781D01*
X166429534Y-68456522D01*
X166254995Y-68428878D01*
X166227352Y-68424500D01*
X166022648Y-68424500D01*
X165998329Y-68428351D01*
X165820465Y-68456522D01*
X165625776Y-68519781D01*
X165443386Y-68612715D01*
X165277786Y-68733028D01*
X165133028Y-68877786D01*
X165012715Y-69043386D01*
X164919781Y-69225776D01*
X164856522Y-69420465D01*
X164824500Y-69622648D01*
X162969293Y-69622648D01*
X162983326Y-69579458D01*
X162983326Y-69579457D01*
X162983327Y-69579455D01*
X162984338Y-69576342D01*
X162984339Y-69576339D01*
X163015500Y-69379597D01*
X163015500Y-69180403D01*
X162984339Y-68983661D01*
X162984338Y-68983657D01*
X162984338Y-68983656D01*
X162922786Y-68794219D01*
X162832352Y-68616733D01*
X162829433Y-68612715D01*
X162715269Y-68455582D01*
X162574418Y-68314731D01*
X162413266Y-68197647D01*
X162261827Y-68120485D01*
X162211031Y-68072510D01*
X162194236Y-68004689D01*
X162216773Y-67938554D01*
X162261827Y-67899515D01*
X162271116Y-67894781D01*
X162413266Y-67822353D01*
X162574418Y-67705269D01*
X162715269Y-67564418D01*
X162832353Y-67403266D01*
X162922785Y-67225783D01*
X162930827Y-67201031D01*
X162984338Y-67036343D01*
X162984338Y-67036342D01*
X162984339Y-67036339D01*
X163015500Y-66839597D01*
X163015500Y-66640403D01*
X162984339Y-66443661D01*
X162984338Y-66443657D01*
X162984338Y-66443656D01*
X162922786Y-66254219D01*
X162832352Y-66076733D01*
X162715269Y-65915582D01*
X162574418Y-65774731D01*
X162413266Y-65657647D01*
X162235783Y-65567215D01*
X162235781Y-65567214D01*
X162232387Y-65565485D01*
X162181591Y-65517511D01*
X162164796Y-65449690D01*
X162187333Y-65383555D01*
X162232387Y-65344515D01*
X162235781Y-65342785D01*
X162235783Y-65342785D01*
X162413266Y-65252353D01*
X162574418Y-65135269D01*
X162715269Y-64994418D01*
X162832353Y-64833266D01*
X162922785Y-64655783D01*
X162929294Y-64635750D01*
X162984338Y-64466343D01*
X162984338Y-64466342D01*
X162984339Y-64466339D01*
X163015500Y-64269597D01*
X163015500Y-64070403D01*
X162984339Y-63873661D01*
X162984338Y-63873657D01*
X162984338Y-63873656D01*
X162922785Y-63684217D01*
X162922785Y-63684216D01*
X162885850Y-63611726D01*
X162885849Y-63611725D01*
X162859236Y-63559495D01*
X169689500Y-63559495D01*
X169689500Y-63795504D01*
X169689501Y-63795520D01*
X169720306Y-64029510D01*
X169781394Y-64257493D01*
X169871714Y-64475545D01*
X169871719Y-64475556D01*
X169883721Y-64496343D01*
X169989727Y-64679950D01*
X169989729Y-64679953D01*
X169989730Y-64679954D01*
X170133406Y-64867197D01*
X170133412Y-64867204D01*
X170300295Y-65034087D01*
X170300302Y-65034093D01*
X170316633Y-65046624D01*
X170487550Y-65177773D01*
X170616725Y-65252352D01*
X170691943Y-65295780D01*
X170691948Y-65295782D01*
X170691951Y-65295784D01*
X170910007Y-65386106D01*
X171137986Y-65447193D01*
X171371989Y-65478000D01*
X171371996Y-65478000D01*
X171608004Y-65478000D01*
X171608011Y-65478000D01*
X171842014Y-65447193D01*
X172069993Y-65386106D01*
X172288049Y-65295784D01*
X172492450Y-65177773D01*
X172679699Y-65034092D01*
X172846592Y-64867199D01*
X172990273Y-64679950D01*
X173108284Y-64475549D01*
X173198606Y-64257493D01*
X173259693Y-64029514D01*
X173290500Y-63795511D01*
X173290500Y-63559489D01*
X173259693Y-63325486D01*
X173198606Y-63097507D01*
X173108284Y-62879451D01*
X173108282Y-62879448D01*
X173108280Y-62879443D01*
X173052335Y-62782544D01*
X172990273Y-62675050D01*
X172915442Y-62577528D01*
X172915430Y-62577513D01*
X174770000Y-62577513D01*
X174770000Y-63427500D01*
X175969999Y-63427500D01*
X175944979Y-63487902D01*
X175920000Y-63613481D01*
X175920000Y-63741519D01*
X175944979Y-63867098D01*
X175969999Y-63927500D01*
X174770001Y-63927500D01*
X174770001Y-64777486D01*
X174780494Y-64880197D01*
X174835641Y-65046619D01*
X174835643Y-65046624D01*
X174927684Y-65195845D01*
X175051654Y-65319815D01*
X175200875Y-65411856D01*
X175200880Y-65411858D01*
X175367302Y-65467005D01*
X175367309Y-65467006D01*
X175470019Y-65477499D01*
X176319999Y-65477499D01*
X176320000Y-65477498D01*
X176320000Y-64277501D01*
X176380402Y-64302521D01*
X176505981Y-64327500D01*
X176634019Y-64327500D01*
X176759598Y-64302521D01*
X176820000Y-64277501D01*
X176820000Y-65477499D01*
X177669972Y-65477499D01*
X177669986Y-65477498D01*
X177772697Y-65467005D01*
X177939119Y-65411858D01*
X177939124Y-65411856D01*
X178088345Y-65319815D01*
X178212315Y-65195845D01*
X178304356Y-65046624D01*
X178304358Y-65046619D01*
X178359505Y-64880197D01*
X178359506Y-64880190D01*
X178369999Y-64777486D01*
X178370000Y-64777473D01*
X178370000Y-63927500D01*
X177170001Y-63927500D01*
X177195021Y-63867098D01*
X177220000Y-63741519D01*
X177220000Y-63613481D01*
X177195021Y-63487902D01*
X177170001Y-63427500D01*
X178369999Y-63427500D01*
X178369999Y-62577528D01*
X178369998Y-62577513D01*
X178359505Y-62474802D01*
X178304358Y-62308380D01*
X178304356Y-62308375D01*
X178212315Y-62159154D01*
X178088345Y-62035184D01*
X177939124Y-61943143D01*
X177939119Y-61943141D01*
X177772697Y-61887994D01*
X177772690Y-61887993D01*
X177669986Y-61877500D01*
X176820000Y-61877500D01*
X176820000Y-63077498D01*
X176759598Y-63052479D01*
X176634019Y-63027500D01*
X176505981Y-63027500D01*
X176380402Y-63052479D01*
X176320000Y-63077498D01*
X176320000Y-61877500D01*
X175470028Y-61877500D01*
X175470012Y-61877501D01*
X175367302Y-61887994D01*
X175200880Y-61943141D01*
X175200875Y-61943143D01*
X175051654Y-62035184D01*
X174927684Y-62159154D01*
X174835643Y-62308375D01*
X174835641Y-62308380D01*
X174780494Y-62474802D01*
X174780493Y-62474809D01*
X174770000Y-62577513D01*
X172915430Y-62577513D01*
X172846593Y-62487802D01*
X172846587Y-62487795D01*
X172679704Y-62320912D01*
X172679697Y-62320906D01*
X172492454Y-62177230D01*
X172492453Y-62177229D01*
X172492450Y-62177227D01*
X172403158Y-62125674D01*
X172288056Y-62059219D01*
X172288045Y-62059214D01*
X172069993Y-61968894D01*
X171842010Y-61907806D01*
X171608020Y-61877001D01*
X171608017Y-61877000D01*
X171608011Y-61877000D01*
X171371989Y-61877000D01*
X171371983Y-61877000D01*
X171371979Y-61877001D01*
X171137989Y-61907806D01*
X170910006Y-61968894D01*
X170691954Y-62059214D01*
X170691943Y-62059219D01*
X170487545Y-62177230D01*
X170300302Y-62320906D01*
X170300295Y-62320912D01*
X170133412Y-62487795D01*
X170133406Y-62487802D01*
X169989730Y-62675045D01*
X169871719Y-62879443D01*
X169871714Y-62879454D01*
X169781394Y-63097506D01*
X169720306Y-63325489D01*
X169689501Y-63559479D01*
X169689500Y-63559495D01*
X162859236Y-63559495D01*
X162832352Y-63506733D01*
X162715269Y-63345582D01*
X162574418Y-63204731D01*
X162413266Y-63087647D01*
X162373025Y-63067143D01*
X162290716Y-63025204D01*
X162239920Y-62977229D01*
X162223125Y-62909408D01*
X162245663Y-62843273D01*
X162290716Y-62804234D01*
X162413005Y-62741924D01*
X162450863Y-62714418D01*
X162450863Y-62714417D01*
X161887574Y-62151128D01*
X161946853Y-62135245D01*
X162063147Y-62068102D01*
X162158102Y-61973147D01*
X162225245Y-61856853D01*
X162241128Y-61797574D01*
X162804417Y-62360863D01*
X162804418Y-62360863D01*
X162831924Y-62323005D01*
X162922320Y-62145594D01*
X162983852Y-61956222D01*
X163015000Y-61759563D01*
X163015000Y-61560436D01*
X162983852Y-61363777D01*
X162922320Y-61174405D01*
X162831924Y-60996994D01*
X162804417Y-60959135D01*
X162804417Y-60959134D01*
X162241128Y-61522424D01*
X162225245Y-61463147D01*
X162158102Y-61346853D01*
X162063147Y-61251898D01*
X161946853Y-61184755D01*
X161887574Y-61168871D01*
X162450864Y-60605581D01*
X162450863Y-60605580D01*
X162413008Y-60578077D01*
X162235594Y-60487679D01*
X162046222Y-60426147D01*
X161849563Y-60395000D01*
X161650437Y-60395000D01*
X161453777Y-60426147D01*
X161264405Y-60487679D01*
X161086990Y-60578077D01*
X161049135Y-60605580D01*
X161049135Y-60605581D01*
X161612425Y-61168871D01*
X161553147Y-61184755D01*
X161436853Y-61251898D01*
X161341898Y-61346853D01*
X161274755Y-61463147D01*
X161258871Y-61522425D01*
X160695581Y-60959135D01*
X160695580Y-60959135D01*
X160668074Y-60996995D01*
X160668073Y-60996996D01*
X160590484Y-61149272D01*
X160542510Y-61200068D01*
X160474689Y-61216863D01*
X160408554Y-61194325D01*
X160369516Y-61149272D01*
X160291928Y-60996999D01*
X160264417Y-60959135D01*
X160264417Y-60959134D01*
X159701128Y-61522424D01*
X159685245Y-61463147D01*
X159618102Y-61346853D01*
X159523147Y-61251898D01*
X159406853Y-61184755D01*
X159347574Y-61168871D01*
X159910864Y-60605581D01*
X159910863Y-60605580D01*
X159873008Y-60578077D01*
X159695594Y-60487679D01*
X159506222Y-60426147D01*
X159309563Y-60395000D01*
X159110437Y-60395000D01*
X158913777Y-60426147D01*
X158724405Y-60487679D01*
X158546990Y-60578077D01*
X158509135Y-60605580D01*
X158509135Y-60605581D01*
X159072425Y-61168871D01*
X159013147Y-61184755D01*
X158896853Y-61251898D01*
X158801898Y-61346853D01*
X158734755Y-61463147D01*
X158718871Y-61522425D01*
X158155581Y-60959135D01*
X158155580Y-60959135D01*
X158128077Y-60996990D01*
X158037679Y-61174405D01*
X157976147Y-61363777D01*
X157945000Y-61560436D01*
X157945000Y-61759563D01*
X157976147Y-61956222D01*
X158037679Y-62145594D01*
X158128077Y-62323008D01*
X158155580Y-62360863D01*
X158155581Y-62360864D01*
X158718871Y-61797574D01*
X158734755Y-61856853D01*
X158801898Y-61973147D01*
X158896853Y-62068102D01*
X159013147Y-62135245D01*
X159072425Y-62151128D01*
X158509134Y-62714417D01*
X158546994Y-62741924D01*
X158698722Y-62819234D01*
X158749518Y-62867209D01*
X158766313Y-62935030D01*
X158743776Y-63001165D01*
X158698723Y-63040203D01*
X158546735Y-63117645D01*
X158471081Y-63172612D01*
X158385582Y-63234731D01*
X158385580Y-63234733D01*
X158385579Y-63234733D01*
X158244733Y-63375579D01*
X158244733Y-63375580D01*
X158244731Y-63375582D01*
X158207010Y-63427500D01*
X158127647Y-63536733D01*
X158037213Y-63714219D01*
X157975661Y-63903656D01*
X157975661Y-63903659D01*
X157944500Y-64100403D01*
X157944500Y-64299597D01*
X157960080Y-64397968D01*
X157975661Y-64496340D01*
X157975661Y-64496343D01*
X158037213Y-64685780D01*
X158083933Y-64777473D01*
X158127647Y-64863266D01*
X158244731Y-65024418D01*
X158385582Y-65165269D01*
X158546734Y-65282353D01*
X158573094Y-65295784D01*
X158698172Y-65359515D01*
X158748968Y-65407490D01*
X158765763Y-65475311D01*
X158743225Y-65541446D01*
X158698172Y-65580485D01*
X158546733Y-65657647D01*
X158454790Y-65724447D01*
X158385582Y-65774731D01*
X158385580Y-65774733D01*
X158385579Y-65774733D01*
X158244733Y-65915579D01*
X158244733Y-65915580D01*
X158244731Y-65915582D01*
X158194447Y-65984790D01*
X158127647Y-66076733D01*
X158037213Y-66254219D01*
X157975661Y-66443656D01*
X157975661Y-66443659D01*
X157944500Y-66640403D01*
X157944500Y-66839596D01*
X157975661Y-67036340D01*
X157975661Y-67036343D01*
X158037213Y-67225780D01*
X158037215Y-67225783D01*
X158127647Y-67403266D01*
X158244731Y-67564418D01*
X158385582Y-67705269D01*
X158546734Y-67822353D01*
X158616453Y-67857877D01*
X158698172Y-67899515D01*
X158748968Y-67947490D01*
X158765763Y-68015311D01*
X158743225Y-68081446D01*
X158698172Y-68120485D01*
X158546733Y-68197647D01*
X158454790Y-68264447D01*
X158385582Y-68314731D01*
X158385580Y-68314733D01*
X158385579Y-68314733D01*
X158244733Y-68455579D01*
X158244733Y-68455580D01*
X158244731Y-68455582D01*
X158198088Y-68519780D01*
X158127647Y-68616733D01*
X158037213Y-68794219D01*
X157975661Y-68983656D01*
X157975661Y-68983659D01*
X157944500Y-69180403D01*
X157944500Y-69379596D01*
X157975661Y-69576340D01*
X157975661Y-69576343D01*
X158037213Y-69765780D01*
X158050485Y-69791827D01*
X158127647Y-69943266D01*
X158244731Y-70104418D01*
X158385582Y-70245269D01*
X158546734Y-70362353D01*
X158616453Y-70397877D01*
X158698172Y-70439515D01*
X158748968Y-70487490D01*
X158765763Y-70555311D01*
X158743225Y-70621446D01*
X158698172Y-70660485D01*
X158546733Y-70737647D01*
X158454790Y-70804447D01*
X158385582Y-70854731D01*
X158385580Y-70854733D01*
X158385579Y-70854733D01*
X158244733Y-70995579D01*
X158244733Y-70995580D01*
X158244731Y-70995582D01*
X158194447Y-71064790D01*
X158127647Y-71156733D01*
X158037213Y-71334219D01*
X157975661Y-71523656D01*
X157975661Y-71523659D01*
X157944500Y-71720403D01*
X157944500Y-71919596D01*
X157975661Y-72116340D01*
X157975661Y-72116343D01*
X158037213Y-72305780D01*
X158127647Y-72483266D01*
X158244731Y-72644418D01*
X158385582Y-72785269D01*
X158546734Y-72902353D01*
X158616453Y-72937877D01*
X158698172Y-72979515D01*
X158748968Y-73027490D01*
X158765763Y-73095311D01*
X158743225Y-73161446D01*
X158698172Y-73200485D01*
X158546733Y-73277647D01*
X158472906Y-73331286D01*
X158385582Y-73394731D01*
X158385580Y-73394733D01*
X158385579Y-73394733D01*
X158244733Y-73535579D01*
X158244733Y-73535580D01*
X158244731Y-73535582D01*
X158194447Y-73604790D01*
X158127647Y-73696733D01*
X158037213Y-73874219D01*
X157975661Y-74063656D01*
X157975661Y-74063659D01*
X157944500Y-74260403D01*
X157944500Y-74459596D01*
X157975661Y-74656340D01*
X157975661Y-74656343D01*
X158037213Y-74845780D01*
X158050485Y-74871827D01*
X158127647Y-75023266D01*
X158244731Y-75184418D01*
X158385582Y-75325269D01*
X158546734Y-75442353D01*
X158616453Y-75477877D01*
X158698172Y-75519515D01*
X158748968Y-75567490D01*
X158765763Y-75635311D01*
X158743225Y-75701446D01*
X158698172Y-75740485D01*
X158546733Y-75817647D01*
X158454790Y-75884447D01*
X158385582Y-75934731D01*
X158385580Y-75934733D01*
X158385579Y-75934733D01*
X158244733Y-76075579D01*
X158244733Y-76075580D01*
X158244731Y-76075582D01*
X158194447Y-76144790D01*
X158127647Y-76236733D01*
X158037213Y-76414219D01*
X157975661Y-76603656D01*
X157975661Y-76603659D01*
X157944500Y-76800403D01*
X157944500Y-76999596D01*
X157975661Y-77196340D01*
X157975661Y-77196343D01*
X158037213Y-77385780D01*
X158037215Y-77385783D01*
X158127647Y-77563266D01*
X158244731Y-77724418D01*
X158385582Y-77865269D01*
X158546734Y-77982353D01*
X158616453Y-78017877D01*
X158698172Y-78059515D01*
X158748968Y-78107490D01*
X158765763Y-78175311D01*
X158743225Y-78241446D01*
X158698172Y-78280485D01*
X158546733Y-78357647D01*
X158454790Y-78424447D01*
X158385582Y-78474731D01*
X158385580Y-78474733D01*
X158385579Y-78474733D01*
X158244733Y-78615579D01*
X158244733Y-78615580D01*
X158244731Y-78615582D01*
X158194447Y-78684790D01*
X158127647Y-78776733D01*
X158037213Y-78954219D01*
X157975661Y-79143656D01*
X157975661Y-79143659D01*
X157944500Y-79340403D01*
X157944500Y-79539596D01*
X157975661Y-79736340D01*
X157975661Y-79736343D01*
X158037213Y-79925780D01*
X158127647Y-80103266D01*
X158244731Y-80264418D01*
X158385582Y-80405269D01*
X158546734Y-80522353D01*
X158616453Y-80557877D01*
X158698172Y-80599515D01*
X158748968Y-80647490D01*
X158765763Y-80715311D01*
X158743225Y-80781446D01*
X158698172Y-80820485D01*
X158546733Y-80897647D01*
X158454790Y-80964447D01*
X158385582Y-81014731D01*
X158385580Y-81014733D01*
X158385579Y-81014733D01*
X158244733Y-81155579D01*
X158244733Y-81155580D01*
X158244731Y-81155582D01*
X158198088Y-81219780D01*
X158127647Y-81316733D01*
X158037213Y-81494219D01*
X157975661Y-81683656D01*
X157975661Y-81683659D01*
X157944500Y-81880403D01*
X157944500Y-82079596D01*
X157975661Y-82276340D01*
X157975661Y-82276343D01*
X158037213Y-82465780D01*
X158068585Y-82527351D01*
X158127647Y-82643266D01*
X158244731Y-82804418D01*
X158244733Y-82804420D01*
X158283726Y-82843413D01*
X158317211Y-82904736D01*
X158312227Y-82974428D01*
X158283726Y-83018775D01*
X157674875Y-83627627D01*
X157101270Y-84201232D01*
X157101267Y-84201235D01*
X157078846Y-84223656D01*
X157014142Y-84288359D01*
X156981277Y-84337546D01*
X156981276Y-84337548D01*
X156945687Y-84390807D01*
X156945685Y-84390811D01*
X156898540Y-84504631D01*
X156898538Y-84504638D01*
X156876265Y-84616613D01*
X156876263Y-84616623D01*
X156875672Y-84619597D01*
X156874500Y-84625487D01*
X137614567Y-84625487D01*
X137615500Y-84619597D01*
X137615500Y-84420403D01*
X137584339Y-84223661D01*
X137584338Y-84223657D01*
X137584338Y-84223656D01*
X137522786Y-84034219D01*
X137480003Y-83950252D01*
X137432353Y-83856734D01*
X137315269Y-83695582D01*
X137174418Y-83554731D01*
X137013266Y-83437647D01*
X136861827Y-83360485D01*
X136811031Y-83312510D01*
X136794236Y-83244689D01*
X136816773Y-83178554D01*
X136861827Y-83139515D01*
X136871116Y-83134781D01*
X137013266Y-83062353D01*
X137174418Y-82945269D01*
X137315269Y-82804418D01*
X137432353Y-82643266D01*
X137522785Y-82465783D01*
X137539433Y-82414547D01*
X137584338Y-82276343D01*
X137584338Y-82276342D01*
X137584339Y-82276339D01*
X137615500Y-82079597D01*
X137615500Y-81880403D01*
X137584339Y-81683661D01*
X137584338Y-81683657D01*
X137584338Y-81683656D01*
X137522786Y-81494219D01*
X137432352Y-81316733D01*
X137429433Y-81312715D01*
X137315269Y-81155582D01*
X137174418Y-81014731D01*
X137013266Y-80897647D01*
X136861827Y-80820485D01*
X136811031Y-80772510D01*
X136794236Y-80704689D01*
X136816773Y-80638554D01*
X136861827Y-80599515D01*
X136876093Y-80592246D01*
X137013266Y-80522353D01*
X137174418Y-80405269D01*
X137315269Y-80264418D01*
X137432353Y-80103266D01*
X137522785Y-79925783D01*
X137535140Y-79887758D01*
X137584338Y-79736343D01*
X137584338Y-79736342D01*
X137584339Y-79736339D01*
X137615500Y-79539597D01*
X137615500Y-79340403D01*
X137584339Y-79143661D01*
X137584338Y-79143657D01*
X137584338Y-79143656D01*
X137522786Y-78954219D01*
X137509514Y-78928172D01*
X137432353Y-78776734D01*
X137315269Y-78615582D01*
X137174418Y-78474731D01*
X137013266Y-78357647D01*
X136934722Y-78317627D01*
X136861827Y-78280485D01*
X136811031Y-78232510D01*
X136794236Y-78164689D01*
X136816773Y-78098554D01*
X136861827Y-78059515D01*
X136871116Y-78054781D01*
X137013266Y-77982353D01*
X137174418Y-77865269D01*
X137315269Y-77724418D01*
X137432353Y-77563266D01*
X137522785Y-77385783D01*
X137530827Y-77361031D01*
X137584338Y-77196343D01*
X137584338Y-77196342D01*
X137584339Y-77196339D01*
X137615500Y-76999597D01*
X137615500Y-76800403D01*
X137584339Y-76603661D01*
X137584338Y-76603657D01*
X137584338Y-76603656D01*
X137522786Y-76414219D01*
X137432352Y-76236733D01*
X137315269Y-76075582D01*
X137174418Y-75934731D01*
X137013266Y-75817647D01*
X136861827Y-75740485D01*
X136811031Y-75692510D01*
X136794236Y-75624689D01*
X136816773Y-75558554D01*
X136861827Y-75519515D01*
X136871116Y-75514781D01*
X137013266Y-75442353D01*
X137174418Y-75325269D01*
X137315269Y-75184418D01*
X137432353Y-75023266D01*
X137522785Y-74845783D01*
X137535140Y-74807758D01*
X137584338Y-74656343D01*
X137584338Y-74656342D01*
X137584339Y-74656339D01*
X137615500Y-74459597D01*
X137615500Y-74260403D01*
X137584339Y-74063661D01*
X137584338Y-74063657D01*
X137584338Y-74063656D01*
X137522786Y-73874219D01*
X137509514Y-73848172D01*
X137432353Y-73696734D01*
X137315269Y-73535582D01*
X137174418Y-73394731D01*
X137013266Y-73277647D01*
X136861827Y-73200485D01*
X136811031Y-73152510D01*
X136794236Y-73084689D01*
X136816773Y-73018554D01*
X136861827Y-72979515D01*
X136871116Y-72974781D01*
X137013266Y-72902353D01*
X137174418Y-72785269D01*
X137315269Y-72644418D01*
X137432353Y-72483266D01*
X137522785Y-72305783D01*
X137536208Y-72264471D01*
X137584338Y-72116343D01*
X137584338Y-72116342D01*
X137584339Y-72116339D01*
X137615500Y-71919597D01*
X137615500Y-71720403D01*
X137584339Y-71523661D01*
X137584338Y-71523657D01*
X137584338Y-71523656D01*
X137522786Y-71334219D01*
X137432352Y-71156733D01*
X137315269Y-70995582D01*
X137174418Y-70854731D01*
X137013266Y-70737647D01*
X136861827Y-70660485D01*
X136811031Y-70612510D01*
X136794236Y-70544689D01*
X136816773Y-70478554D01*
X136861827Y-70439515D01*
X136871116Y-70434781D01*
X137013266Y-70362353D01*
X137174418Y-70245269D01*
X137315269Y-70104418D01*
X137432353Y-69943266D01*
X137522785Y-69765783D01*
X137535140Y-69727758D01*
X137584338Y-69576343D01*
X137584338Y-69576342D01*
X137584339Y-69576339D01*
X137615500Y-69379597D01*
X137615500Y-69180403D01*
X137584339Y-68983661D01*
X137584338Y-68983657D01*
X137584338Y-68983656D01*
X137522786Y-68794219D01*
X137432352Y-68616733D01*
X137429433Y-68612715D01*
X137315269Y-68455582D01*
X137174418Y-68314731D01*
X137013266Y-68197647D01*
X136861827Y-68120485D01*
X136811031Y-68072510D01*
X136794236Y-68004689D01*
X136816773Y-67938554D01*
X136861827Y-67899515D01*
X136871116Y-67894781D01*
X137013266Y-67822353D01*
X137174418Y-67705269D01*
X137315269Y-67564418D01*
X137432353Y-67403266D01*
X137522785Y-67225783D01*
X137530827Y-67201031D01*
X137584338Y-67036343D01*
X137584338Y-67036342D01*
X137584339Y-67036339D01*
X137615500Y-66839597D01*
X137615500Y-66640403D01*
X137584339Y-66443661D01*
X137584338Y-66443657D01*
X137584338Y-66443656D01*
X137522786Y-66254219D01*
X137432352Y-66076733D01*
X137315269Y-65915582D01*
X137174418Y-65774731D01*
X137013266Y-65657647D01*
X136861827Y-65580485D01*
X136811031Y-65532510D01*
X136794236Y-65464689D01*
X136816773Y-65398554D01*
X136861827Y-65359515D01*
X136894661Y-65342785D01*
X137013266Y-65282353D01*
X137174418Y-65165269D01*
X137315269Y-65024418D01*
X137432353Y-64863266D01*
X137522785Y-64685783D01*
X137584339Y-64496339D01*
X137615500Y-64299597D01*
X137615500Y-64100403D01*
X137584339Y-63903661D01*
X137584338Y-63903657D01*
X137584338Y-63903656D01*
X137522786Y-63714219D01*
X137507499Y-63684216D01*
X137432353Y-63536734D01*
X137315269Y-63375582D01*
X137174418Y-63234731D01*
X137057543Y-63149816D01*
X137014878Y-63094487D01*
X137008899Y-63024874D01*
X137041505Y-62963079D01*
X137102343Y-62928722D01*
X137130428Y-62925499D01*
X137162872Y-62925499D01*
X137222483Y-62919091D01*
X137357331Y-62868796D01*
X137472546Y-62782546D01*
X137558796Y-62667331D01*
X137609091Y-62532483D01*
X137615500Y-62472873D01*
X137615499Y-60847128D01*
X137609091Y-60787517D01*
X137570774Y-60684786D01*
X137558798Y-60652673D01*
X137558793Y-60652664D01*
X137472547Y-60537455D01*
X137472544Y-60537452D01*
X137357335Y-60451206D01*
X137357328Y-60451202D01*
X137222482Y-60400908D01*
X137222483Y-60400908D01*
X137162883Y-60394501D01*
X137162881Y-60394500D01*
X137162873Y-60394500D01*
X137162864Y-60394500D01*
X135537129Y-60394500D01*
X135537123Y-60394501D01*
X135477516Y-60400908D01*
X135342671Y-60451202D01*
X135342664Y-60451206D01*
X135227455Y-60537452D01*
X135227452Y-60537455D01*
X135141206Y-60652664D01*
X135141202Y-60652671D01*
X135090908Y-60787517D01*
X135084501Y-60847116D01*
X135084501Y-60847123D01*
X135084500Y-60847135D01*
X133945500Y-60847135D01*
X133945500Y-56353711D01*
X135124500Y-56353711D01*
X135124500Y-56596288D01*
X135156161Y-56836785D01*
X135218947Y-57071104D01*
X135311773Y-57295205D01*
X135311776Y-57295212D01*
X135433064Y-57505289D01*
X135433066Y-57505292D01*
X135433067Y-57505293D01*
X135580733Y-57697736D01*
X135580739Y-57697743D01*
X135752256Y-57869260D01*
X135752263Y-57869266D01*
X135784844Y-57894266D01*
X135944711Y-58016936D01*
X136154788Y-58138224D01*
X136378900Y-58231054D01*
X136613211Y-58293838D01*
X136793586Y-58317584D01*
X136853711Y-58325500D01*
X136853712Y-58325500D01*
X137096289Y-58325500D01*
X137146892Y-58318838D01*
X137336789Y-58293838D01*
X137571100Y-58231054D01*
X137795212Y-58138224D01*
X138005289Y-58016936D01*
X138197738Y-57869265D01*
X138369265Y-57697738D01*
X138516936Y-57505289D01*
X138638224Y-57295212D01*
X138731054Y-57071100D01*
X138793838Y-56836789D01*
X138825500Y-56596288D01*
X138825500Y-56378711D01*
X183149500Y-56378711D01*
X183149500Y-56621288D01*
X183181161Y-56861785D01*
X183243947Y-57096104D01*
X183336773Y-57320205D01*
X183336776Y-57320212D01*
X183458064Y-57530289D01*
X183458066Y-57530292D01*
X183458067Y-57530293D01*
X183605733Y-57722736D01*
X183605739Y-57722743D01*
X183777256Y-57894260D01*
X183777262Y-57894265D01*
X183969711Y-58041936D01*
X184179788Y-58163224D01*
X184403900Y-58256054D01*
X184638211Y-58318838D01*
X184818586Y-58342584D01*
X184878711Y-58350500D01*
X184878712Y-58350500D01*
X185121289Y-58350500D01*
X185169388Y-58344167D01*
X185361789Y-58318838D01*
X185596100Y-58256054D01*
X185820212Y-58163224D01*
X186030289Y-58041936D01*
X186222738Y-57894265D01*
X186394265Y-57722738D01*
X186541936Y-57530289D01*
X186663224Y-57320212D01*
X186756054Y-57096100D01*
X186818838Y-56861789D01*
X186850500Y-56621288D01*
X186850500Y-56378712D01*
X186818838Y-56138211D01*
X186756054Y-55903900D01*
X186663224Y-55679788D01*
X186541936Y-55469711D01*
X186394265Y-55277262D01*
X186394260Y-55277256D01*
X186222743Y-55105739D01*
X186222736Y-55105733D01*
X186030293Y-54958067D01*
X186030292Y-54958066D01*
X186030289Y-54958064D01*
X185820212Y-54836776D01*
X185820205Y-54836773D01*
X185596104Y-54743947D01*
X185361785Y-54681161D01*
X185121289Y-54649500D01*
X185121288Y-54649500D01*
X184878712Y-54649500D01*
X184878711Y-54649500D01*
X184638214Y-54681161D01*
X184403895Y-54743947D01*
X184179794Y-54836773D01*
X184179785Y-54836777D01*
X183969706Y-54958067D01*
X183777263Y-55105733D01*
X183777256Y-55105739D01*
X183605739Y-55277256D01*
X183605733Y-55277263D01*
X183458067Y-55469706D01*
X183336777Y-55679785D01*
X183336773Y-55679794D01*
X183243947Y-55903895D01*
X183181161Y-56138214D01*
X183149500Y-56378711D01*
X138825500Y-56378711D01*
X138825500Y-56353712D01*
X138793838Y-56113211D01*
X138731054Y-55878900D01*
X138638224Y-55654788D01*
X138516936Y-55444711D01*
X138369265Y-55252262D01*
X138369260Y-55252256D01*
X138197743Y-55080739D01*
X138197736Y-55080733D01*
X138005293Y-54933067D01*
X138005292Y-54933066D01*
X138005289Y-54933064D01*
X137795212Y-54811776D01*
X137795205Y-54811773D01*
X137571104Y-54718947D01*
X137336785Y-54656161D01*
X137096289Y-54624500D01*
X137096288Y-54624500D01*
X136853712Y-54624500D01*
X136853711Y-54624500D01*
X136613214Y-54656161D01*
X136378895Y-54718947D01*
X136154794Y-54811773D01*
X136154785Y-54811777D01*
X135944706Y-54933067D01*
X135752263Y-55080733D01*
X135752256Y-55080739D01*
X135580739Y-55252256D01*
X135580733Y-55252263D01*
X135433067Y-55444706D01*
X135311777Y-55654785D01*
X135311773Y-55654794D01*
X135218947Y-55878895D01*
X135156161Y-56113214D01*
X135124500Y-56353711D01*
X133945500Y-56353711D01*
X133945500Y-53574500D01*
X133965185Y-53507461D01*
X134017989Y-53461706D01*
X134069500Y-53450500D01*
X187935500Y-53450500D01*
X188002539Y-53470185D01*
G37*
%TD.AperFunction*%
%TD*%
M02*
