%TF.GenerationSoftware,KiCad,Pcbnew,9.0.2*%
%TF.CreationDate,2026-06-24T13:40:08-04:00*%
%TF.ProjectId,NaviCore_V1,4e617669-436f-4726-955f-56312e6b6963,rev?*%
%TF.SameCoordinates,Original*%
%TF.FileFunction,Legend,Bot*%
%TF.FilePolarity,Positive*%
%FSLAX46Y46*%
G04 Gerber Fmt 4.6, Leading zero omitted, Abs format (unit mm)*
G04 Created by KiCad (PCBNEW 9.0.2) date 2026-06-24 13:40:08*
%MOMM*%
%LPD*%
G01*
G04 APERTURE LIST*
%ADD10C,0.100000*%
%ADD11C,0.000000*%
G04 APERTURE END LIST*
D10*
G36*
X185263695Y-86810737D02*
G01*
X184504344Y-86586522D01*
X185263695Y-86359560D01*
X185263695Y-85963764D01*
X184275000Y-86315840D01*
X184275000Y-86840108D01*
X185263695Y-87187421D01*
X185263695Y-86810737D01*
G37*
G36*
X184275000Y-85977930D02*
G01*
X185259787Y-85977930D01*
X185259787Y-85131629D01*
X184966695Y-85131629D01*
X184966695Y-85656629D01*
X184853367Y-85656629D01*
X184853367Y-85317620D01*
X184681420Y-85317620D01*
X184681420Y-85656629D01*
X184568091Y-85656629D01*
X184568091Y-85048281D01*
X184275000Y-85048281D01*
X184275000Y-85977930D01*
G37*
G36*
X184568091Y-84284595D02*
G01*
X184662735Y-84358417D01*
X184685058Y-84282967D01*
X184710452Y-84225268D01*
X184738206Y-84182074D01*
X184773151Y-84144860D01*
X184812732Y-84116361D01*
X184857580Y-84095917D01*
X184905817Y-84085829D01*
X184971747Y-84085559D01*
X185060668Y-84098665D01*
X185115584Y-84127142D01*
X185161891Y-84164310D01*
X185200558Y-84210772D01*
X185229697Y-84264071D01*
X185251032Y-84328516D01*
X185263695Y-84406289D01*
X185263695Y-85048831D01*
X184275000Y-85048831D01*
X184275000Y-84691992D01*
X184601064Y-84691992D01*
X184341904Y-84443169D01*
X184835659Y-84443169D01*
X184835659Y-84691992D01*
X185017498Y-84691992D01*
X185017498Y-84443841D01*
X185013682Y-84427170D01*
X184999363Y-84403236D01*
X184985142Y-84390615D01*
X184961525Y-84380990D01*
X184924502Y-84375514D01*
X184885426Y-84379778D01*
X184862553Y-84388508D01*
X184850314Y-84400122D01*
X184839016Y-84423433D01*
X184835659Y-84443169D01*
X184341904Y-84443169D01*
X184275000Y-84378933D01*
X184275000Y-83989305D01*
X184568091Y-83989305D01*
X184568091Y-84284595D01*
G37*
G36*
X184275000Y-83924214D02*
G01*
X184544644Y-83924214D01*
X184544644Y-83619277D01*
X184275000Y-83619277D01*
X184275000Y-83924214D01*
G37*
G36*
X184740038Y-83924214D02*
G01*
X185009682Y-83924214D01*
X185009682Y-83619277D01*
X184740038Y-83619277D01*
X184740038Y-83924214D01*
G37*
G36*
X184757684Y-82782990D02*
G01*
X185015116Y-82882763D01*
X185263695Y-82514323D01*
X185263695Y-82213537D01*
X184275000Y-82213537D01*
X184275000Y-82566285D01*
X184917236Y-82566285D01*
X184757684Y-82782990D01*
G37*
G36*
X184275000Y-82029867D02*
G01*
X184544644Y-82029867D01*
X184544644Y-81724930D01*
X184275000Y-81724930D01*
X184275000Y-82029867D01*
G37*
G36*
X184845412Y-80619027D02*
G01*
X184914935Y-80630235D01*
X184978358Y-80648307D01*
X185038856Y-80674131D01*
X185092603Y-80706249D01*
X185140291Y-80744722D01*
X185181808Y-80789589D01*
X185216232Y-80840414D01*
X185243789Y-80897862D01*
X185263179Y-80958742D01*
X185275179Y-81025557D01*
X185279326Y-81099179D01*
X185274915Y-81177312D01*
X185262279Y-81246633D01*
X185242079Y-81308312D01*
X185213332Y-81366290D01*
X185177862Y-81416988D01*
X185135467Y-81461147D01*
X185087022Y-81498766D01*
X185033047Y-81529962D01*
X184972923Y-81554814D01*
X184910024Y-81572196D01*
X184842253Y-81582894D01*
X184768981Y-81586566D01*
X184670556Y-81579929D01*
X184582497Y-81560789D01*
X184503244Y-81529841D01*
X184448037Y-81497820D01*
X184400023Y-81459511D01*
X184358548Y-81414642D01*
X184323237Y-81362656D01*
X184296016Y-81306603D01*
X184276077Y-81244608D01*
X184263675Y-81175802D01*
X184259368Y-81099179D01*
X184478210Y-81099179D01*
X184484333Y-81138258D01*
X184501474Y-81167201D01*
X184528018Y-81188729D01*
X184563145Y-81203410D01*
X184602680Y-81211882D01*
X184648080Y-81216721D01*
X184768675Y-81219469D01*
X184928593Y-81213668D01*
X184982212Y-81202263D01*
X185023115Y-81181550D01*
X185043412Y-81161369D01*
X185055946Y-81134636D01*
X185060484Y-81099179D01*
X185056003Y-81064621D01*
X185043609Y-81038540D01*
X185023482Y-81018824D01*
X184982853Y-80998646D01*
X184928960Y-80987377D01*
X184768675Y-80981577D01*
X184612787Y-80987377D01*
X184558986Y-80998653D01*
X184516922Y-81019190D01*
X184495714Y-81039205D01*
X184482825Y-81065210D01*
X184478210Y-81099179D01*
X184259368Y-81099179D01*
X184263626Y-81022088D01*
X184275862Y-80953139D01*
X184295484Y-80891291D01*
X184322199Y-80835641D01*
X184357049Y-80783997D01*
X184398034Y-80739603D01*
X184445528Y-80701876D01*
X184500191Y-80670533D01*
X184578739Y-80640485D01*
X184667730Y-80621716D01*
X184768981Y-80615151D01*
X184845412Y-80619027D01*
G37*
G36*
X184862793Y-78161604D02*
G01*
X184940651Y-78175957D01*
X185002782Y-78197758D01*
X185061165Y-78228775D01*
X185108867Y-78263324D01*
X185147252Y-78301317D01*
X185179692Y-78344763D01*
X185208053Y-78395294D01*
X185232187Y-78453785D01*
X185249194Y-78514698D01*
X185259927Y-78583804D01*
X185263695Y-78662246D01*
X185263695Y-79244644D01*
X184275000Y-79244644D01*
X184275000Y-78727154D01*
X184521196Y-78727154D01*
X184521196Y-78915160D01*
X185017498Y-78915160D01*
X185017498Y-78728558D01*
X185014169Y-78685969D01*
X185004935Y-78651389D01*
X184990509Y-78623290D01*
X184958866Y-78587058D01*
X184915954Y-78557344D01*
X184883029Y-78544161D01*
X184835416Y-78534394D01*
X184768675Y-78529623D01*
X184695057Y-78537422D01*
X184646896Y-78548420D01*
X184617245Y-78561069D01*
X184578827Y-78589372D01*
X184548185Y-78624633D01*
X184533761Y-78651870D01*
X184524528Y-78685527D01*
X184521196Y-78727154D01*
X184275000Y-78727154D01*
X184275000Y-78678672D01*
X184277182Y-78588379D01*
X184286735Y-78514110D01*
X184302355Y-78453419D01*
X184325804Y-78395303D01*
X184354153Y-78344887D01*
X184387290Y-78301317D01*
X184426758Y-78263733D01*
X184475992Y-78230408D01*
X184536523Y-78201482D01*
X184600558Y-78180647D01*
X184676421Y-78165308D01*
X184765928Y-78156358D01*
X184862793Y-78161604D01*
G37*
G36*
X185263695Y-77390291D02*
G01*
X185263695Y-77880425D01*
X184275000Y-78205146D01*
X184275000Y-77850994D01*
X184454762Y-77788834D01*
X184454762Y-77775828D01*
X184654064Y-77775828D01*
X185045097Y-77634350D01*
X184654064Y-77503742D01*
X184654064Y-77775828D01*
X184454762Y-77775828D01*
X184454762Y-77495559D01*
X184275000Y-77433339D01*
X184275000Y-77060074D01*
X185263695Y-77390291D01*
G37*
G36*
X185259787Y-76174206D02*
G01*
X184966695Y-76174206D01*
X184966695Y-76487325D01*
X184275000Y-76487325D01*
X184275000Y-76808565D01*
X184966695Y-76808565D01*
X184966695Y-77121685D01*
X185259787Y-77121685D01*
X185259787Y-76174206D01*
G37*
G36*
X184275000Y-76140805D02*
G01*
X185259787Y-76140805D01*
X185259787Y-75294504D01*
X184966695Y-75294504D01*
X184966695Y-75819504D01*
X184853367Y-75819504D01*
X184853367Y-75480495D01*
X184681420Y-75480495D01*
X184681420Y-75819504D01*
X184568091Y-75819504D01*
X184568091Y-75211156D01*
X184275000Y-75211156D01*
X184275000Y-76140805D01*
G37*
G36*
X184275000Y-75146126D02*
G01*
X184544644Y-75146126D01*
X184544644Y-74841189D01*
X184275000Y-74841189D01*
X184275000Y-75146126D01*
G37*
G36*
X184740038Y-75146126D02*
G01*
X185009682Y-75146126D01*
X185009682Y-74841189D01*
X184740038Y-74841189D01*
X184740038Y-75146126D01*
G37*
G36*
X184513381Y-73685676D02*
G01*
X184513381Y-73285729D01*
X184275000Y-73285729D01*
X184275000Y-74058208D01*
X184552826Y-74058208D01*
X184635477Y-73902385D01*
X184713599Y-73772444D01*
X184758142Y-73714794D01*
X184798412Y-73674380D01*
X184827884Y-73654377D01*
X184859983Y-73642512D01*
X184895621Y-73638476D01*
X184940151Y-73644731D01*
X184974027Y-73662207D01*
X184999912Y-73691111D01*
X185017890Y-73727571D01*
X185029153Y-73770196D01*
X185033129Y-73820315D01*
X185028270Y-73900138D01*
X185014204Y-73972479D01*
X184991425Y-74038363D01*
X185248551Y-74038363D01*
X185271083Y-73883879D01*
X185277260Y-73807080D01*
X185279326Y-73729396D01*
X185274230Y-73634797D01*
X185259699Y-73551590D01*
X185236605Y-73478286D01*
X185205443Y-73413590D01*
X185172392Y-73368167D01*
X185132173Y-73333183D01*
X185083869Y-73307629D01*
X185025833Y-73291485D01*
X184955826Y-73285729D01*
X184903412Y-73289802D01*
X184854638Y-73301783D01*
X184808792Y-73321632D01*
X184745708Y-73362689D01*
X184690151Y-73414261D01*
X184641771Y-73472449D01*
X184601613Y-73531193D01*
X184516128Y-73685676D01*
X184513381Y-73685676D01*
G37*
G36*
X184673604Y-72466172D02*
G01*
X185263695Y-72466843D01*
X185263695Y-72704064D01*
X184673848Y-73235231D01*
X184462578Y-73235231D01*
X184462578Y-72966564D01*
X184673604Y-72966564D01*
X184983670Y-72704064D01*
X184673604Y-72704064D01*
X184673604Y-72966564D01*
X184462578Y-72966564D01*
X184462578Y-72704064D01*
X184275000Y-72704064D01*
X184275000Y-72466843D01*
X184462578Y-72466843D01*
X184462578Y-72294591D01*
X184673604Y-72294591D01*
X184673604Y-72466172D01*
G37*
G36*
X185263695Y-71023124D02*
G01*
X184968771Y-71023124D01*
X184968771Y-71073682D01*
X184584638Y-71073682D01*
X184508149Y-71080391D01*
X184458536Y-71092046D01*
X184428201Y-71106533D01*
X184387781Y-71140317D01*
X184345219Y-71190614D01*
X184321700Y-71229196D01*
X184300710Y-71278818D01*
X184282815Y-71341678D01*
X184276648Y-71492742D01*
X184275000Y-71617794D01*
X184569434Y-71617794D01*
X184562570Y-71562717D01*
X184569434Y-71497505D01*
X184584194Y-71448897D01*
X184598194Y-71423682D01*
X184621518Y-71407965D01*
X184676229Y-71394984D01*
X185263695Y-71394984D01*
X185263695Y-71023124D01*
G37*
G36*
X185263695Y-70694312D02*
G01*
X184678611Y-70694312D01*
X184613078Y-70691001D01*
X184568733Y-70677412D01*
X184539515Y-70656027D01*
X184518891Y-70625323D01*
X184504476Y-70582397D01*
X184497749Y-70523403D01*
X184503321Y-70476647D01*
X184517536Y-70436793D01*
X184540186Y-70402442D01*
X184571149Y-70377244D01*
X184615625Y-70361361D01*
X184678611Y-70356646D01*
X185263695Y-70356646D01*
X185263695Y-70035345D01*
X184682763Y-70035345D01*
X184600931Y-70041490D01*
X184536237Y-70055565D01*
X184485537Y-70076072D01*
X184438496Y-70104500D01*
X184397645Y-70137032D01*
X184362438Y-70173769D01*
X184332842Y-70215101D01*
X184307158Y-70264175D01*
X184285624Y-70322086D01*
X184264681Y-70414351D01*
X184255460Y-70520716D01*
X184262663Y-70611707D01*
X184280495Y-70705608D01*
X184299187Y-70766812D01*
X184323359Y-70821256D01*
X184352852Y-70869678D01*
X184388949Y-70912853D01*
X184431046Y-70948704D01*
X184479736Y-70977695D01*
X184532795Y-70997692D01*
X184599287Y-71010820D01*
X184682091Y-71015614D01*
X185263695Y-71015614D01*
X185263695Y-70694312D01*
G37*
G36*
X184275000Y-69987840D02*
G01*
X185263695Y-69987840D01*
X185263695Y-69666538D01*
X184893972Y-69372592D01*
X185263695Y-69372592D01*
X185263695Y-69051351D01*
X184275000Y-69051351D01*
X184275000Y-69372592D01*
X184644722Y-69666538D01*
X184275000Y-69666538D01*
X184275000Y-69987840D01*
G37*
G36*
X184513381Y-68002634D02*
G01*
X184513381Y-67602686D01*
X184275000Y-67602686D01*
X184275000Y-68375165D01*
X184552826Y-68375165D01*
X184635477Y-68219343D01*
X184713599Y-68089401D01*
X184758142Y-68031752D01*
X184798412Y-67991338D01*
X184827884Y-67971335D01*
X184859983Y-67959469D01*
X184895621Y-67955434D01*
X184940151Y-67961688D01*
X184974027Y-67979165D01*
X184999912Y-68008068D01*
X185017890Y-68044528D01*
X185029153Y-68087154D01*
X185033129Y-68137273D01*
X185028270Y-68217096D01*
X185014204Y-68289436D01*
X184991425Y-68355320D01*
X185248551Y-68355320D01*
X185271083Y-68200837D01*
X185277260Y-68124038D01*
X185279326Y-68046353D01*
X185274230Y-67951754D01*
X185259699Y-67868548D01*
X185236605Y-67795244D01*
X185205443Y-67730547D01*
X185172392Y-67685124D01*
X185132173Y-67650141D01*
X185083869Y-67624586D01*
X185025833Y-67608442D01*
X184955826Y-67602686D01*
X184903412Y-67606759D01*
X184854638Y-67618740D01*
X184808792Y-67638590D01*
X184745708Y-67679646D01*
X184690151Y-67731219D01*
X184641771Y-67789407D01*
X184601613Y-67848150D01*
X184516128Y-68002634D01*
X184513381Y-68002634D01*
G37*
G36*
X184671190Y-66645129D02*
G01*
X184727485Y-66661101D01*
X184777285Y-66687081D01*
X184821416Y-66722233D01*
X184857602Y-66763932D01*
X184886400Y-66812866D01*
X184907091Y-66866108D01*
X184919516Y-66921609D01*
X184923709Y-66979989D01*
X184919460Y-67053008D01*
X184907955Y-67110231D01*
X184888311Y-67160976D01*
X184863442Y-67199441D01*
X184914976Y-67194767D01*
X184955891Y-67181850D01*
X184988420Y-67161589D01*
X185014078Y-67133801D01*
X185039323Y-67088003D01*
X185054983Y-67034804D01*
X185060484Y-66972478D01*
X185057370Y-66895603D01*
X185050226Y-66835458D01*
X185037892Y-66778672D01*
X185025619Y-66729090D01*
X185253436Y-66729090D01*
X185267182Y-66812407D01*
X185276121Y-66911086D01*
X185279326Y-67027189D01*
X185272232Y-67127770D01*
X185251741Y-67217900D01*
X185218510Y-67299214D01*
X185184424Y-67355425D01*
X185143215Y-67404831D01*
X185094469Y-67447998D01*
X185037465Y-67485205D01*
X184976601Y-67513624D01*
X184908739Y-67534553D01*
X184832874Y-67547631D01*
X184747854Y-67552189D01*
X184655102Y-67545262D01*
X184571336Y-67525160D01*
X184495062Y-67492349D01*
X184426094Y-67446729D01*
X184368583Y-67390430D01*
X184321528Y-67322478D01*
X184287398Y-67246911D01*
X184266545Y-67164018D01*
X184260118Y-67081838D01*
X184470394Y-67081838D01*
X184474704Y-67117088D01*
X184486866Y-67145386D01*
X184506786Y-67168361D01*
X184532576Y-67185366D01*
X184562645Y-67195791D01*
X184598133Y-67199441D01*
X184640648Y-67195685D01*
X184673847Y-67185392D01*
X184699738Y-67169399D01*
X184719513Y-67146999D01*
X184731740Y-67118451D01*
X184736130Y-67081838D01*
X184731926Y-67046028D01*
X184720081Y-67017170D01*
X184700776Y-66993667D01*
X184675475Y-66976274D01*
X184644523Y-66965421D01*
X184606376Y-66961549D01*
X184568181Y-66965430D01*
X184536081Y-66976469D01*
X184508801Y-66994399D01*
X184487579Y-67018508D01*
X184474841Y-67047177D01*
X184470394Y-67081838D01*
X184260118Y-67081838D01*
X184259368Y-67072252D01*
X184263646Y-66997779D01*
X184276242Y-66927475D01*
X184296981Y-66860737D01*
X184327052Y-66798309D01*
X184365588Y-66745354D01*
X184412936Y-66700758D01*
X184468009Y-66667356D01*
X184531932Y-66646783D01*
X184606926Y-66639575D01*
X184671190Y-66645129D01*
G37*
G36*
X182888091Y-87271806D02*
G01*
X182888091Y-86962839D01*
X182595000Y-86962839D01*
X182595000Y-87400339D01*
X182601605Y-87506236D01*
X182620774Y-87602633D01*
X182651908Y-87690866D01*
X182684394Y-87753089D01*
X182723528Y-87807494D01*
X182769489Y-87854837D01*
X182822756Y-87895602D01*
X182880971Y-87927485D01*
X182946105Y-87950831D01*
X183019259Y-87965388D01*
X183101742Y-87970463D01*
X183177957Y-87965249D01*
X183246549Y-87950169D01*
X183308677Y-87925705D01*
X183366225Y-87891814D01*
X183416467Y-87850591D01*
X183460047Y-87801630D01*
X183496546Y-87746735D01*
X183526573Y-87686210D01*
X183550111Y-87619425D01*
X183566431Y-87550252D01*
X183576396Y-87477368D01*
X183579787Y-87400339D01*
X183579787Y-87129657D01*
X183579787Y-86962839D01*
X183286695Y-86962839D01*
X183286695Y-87271806D01*
X183284869Y-87368926D01*
X183280528Y-87425679D01*
X183272107Y-87473930D01*
X183260073Y-87514522D01*
X183240793Y-87550777D01*
X183210247Y-87583582D01*
X183184541Y-87599115D01*
X183144452Y-87611281D01*
X183084645Y-87618387D01*
X183026908Y-87612048D01*
X182986760Y-87599909D01*
X182959715Y-87583582D01*
X182928373Y-87548501D01*
X182909890Y-87507012D01*
X182899523Y-87461359D01*
X182892854Y-87414016D01*
X182888091Y-87271806D01*
G37*
G36*
X182888091Y-86157937D02*
G01*
X182982735Y-86231759D01*
X183005058Y-86156309D01*
X183030452Y-86098610D01*
X183058206Y-86055416D01*
X183093151Y-86018202D01*
X183132732Y-85989703D01*
X183177580Y-85969259D01*
X183225817Y-85959171D01*
X183291747Y-85958901D01*
X183380668Y-85972007D01*
X183435584Y-86000484D01*
X183481891Y-86037652D01*
X183520558Y-86084114D01*
X183549697Y-86137413D01*
X183571032Y-86201857D01*
X183583695Y-86279631D01*
X183583695Y-86922172D01*
X182595000Y-86922172D01*
X182595000Y-86565334D01*
X182921064Y-86565334D01*
X182661904Y-86316511D01*
X183155659Y-86316511D01*
X183155659Y-86565334D01*
X183337498Y-86565334D01*
X183337498Y-86317183D01*
X183333682Y-86300512D01*
X183319363Y-86276577D01*
X183305142Y-86263957D01*
X183281525Y-86254332D01*
X183244502Y-86248856D01*
X183205426Y-86253120D01*
X183182553Y-86261850D01*
X183170314Y-86273463D01*
X183159016Y-86296775D01*
X183155659Y-86316511D01*
X182661904Y-86316511D01*
X182595000Y-86252275D01*
X182595000Y-85862647D01*
X182888091Y-85862647D01*
X182888091Y-86157937D01*
G37*
G36*
X182595000Y-85863135D02*
G01*
X183579787Y-85863135D01*
X183579787Y-85016834D01*
X183286695Y-85016834D01*
X183286695Y-85541834D01*
X183173367Y-85541834D01*
X183173367Y-85202825D01*
X183001420Y-85202825D01*
X183001420Y-85541834D01*
X182888091Y-85541834D01*
X182888091Y-84933486D01*
X182595000Y-84933486D01*
X182595000Y-85863135D01*
G37*
G36*
X183583695Y-84214924D02*
G01*
X183583695Y-84705058D01*
X182595000Y-85029779D01*
X182595000Y-84675627D01*
X182774762Y-84613467D01*
X182774762Y-84600461D01*
X182974064Y-84600461D01*
X183365097Y-84458983D01*
X182974064Y-84328374D01*
X182974064Y-84600461D01*
X182774762Y-84600461D01*
X182774762Y-84320192D01*
X182595000Y-84257971D01*
X182595000Y-83884707D01*
X183583695Y-84214924D01*
G37*
G36*
X183579787Y-82998838D02*
G01*
X183286695Y-82998838D01*
X183286695Y-83311958D01*
X182595000Y-83311958D01*
X182595000Y-83633198D01*
X183286695Y-83633198D01*
X183286695Y-83946318D01*
X183579787Y-83946318D01*
X183579787Y-82998838D01*
G37*
G36*
X182595000Y-82965438D02*
G01*
X183579787Y-82965438D01*
X183579787Y-82119137D01*
X183286695Y-82119137D01*
X183286695Y-82644137D01*
X183173367Y-82644137D01*
X183173367Y-82305128D01*
X183001420Y-82305128D01*
X183001420Y-82644137D01*
X182888091Y-82644137D01*
X182888091Y-82035789D01*
X182595000Y-82035789D01*
X182595000Y-82965438D01*
G37*
G36*
X183182793Y-80953299D02*
G01*
X183260651Y-80967652D01*
X183322782Y-80989453D01*
X183381165Y-81020470D01*
X183428867Y-81055019D01*
X183467252Y-81093012D01*
X183499692Y-81136458D01*
X183528053Y-81186989D01*
X183552187Y-81245480D01*
X183569194Y-81306393D01*
X183579927Y-81375499D01*
X183583695Y-81453941D01*
X183583695Y-82036338D01*
X182595000Y-82036338D01*
X182595000Y-81518849D01*
X182841196Y-81518849D01*
X182841196Y-81706855D01*
X183337498Y-81706855D01*
X183337498Y-81520253D01*
X183334169Y-81477664D01*
X183324935Y-81443084D01*
X183310509Y-81414985D01*
X183278866Y-81378753D01*
X183235954Y-81349039D01*
X183203029Y-81335856D01*
X183155416Y-81326089D01*
X183088675Y-81321318D01*
X183015057Y-81329117D01*
X182966896Y-81340115D01*
X182937245Y-81352764D01*
X182898827Y-81381067D01*
X182868185Y-81416328D01*
X182853761Y-81443565D01*
X182844528Y-81477222D01*
X182841196Y-81518849D01*
X182595000Y-81518849D01*
X182595000Y-81470367D01*
X182597182Y-81380074D01*
X182606735Y-81305805D01*
X182622355Y-81245114D01*
X182645804Y-81186998D01*
X182674153Y-81136582D01*
X182707290Y-81093012D01*
X182746758Y-81055428D01*
X182795992Y-81022103D01*
X182856523Y-80993177D01*
X182920558Y-80972342D01*
X182996421Y-80957003D01*
X183085928Y-80948053D01*
X183182793Y-80953299D01*
G37*
G36*
X182904569Y-79192181D02*
G01*
X182943107Y-79205136D01*
X182979318Y-79225639D01*
X183011861Y-79253374D01*
X183039752Y-79287381D01*
X183064556Y-79330250D01*
X183082818Y-79377688D01*
X183093621Y-79430023D01*
X183096369Y-79430023D01*
X183124954Y-79358680D01*
X183155711Y-79307484D01*
X183188143Y-79272181D01*
X183227923Y-79247168D01*
X183278098Y-79232807D01*
X183341833Y-79230416D01*
X183404489Y-79244540D01*
X183454292Y-79266571D01*
X183493605Y-79295851D01*
X183524038Y-79332631D01*
X183546062Y-79375106D01*
X183563358Y-79428734D01*
X183575034Y-79495834D01*
X183579787Y-79579072D01*
X183579787Y-80252389D01*
X182595000Y-80252389D01*
X182595000Y-79692523D01*
X182794302Y-79692523D01*
X182794302Y-79911975D01*
X182977972Y-79911975D01*
X182977972Y-79692523D01*
X182976580Y-79672739D01*
X183192906Y-79672739D01*
X183192906Y-79911975D01*
X183341406Y-79911975D01*
X183341406Y-79673411D01*
X183337957Y-79657266D01*
X183325102Y-79634088D01*
X183304186Y-79616332D01*
X183268866Y-79607771D01*
X183237228Y-79614469D01*
X183213545Y-79631035D01*
X183197511Y-79653542D01*
X183192906Y-79672739D01*
X182976580Y-79672739D01*
X182974802Y-79647455D01*
X182966211Y-79612504D01*
X182953182Y-79585606D01*
X182934182Y-79564240D01*
X182911985Y-79553082D01*
X182885099Y-79551045D01*
X182861155Y-79555430D01*
X182839447Y-79568862D01*
X182819031Y-79593422D01*
X182804570Y-79622720D01*
X182796250Y-79655468D01*
X182794302Y-79692523D01*
X182595000Y-79692523D01*
X182595000Y-79629631D01*
X182598991Y-79500626D01*
X182612096Y-79401691D01*
X182629542Y-79341511D01*
X182655774Y-79290729D01*
X182690743Y-79247879D01*
X182722430Y-79222899D01*
X182761411Y-79204291D01*
X182809232Y-79192345D01*
X182867880Y-79188039D01*
X182904569Y-79192181D01*
G37*
G36*
X183583695Y-78085527D02*
G01*
X182957883Y-78516188D01*
X182595000Y-78516188D01*
X182595000Y-78838833D01*
X182957883Y-78838833D01*
X183583695Y-79269494D01*
X183583695Y-78879866D01*
X183278330Y-78678915D01*
X183583695Y-78475156D01*
X183583695Y-78085527D01*
G37*
G36*
X182595000Y-78067759D02*
G01*
X182864644Y-78067759D01*
X182864644Y-77762821D01*
X182595000Y-77762821D01*
X182595000Y-78067759D01*
G37*
G36*
X183060038Y-78067759D02*
G01*
X183329682Y-78067759D01*
X183329682Y-77762821D01*
X183060038Y-77762821D01*
X183060038Y-78067759D01*
G37*
G36*
X182888335Y-76302371D02*
G01*
X183087515Y-76302371D01*
X183087515Y-75993404D01*
X182595000Y-75993404D01*
X182595000Y-76430904D01*
X182601605Y-76536801D01*
X182620774Y-76633198D01*
X182651908Y-76721431D01*
X182684394Y-76783654D01*
X182723528Y-76838060D01*
X182769489Y-76885402D01*
X182822756Y-76926168D01*
X182880971Y-76958050D01*
X182946105Y-76981396D01*
X183019259Y-76995953D01*
X183101742Y-77001028D01*
X183177957Y-76995814D01*
X183246549Y-76980735D01*
X183308677Y-76956270D01*
X183366225Y-76922379D01*
X183416467Y-76881156D01*
X183460047Y-76832195D01*
X183496546Y-76777300D01*
X183526573Y-76716776D01*
X183550111Y-76649990D01*
X183566431Y-76580817D01*
X183576396Y-76507933D01*
X183579787Y-76430904D01*
X183579787Y-76160222D01*
X183579787Y-75993404D01*
X183286695Y-75993404D01*
X183286695Y-76302371D01*
X183284869Y-76399491D01*
X183280528Y-76456244D01*
X183272107Y-76504495D01*
X183260073Y-76545088D01*
X183240840Y-76581340D01*
X183210308Y-76614147D01*
X183184603Y-76629683D01*
X183144531Y-76641847D01*
X183084767Y-76648952D01*
X183027073Y-76642614D01*
X182986942Y-76630476D01*
X182959898Y-76614147D01*
X182928571Y-76579065D01*
X182910134Y-76537577D01*
X182899767Y-76491924D01*
X182893098Y-76444582D01*
X182888335Y-76302371D01*
G37*
G36*
X182888091Y-75188502D02*
G01*
X182982735Y-75262324D01*
X183005058Y-75186874D01*
X183030452Y-75129175D01*
X183058206Y-75085981D01*
X183093151Y-75048768D01*
X183132732Y-75020268D01*
X183177580Y-74999824D01*
X183225817Y-74989736D01*
X183291747Y-74989466D01*
X183380668Y-75002572D01*
X183435584Y-75031049D01*
X183481891Y-75068217D01*
X183520558Y-75114679D01*
X183549697Y-75167978D01*
X183571032Y-75232423D01*
X183583695Y-75310196D01*
X183583695Y-75952738D01*
X182595000Y-75952738D01*
X182595000Y-75595899D01*
X182921064Y-75595899D01*
X182661904Y-75347076D01*
X183155659Y-75347076D01*
X183155659Y-75595899D01*
X183337498Y-75595899D01*
X183337498Y-75347748D01*
X183333682Y-75331077D01*
X183319363Y-75307143D01*
X183305142Y-75294522D01*
X183281525Y-75284897D01*
X183244502Y-75279421D01*
X183205426Y-75283685D01*
X183182553Y-75292415D01*
X183170314Y-75304029D01*
X183159016Y-75327340D01*
X183155659Y-75347076D01*
X182661904Y-75347076D01*
X182595000Y-75282841D01*
X182595000Y-74893212D01*
X182888091Y-74893212D01*
X182888091Y-75188502D01*
G37*
G36*
X182595000Y-74893701D02*
G01*
X183579787Y-74893701D01*
X183579787Y-74047399D01*
X183286695Y-74047399D01*
X183286695Y-74572399D01*
X183173367Y-74572399D01*
X183173367Y-74233390D01*
X183001420Y-74233390D01*
X183001420Y-74572399D01*
X182888091Y-74572399D01*
X182888091Y-73964051D01*
X182595000Y-73964051D01*
X182595000Y-74893701D01*
G37*
G36*
X182888335Y-73300138D02*
G01*
X183087515Y-73300138D01*
X183087515Y-72991171D01*
X182595000Y-72991171D01*
X182595000Y-73428671D01*
X182601605Y-73534568D01*
X182620774Y-73630965D01*
X182651908Y-73719198D01*
X182684394Y-73781421D01*
X182723528Y-73835826D01*
X182769489Y-73883169D01*
X182822756Y-73923934D01*
X182880971Y-73955817D01*
X182946105Y-73979163D01*
X183019259Y-73993720D01*
X183101742Y-73998795D01*
X183177957Y-73993581D01*
X183246549Y-73978502D01*
X183308677Y-73954037D01*
X183366225Y-73920146D01*
X183416467Y-73878923D01*
X183460047Y-73829962D01*
X183496546Y-73775067D01*
X183526573Y-73714542D01*
X183550111Y-73647757D01*
X183566431Y-73578584D01*
X183576396Y-73505700D01*
X183579787Y-73428671D01*
X183579787Y-73157989D01*
X183579787Y-72991171D01*
X183286695Y-72991171D01*
X183286695Y-73300138D01*
X183284869Y-73397258D01*
X183280528Y-73454011D01*
X183272107Y-73502262D01*
X183260073Y-73542855D01*
X183240840Y-73579107D01*
X183210308Y-73611914D01*
X183184603Y-73627449D01*
X183144531Y-73639614D01*
X183084767Y-73646719D01*
X183027073Y-73640381D01*
X182986942Y-73628243D01*
X182959898Y-73611914D01*
X182928571Y-73576832D01*
X182910134Y-73535344D01*
X182899767Y-73489691D01*
X182893098Y-73442349D01*
X182888335Y-73300138D01*
G37*
G36*
X183243709Y-71735824D02*
G01*
X183583695Y-71735824D01*
X183583695Y-71414522D01*
X182595000Y-71414522D01*
X182595000Y-71735824D01*
X182950617Y-71735824D01*
X182950617Y-71994172D01*
X182595000Y-71994172D01*
X182595000Y-72315473D01*
X183583695Y-72315473D01*
X183583695Y-71994172D01*
X183243709Y-71994172D01*
X183243709Y-71735824D01*
G37*
G36*
X183583695Y-71059210D02*
G01*
X182998611Y-71059210D01*
X182933078Y-71055899D01*
X182888733Y-71042311D01*
X182859515Y-71020925D01*
X182838891Y-70990221D01*
X182824476Y-70947295D01*
X182817749Y-70888301D01*
X182823321Y-70841545D01*
X182837536Y-70801691D01*
X182860186Y-70767340D01*
X182891149Y-70742142D01*
X182935625Y-70726259D01*
X182998611Y-70721544D01*
X183583695Y-70721544D01*
X183583695Y-70400243D01*
X183002763Y-70400243D01*
X182920931Y-70406388D01*
X182856237Y-70420463D01*
X182805537Y-70440970D01*
X182758496Y-70469398D01*
X182717645Y-70501930D01*
X182682438Y-70538668D01*
X182652842Y-70580000D01*
X182627158Y-70629073D01*
X182605624Y-70686984D01*
X182584681Y-70779249D01*
X182575460Y-70885614D01*
X182582663Y-70976605D01*
X182600495Y-71070506D01*
X182619187Y-71131710D01*
X182643359Y-71186154D01*
X182672852Y-71234576D01*
X182708949Y-71277751D01*
X182751046Y-71313602D01*
X182799736Y-71342593D01*
X182852795Y-71362590D01*
X182919287Y-71375718D01*
X183002091Y-71380512D01*
X183583695Y-71380512D01*
X183583695Y-71059210D01*
G37*
G36*
X182595000Y-70352738D02*
G01*
X183583695Y-70352738D01*
X183583695Y-70031436D01*
X182888091Y-70031436D01*
X182888091Y-69496911D01*
X182595000Y-69496911D01*
X182595000Y-70352738D01*
G37*
G36*
X182595000Y-69455878D02*
G01*
X183579787Y-69455878D01*
X183579787Y-68609576D01*
X183286695Y-68609576D01*
X183286695Y-69134576D01*
X183173367Y-69134576D01*
X183173367Y-68795567D01*
X183001420Y-68795567D01*
X183001420Y-69134576D01*
X182888091Y-69134576D01*
X182888091Y-68526229D01*
X182595000Y-68526229D01*
X182595000Y-69455878D01*
G37*
G36*
X183579787Y-67627171D02*
G01*
X183286695Y-67627171D01*
X183286695Y-67940290D01*
X182595000Y-67940290D01*
X182595000Y-68261530D01*
X183286695Y-68261530D01*
X183286695Y-68574650D01*
X183579787Y-68574650D01*
X183579787Y-67627171D01*
G37*
G36*
X183579787Y-66694163D02*
G01*
X183286695Y-66694163D01*
X183286695Y-67007282D01*
X182595000Y-67007282D01*
X182595000Y-67328523D01*
X183286695Y-67328523D01*
X183286695Y-67641642D01*
X183579787Y-67641642D01*
X183579787Y-66694163D01*
G37*
G36*
X182595000Y-66660763D02*
G01*
X183579787Y-66660763D01*
X183579787Y-65814461D01*
X183286695Y-65814461D01*
X183286695Y-66339461D01*
X183173367Y-66339461D01*
X183173367Y-66000452D01*
X183001420Y-66000452D01*
X183001420Y-66339461D01*
X182888091Y-66339461D01*
X182888091Y-65731113D01*
X182595000Y-65731113D01*
X182595000Y-66660763D01*
G37*
D11*
%TO.C,G\u002A\u002A\u002A*%
G36*
X182003102Y-59964365D02*
G01*
X182003448Y-59964627D01*
X182029659Y-59984563D01*
X182080991Y-60023692D01*
X182154819Y-60080011D01*
X182248517Y-60151514D01*
X182359460Y-60236197D01*
X182485021Y-60332057D01*
X182622574Y-60437088D01*
X182769495Y-60549287D01*
X182923156Y-60666650D01*
X182938906Y-60678679D01*
X183089638Y-60793736D01*
X183231712Y-60902064D01*
X183362736Y-61001845D01*
X183480314Y-61091262D01*
X183582053Y-61168497D01*
X183665559Y-61231732D01*
X183728439Y-61279151D01*
X183768297Y-61308935D01*
X183782740Y-61319267D01*
X183784582Y-61312275D01*
X183788421Y-61277369D01*
X183792909Y-61219779D01*
X183797409Y-61146961D01*
X183808768Y-61034580D01*
X183852706Y-60844574D01*
X183925024Y-60668207D01*
X184023270Y-60508580D01*
X184144992Y-60368791D01*
X184287737Y-60251939D01*
X184449052Y-60161122D01*
X184626484Y-60099439D01*
X184655215Y-60092897D01*
X184712197Y-60083418D01*
X184780784Y-60076613D01*
X184866825Y-60072112D01*
X184976163Y-60069547D01*
X185114645Y-60068545D01*
X185240376Y-60068582D01*
X185338328Y-60069656D01*
X185413999Y-60072266D01*
X185473770Y-60076910D01*
X185524023Y-60084083D01*
X185571142Y-60094283D01*
X185621506Y-60108007D01*
X185628412Y-60110023D01*
X185823362Y-60184028D01*
X185995555Y-60283871D01*
X186143740Y-60408304D01*
X186266666Y-60556077D01*
X186363080Y-60725941D01*
X186431731Y-60916648D01*
X186434673Y-60928036D01*
X186439794Y-60951723D01*
X186444250Y-60979765D01*
X186448089Y-61014523D01*
X186451356Y-61058353D01*
X186454095Y-61113613D01*
X186456353Y-61182662D01*
X186458176Y-61267857D01*
X186459607Y-61371557D01*
X186460694Y-61496119D01*
X186461481Y-61643902D01*
X186462014Y-61817263D01*
X186462338Y-62018560D01*
X186462500Y-62250152D01*
X186462543Y-62514396D01*
X186462543Y-63998360D01*
X185648539Y-64006310D01*
X185648546Y-62640240D01*
X185648553Y-61274169D01*
X185609166Y-61196063D01*
X185605412Y-61188796D01*
X185558387Y-61124104D01*
X185491007Y-61077674D01*
X185464821Y-61064943D01*
X185435775Y-61054007D01*
X185402384Y-61046696D01*
X185358516Y-61042460D01*
X185298042Y-61040744D01*
X185214831Y-61040996D01*
X185102750Y-61042663D01*
X185050153Y-61043620D01*
X184942230Y-61046632D01*
X184861275Y-61051868D01*
X184801561Y-61060958D01*
X184757363Y-61075531D01*
X184722953Y-61097215D01*
X184692605Y-61127639D01*
X184660593Y-61168433D01*
X184656710Y-61173791D01*
X184649956Y-61185014D01*
X184644171Y-61199513D01*
X184639252Y-61219930D01*
X184635093Y-61248910D01*
X184631590Y-61289099D01*
X184628638Y-61343140D01*
X184626134Y-61413679D01*
X184623972Y-61503359D01*
X184622048Y-61614825D01*
X184620258Y-61750722D01*
X184618498Y-61913695D01*
X184616662Y-62106388D01*
X184614646Y-62331445D01*
X184613222Y-62487950D01*
X184611138Y-62696320D01*
X184609053Y-62874155D01*
X184606881Y-63024144D01*
X184604537Y-63148978D01*
X184601934Y-63251345D01*
X184598988Y-63333934D01*
X184595613Y-63399437D01*
X184591724Y-63450541D01*
X184587235Y-63489937D01*
X184582061Y-63520314D01*
X184576117Y-63544361D01*
X184506229Y-63733601D01*
X184413673Y-63897259D01*
X184297067Y-64036577D01*
X184154849Y-64153424D01*
X183985454Y-64249665D01*
X183940318Y-64270890D01*
X183889245Y-64294027D01*
X183841728Y-64313327D01*
X183794261Y-64329167D01*
X183743338Y-64341925D01*
X183685453Y-64351980D01*
X183617100Y-64359708D01*
X183534774Y-64365487D01*
X183434969Y-64369696D01*
X183314178Y-64372712D01*
X183168896Y-64374912D01*
X182995617Y-64376675D01*
X182790834Y-64378378D01*
X181937457Y-64385303D01*
X181937457Y-62852285D01*
X181937514Y-62652392D01*
X181937712Y-62432907D01*
X181938042Y-62225893D01*
X181938493Y-62033854D01*
X181939054Y-61859296D01*
X181939715Y-61704722D01*
X181940463Y-61572636D01*
X181941289Y-61465544D01*
X181942181Y-61385948D01*
X181943129Y-61336354D01*
X181944121Y-61319267D01*
X181944730Y-61319520D01*
X181963807Y-61332767D01*
X182006544Y-61364186D01*
X182069355Y-61411089D01*
X182148654Y-61470786D01*
X182240852Y-61540589D01*
X182342364Y-61617809D01*
X182733943Y-61916350D01*
X182742695Y-62663742D01*
X182751448Y-63411134D01*
X183084046Y-63416598D01*
X183120229Y-63417126D01*
X183267438Y-63417374D01*
X183385705Y-63413586D01*
X183479889Y-63405176D01*
X183554846Y-63391558D01*
X183615437Y-63372146D01*
X183666517Y-63346355D01*
X183677669Y-63339403D01*
X183713394Y-63312933D01*
X183740284Y-63282117D01*
X183759706Y-63241844D01*
X183773022Y-63187005D01*
X183781598Y-63112490D01*
X183786798Y-63013190D01*
X183789986Y-62883996D01*
X183795720Y-62566920D01*
X182866588Y-61861475D01*
X181937457Y-61156031D01*
X181937457Y-59914698D01*
X182003102Y-59964365D01*
G37*
G36*
X185414098Y-105280102D02*
G01*
X185414098Y-105766072D01*
X184134378Y-105766072D01*
X182854659Y-105766072D01*
X182854659Y-105280102D01*
X182854659Y-104794133D01*
X184134378Y-104794133D01*
X185414098Y-104794133D01*
X185414098Y-105280102D01*
G37*
G36*
X186386037Y-105280102D02*
G01*
X186386037Y-105766072D01*
X186045858Y-105766072D01*
X185705679Y-105766072D01*
X185705679Y-105280102D01*
X185705679Y-104794133D01*
X186045858Y-104794133D01*
X186386037Y-104794133D01*
X186386037Y-105280102D01*
G37*
G36*
X180077618Y-95020315D02*
G01*
X180095630Y-95070070D01*
X180100832Y-95171939D01*
X180100832Y-95333929D01*
X180408613Y-95333929D01*
X180453252Y-95334036D01*
X180584670Y-95336830D01*
X180665091Y-95344700D01*
X180705378Y-95359360D01*
X180716394Y-95382526D01*
X180712263Y-95397709D01*
X180685389Y-95414428D01*
X180624570Y-95424637D01*
X180519535Y-95429735D01*
X180360016Y-95431123D01*
X180003639Y-95431123D01*
X180003639Y-95220536D01*
X180003994Y-95172743D01*
X180009826Y-95074244D01*
X180024977Y-95024008D01*
X180052236Y-95009949D01*
X180077618Y-95020315D01*
G37*
G36*
X186386037Y-113298597D02*
G01*
X186386037Y-113800766D01*
X185430297Y-113800766D01*
X185353135Y-113800845D01*
X185118015Y-113802106D01*
X184907841Y-113804748D01*
X184730584Y-113808568D01*
X184594213Y-113813363D01*
X184506698Y-113818929D01*
X184476009Y-113825064D01*
X184498123Y-113844931D01*
X184568375Y-113897303D01*
X184680859Y-113977580D01*
X184829507Y-114081520D01*
X185008250Y-114204885D01*
X185211020Y-114343432D01*
X185431748Y-114492922D01*
X186386037Y-115136481D01*
X186386037Y-115651149D01*
X186386037Y-116165817D01*
X184620348Y-116165817D01*
X182854659Y-116165817D01*
X182854659Y-115647932D01*
X182854659Y-115130046D01*
X183815656Y-115121465D01*
X184776653Y-115112883D01*
X183817218Y-114464924D01*
X182857783Y-113816965D01*
X182856221Y-113306697D01*
X182854659Y-112796429D01*
X184620348Y-112796429D01*
X186386037Y-112796429D01*
X186386037Y-113298597D01*
G37*
G36*
X180683011Y-96568358D02*
G01*
X180703259Y-96598100D01*
X180713536Y-96668621D01*
X180716394Y-96791837D01*
X180715685Y-96862837D01*
X180709312Y-96957329D01*
X180694200Y-97005286D01*
X180667797Y-97018623D01*
X180636098Y-97002770D01*
X180619200Y-96937628D01*
X180619122Y-96923928D01*
X180614350Y-96891184D01*
X180593331Y-96871277D01*
X180543928Y-96861012D01*
X180454003Y-96857196D01*
X180311419Y-96856633D01*
X180174156Y-96855769D01*
X180081525Y-96851388D01*
X180030242Y-96840960D01*
X180008286Y-96821953D01*
X180003639Y-96791837D01*
X180007744Y-96762940D01*
X180028551Y-96743438D01*
X180078087Y-96732642D01*
X180168369Y-96728020D01*
X180311419Y-96727041D01*
X180363480Y-96727021D01*
X180487905Y-96725765D01*
X180563552Y-96720234D01*
X180602559Y-96707233D01*
X180617062Y-96683568D01*
X180619200Y-96646046D01*
X180628711Y-96593215D01*
X180667797Y-96565051D01*
X180683011Y-96568358D01*
G37*
G36*
X180683011Y-101233664D02*
G01*
X180703259Y-101263406D01*
X180713536Y-101333927D01*
X180716394Y-101457143D01*
X180715685Y-101528143D01*
X180709312Y-101622636D01*
X180694200Y-101670592D01*
X180667797Y-101683929D01*
X180636098Y-101668076D01*
X180619200Y-101602934D01*
X180619122Y-101589234D01*
X180614350Y-101556490D01*
X180593331Y-101536583D01*
X180543928Y-101526318D01*
X180454003Y-101522502D01*
X180311419Y-101521939D01*
X180174156Y-101521075D01*
X180081525Y-101516694D01*
X180030242Y-101506266D01*
X180008286Y-101487259D01*
X180003639Y-101457143D01*
X180007744Y-101428246D01*
X180028551Y-101408745D01*
X180078087Y-101397948D01*
X180168369Y-101393326D01*
X180311419Y-101392347D01*
X180363480Y-101392327D01*
X180487905Y-101391071D01*
X180563552Y-101385540D01*
X180602559Y-101372539D01*
X180617062Y-101348875D01*
X180619200Y-101311352D01*
X180628711Y-101258521D01*
X180667797Y-101230358D01*
X180683011Y-101233664D01*
G37*
G36*
X180683011Y-111341827D02*
G01*
X180703259Y-111371569D01*
X180713536Y-111442090D01*
X180716394Y-111565307D01*
X180715685Y-111636306D01*
X180709312Y-111730799D01*
X180694200Y-111778755D01*
X180667797Y-111792092D01*
X180636098Y-111776240D01*
X180619200Y-111711097D01*
X180619122Y-111697397D01*
X180614350Y-111664654D01*
X180593331Y-111644747D01*
X180543928Y-111634482D01*
X180454003Y-111630665D01*
X180311419Y-111630102D01*
X180174156Y-111629238D01*
X180081525Y-111624858D01*
X180030242Y-111614429D01*
X180008286Y-111595422D01*
X180003639Y-111565307D01*
X180007744Y-111536409D01*
X180028551Y-111516908D01*
X180078087Y-111506111D01*
X180168369Y-111501489D01*
X180311419Y-111500511D01*
X180363480Y-111500490D01*
X180487905Y-111499234D01*
X180563552Y-111493703D01*
X180602559Y-111480702D01*
X180617062Y-111457038D01*
X180619200Y-111419516D01*
X180628711Y-111366685D01*
X180667797Y-111338521D01*
X180683011Y-111341827D01*
G37*
G36*
X185332773Y-94967545D02*
G01*
X185374007Y-95026065D01*
X185414923Y-95119923D01*
X185449018Y-95233773D01*
X185469789Y-95352266D01*
X185473220Y-95459048D01*
X185435258Y-95642005D01*
X185338691Y-95797372D01*
X185183355Y-95925476D01*
X185014015Y-96030485D01*
X185214057Y-96040131D01*
X185414098Y-96049776D01*
X185414098Y-96501802D01*
X185414098Y-96953827D01*
X184134378Y-96953827D01*
X182854659Y-96953827D01*
X182854659Y-96467858D01*
X182854659Y-95981888D01*
X183381126Y-95981246D01*
X183610778Y-95978608D01*
X183909874Y-95965129D01*
X184152982Y-95939263D01*
X184344891Y-95899923D01*
X184490388Y-95846018D01*
X184594263Y-95776461D01*
X184661302Y-95690163D01*
X184677113Y-95646199D01*
X184690108Y-95534105D01*
X184682450Y-95407902D01*
X184654656Y-95298115D01*
X184653888Y-95285758D01*
X184683237Y-95249378D01*
X184759003Y-95200294D01*
X184884939Y-95136529D01*
X185064799Y-95056107D01*
X185302335Y-94957050D01*
X185332773Y-94967545D01*
G37*
G36*
X180406181Y-99685923D02*
G01*
X180426412Y-99687274D01*
X180568197Y-99706492D01*
X180657159Y-99744074D01*
X180703243Y-99806947D01*
X180716394Y-99902041D01*
X180713592Y-99955464D01*
X180688390Y-100033106D01*
X180628880Y-100081232D01*
X180525258Y-100105766D01*
X180367719Y-100112628D01*
X180256923Y-100110136D01*
X180126946Y-100095331D01*
X180100832Y-100084883D01*
X180055712Y-100066832D01*
X180051623Y-100063291D01*
X180014870Y-99997872D01*
X180010686Y-99902041D01*
X180100832Y-99902041D01*
X180100832Y-100001961D01*
X180351917Y-99992498D01*
X180443761Y-99988661D01*
X180533545Y-99981322D01*
X180581072Y-99967660D01*
X180599754Y-99942844D01*
X180603001Y-99902041D01*
X180601836Y-99872370D01*
X180589574Y-99842946D01*
X180552774Y-99826227D01*
X180478026Y-99817384D01*
X180351917Y-99811584D01*
X180100832Y-99802122D01*
X180100832Y-99902041D01*
X180010686Y-99902041D01*
X180010134Y-99889401D01*
X180017845Y-99832703D01*
X180053387Y-99752342D01*
X180123915Y-99704196D01*
X180238493Y-99683608D01*
X180406181Y-99685923D01*
G37*
G36*
X180406181Y-109794086D02*
G01*
X180426412Y-109795437D01*
X180568197Y-109814656D01*
X180657159Y-109852237D01*
X180703243Y-109915110D01*
X180716394Y-110010205D01*
X180713592Y-110063627D01*
X180688390Y-110141269D01*
X180628880Y-110189396D01*
X180525258Y-110213929D01*
X180367719Y-110220791D01*
X180256923Y-110218300D01*
X180126946Y-110203494D01*
X180100832Y-110193047D01*
X180055712Y-110174996D01*
X180051623Y-110171454D01*
X180014870Y-110106035D01*
X180010686Y-110010205D01*
X180100832Y-110010205D01*
X180100832Y-110110124D01*
X180351917Y-110100662D01*
X180443761Y-110096825D01*
X180533545Y-110089486D01*
X180581072Y-110075824D01*
X180599754Y-110051007D01*
X180603001Y-110010205D01*
X180601836Y-109980534D01*
X180589574Y-109951109D01*
X180552774Y-109934391D01*
X180478026Y-109925547D01*
X180351917Y-109919747D01*
X180100832Y-109910285D01*
X180100832Y-110010205D01*
X180010686Y-110010205D01*
X180010134Y-109997565D01*
X180017845Y-109940866D01*
X180053387Y-109860506D01*
X180123915Y-109812359D01*
X180238493Y-109791772D01*
X180406181Y-109794086D01*
G37*
G36*
X180678826Y-108229859D02*
G01*
X180701557Y-108255130D01*
X180713149Y-108320782D01*
X180716394Y-108438904D01*
X180716394Y-108649490D01*
X180360016Y-108649490D01*
X180003639Y-108649490D01*
X180003639Y-108438904D01*
X180003994Y-108391111D01*
X180009826Y-108292611D01*
X180024977Y-108242376D01*
X180052236Y-108228317D01*
X180077618Y-108238683D01*
X180095630Y-108288437D01*
X180100832Y-108390307D01*
X180100832Y-108552296D01*
X180214225Y-108552296D01*
X180264686Y-108551397D01*
X180308792Y-108538505D01*
X180325198Y-108496086D01*
X180327618Y-108406506D01*
X180329594Y-108344670D01*
X180344184Y-108279794D01*
X180376215Y-108260715D01*
X180396827Y-108266643D01*
X180418452Y-108310413D01*
X180424812Y-108406506D01*
X180425361Y-108461507D01*
X180433933Y-108523668D01*
X180462240Y-108548070D01*
X180522006Y-108552296D01*
X180570003Y-108550477D01*
X180604020Y-108534019D01*
X180617076Y-108486201D01*
X180619200Y-108390307D01*
X180622310Y-108305700D01*
X180637236Y-108245658D01*
X180667797Y-108228317D01*
X180678826Y-108229859D01*
G37*
G36*
X180462419Y-98931161D02*
G01*
X180597996Y-98937185D01*
X180685414Y-98947882D01*
X180716394Y-98962500D01*
X180713481Y-98967590D01*
X180665729Y-98982300D01*
X180568339Y-98992687D01*
X180432912Y-98997326D01*
X180149429Y-98999753D01*
X180432819Y-99102619D01*
X180524572Y-99137163D01*
X180636276Y-99186231D01*
X180697573Y-99226434D01*
X180716301Y-99262182D01*
X180716271Y-99264718D01*
X180708726Y-99288873D01*
X180680303Y-99304620D01*
X180620028Y-99313706D01*
X180516924Y-99317876D01*
X180360016Y-99318878D01*
X180252484Y-99317458D01*
X180118112Y-99310043D01*
X180035248Y-99298128D01*
X180006494Y-99283804D01*
X180034453Y-99269163D01*
X180121728Y-99256295D01*
X180270922Y-99247293D01*
X180538205Y-99237883D01*
X180271006Y-99140689D01*
X180201843Y-99114763D01*
X180086624Y-99064829D01*
X180023178Y-99023668D01*
X180003723Y-98986799D01*
X180003753Y-98984264D01*
X180011302Y-98960108D01*
X180039726Y-98944361D01*
X180100003Y-98935275D01*
X180203107Y-98931105D01*
X180360016Y-98930102D01*
X180462419Y-98931161D01*
G37*
G36*
X180462419Y-104374018D02*
G01*
X180597996Y-104380042D01*
X180685414Y-104390739D01*
X180716394Y-104405358D01*
X180713481Y-104410447D01*
X180665729Y-104425157D01*
X180568339Y-104435544D01*
X180432912Y-104440183D01*
X180149429Y-104442610D01*
X180432819Y-104545476D01*
X180524572Y-104580020D01*
X180636276Y-104629088D01*
X180697573Y-104669291D01*
X180716301Y-104705039D01*
X180716271Y-104707575D01*
X180708726Y-104731731D01*
X180680303Y-104747477D01*
X180620028Y-104756563D01*
X180516924Y-104760733D01*
X180360016Y-104761735D01*
X180252484Y-104760315D01*
X180118112Y-104752900D01*
X180035248Y-104740985D01*
X180006494Y-104726661D01*
X180034453Y-104712020D01*
X180121728Y-104699152D01*
X180270922Y-104690150D01*
X180538205Y-104680740D01*
X180271006Y-104583546D01*
X180201843Y-104557620D01*
X180086624Y-104507686D01*
X180023178Y-104466525D01*
X180003723Y-104429656D01*
X180003753Y-104427121D01*
X180011302Y-104402965D01*
X180039726Y-104387218D01*
X180100003Y-104378132D01*
X180203107Y-104373962D01*
X180360016Y-104372960D01*
X180462419Y-104374018D01*
G37*
G36*
X180586241Y-97351341D02*
G01*
X180646993Y-97403319D01*
X180696155Y-97481805D01*
X180716394Y-97563196D01*
X180712263Y-97629919D01*
X180685156Y-97704678D01*
X180624079Y-97750558D01*
X180519051Y-97773633D01*
X180360091Y-97779975D01*
X180351284Y-97779970D01*
X180218159Y-97777440D01*
X180133679Y-97768175D01*
X180082602Y-97749086D01*
X180049689Y-97717086D01*
X180025639Y-97674981D01*
X180003231Y-97569636D01*
X180020584Y-97467106D01*
X180075643Y-97393037D01*
X180129992Y-97359472D01*
X180172837Y-97342602D01*
X180184094Y-97345100D01*
X180198654Y-97378064D01*
X180185148Y-97426351D01*
X180149429Y-97460478D01*
X180116287Y-97497221D01*
X180100832Y-97574217D01*
X180100832Y-97669308D01*
X180351917Y-97659845D01*
X180428470Y-97656664D01*
X180525501Y-97649279D01*
X180579434Y-97635878D01*
X180604275Y-97611782D01*
X180614031Y-97572316D01*
X180611719Y-97520151D01*
X180573534Y-97465413D01*
X180562238Y-97457907D01*
X180528659Y-97411780D01*
X180524651Y-97364379D01*
X180554404Y-97342602D01*
X180586241Y-97351341D01*
G37*
G36*
X180586241Y-107459504D02*
G01*
X180646993Y-107511482D01*
X180696155Y-107589968D01*
X180716394Y-107671359D01*
X180712263Y-107738083D01*
X180685156Y-107812841D01*
X180624079Y-107858721D01*
X180519051Y-107881796D01*
X180360091Y-107888138D01*
X180351284Y-107888133D01*
X180218159Y-107885603D01*
X180133679Y-107876338D01*
X180082602Y-107857249D01*
X180049689Y-107825250D01*
X180025639Y-107783145D01*
X180003231Y-107677799D01*
X180020584Y-107575269D01*
X180075643Y-107501200D01*
X180129992Y-107467635D01*
X180172837Y-107450766D01*
X180184094Y-107453264D01*
X180198654Y-107486227D01*
X180185148Y-107534515D01*
X180149429Y-107568642D01*
X180116287Y-107605384D01*
X180100832Y-107682380D01*
X180100832Y-107777471D01*
X180351917Y-107768009D01*
X180428470Y-107764827D01*
X180525501Y-107757442D01*
X180579434Y-107744041D01*
X180604275Y-107719946D01*
X180614031Y-107680480D01*
X180611719Y-107628315D01*
X180573534Y-107573576D01*
X180562238Y-107566070D01*
X180528659Y-107519943D01*
X180524651Y-107472543D01*
X180554404Y-107450766D01*
X180586241Y-107459504D01*
G37*
G36*
X185414098Y-106623565D02*
G01*
X185414098Y-107117296D01*
X185049621Y-107232999D01*
X184887721Y-107284339D01*
X184675715Y-107351466D01*
X184455281Y-107421180D01*
X184254376Y-107484634D01*
X184198305Y-107502505D01*
X184052674Y-107550761D01*
X183937248Y-107591733D01*
X183862619Y-107621547D01*
X183839376Y-107636333D01*
X183861153Y-107645356D01*
X183937759Y-107671519D01*
X184061153Y-107711559D01*
X184222780Y-107762747D01*
X184414087Y-107822350D01*
X184626521Y-107887639D01*
X185397899Y-108123176D01*
X185406840Y-108633107D01*
X185407919Y-108699571D01*
X185409384Y-108879493D01*
X185407240Y-109004596D01*
X185400984Y-109082487D01*
X185390113Y-109120770D01*
X185374122Y-109127052D01*
X185364001Y-109122984D01*
X185301107Y-109097191D01*
X185187793Y-109050485D01*
X185030568Y-108985555D01*
X184835938Y-108905091D01*
X184610411Y-108811783D01*
X184360495Y-108708321D01*
X184092696Y-108597394D01*
X182852928Y-108083722D01*
X182861893Y-107646606D01*
X182870858Y-107209491D01*
X184142478Y-106669663D01*
X185414098Y-106129835D01*
X185414098Y-106623565D01*
G37*
G36*
X180673652Y-100485588D02*
G01*
X180699431Y-100506120D01*
X180712662Y-100566720D01*
X180716394Y-100679592D01*
X180716298Y-100703014D01*
X180711165Y-100806130D01*
X180696015Y-100859051D01*
X180667797Y-100873980D01*
X180639457Y-100861954D01*
X180619200Y-100809184D01*
X180618246Y-100792100D01*
X180605234Y-100766339D01*
X180566547Y-100751972D01*
X180489153Y-100745741D01*
X180360016Y-100744388D01*
X180291680Y-100744627D01*
X180188634Y-100747880D01*
X180131166Y-100757551D01*
X180106244Y-100776900D01*
X180100832Y-100809184D01*
X180091813Y-100846970D01*
X180052236Y-100873980D01*
X180046380Y-100873597D01*
X180020601Y-100853065D01*
X180007371Y-100792464D01*
X180003639Y-100679592D01*
X180003734Y-100656171D01*
X180008867Y-100553054D01*
X180024018Y-100500133D01*
X180052236Y-100485205D01*
X180080575Y-100497231D01*
X180100832Y-100550000D01*
X180101786Y-100567084D01*
X180114799Y-100592846D01*
X180153485Y-100607213D01*
X180230880Y-100613444D01*
X180360016Y-100614796D01*
X180428352Y-100614558D01*
X180531399Y-100611305D01*
X180588866Y-100601633D01*
X180613789Y-100582285D01*
X180619200Y-100550000D01*
X180628220Y-100512215D01*
X180667797Y-100485205D01*
X180673652Y-100485588D01*
G37*
G36*
X180673652Y-103595792D02*
G01*
X180699431Y-103616324D01*
X180712662Y-103676924D01*
X180716394Y-103789796D01*
X180716298Y-103813218D01*
X180711165Y-103916334D01*
X180696015Y-103969255D01*
X180667797Y-103984184D01*
X180639457Y-103972158D01*
X180619200Y-103919388D01*
X180618246Y-103902304D01*
X180605234Y-103876543D01*
X180566547Y-103862176D01*
X180489153Y-103855945D01*
X180360016Y-103854592D01*
X180291680Y-103854831D01*
X180188634Y-103858084D01*
X180131166Y-103867755D01*
X180106244Y-103887104D01*
X180100832Y-103919388D01*
X180091813Y-103957174D01*
X180052236Y-103984184D01*
X180046380Y-103983801D01*
X180020601Y-103963269D01*
X180007371Y-103902669D01*
X180003639Y-103789796D01*
X180003734Y-103766375D01*
X180008867Y-103663258D01*
X180024018Y-103610337D01*
X180052236Y-103595409D01*
X180080575Y-103607435D01*
X180100832Y-103660205D01*
X180101786Y-103677288D01*
X180114799Y-103703050D01*
X180153485Y-103717417D01*
X180230880Y-103723648D01*
X180360016Y-103725000D01*
X180428352Y-103724762D01*
X180531399Y-103721509D01*
X180588866Y-103711837D01*
X180613789Y-103692489D01*
X180619200Y-103660205D01*
X180628220Y-103622419D01*
X180667797Y-103595409D01*
X180673652Y-103595792D01*
G37*
G36*
X180561406Y-112117278D02*
G01*
X180634055Y-112155152D01*
X180692445Y-112228755D01*
X180716394Y-112314427D01*
X180716276Y-112326958D01*
X180696165Y-112446633D01*
X180639216Y-112515304D01*
X180542086Y-112537245D01*
X180455829Y-112523036D01*
X180365514Y-112456371D01*
X180310723Y-112335919D01*
X180309805Y-112332410D01*
X180267084Y-112259110D01*
X180200897Y-112220266D01*
X180133520Y-112229286D01*
X180108093Y-112270412D01*
X180101420Y-112344594D01*
X180115911Y-112418397D01*
X180149429Y-112460733D01*
X180157665Y-112464506D01*
X180192006Y-112503625D01*
X180193754Y-112548316D01*
X180160080Y-112569643D01*
X180123174Y-112557750D01*
X180062886Y-112516025D01*
X180029591Y-112468992D01*
X180005619Y-112369175D01*
X180014679Y-112261531D01*
X180057257Y-112175319D01*
X180070563Y-112162362D01*
X180157625Y-112122090D01*
X180255294Y-112125470D01*
X180334568Y-112172768D01*
X180376334Y-112237133D01*
X180414984Y-112326659D01*
X180415177Y-112327264D01*
X180458675Y-112404427D01*
X180532604Y-112434104D01*
X180577725Y-112436549D01*
X180611891Y-112415554D01*
X180619200Y-112348476D01*
X180606952Y-112278260D01*
X180570603Y-112233948D01*
X180557385Y-112226568D01*
X180527991Y-112184837D01*
X180522643Y-112138177D01*
X180547195Y-112116072D01*
X180561406Y-112117278D01*
G37*
G36*
X180541940Y-95789816D02*
G01*
X180638661Y-95831469D01*
X180696911Y-95925027D01*
X180716394Y-96070092D01*
X180716394Y-96208674D01*
X180508446Y-96208674D01*
X180360016Y-96208674D01*
X180248671Y-96208111D01*
X180126064Y-96204446D01*
X180051203Y-96196152D01*
X180013818Y-96181830D01*
X180003639Y-96160077D01*
X180009567Y-96139465D01*
X180053337Y-96117840D01*
X180149429Y-96111480D01*
X180204931Y-96109889D01*
X180274329Y-96095784D01*
X180295220Y-96064399D01*
X180286688Y-96044792D01*
X180250410Y-96013269D01*
X180392414Y-96013269D01*
X180392416Y-96015507D01*
X180398844Y-96079888D01*
X180430851Y-96106347D01*
X180507959Y-96111480D01*
X180508446Y-96111480D01*
X180584594Y-96106683D01*
X180613697Y-96082828D01*
X180613252Y-96025653D01*
X180584699Y-95945673D01*
X180522804Y-95894405D01*
X180445415Y-95894720D01*
X180409893Y-95929007D01*
X180392414Y-96013269D01*
X180250410Y-96013269D01*
X180234092Y-95999090D01*
X180149429Y-95952828D01*
X180103787Y-95930281D01*
X180031518Y-95880536D01*
X180003639Y-95837919D01*
X180007157Y-95802765D01*
X180027045Y-95791803D01*
X180076895Y-95808652D01*
X180170299Y-95854679D01*
X180301981Y-95921858D01*
X180349034Y-95854679D01*
X180399471Y-95809802D01*
X180505807Y-95787500D01*
X180541940Y-95789816D01*
G37*
G36*
X180541940Y-110563285D02*
G01*
X180638661Y-110604939D01*
X180696911Y-110698497D01*
X180716394Y-110843561D01*
X180716394Y-110982143D01*
X180508446Y-110982143D01*
X180360016Y-110982143D01*
X180248671Y-110981580D01*
X180126064Y-110977915D01*
X180051203Y-110969622D01*
X180013818Y-110955299D01*
X180003639Y-110933546D01*
X180009567Y-110912934D01*
X180053337Y-110891309D01*
X180149429Y-110884949D01*
X180204931Y-110883359D01*
X180274329Y-110869253D01*
X180295220Y-110837869D01*
X180286688Y-110818261D01*
X180250411Y-110786739D01*
X180392414Y-110786739D01*
X180392416Y-110788977D01*
X180398844Y-110853357D01*
X180430851Y-110879817D01*
X180507959Y-110884949D01*
X180508446Y-110884949D01*
X180584594Y-110880153D01*
X180613697Y-110856298D01*
X180613252Y-110799123D01*
X180584699Y-110719142D01*
X180522804Y-110667874D01*
X180445415Y-110668190D01*
X180409893Y-110702476D01*
X180392414Y-110786739D01*
X180250411Y-110786739D01*
X180234092Y-110772559D01*
X180149429Y-110726297D01*
X180103787Y-110703750D01*
X180031518Y-110654006D01*
X180003639Y-110611389D01*
X180007157Y-110576235D01*
X180027045Y-110565272D01*
X180076895Y-110582121D01*
X180170299Y-110628149D01*
X180301981Y-110695327D01*
X180349034Y-110628149D01*
X180399471Y-110583272D01*
X180505807Y-110560970D01*
X180541940Y-110563285D01*
G37*
G36*
X180471361Y-106706176D02*
G01*
X180593968Y-106709841D01*
X180668829Y-106718134D01*
X180706214Y-106732457D01*
X180716394Y-106754210D01*
X180710466Y-106774822D01*
X180666695Y-106796447D01*
X180570603Y-106802807D01*
X180515602Y-106803356D01*
X180453440Y-106811927D01*
X180429038Y-106840234D01*
X180424812Y-106900000D01*
X180425636Y-106936668D01*
X180438493Y-106978109D01*
X180480954Y-106994377D01*
X180570603Y-106997194D01*
X180632439Y-106999170D01*
X180697314Y-107013760D01*
X180716394Y-107045791D01*
X180712263Y-107060975D01*
X180685389Y-107077694D01*
X180624570Y-107087902D01*
X180519535Y-107093000D01*
X180360016Y-107094388D01*
X180248671Y-107093825D01*
X180126064Y-107090160D01*
X180051203Y-107081867D01*
X180013818Y-107067544D01*
X180003639Y-107045791D01*
X180014004Y-107020409D01*
X180063759Y-107002397D01*
X180165628Y-106997194D01*
X180245623Y-106996103D01*
X180302319Y-106986228D01*
X180324079Y-106957537D01*
X180327618Y-106900000D01*
X180325799Y-106852004D01*
X180309341Y-106817986D01*
X180261522Y-106804930D01*
X180165628Y-106802807D01*
X180081021Y-106799697D01*
X180020980Y-106784770D01*
X180003639Y-106754210D01*
X180007769Y-106739026D01*
X180034643Y-106722307D01*
X180095463Y-106712099D01*
X180200497Y-106707001D01*
X180360016Y-106705613D01*
X180471361Y-106706176D01*
G37*
G36*
X180108145Y-102009227D02*
G01*
X180222325Y-102039589D01*
X180337459Y-102071005D01*
X180473171Y-102107732D01*
X180578702Y-102135968D01*
X180629332Y-102151187D01*
X180696599Y-102187240D01*
X180716394Y-102234694D01*
X180712361Y-102258669D01*
X180672012Y-102299779D01*
X180578702Y-102333421D01*
X180491556Y-102356709D01*
X180358289Y-102392726D01*
X180313775Y-102404864D01*
X180222325Y-102429800D01*
X180168007Y-102444589D01*
X180075771Y-102467587D01*
X180026665Y-102472947D01*
X180007137Y-102460748D01*
X180003639Y-102431068D01*
X180022987Y-102386381D01*
X180100832Y-102352947D01*
X180142950Y-102342252D01*
X180187632Y-102307682D01*
X180198026Y-102234694D01*
X180262822Y-102234694D01*
X180263193Y-102252465D01*
X180274235Y-102287633D01*
X180313775Y-102296606D01*
X180399297Y-102285948D01*
X180433531Y-102280089D01*
X180512132Y-102263172D01*
X180550488Y-102249410D01*
X180551203Y-102248680D01*
X180553473Y-102224987D01*
X180505200Y-102204272D01*
X180399297Y-102183440D01*
X180366000Y-102178314D01*
X180297023Y-102173197D01*
X180268459Y-102189802D01*
X180262822Y-102234694D01*
X180198026Y-102234694D01*
X180195792Y-102191428D01*
X180170579Y-102140959D01*
X180100832Y-102116442D01*
X180033229Y-102091239D01*
X180003639Y-102038321D01*
X180004016Y-102023849D01*
X180012540Y-102001435D01*
X180042733Y-101996535D01*
X180108145Y-102009227D01*
G37*
G36*
X180108145Y-105119431D02*
G01*
X180222325Y-105149793D01*
X180337459Y-105181209D01*
X180473171Y-105217936D01*
X180578702Y-105246172D01*
X180629332Y-105261391D01*
X180696599Y-105297444D01*
X180716394Y-105344898D01*
X180712361Y-105368873D01*
X180672012Y-105409983D01*
X180578702Y-105443625D01*
X180491556Y-105466913D01*
X180358289Y-105502930D01*
X180313775Y-105515068D01*
X180222325Y-105540004D01*
X180168007Y-105554793D01*
X180075771Y-105577791D01*
X180026665Y-105583151D01*
X180007137Y-105570952D01*
X180003639Y-105541272D01*
X180022987Y-105496586D01*
X180100832Y-105463151D01*
X180142950Y-105452456D01*
X180187632Y-105417886D01*
X180198026Y-105344898D01*
X180262822Y-105344898D01*
X180263193Y-105362669D01*
X180274235Y-105397838D01*
X180313775Y-105406810D01*
X180399297Y-105396153D01*
X180433531Y-105390293D01*
X180512132Y-105373376D01*
X180550488Y-105359614D01*
X180551203Y-105358884D01*
X180553473Y-105335191D01*
X180505200Y-105314476D01*
X180399297Y-105293644D01*
X180366000Y-105288518D01*
X180297023Y-105283401D01*
X180268459Y-105300006D01*
X180262822Y-105344898D01*
X180198026Y-105344898D01*
X180195792Y-105301632D01*
X180170579Y-105251163D01*
X180100832Y-105226646D01*
X180033229Y-105201443D01*
X180003639Y-105148525D01*
X180004016Y-105134053D01*
X180012540Y-105111639D01*
X180042733Y-105106739D01*
X180108145Y-105119431D01*
G37*
G36*
X180108145Y-112894941D02*
G01*
X180222325Y-112925303D01*
X180337459Y-112956720D01*
X180473171Y-112993446D01*
X180578702Y-113021682D01*
X180629332Y-113036901D01*
X180696599Y-113072954D01*
X180716394Y-113120409D01*
X180712361Y-113144383D01*
X180672012Y-113185493D01*
X180578702Y-113219135D01*
X180491556Y-113242424D01*
X180358289Y-113278440D01*
X180313775Y-113290578D01*
X180222325Y-113315514D01*
X180168007Y-113330303D01*
X180075771Y-113353301D01*
X180026665Y-113358661D01*
X180007137Y-113346462D01*
X180003639Y-113316782D01*
X180022987Y-113272096D01*
X180100832Y-113238661D01*
X180142950Y-113227966D01*
X180187632Y-113193397D01*
X180198026Y-113120409D01*
X180262822Y-113120409D01*
X180263193Y-113138179D01*
X180274235Y-113173348D01*
X180313775Y-113182320D01*
X180399297Y-113171663D01*
X180433531Y-113165803D01*
X180512132Y-113148886D01*
X180550488Y-113135124D01*
X180551203Y-113134394D01*
X180553473Y-113110702D01*
X180505200Y-113089986D01*
X180399297Y-113069154D01*
X180366000Y-113064028D01*
X180297023Y-113058911D01*
X180268459Y-113075516D01*
X180262822Y-113120409D01*
X180198026Y-113120409D01*
X180195792Y-113077143D01*
X180170579Y-113026673D01*
X180100832Y-113002156D01*
X180033229Y-112976953D01*
X180003639Y-112924035D01*
X180004016Y-112909563D01*
X180012540Y-112887149D01*
X180042733Y-112882249D01*
X180108145Y-112894941D01*
G37*
G36*
X181550710Y-104074269D02*
G01*
X181550846Y-104199083D01*
X181551695Y-105018507D01*
X181552397Y-105775879D01*
X181552938Y-106473592D01*
X181553306Y-107114040D01*
X181553488Y-107699616D01*
X181553471Y-108232715D01*
X181553242Y-108715730D01*
X181552788Y-109151055D01*
X181552096Y-109541084D01*
X181551154Y-109888211D01*
X181549948Y-110194830D01*
X181548465Y-110463334D01*
X181546693Y-110696117D01*
X181544618Y-110895574D01*
X181542228Y-111064098D01*
X181539511Y-111204083D01*
X181536452Y-111317922D01*
X181533039Y-111408010D01*
X181529259Y-111476740D01*
X181525099Y-111526507D01*
X181520547Y-111559703D01*
X181515589Y-111578724D01*
X181510213Y-111585962D01*
X181486164Y-111591937D01*
X181412881Y-111585962D01*
X181412070Y-111585548D01*
X181406756Y-111576741D01*
X181401858Y-111555803D01*
X181397364Y-111520339D01*
X181393260Y-111467956D01*
X181389535Y-111396261D01*
X181386174Y-111302858D01*
X181383166Y-111185356D01*
X181380497Y-111041359D01*
X181378154Y-110868473D01*
X181376124Y-110664306D01*
X181374395Y-110426463D01*
X181372953Y-110152550D01*
X181371786Y-109840173D01*
X181370881Y-109486940D01*
X181370225Y-109090454D01*
X181369804Y-108648324D01*
X181369607Y-108158155D01*
X181369620Y-107617553D01*
X181369830Y-107024125D01*
X181370224Y-106375476D01*
X181370789Y-105669213D01*
X181371514Y-104902942D01*
X181372383Y-104074269D01*
X181380552Y-96581250D01*
X181461547Y-96581250D01*
X181542542Y-96581250D01*
X181550710Y-104074269D01*
G37*
G36*
X180422073Y-102785529D02*
G01*
X180557857Y-102787093D01*
X180643995Y-102792246D01*
X180691674Y-102802992D01*
X180712078Y-102821334D01*
X180716394Y-102849275D01*
X180708683Y-102881931D01*
X180662876Y-102921216D01*
X180564936Y-102957254D01*
X180539754Y-102964709D01*
X180465997Y-102991157D01*
X180449420Y-103013749D01*
X180491797Y-103039468D01*
X180594901Y-103075299D01*
X180607540Y-103079523D01*
X180690360Y-103122537D01*
X180716394Y-103176748D01*
X180716085Y-103186107D01*
X180707509Y-103210359D01*
X180678771Y-103225828D01*
X180618713Y-103234463D01*
X180516181Y-103238214D01*
X180360016Y-103239031D01*
X180248671Y-103238468D01*
X180126064Y-103234803D01*
X180051203Y-103226510D01*
X180013818Y-103212187D01*
X180003639Y-103190434D01*
X180012916Y-103168213D01*
X180052964Y-103151635D01*
X180135212Y-103142470D01*
X180270922Y-103138530D01*
X180335013Y-103137582D01*
X180434802Y-103134353D01*
X180479780Y-103128307D01*
X180476850Y-103117865D01*
X180432912Y-103101445D01*
X180364822Y-103068541D01*
X180327464Y-103016753D01*
X180347116Y-102966585D01*
X180424441Y-102931332D01*
X180498635Y-102911792D01*
X180530683Y-102893065D01*
X180502616Y-102880409D01*
X180416909Y-102874729D01*
X180276035Y-102876934D01*
X180246037Y-102878039D01*
X180121973Y-102880345D01*
X180048225Y-102875370D01*
X180012783Y-102861329D01*
X180003639Y-102836437D01*
X180009034Y-102817620D01*
X180036638Y-102801281D01*
X180097288Y-102791483D01*
X180201556Y-102786713D01*
X180360016Y-102785460D01*
X180422073Y-102785529D01*
G37*
G36*
X180422073Y-109005938D02*
G01*
X180557857Y-109007501D01*
X180643995Y-109012654D01*
X180691674Y-109023401D01*
X180712078Y-109041743D01*
X180716394Y-109069683D01*
X180708683Y-109102340D01*
X180662876Y-109141624D01*
X180564936Y-109177662D01*
X180539754Y-109185117D01*
X180465997Y-109211565D01*
X180449420Y-109234157D01*
X180491797Y-109259876D01*
X180594901Y-109295708D01*
X180607540Y-109299931D01*
X180690360Y-109342945D01*
X180716394Y-109397156D01*
X180716085Y-109406515D01*
X180707509Y-109430767D01*
X180678771Y-109446236D01*
X180618713Y-109454871D01*
X180516181Y-109458622D01*
X180360016Y-109459439D01*
X180248671Y-109458876D01*
X180126064Y-109455211D01*
X180051203Y-109446918D01*
X180013818Y-109432595D01*
X180003639Y-109410842D01*
X180012916Y-109388621D01*
X180052964Y-109372043D01*
X180135212Y-109362878D01*
X180270922Y-109358938D01*
X180335013Y-109357990D01*
X180434802Y-109354761D01*
X180479780Y-109348715D01*
X180476850Y-109338273D01*
X180432912Y-109321853D01*
X180364822Y-109288949D01*
X180327464Y-109237161D01*
X180347116Y-109186994D01*
X180424441Y-109151740D01*
X180498635Y-109132200D01*
X180530683Y-109113473D01*
X180502616Y-109100817D01*
X180416909Y-109095138D01*
X180276035Y-109097343D01*
X180246037Y-109098447D01*
X180121973Y-109100753D01*
X180048225Y-109095778D01*
X180012783Y-109081738D01*
X180003639Y-109056845D01*
X180009034Y-109038028D01*
X180036638Y-109021689D01*
X180097288Y-109011891D01*
X180201556Y-109007122D01*
X180360016Y-109005868D01*
X180422073Y-109005938D01*
G37*
G36*
X184500276Y-97509936D02*
G01*
X184711231Y-97578531D01*
X184782661Y-97614007D01*
X185012376Y-97772827D01*
X185200432Y-97977746D01*
X185341742Y-98222255D01*
X185431220Y-98499845D01*
X185474112Y-98805065D01*
X185470022Y-99119999D01*
X185415975Y-99411290D01*
X185315186Y-99673933D01*
X185170870Y-99902919D01*
X184986241Y-100093242D01*
X184764516Y-100239893D01*
X184508909Y-100337865D01*
X184222636Y-100382151D01*
X184134378Y-100384853D01*
X184133116Y-100384892D01*
X183844735Y-100361875D01*
X183589328Y-100286864D01*
X183360287Y-100158143D01*
X183235498Y-100057544D01*
X183050885Y-99848268D01*
X182913689Y-99597983D01*
X182821385Y-99302679D01*
X182809714Y-99230863D01*
X182799879Y-99061705D01*
X182801971Y-98962881D01*
X183442059Y-98962881D01*
X183482345Y-99107381D01*
X183574166Y-99235496D01*
X183713632Y-99335077D01*
X183758741Y-99355363D01*
X183851612Y-99382067D01*
X183970408Y-99395916D01*
X184134378Y-99399873D01*
X184227736Y-99398835D01*
X184365463Y-99390027D01*
X184468175Y-99369762D01*
X184555124Y-99335077D01*
X184600594Y-99309772D01*
X184728683Y-99199252D01*
X184803918Y-99065488D01*
X184826065Y-98919926D01*
X184794891Y-98774008D01*
X184710160Y-98639178D01*
X184571641Y-98526880D01*
X184556040Y-98518037D01*
X184488989Y-98488965D01*
X184407535Y-98471357D01*
X184294918Y-98462663D01*
X184134378Y-98460332D01*
X183972713Y-98464634D01*
X183811507Y-98485518D01*
X183689793Y-98528515D01*
X183594068Y-98598853D01*
X183510828Y-98701760D01*
X183457199Y-98814147D01*
X183442059Y-98962881D01*
X182801971Y-98962881D01*
X182804052Y-98864566D01*
X182820743Y-98661995D01*
X182848459Y-98476537D01*
X182885708Y-98330740D01*
X182906090Y-98276183D01*
X183039858Y-98022372D01*
X183220894Y-97811251D01*
X183445165Y-97646729D01*
X183708641Y-97532717D01*
X183763397Y-97517260D01*
X184003585Y-97478261D01*
X184256802Y-97476166D01*
X184500276Y-97509936D01*
G37*
G36*
X184077682Y-91835512D02*
G01*
X184212755Y-91841528D01*
X184464186Y-91879791D01*
X184699298Y-91948405D01*
X184895253Y-92041613D01*
X185085472Y-92186932D01*
X185242330Y-92376467D01*
X185357204Y-92607796D01*
X185432059Y-92884926D01*
X185468858Y-93211863D01*
X185471132Y-93442147D01*
X185435613Y-93749984D01*
X185352091Y-94019162D01*
X185218978Y-94254244D01*
X185034688Y-94459792D01*
X185011215Y-94480709D01*
X184794617Y-94629659D01*
X184545390Y-94726742D01*
X184377363Y-94754548D01*
X184257564Y-94774373D01*
X183959227Y-94771112D01*
X183677381Y-94714535D01*
X183425100Y-94607948D01*
X183207906Y-94455255D01*
X183031321Y-94260360D01*
X182900865Y-94027165D01*
X182822060Y-93759573D01*
X182812898Y-93681376D01*
X182805453Y-93545443D01*
X182802393Y-93382168D01*
X182804374Y-93211863D01*
X182807827Y-93117296D01*
X182828024Y-92866723D01*
X182865995Y-92662623D01*
X182925867Y-92492090D01*
X183011766Y-92342214D01*
X183127819Y-92200088D01*
X183157317Y-92169115D01*
X183252019Y-92077961D01*
X183345003Y-91998594D01*
X183425166Y-91939444D01*
X183481405Y-91908940D01*
X183502618Y-91915512D01*
X183503032Y-91921762D01*
X183508571Y-91978634D01*
X183519555Y-92083594D01*
X183534701Y-92224501D01*
X183552725Y-92389216D01*
X183602833Y-92843491D01*
X183505727Y-92954089D01*
X183434575Y-93058120D01*
X183383164Y-93213630D01*
X183381857Y-93372648D01*
X183428079Y-93521515D01*
X183519254Y-93646571D01*
X183652808Y-93734156D01*
X183658577Y-93736528D01*
X183750687Y-93766482D01*
X183825557Y-93778827D01*
X183832088Y-93778728D01*
X183849467Y-93775185D01*
X183863070Y-93761462D01*
X183873359Y-93730731D01*
X183880797Y-93676166D01*
X183885845Y-93590941D01*
X183888966Y-93468227D01*
X183890503Y-93313296D01*
X184377363Y-93313296D01*
X184377363Y-93787305D01*
X184493768Y-93768415D01*
X184640000Y-93720989D01*
X184761440Y-93630015D01*
X184843840Y-93509429D01*
X184885571Y-93371270D01*
X184885009Y-93227579D01*
X184840525Y-93090395D01*
X184750494Y-92971758D01*
X184613289Y-92883708D01*
X184609762Y-92882220D01*
X184518440Y-92851847D01*
X184443200Y-92839286D01*
X184433228Y-92839534D01*
X184410514Y-92845907D01*
X184394967Y-92868311D01*
X184385234Y-92916499D01*
X184379958Y-93000224D01*
X184377786Y-93129239D01*
X184377363Y-93313296D01*
X183890503Y-93313296D01*
X183890623Y-93301198D01*
X183891278Y-93083028D01*
X183891394Y-92806888D01*
X183891394Y-91834949D01*
X184077682Y-91835512D01*
G37*
G36*
X183990817Y-100800724D02*
G01*
X184003320Y-100825280D01*
X184026674Y-100889468D01*
X184061554Y-100997214D01*
X184109435Y-101153232D01*
X184171793Y-101362233D01*
X184250103Y-101628930D01*
X184256582Y-101653189D01*
X184258128Y-101710574D01*
X184221698Y-101737421D01*
X184169020Y-101758314D01*
X184076468Y-101799109D01*
X183966284Y-101850164D01*
X183878942Y-101895193D01*
X183751052Y-101987327D01*
X183670315Y-102097932D01*
X183628158Y-102241233D01*
X183616011Y-102431456D01*
X183616823Y-102483778D01*
X183638916Y-102663756D01*
X183697178Y-102801366D01*
X183799629Y-102910176D01*
X183954288Y-103003753D01*
X183961143Y-103007120D01*
X184044688Y-103044315D01*
X184126036Y-103069643D01*
X184221934Y-103086044D01*
X184349131Y-103096456D01*
X184524376Y-103103820D01*
X184716450Y-103107516D01*
X184870940Y-103102917D01*
X184994385Y-103088465D01*
X185103833Y-103062958D01*
X185112927Y-103060262D01*
X185309256Y-102972182D01*
X185464404Y-102844343D01*
X185573711Y-102685972D01*
X185632517Y-102506299D01*
X185636162Y-102314553D01*
X185579986Y-102119961D01*
X185553390Y-102069257D01*
X185459963Y-101946524D01*
X185345742Y-101848242D01*
X185230728Y-101793127D01*
X185172011Y-101764267D01*
X185165307Y-101712482D01*
X185166232Y-101708851D01*
X185180342Y-101648300D01*
X185204522Y-101540355D01*
X185235633Y-101399143D01*
X185270535Y-101238798D01*
X185276919Y-101209388D01*
X185310451Y-101057898D01*
X185339145Y-100933035D01*
X185360131Y-100847052D01*
X185370535Y-100812200D01*
X185375124Y-100811588D01*
X185422355Y-100827017D01*
X185508444Y-100864045D01*
X185619147Y-100916683D01*
X185743603Y-100985460D01*
X185961214Y-101144902D01*
X186141151Y-101330519D01*
X186269856Y-101529540D01*
X186285574Y-101562898D01*
X186377921Y-101831110D01*
X186431627Y-102132344D01*
X186446769Y-102449960D01*
X186423422Y-102767319D01*
X186361663Y-103067779D01*
X186261568Y-103334703D01*
X186211981Y-103427030D01*
X186036695Y-103663667D01*
X185813241Y-103864201D01*
X185549189Y-104022646D01*
X185252108Y-104133017D01*
X185098204Y-104163231D01*
X184885600Y-104184368D01*
X184650463Y-104192234D01*
X184414272Y-104186784D01*
X184198506Y-104167969D01*
X184024643Y-104135741D01*
X183780297Y-104050758D01*
X183492277Y-103894780D01*
X183241982Y-103692602D01*
X183058645Y-103473376D01*
X182925546Y-103220881D01*
X182840526Y-102928922D01*
X182836520Y-102907630D01*
X182815523Y-102756400D01*
X182800143Y-102580191D01*
X182793470Y-102412883D01*
X182793875Y-102332352D01*
X182824977Y-101981991D01*
X182904353Y-101674599D01*
X183032195Y-101409752D01*
X183208695Y-101187024D01*
X183434048Y-101005994D01*
X183507957Y-100962756D01*
X183626780Y-100904294D01*
X183749898Y-100853174D01*
X183861891Y-100815082D01*
X183947338Y-100795704D01*
X183990817Y-100800724D01*
G37*
G36*
X183024748Y-109333768D02*
G01*
X183076420Y-109349786D01*
X183147541Y-109365464D01*
X183235083Y-109376951D01*
X183348722Y-109384876D01*
X183498129Y-109389870D01*
X183692978Y-109392563D01*
X183942941Y-109393586D01*
X184146398Y-109394504D01*
X184385533Y-109398520D01*
X184575405Y-109406887D01*
X184725098Y-109420904D01*
X184843696Y-109441869D01*
X184940283Y-109471080D01*
X185023941Y-109509833D01*
X185103756Y-109559428D01*
X185180498Y-109619422D01*
X185281323Y-109734026D01*
X185357570Y-109878739D01*
X185412239Y-110061924D01*
X185448332Y-110291947D01*
X185468848Y-110577169D01*
X185474063Y-110773416D01*
X185463574Y-111097207D01*
X185425713Y-111368737D01*
X185359301Y-111592751D01*
X185263162Y-111773992D01*
X185136118Y-111917202D01*
X185132548Y-111920313D01*
X185045060Y-111984179D01*
X184942337Y-112042636D01*
X184841571Y-112087910D01*
X184759953Y-112112225D01*
X184714676Y-112107806D01*
X184714249Y-112107195D01*
X184705929Y-112068132D01*
X184693120Y-111980600D01*
X184677414Y-111858690D01*
X184660403Y-111716495D01*
X184643679Y-111568108D01*
X184628834Y-111427620D01*
X184617461Y-111309124D01*
X184611150Y-111226712D01*
X184611495Y-111194477D01*
X184711380Y-111128455D01*
X184819807Y-111017288D01*
X184878252Y-110882707D01*
X184895730Y-110709326D01*
X184895607Y-110693338D01*
X184875455Y-110536226D01*
X184819191Y-110429421D01*
X184724441Y-110368195D01*
X184722548Y-110367537D01*
X184647698Y-110343958D01*
X184602832Y-110334184D01*
X184598018Y-110335096D01*
X184564206Y-110377757D01*
X184521577Y-110483550D01*
X184470400Y-110651602D01*
X184410946Y-110881044D01*
X184343485Y-111171002D01*
X184292916Y-111388990D01*
X184237838Y-111597155D01*
X184184336Y-111757806D01*
X184128135Y-111879964D01*
X184064962Y-111972649D01*
X183990543Y-112044882D01*
X183900603Y-112105682D01*
X183880347Y-112117328D01*
X183778440Y-112164984D01*
X183674287Y-112187881D01*
X183596516Y-112191053D01*
X183536987Y-112193481D01*
X183416429Y-112187904D01*
X183265476Y-112154492D01*
X183137642Y-112082038D01*
X183010025Y-111960414D01*
X182984813Y-111931552D01*
X182912150Y-111829146D01*
X182857696Y-111709572D01*
X182809908Y-111549108D01*
X182806953Y-111531517D01*
X182802031Y-111450303D01*
X182800867Y-111331031D01*
X182803789Y-111192730D01*
X182809606Y-111091097D01*
X182845681Y-110860891D01*
X183341965Y-110860891D01*
X183349258Y-110997528D01*
X183396257Y-111108026D01*
X183479747Y-111181967D01*
X183596516Y-111208929D01*
X183636530Y-111206998D01*
X183716831Y-111184894D01*
X183784616Y-111131569D01*
X183845940Y-111038898D01*
X183906858Y-110898751D01*
X183973423Y-110703001D01*
X184013925Y-110573920D01*
X184050780Y-110454825D01*
X184075862Y-110371839D01*
X184085246Y-110337784D01*
X184063857Y-110333984D01*
X183993714Y-110335425D01*
X183891576Y-110342795D01*
X183804378Y-110353873D01*
X183636445Y-110403284D01*
X183510669Y-110490866D01*
X183415914Y-110623182D01*
X183377588Y-110708535D01*
X183341965Y-110860891D01*
X182845681Y-110860891D01*
X182849362Y-110837399D01*
X182926695Y-110623098D01*
X183045574Y-110435762D01*
X183046905Y-110434082D01*
X183113598Y-110346162D01*
X183140255Y-110296458D01*
X183129253Y-110274393D01*
X183082969Y-110269388D01*
X183022600Y-110260471D01*
X182937178Y-110231790D01*
X182854659Y-110194192D01*
X182854659Y-109734600D01*
X182854659Y-109275008D01*
X183024748Y-109333768D01*
G37*
G36*
X141600000Y-82640000D02*
G01*
X141600000Y-83600000D01*
X140640000Y-83600000D01*
X139680000Y-83600000D01*
X139680000Y-82640000D01*
X139680000Y-81680000D01*
X140640000Y-81680000D01*
X141600000Y-81680000D01*
X141600000Y-82640000D01*
G37*
G36*
X155520000Y-82640000D02*
G01*
X155520000Y-83600000D01*
X154560000Y-83600000D01*
X153600000Y-83600000D01*
X153600000Y-82640000D01*
X153600000Y-81680000D01*
X154560000Y-81680000D01*
X155520000Y-81680000D01*
X155520000Y-82640000D01*
G37*
G36*
X155520000Y-96560000D02*
G01*
X155520000Y-97520000D01*
X154560000Y-97520000D01*
X153600000Y-97520000D01*
X153600000Y-96560000D01*
X153600000Y-95600000D01*
X154560000Y-95600000D01*
X155520000Y-95600000D01*
X155520000Y-96560000D01*
G37*
G36*
X147635000Y-88672245D02*
G01*
X147648415Y-88682512D01*
X147676711Y-88732485D01*
X147671829Y-88792445D01*
X147650374Y-88812414D01*
X147595138Y-88816277D01*
X147559599Y-88810712D01*
X147535350Y-88792808D01*
X147530000Y-88752179D01*
X147531400Y-88732741D01*
X147551833Y-88684327D01*
X147589447Y-88661816D01*
X147635000Y-88672245D01*
G37*
G36*
X147642862Y-90392744D02*
G01*
X147667290Y-90408666D01*
X147676602Y-90447829D01*
X147674324Y-90491336D01*
X147656602Y-90522523D01*
X147644089Y-90528992D01*
X147600000Y-90539387D01*
X147567937Y-90534864D01*
X147530964Y-90504509D01*
X147523399Y-90447829D01*
X147530733Y-90412679D01*
X147552138Y-90393999D01*
X147600000Y-90390000D01*
X147642862Y-90392744D01*
G37*
G36*
X147616686Y-89454149D02*
G01*
X147681148Y-89476443D01*
X147724392Y-89521965D01*
X147744693Y-89580938D01*
X147740327Y-89643583D01*
X147709569Y-89700124D01*
X147650695Y-89740783D01*
X147641812Y-89743963D01*
X147575241Y-89746844D01*
X147514576Y-89718773D01*
X147470410Y-89667307D01*
X147453334Y-89600000D01*
X147453955Y-89586401D01*
X147477875Y-89518721D01*
X147529681Y-89471241D01*
X147600000Y-89453333D01*
X147616686Y-89454149D01*
G37*
G36*
X142860000Y-84860000D02*
G01*
X140630000Y-84860000D01*
X138400000Y-84860000D01*
X138400000Y-82630000D01*
X138400000Y-81060000D01*
X139060000Y-81060000D01*
X139060000Y-82630000D01*
X139060000Y-84200000D01*
X140630000Y-84200000D01*
X142200000Y-84200000D01*
X142200000Y-82630000D01*
X142200000Y-81060000D01*
X140630000Y-81060000D01*
X139060000Y-81060000D01*
X138400000Y-81060000D01*
X138400000Y-80400000D01*
X140630000Y-80400000D01*
X142860000Y-80400000D01*
X142860000Y-82630000D01*
X142860000Y-84860000D01*
G37*
G36*
X156800000Y-84860000D02*
G01*
X154570000Y-84860000D01*
X152340000Y-84860000D01*
X152340000Y-82630000D01*
X152340000Y-81060000D01*
X153000000Y-81060000D01*
X153000000Y-82630000D01*
X153000000Y-84200000D01*
X154570000Y-84200000D01*
X156140000Y-84200000D01*
X156140000Y-82630000D01*
X156140000Y-81060000D01*
X154570000Y-81060000D01*
X153000000Y-81060000D01*
X152340000Y-81060000D01*
X152340000Y-80400000D01*
X154570000Y-80400000D01*
X156800000Y-80400000D01*
X156800000Y-82630000D01*
X156800000Y-84860000D01*
G37*
G36*
X156800000Y-98800000D02*
G01*
X154570000Y-98800000D01*
X152340000Y-98800000D01*
X152340000Y-96570000D01*
X152340000Y-95000000D01*
X153000000Y-95000000D01*
X153000000Y-96570000D01*
X153000000Y-98140000D01*
X154570000Y-98140000D01*
X156140000Y-98140000D01*
X156140000Y-96570000D01*
X156140000Y-95000000D01*
X154570000Y-95000000D01*
X153000000Y-95000000D01*
X152340000Y-95000000D01*
X152340000Y-94340000D01*
X154570000Y-94340000D01*
X156800000Y-94340000D01*
X156800000Y-96570000D01*
X156800000Y-98800000D01*
G37*
G36*
X139512932Y-86781419D02*
G01*
X139557845Y-86807853D01*
X139632298Y-86881106D01*
X139678308Y-86971870D01*
X139692340Y-87071421D01*
X139670857Y-87171034D01*
X139627570Y-87254591D01*
X139571040Y-87315452D01*
X139490000Y-87363326D01*
X139418665Y-87387092D01*
X139322386Y-87389752D01*
X139233678Y-87362060D01*
X139156933Y-87309629D01*
X139096545Y-87238076D01*
X139056905Y-87153015D01*
X139042405Y-87060062D01*
X139057440Y-86964833D01*
X139106400Y-86872942D01*
X139111509Y-86866386D01*
X139195263Y-86789911D01*
X139293326Y-86749529D01*
X139400836Y-86746333D01*
X139512932Y-86781419D01*
G37*
G36*
X140113018Y-94998681D02*
G01*
X140194367Y-95035988D01*
X140232465Y-95068739D01*
X140288265Y-95150947D01*
X140315785Y-95246821D01*
X140315654Y-95347406D01*
X140288499Y-95443746D01*
X140234951Y-95526883D01*
X140155637Y-95587862D01*
X140074649Y-95611831D01*
X139977702Y-95615275D01*
X139882486Y-95599075D01*
X139806158Y-95564384D01*
X139762234Y-95525668D01*
X139708151Y-95441987D01*
X139682684Y-95345725D01*
X139685103Y-95245650D01*
X139714677Y-95150529D01*
X139770675Y-95069129D01*
X139852366Y-95010217D01*
X139914880Y-94990090D01*
X140014193Y-94982955D01*
X140113018Y-94998681D01*
G37*
G36*
X140113018Y-96898681D02*
G01*
X140194367Y-96935988D01*
X140232465Y-96968739D01*
X140288265Y-97050947D01*
X140315785Y-97146821D01*
X140315654Y-97247406D01*
X140288499Y-97343746D01*
X140234951Y-97426883D01*
X140155637Y-97487862D01*
X140074649Y-97511831D01*
X139977702Y-97515275D01*
X139882486Y-97499075D01*
X139806158Y-97464384D01*
X139762234Y-97425668D01*
X139708151Y-97341987D01*
X139682684Y-97245725D01*
X139685103Y-97145650D01*
X139714677Y-97050529D01*
X139770675Y-96969129D01*
X139852366Y-96910217D01*
X139914880Y-96890090D01*
X140014193Y-96882955D01*
X140113018Y-96898681D01*
G37*
G36*
X140699512Y-97514707D02*
G01*
X140799022Y-97556548D01*
X140875090Y-97622201D01*
X140926595Y-97704705D01*
X140952415Y-97797099D01*
X140951428Y-97892423D01*
X140922512Y-97983716D01*
X140864546Y-98064016D01*
X140776408Y-98126364D01*
X140707419Y-98150894D01*
X140599786Y-98154533D01*
X140487069Y-98118580D01*
X140425480Y-98079762D01*
X140356763Y-98002371D01*
X140318014Y-97909122D01*
X140310651Y-97807874D01*
X140336095Y-97706489D01*
X140395763Y-97612828D01*
X140433963Y-97579146D01*
X140512561Y-97536536D01*
X140599353Y-97511323D01*
X140677048Y-97509837D01*
X140699512Y-97514707D01*
G37*
G36*
X141412932Y-98181419D02*
G01*
X141457845Y-98207853D01*
X141532298Y-98281106D01*
X141578308Y-98371870D01*
X141592340Y-98471421D01*
X141570857Y-98571034D01*
X141527570Y-98654591D01*
X141471040Y-98715452D01*
X141390000Y-98763326D01*
X141318665Y-98787092D01*
X141222386Y-98789752D01*
X141133678Y-98762060D01*
X141056933Y-98709629D01*
X140996545Y-98638076D01*
X140956905Y-98553015D01*
X140942405Y-98460062D01*
X140957440Y-98364833D01*
X141006400Y-98272942D01*
X141011509Y-98266386D01*
X141095263Y-98189911D01*
X141193326Y-98149529D01*
X141300836Y-98146333D01*
X141412932Y-98181419D01*
G37*
G36*
X142013018Y-85498681D02*
G01*
X142094367Y-85535988D01*
X142132465Y-85568739D01*
X142188265Y-85650947D01*
X142215785Y-85746821D01*
X142215654Y-85847406D01*
X142188499Y-85943746D01*
X142134951Y-86026883D01*
X142055637Y-86087862D01*
X141974649Y-86111831D01*
X141877702Y-86115275D01*
X141782486Y-86099075D01*
X141706158Y-86064384D01*
X141662234Y-86025668D01*
X141608151Y-85941987D01*
X141582684Y-85845725D01*
X141585103Y-85745650D01*
X141614677Y-85650529D01*
X141670675Y-85569129D01*
X141752366Y-85510217D01*
X141814880Y-85490090D01*
X141914193Y-85482955D01*
X142013018Y-85498681D01*
G37*
G36*
X145212932Y-96281419D02*
G01*
X145257845Y-96307853D01*
X145332298Y-96381106D01*
X145378308Y-96471870D01*
X145392340Y-96571421D01*
X145370857Y-96671034D01*
X145327570Y-96754591D01*
X145271040Y-96815452D01*
X145190000Y-96863326D01*
X145118665Y-96887092D01*
X145022386Y-96889752D01*
X144933678Y-96862060D01*
X144856933Y-96809629D01*
X144796545Y-96738076D01*
X144756905Y-96653015D01*
X144742405Y-96560062D01*
X144757440Y-96464833D01*
X144806400Y-96372942D01*
X144811509Y-96366386D01*
X144895263Y-96289911D01*
X144993326Y-96249529D01*
X145100836Y-96246333D01*
X145212932Y-96281419D01*
G37*
G36*
X145813018Y-96898681D02*
G01*
X145894367Y-96935988D01*
X145932465Y-96968739D01*
X145988265Y-97050947D01*
X146015785Y-97146821D01*
X146015654Y-97247406D01*
X145988499Y-97343746D01*
X145934951Y-97426883D01*
X145855637Y-97487862D01*
X145774649Y-97511831D01*
X145677702Y-97515275D01*
X145582486Y-97499075D01*
X145506158Y-97464384D01*
X145462234Y-97425668D01*
X145408151Y-97341987D01*
X145382684Y-97245725D01*
X145385103Y-97145650D01*
X145414677Y-97050529D01*
X145470675Y-96969129D01*
X145552366Y-96910217D01*
X145614880Y-96890090D01*
X145714193Y-96882955D01*
X145813018Y-96898681D01*
G37*
G36*
X149613018Y-93098681D02*
G01*
X149694367Y-93135988D01*
X149732465Y-93168739D01*
X149788265Y-93250947D01*
X149815785Y-93346821D01*
X149815654Y-93447406D01*
X149788499Y-93543746D01*
X149734951Y-93626883D01*
X149655637Y-93687862D01*
X149574649Y-93711831D01*
X149477702Y-93715275D01*
X149382486Y-93699075D01*
X149306158Y-93664384D01*
X149262234Y-93625668D01*
X149208151Y-93541987D01*
X149182684Y-93445725D01*
X149185103Y-93345650D01*
X149214677Y-93250529D01*
X149270675Y-93169129D01*
X149352366Y-93110217D01*
X149414880Y-93090090D01*
X149514193Y-93082955D01*
X149613018Y-93098681D01*
G37*
G36*
X150199512Y-84214707D02*
G01*
X150299022Y-84256548D01*
X150375090Y-84322201D01*
X150426595Y-84404705D01*
X150452415Y-84497099D01*
X150451428Y-84592423D01*
X150422512Y-84683716D01*
X150364546Y-84764016D01*
X150276408Y-84826364D01*
X150207419Y-84850894D01*
X150099786Y-84854533D01*
X149987069Y-84818580D01*
X149925480Y-84779762D01*
X149856763Y-84702371D01*
X149818014Y-84609122D01*
X149810651Y-84507874D01*
X149836095Y-84406489D01*
X149895763Y-84312828D01*
X149933963Y-84279146D01*
X150012561Y-84236536D01*
X150099353Y-84211323D01*
X150177048Y-84209837D01*
X150199512Y-84214707D01*
G37*
G36*
X150199512Y-97514707D02*
G01*
X150299022Y-97556548D01*
X150375090Y-97622201D01*
X150426595Y-97704705D01*
X150452415Y-97797099D01*
X150451428Y-97892423D01*
X150422512Y-97983716D01*
X150364546Y-98064016D01*
X150276408Y-98126364D01*
X150207419Y-98150894D01*
X150099786Y-98154533D01*
X149987069Y-98118580D01*
X149925480Y-98079762D01*
X149856763Y-98002371D01*
X149818014Y-97909122D01*
X149810651Y-97807874D01*
X149836095Y-97706489D01*
X149895763Y-97612828D01*
X149933963Y-97579146D01*
X150012561Y-97536536D01*
X150099353Y-97511323D01*
X150177048Y-97509837D01*
X150199512Y-97514707D01*
G37*
G36*
X150912932Y-82981419D02*
G01*
X150957845Y-83007853D01*
X151032298Y-83081106D01*
X151078308Y-83171870D01*
X151092340Y-83271421D01*
X151070857Y-83371034D01*
X151027570Y-83454591D01*
X150971040Y-83515452D01*
X150890000Y-83563326D01*
X150818665Y-83587092D01*
X150722386Y-83589752D01*
X150633678Y-83562060D01*
X150556933Y-83509629D01*
X150496545Y-83438076D01*
X150456905Y-83353015D01*
X150442405Y-83260062D01*
X150457440Y-83164833D01*
X150506400Y-83072942D01*
X150511509Y-83066386D01*
X150595263Y-82989911D01*
X150693326Y-82949529D01*
X150800836Y-82946333D01*
X150912932Y-82981419D01*
G37*
G36*
X150912932Y-84881419D02*
G01*
X150957845Y-84907853D01*
X151032298Y-84981106D01*
X151078308Y-85071870D01*
X151092340Y-85171421D01*
X151070857Y-85271034D01*
X151027570Y-85354591D01*
X150971040Y-85415452D01*
X150890000Y-85463326D01*
X150818665Y-85487092D01*
X150722386Y-85489752D01*
X150633678Y-85462060D01*
X150556933Y-85409629D01*
X150496545Y-85338076D01*
X150456905Y-85253015D01*
X150442405Y-85160062D01*
X150457440Y-85064833D01*
X150506400Y-84972942D01*
X150511509Y-84966386D01*
X150595263Y-84889911D01*
X150693326Y-84849529D01*
X150800836Y-84846333D01*
X150912932Y-84881419D01*
G37*
G36*
X150912932Y-86781419D02*
G01*
X150957845Y-86807853D01*
X151032298Y-86881106D01*
X151078308Y-86971870D01*
X151092340Y-87071421D01*
X151070857Y-87171034D01*
X151027570Y-87254591D01*
X150971040Y-87315452D01*
X150890000Y-87363326D01*
X150818665Y-87387092D01*
X150722386Y-87389752D01*
X150633678Y-87362060D01*
X150556933Y-87309629D01*
X150496545Y-87238076D01*
X150456905Y-87153015D01*
X150442405Y-87060062D01*
X150457440Y-86964833D01*
X150506400Y-86872942D01*
X150511509Y-86866386D01*
X150595263Y-86789911D01*
X150693326Y-86749529D01*
X150800836Y-86746333D01*
X150912932Y-86781419D01*
G37*
G36*
X150912932Y-98181419D02*
G01*
X150957845Y-98207853D01*
X151032298Y-98281106D01*
X151078308Y-98371870D01*
X151092340Y-98471421D01*
X151070857Y-98571034D01*
X151027570Y-98654591D01*
X150971040Y-98715452D01*
X150890000Y-98763326D01*
X150818665Y-98787092D01*
X150722386Y-98789752D01*
X150633678Y-98762060D01*
X150556933Y-98709629D01*
X150496545Y-98638076D01*
X150456905Y-98553015D01*
X150442405Y-98460062D01*
X150457440Y-98364833D01*
X150506400Y-98272942D01*
X150511509Y-98266386D01*
X150595263Y-98189911D01*
X150693326Y-98149529D01*
X150800836Y-98146333D01*
X150912932Y-98181419D01*
G37*
G36*
X139482953Y-95635254D02*
G01*
X139489555Y-95638242D01*
X139570482Y-95684727D01*
X139626478Y-95743726D01*
X139670857Y-95828965D01*
X139685356Y-95874150D01*
X139690086Y-95974860D01*
X139660860Y-96071555D01*
X139601171Y-96155544D01*
X139514512Y-96218136D01*
X139504383Y-96222983D01*
X139393358Y-96254961D01*
X139286436Y-96248833D01*
X139188991Y-96205799D01*
X139106400Y-96127057D01*
X139071186Y-96069587D01*
X139043913Y-95974650D01*
X139047830Y-95879974D01*
X139078591Y-95791235D01*
X139131850Y-95714109D01*
X139203262Y-95654272D01*
X139288480Y-95617400D01*
X139383159Y-95609169D01*
X139482953Y-95635254D01*
G37*
G36*
X143251332Y-85490561D02*
G01*
X143344135Y-85527988D01*
X143416575Y-85590187D01*
X143457599Y-85657744D01*
X143485517Y-85757967D01*
X143483080Y-85860097D01*
X143452093Y-85955497D01*
X143394363Y-86035534D01*
X143311697Y-86091571D01*
X143278096Y-86103836D01*
X143179305Y-86119210D01*
X143081283Y-86109319D01*
X142999797Y-86075000D01*
X142961207Y-86046734D01*
X142895324Y-85978798D01*
X142860306Y-85900319D01*
X142850000Y-85800000D01*
X142851733Y-85754240D01*
X142871726Y-85664523D01*
X142919029Y-85591875D01*
X142999797Y-85525000D01*
X143053745Y-85497702D01*
X143150443Y-85479825D01*
X143251332Y-85490561D01*
G37*
G36*
X143251332Y-89290561D02*
G01*
X143344135Y-89327988D01*
X143416575Y-89390187D01*
X143457599Y-89457744D01*
X143485517Y-89557967D01*
X143483080Y-89660097D01*
X143452093Y-89755497D01*
X143394363Y-89835534D01*
X143311697Y-89891571D01*
X143278096Y-89903836D01*
X143179305Y-89919210D01*
X143081283Y-89909319D01*
X142999797Y-89875000D01*
X142961207Y-89846734D01*
X142895324Y-89778798D01*
X142860306Y-89700319D01*
X142850000Y-89600000D01*
X142851733Y-89554240D01*
X142871726Y-89464523D01*
X142919029Y-89391875D01*
X142999797Y-89325000D01*
X143053745Y-89297702D01*
X143150443Y-89279825D01*
X143251332Y-89290561D01*
G37*
G36*
X143282953Y-88035254D02*
G01*
X143289555Y-88038242D01*
X143370482Y-88084727D01*
X143426478Y-88143726D01*
X143470857Y-88228965D01*
X143485356Y-88274150D01*
X143490086Y-88374860D01*
X143460860Y-88471555D01*
X143401171Y-88555544D01*
X143314512Y-88618136D01*
X143304383Y-88622983D01*
X143193358Y-88654961D01*
X143086436Y-88648833D01*
X142988991Y-88605799D01*
X142906400Y-88527057D01*
X142871186Y-88469587D01*
X142843913Y-88374650D01*
X142847830Y-88279974D01*
X142878591Y-88191235D01*
X142931850Y-88114109D01*
X143003262Y-88054272D01*
X143088480Y-88017400D01*
X143183159Y-88009169D01*
X143282953Y-88035254D01*
G37*
G36*
X145182953Y-80435254D02*
G01*
X145189555Y-80438242D01*
X145270482Y-80484727D01*
X145326478Y-80543726D01*
X145370857Y-80628965D01*
X145385356Y-80674150D01*
X145390086Y-80774860D01*
X145360860Y-80871555D01*
X145301171Y-80955544D01*
X145214512Y-81018136D01*
X145204383Y-81022983D01*
X145093358Y-81054961D01*
X144986436Y-81048833D01*
X144888991Y-81005799D01*
X144806400Y-80927057D01*
X144771186Y-80869587D01*
X144743913Y-80774650D01*
X144747830Y-80679974D01*
X144778591Y-80591235D01*
X144831850Y-80514109D01*
X144903262Y-80454272D01*
X144988480Y-80417400D01*
X145083159Y-80409169D01*
X145182953Y-80435254D01*
G37*
G36*
X145182953Y-84235254D02*
G01*
X145189555Y-84238242D01*
X145270482Y-84284727D01*
X145326478Y-84343726D01*
X145370857Y-84428965D01*
X145385356Y-84474150D01*
X145390086Y-84574860D01*
X145360860Y-84671555D01*
X145301171Y-84755544D01*
X145214512Y-84818136D01*
X145204383Y-84822983D01*
X145093358Y-84854961D01*
X144986436Y-84848833D01*
X144888991Y-84805799D01*
X144806400Y-84727057D01*
X144771186Y-84669587D01*
X144743913Y-84574650D01*
X144747830Y-84479974D01*
X144778591Y-84391235D01*
X144831850Y-84314109D01*
X144903262Y-84254272D01*
X144988480Y-84217400D01*
X145083159Y-84209169D01*
X145182953Y-84235254D01*
G37*
G36*
X147051332Y-83590561D02*
G01*
X147144135Y-83627988D01*
X147216575Y-83690187D01*
X147257599Y-83757744D01*
X147285517Y-83857967D01*
X147283080Y-83960097D01*
X147252093Y-84055497D01*
X147194363Y-84135534D01*
X147111697Y-84191571D01*
X147078096Y-84203836D01*
X146979305Y-84219210D01*
X146881283Y-84209319D01*
X146799797Y-84175000D01*
X146761207Y-84146734D01*
X146695324Y-84078798D01*
X146660306Y-84000319D01*
X146650000Y-83900000D01*
X146651733Y-83854240D01*
X146671726Y-83764523D01*
X146719029Y-83691875D01*
X146799797Y-83625000D01*
X146853745Y-83597702D01*
X146950443Y-83579825D01*
X147051332Y-83590561D01*
G37*
G36*
X148982953Y-93735254D02*
G01*
X148989555Y-93738242D01*
X149070482Y-93784727D01*
X149126478Y-93843726D01*
X149170857Y-93928965D01*
X149185356Y-93974150D01*
X149190086Y-94074860D01*
X149160860Y-94171555D01*
X149101171Y-94255544D01*
X149014512Y-94318136D01*
X149004383Y-94322983D01*
X148893358Y-94354961D01*
X148786436Y-94348833D01*
X148688991Y-94305799D01*
X148606400Y-94227057D01*
X148571186Y-94169587D01*
X148543913Y-94074650D01*
X148547830Y-93979974D01*
X148578591Y-93891235D01*
X148631850Y-93814109D01*
X148703262Y-93754272D01*
X148788480Y-93717400D01*
X148883159Y-93709169D01*
X148982953Y-93735254D01*
G37*
G36*
X152751332Y-85490561D02*
G01*
X152844135Y-85527988D01*
X152916575Y-85590187D01*
X152957599Y-85657744D01*
X152985517Y-85757967D01*
X152983080Y-85860097D01*
X152952093Y-85955497D01*
X152894363Y-86035534D01*
X152811697Y-86091571D01*
X152778096Y-86103836D01*
X152679305Y-86119210D01*
X152581283Y-86109319D01*
X152499797Y-86075000D01*
X152461207Y-86046734D01*
X152395324Y-85978798D01*
X152360306Y-85900319D01*
X152350000Y-85800000D01*
X152351733Y-85754240D01*
X152371726Y-85664523D01*
X152419029Y-85591875D01*
X152499797Y-85525000D01*
X152553745Y-85497702D01*
X152650443Y-85479825D01*
X152751332Y-85490561D01*
G37*
G36*
X152751332Y-93090561D02*
G01*
X152844135Y-93127988D01*
X152916575Y-93190187D01*
X152957599Y-93257744D01*
X152985517Y-93357967D01*
X152983080Y-93460097D01*
X152952093Y-93555497D01*
X152894363Y-93635534D01*
X152811697Y-93691571D01*
X152778096Y-93703836D01*
X152679305Y-93719210D01*
X152581283Y-93709319D01*
X152499797Y-93675000D01*
X152461207Y-93646734D01*
X152395324Y-93578798D01*
X152360306Y-93500319D01*
X152350000Y-93400000D01*
X152351733Y-93354240D01*
X152371726Y-93264523D01*
X152419029Y-93191875D01*
X152499797Y-93125000D01*
X152553745Y-93097702D01*
X152650443Y-93079825D01*
X152751332Y-93090561D01*
G37*
G36*
X152782953Y-91835254D02*
G01*
X152789555Y-91838242D01*
X152870482Y-91884727D01*
X152926478Y-91943726D01*
X152970857Y-92028965D01*
X152985356Y-92074150D01*
X152990086Y-92174860D01*
X152960860Y-92271555D01*
X152901171Y-92355544D01*
X152814512Y-92418136D01*
X152804383Y-92422983D01*
X152693358Y-92454961D01*
X152586436Y-92448833D01*
X152488991Y-92405799D01*
X152406400Y-92327057D01*
X152371186Y-92269587D01*
X152343913Y-92174650D01*
X152347830Y-92079974D01*
X152378591Y-91991235D01*
X152431850Y-91914109D01*
X152503262Y-91854272D01*
X152588480Y-91817400D01*
X152683159Y-91809169D01*
X152782953Y-91835254D01*
G37*
G36*
X154651332Y-91190561D02*
G01*
X154744135Y-91227988D01*
X154816575Y-91290187D01*
X154857599Y-91357744D01*
X154885517Y-91457967D01*
X154883080Y-91560097D01*
X154852093Y-91655497D01*
X154794363Y-91735534D01*
X154711697Y-91791571D01*
X154678096Y-91803836D01*
X154579305Y-91819210D01*
X154481283Y-91809319D01*
X154399797Y-91775000D01*
X154361207Y-91746734D01*
X154295324Y-91678798D01*
X154260306Y-91600319D01*
X154250000Y-91500000D01*
X154251733Y-91454240D01*
X154271726Y-91364523D01*
X154319029Y-91291875D01*
X154399797Y-91225000D01*
X154453745Y-91197702D01*
X154550443Y-91179825D01*
X154651332Y-91190561D01*
G37*
G36*
X138873107Y-96272814D02*
G01*
X138882495Y-96277630D01*
X138942227Y-96320148D01*
X138993601Y-96372942D01*
X138995390Y-96375312D01*
X139043056Y-96469257D01*
X139056457Y-96570030D01*
X139038310Y-96669604D01*
X138991329Y-96759955D01*
X138918230Y-96833057D01*
X138821729Y-96880885D01*
X138755904Y-96895280D01*
X138688055Y-96890953D01*
X138610000Y-96862385D01*
X138531184Y-96816988D01*
X138474266Y-96757288D01*
X138429144Y-96671034D01*
X138408929Y-96596090D01*
X138413361Y-96500485D01*
X138447837Y-96412907D01*
X138506706Y-96338424D01*
X138584318Y-96282106D01*
X138675022Y-96249019D01*
X138773169Y-96244232D01*
X138873107Y-96272814D01*
G37*
G36*
X142673107Y-88672814D02*
G01*
X142682495Y-88677630D01*
X142742227Y-88720148D01*
X142793601Y-88772942D01*
X142795390Y-88775312D01*
X142843056Y-88869257D01*
X142856457Y-88970030D01*
X142838310Y-89069604D01*
X142791329Y-89159955D01*
X142718230Y-89233057D01*
X142621729Y-89280885D01*
X142555904Y-89295280D01*
X142488055Y-89290953D01*
X142410000Y-89262385D01*
X142331184Y-89216988D01*
X142274266Y-89157288D01*
X142229144Y-89071034D01*
X142208929Y-88996090D01*
X142213361Y-88900485D01*
X142247837Y-88812907D01*
X142306706Y-88738424D01*
X142384318Y-88682106D01*
X142475022Y-88649019D01*
X142573169Y-88644232D01*
X142673107Y-88672814D01*
G37*
G36*
X142673107Y-94372814D02*
G01*
X142682495Y-94377630D01*
X142742227Y-94420148D01*
X142793601Y-94472942D01*
X142795390Y-94475312D01*
X142843056Y-94569257D01*
X142856457Y-94670030D01*
X142838310Y-94769604D01*
X142791329Y-94859955D01*
X142718230Y-94933057D01*
X142621729Y-94980885D01*
X142555904Y-94995280D01*
X142488055Y-94990953D01*
X142410000Y-94962385D01*
X142331184Y-94916988D01*
X142274266Y-94857288D01*
X142229144Y-94771034D01*
X142208929Y-94696090D01*
X142213361Y-94600485D01*
X142247837Y-94512907D01*
X142306706Y-94438424D01*
X142384318Y-94382106D01*
X142475022Y-94349019D01*
X142573169Y-94344232D01*
X142673107Y-94372814D01*
G37*
G36*
X152173107Y-92472814D02*
G01*
X152182495Y-92477630D01*
X152242227Y-92520148D01*
X152293601Y-92572942D01*
X152295390Y-92575312D01*
X152343056Y-92669257D01*
X152356457Y-92770030D01*
X152338310Y-92869604D01*
X152291329Y-92959955D01*
X152218230Y-93033057D01*
X152121729Y-93080885D01*
X152055904Y-93095280D01*
X151988055Y-93090953D01*
X151910000Y-93062385D01*
X151831184Y-93016988D01*
X151774266Y-92957288D01*
X151729144Y-92871034D01*
X151708929Y-92796090D01*
X151713361Y-92700485D01*
X151747837Y-92612907D01*
X151806706Y-92538424D01*
X151884318Y-92482106D01*
X151975022Y-92449019D01*
X152073169Y-92444232D01*
X152173107Y-92472814D01*
G37*
G36*
X138849426Y-87395446D02*
G01*
X138898162Y-87423229D01*
X138942180Y-87455967D01*
X139006220Y-87523566D01*
X139040090Y-87601137D01*
X139050000Y-87700000D01*
X139047772Y-87751561D01*
X139026959Y-87838631D01*
X138979159Y-87909928D01*
X138898162Y-87976770D01*
X138888967Y-87982939D01*
X138841220Y-88007694D01*
X138788921Y-88017319D01*
X138714732Y-88015474D01*
X138662436Y-88008678D01*
X138557614Y-87970768D01*
X138478937Y-87904548D01*
X138429478Y-87813223D01*
X138412308Y-87700000D01*
X138415531Y-87648880D01*
X138446949Y-87544672D01*
X138509337Y-87463739D01*
X138599622Y-87409289D01*
X138714732Y-87384525D01*
X138730078Y-87383533D01*
X138799178Y-87383434D01*
X138849426Y-87395446D01*
G37*
G36*
X138849426Y-94995446D02*
G01*
X138898162Y-95023229D01*
X138942180Y-95055967D01*
X139006220Y-95123566D01*
X139040090Y-95201137D01*
X139050000Y-95300000D01*
X139047772Y-95351561D01*
X139026959Y-95438631D01*
X138979159Y-95509928D01*
X138898162Y-95576770D01*
X138888967Y-95582939D01*
X138841220Y-95607694D01*
X138788921Y-95617319D01*
X138714732Y-95615474D01*
X138662436Y-95608678D01*
X138557614Y-95570768D01*
X138478937Y-95504548D01*
X138429478Y-95413223D01*
X138412308Y-95300000D01*
X138415531Y-95248880D01*
X138446949Y-95144672D01*
X138509337Y-95063739D01*
X138599622Y-95009289D01*
X138714732Y-94984525D01*
X138730078Y-94983533D01*
X138799178Y-94983434D01*
X138849426Y-94995446D01*
G37*
G36*
X140045760Y-98151732D02*
G01*
X140135477Y-98171725D01*
X140208125Y-98219028D01*
X140275000Y-98299796D01*
X140297771Y-98342813D01*
X140318655Y-98437248D01*
X140312238Y-98538183D01*
X140280166Y-98632455D01*
X140224085Y-98706901D01*
X140218096Y-98711899D01*
X140167266Y-98743938D01*
X140106324Y-98771676D01*
X140014652Y-98789424D01*
X139909247Y-98776112D01*
X139812089Y-98730331D01*
X139733387Y-98655268D01*
X139701323Y-98586117D01*
X139684526Y-98485268D01*
X139683534Y-98469922D01*
X139683435Y-98400822D01*
X139695447Y-98350574D01*
X139723230Y-98301838D01*
X139755968Y-98257820D01*
X139823567Y-98193780D01*
X139901138Y-98159910D01*
X140000000Y-98150000D01*
X140045760Y-98151732D01*
G37*
G36*
X142649426Y-87395446D02*
G01*
X142698162Y-87423229D01*
X142742180Y-87455967D01*
X142806220Y-87523566D01*
X142840090Y-87601137D01*
X142850000Y-87700000D01*
X142847772Y-87751561D01*
X142826959Y-87838631D01*
X142779159Y-87909928D01*
X142698162Y-87976770D01*
X142688967Y-87982939D01*
X142641220Y-88007694D01*
X142588921Y-88017319D01*
X142514732Y-88015474D01*
X142462436Y-88008678D01*
X142357614Y-87970768D01*
X142278937Y-87904548D01*
X142229478Y-87813223D01*
X142212308Y-87700000D01*
X142215531Y-87648880D01*
X142246949Y-87544672D01*
X142309337Y-87463739D01*
X142399622Y-87409289D01*
X142514732Y-87384525D01*
X142530078Y-87383533D01*
X142599178Y-87383434D01*
X142649426Y-87395446D01*
G37*
G36*
X142649426Y-91195446D02*
G01*
X142698162Y-91223229D01*
X142742180Y-91255967D01*
X142806220Y-91323566D01*
X142840090Y-91401137D01*
X142850000Y-91500000D01*
X142847772Y-91551561D01*
X142826959Y-91638631D01*
X142779159Y-91709928D01*
X142698162Y-91776770D01*
X142688967Y-91782939D01*
X142641220Y-91807694D01*
X142588921Y-91817319D01*
X142514732Y-91815474D01*
X142462436Y-91808678D01*
X142357614Y-91770768D01*
X142278937Y-91704548D01*
X142229478Y-91613223D01*
X142212308Y-91500000D01*
X142215531Y-91448880D01*
X142246949Y-91344672D01*
X142309337Y-91263739D01*
X142399622Y-91209289D01*
X142514732Y-91184525D01*
X142530078Y-91183533D01*
X142599178Y-91183434D01*
X142649426Y-91195446D01*
G37*
G36*
X143845760Y-81051732D02*
G01*
X143935477Y-81071725D01*
X144008125Y-81119028D01*
X144075000Y-81199796D01*
X144097771Y-81242813D01*
X144118655Y-81337248D01*
X144112238Y-81438183D01*
X144080166Y-81532455D01*
X144024085Y-81606901D01*
X144018096Y-81611899D01*
X143967266Y-81643938D01*
X143906324Y-81671676D01*
X143814652Y-81689424D01*
X143709247Y-81676112D01*
X143612089Y-81630331D01*
X143533387Y-81555268D01*
X143501323Y-81486117D01*
X143484526Y-81385268D01*
X143483534Y-81369922D01*
X143483435Y-81300822D01*
X143495447Y-81250574D01*
X143523230Y-81201838D01*
X143555968Y-81157820D01*
X143623567Y-81093780D01*
X143701138Y-81059910D01*
X143800000Y-81050000D01*
X143845760Y-81051732D01*
G37*
G36*
X144549426Y-89295446D02*
G01*
X144598162Y-89323229D01*
X144642180Y-89355967D01*
X144706220Y-89423566D01*
X144740090Y-89501137D01*
X144750000Y-89600000D01*
X144747772Y-89651561D01*
X144726959Y-89738631D01*
X144679159Y-89809928D01*
X144598162Y-89876770D01*
X144588967Y-89882939D01*
X144541220Y-89907694D01*
X144488921Y-89917319D01*
X144414732Y-89915474D01*
X144362436Y-89908678D01*
X144257614Y-89870768D01*
X144178937Y-89804548D01*
X144129478Y-89713223D01*
X144112308Y-89600000D01*
X144115531Y-89548880D01*
X144146949Y-89444672D01*
X144209337Y-89363739D01*
X144299622Y-89309289D01*
X144414732Y-89284525D01*
X144430078Y-89283533D01*
X144499178Y-89283434D01*
X144549426Y-89295446D01*
G37*
G36*
X152149426Y-87395446D02*
G01*
X152198162Y-87423229D01*
X152242180Y-87455967D01*
X152306220Y-87523566D01*
X152340090Y-87601137D01*
X152350000Y-87700000D01*
X152347772Y-87751561D01*
X152326959Y-87838631D01*
X152279159Y-87909928D01*
X152198162Y-87976770D01*
X152188967Y-87982939D01*
X152141220Y-88007694D01*
X152088921Y-88017319D01*
X152014732Y-88015474D01*
X151962436Y-88008678D01*
X151857614Y-87970768D01*
X151778937Y-87904548D01*
X151729478Y-87813223D01*
X151712308Y-87700000D01*
X151715531Y-87648880D01*
X151746949Y-87544672D01*
X151809337Y-87463739D01*
X151899622Y-87409289D01*
X152014732Y-87384525D01*
X152030078Y-87383533D01*
X152099178Y-87383434D01*
X152149426Y-87395446D01*
G37*
G36*
X152149426Y-91195446D02*
G01*
X152198162Y-91223229D01*
X152242180Y-91255967D01*
X152306220Y-91323566D01*
X152340090Y-91401137D01*
X152350000Y-91500000D01*
X152347772Y-91551561D01*
X152326959Y-91638631D01*
X152279159Y-91709928D01*
X152198162Y-91776770D01*
X152188967Y-91782939D01*
X152141220Y-91807694D01*
X152088921Y-91817319D01*
X152014732Y-91815474D01*
X151962436Y-91808678D01*
X151857614Y-91770768D01*
X151778937Y-91704548D01*
X151729478Y-91613223D01*
X151712308Y-91500000D01*
X151715531Y-91448880D01*
X151746949Y-91344672D01*
X151809337Y-91263739D01*
X151899622Y-91209289D01*
X152014732Y-91184525D01*
X152030078Y-91183533D01*
X152099178Y-91183434D01*
X152149426Y-91195446D01*
G37*
G36*
X155245760Y-90551732D02*
G01*
X155335477Y-90571725D01*
X155408125Y-90619028D01*
X155475000Y-90699796D01*
X155497771Y-90742813D01*
X155518655Y-90837248D01*
X155512238Y-90938183D01*
X155480166Y-91032455D01*
X155424085Y-91106901D01*
X155418096Y-91111899D01*
X155367266Y-91143938D01*
X155306324Y-91171676D01*
X155214652Y-91189424D01*
X155109247Y-91176112D01*
X155012089Y-91130331D01*
X154933387Y-91055268D01*
X154901323Y-90986117D01*
X154884526Y-90885268D01*
X154883534Y-90869922D01*
X154883435Y-90800822D01*
X154895447Y-90750574D01*
X154923230Y-90701838D01*
X154955968Y-90657820D01*
X155023567Y-90593780D01*
X155101138Y-90559910D01*
X155200000Y-90550000D01*
X155245760Y-90551732D01*
G37*
G36*
X141992280Y-88025014D02*
G01*
X142086935Y-88068306D01*
X142165109Y-88142715D01*
X142187762Y-88185240D01*
X142210135Y-88264746D01*
X142219399Y-88351587D01*
X142212473Y-88427268D01*
X142200795Y-88458657D01*
X142156694Y-88526830D01*
X142095770Y-88589836D01*
X142030992Y-88632975D01*
X141968717Y-88649994D01*
X141879672Y-88652669D01*
X141791961Y-88637464D01*
X141723511Y-88605953D01*
X141716902Y-88600827D01*
X141668052Y-88553679D01*
X141623230Y-88498161D01*
X141617061Y-88488966D01*
X141592306Y-88441219D01*
X141582681Y-88388920D01*
X141584526Y-88314731D01*
X141600674Y-88216142D01*
X141633387Y-88144731D01*
X141695563Y-88081504D01*
X141787980Y-88031645D01*
X141889756Y-88012804D01*
X141992280Y-88025014D01*
G37*
G36*
X144979437Y-89529321D02*
G01*
X144992820Y-89539425D01*
X145033546Y-89551538D01*
X145103042Y-89559550D01*
X145206886Y-89564321D01*
X145244440Y-89565489D01*
X145326462Y-89569697D01*
X145377134Y-89576102D01*
X145402849Y-89585829D01*
X145410000Y-89600000D01*
X145409199Y-89605569D01*
X145396237Y-89618046D01*
X145362460Y-89626474D01*
X145301474Y-89631978D01*
X145206886Y-89635678D01*
X145137269Y-89638346D01*
X145055679Y-89645055D01*
X145004928Y-89655546D01*
X144979437Y-89670678D01*
X144939212Y-89697002D01*
X144891314Y-89690584D01*
X144848161Y-89650000D01*
X144830423Y-89619922D01*
X144827000Y-89589144D01*
X144848161Y-89550000D01*
X144888277Y-89511021D01*
X144936171Y-89502349D01*
X144979437Y-89529321D01*
G37*
G36*
X150308687Y-89509415D02*
G01*
X150351840Y-89550000D01*
X150369578Y-89580077D01*
X150373001Y-89610855D01*
X150351840Y-89650000D01*
X150311724Y-89688978D01*
X150263830Y-89697650D01*
X150220564Y-89670678D01*
X150207181Y-89660574D01*
X150166455Y-89648461D01*
X150096959Y-89640449D01*
X149993115Y-89635678D01*
X149955561Y-89634510D01*
X149873539Y-89630302D01*
X149822867Y-89623897D01*
X149797152Y-89614170D01*
X149790000Y-89600000D01*
X149790802Y-89594430D01*
X149803764Y-89581953D01*
X149837541Y-89573525D01*
X149898527Y-89568021D01*
X149993115Y-89564321D01*
X150062732Y-89561653D01*
X150144322Y-89554944D01*
X150195073Y-89544453D01*
X150220564Y-89529321D01*
X150260789Y-89502997D01*
X150308687Y-89509415D01*
G37*
G36*
X151492280Y-86125014D02*
G01*
X151586935Y-86168306D01*
X151665109Y-86242715D01*
X151687762Y-86285240D01*
X151710135Y-86364746D01*
X151719399Y-86451587D01*
X151712473Y-86527268D01*
X151700795Y-86558657D01*
X151656694Y-86626830D01*
X151595770Y-86689836D01*
X151530992Y-86732975D01*
X151468717Y-86749994D01*
X151379672Y-86752669D01*
X151291961Y-86737464D01*
X151223511Y-86705953D01*
X151216902Y-86700827D01*
X151168052Y-86653679D01*
X151123230Y-86598161D01*
X151117061Y-86588966D01*
X151092306Y-86541219D01*
X151082681Y-86488920D01*
X151084526Y-86414731D01*
X151100674Y-86316142D01*
X151133387Y-86244731D01*
X151195563Y-86181504D01*
X151287980Y-86131645D01*
X151389756Y-86112804D01*
X151492280Y-86125014D01*
G37*
G36*
X145307553Y-89960278D02*
G01*
X145368426Y-89962581D01*
X145402268Y-89968760D01*
X145416865Y-89980629D01*
X145420000Y-90000000D01*
X145416788Y-90020087D01*
X145400332Y-90033004D01*
X145361707Y-90038714D01*
X145292014Y-90040000D01*
X145164028Y-90040000D01*
X145156892Y-90129731D01*
X145156297Y-90137942D01*
X145158348Y-90201546D01*
X145174878Y-90229104D01*
X145196287Y-90255144D01*
X145196781Y-90296962D01*
X145176000Y-90336000D01*
X145161995Y-90346656D01*
X145120000Y-90360000D01*
X145098532Y-90356238D01*
X145063068Y-90330989D01*
X145042052Y-90292825D01*
X145040893Y-90254607D01*
X145065000Y-90229199D01*
X145076463Y-90216038D01*
X145084245Y-90170560D01*
X145083294Y-90089827D01*
X145076587Y-89960000D01*
X145248294Y-89960000D01*
X145307553Y-89960278D01*
G37*
G36*
X145155000Y-88852144D02*
G01*
X145171178Y-88865932D01*
X145192716Y-88905233D01*
X145195388Y-88945437D01*
X145176280Y-88970357D01*
X145171863Y-88972701D01*
X145157183Y-89004269D01*
X145156892Y-89070268D01*
X145164028Y-89160000D01*
X145292014Y-89160000D01*
X145356288Y-89161003D01*
X145397616Y-89166147D01*
X145415888Y-89178218D01*
X145420000Y-89200000D01*
X145418807Y-89213804D01*
X145408918Y-89227985D01*
X145382393Y-89235869D01*
X145331447Y-89239269D01*
X145248294Y-89240000D01*
X145076587Y-89240000D01*
X145083294Y-89110172D01*
X145084730Y-89037464D01*
X145078602Y-88989842D01*
X145063598Y-88970261D01*
X145051522Y-88961211D01*
X145043348Y-88926964D01*
X145055486Y-88885215D01*
X145085000Y-88852144D01*
X145111632Y-88840947D01*
X145155000Y-88852144D01*
G37*
G36*
X150120000Y-90086000D02*
G01*
X150122533Y-90146389D01*
X150130695Y-90203771D01*
X150142536Y-90234535D01*
X150154154Y-90260733D01*
X150151850Y-90309751D01*
X150143310Y-90335578D01*
X150120694Y-90355592D01*
X150074314Y-90356215D01*
X150056444Y-90353933D01*
X150018010Y-90338081D01*
X150003307Y-90302693D01*
X150003798Y-90269047D01*
X150018307Y-90233693D01*
X150023383Y-90226224D01*
X150035256Y-90184269D01*
X150040000Y-90126000D01*
X150040000Y-90040000D01*
X149910000Y-90040000D01*
X149842982Y-90038926D01*
X149802100Y-90033716D01*
X149784052Y-90021647D01*
X149780000Y-90000000D01*
X149781094Y-89986632D01*
X149790709Y-89972220D01*
X149816852Y-89964204D01*
X149867341Y-89960744D01*
X149950000Y-89960000D01*
X150120000Y-89960000D01*
X150120000Y-90086000D01*
G37*
G36*
X150136486Y-88853871D02*
G01*
X150151850Y-88890248D01*
X150155397Y-88929230D01*
X150142536Y-88965464D01*
X150132188Y-88989971D01*
X150123385Y-89044409D01*
X150120000Y-89114000D01*
X150120000Y-89240000D01*
X149950000Y-89240000D01*
X149893188Y-89239742D01*
X149831937Y-89237480D01*
X149797869Y-89231329D01*
X149783164Y-89219449D01*
X149780000Y-89200000D01*
X149783490Y-89179378D01*
X149800423Y-89166799D01*
X149839647Y-89161246D01*
X149910000Y-89160000D01*
X150040000Y-89160000D01*
X150040000Y-89074000D01*
X150039397Y-89053274D01*
X150031809Y-88998618D01*
X150018307Y-88966306D01*
X150006407Y-88942954D01*
X150003307Y-88897306D01*
X150005924Y-88884146D01*
X150026472Y-88855540D01*
X150074314Y-88843784D01*
X150106495Y-88842359D01*
X150136486Y-88853871D01*
G37*
G36*
X147652692Y-90990024D02*
G01*
X147790699Y-90990500D01*
X147895198Y-90991844D01*
X147971091Y-90994391D01*
X148023282Y-90998476D01*
X148056672Y-91004437D01*
X148076164Y-91012607D01*
X148086661Y-91023323D01*
X148096877Y-91049878D01*
X148081392Y-91088323D01*
X148068738Y-91098326D01*
X148045332Y-91106303D01*
X148006624Y-91112100D01*
X147947676Y-91116044D01*
X147863549Y-91118458D01*
X147749303Y-91119668D01*
X147600000Y-91120000D01*
X147456028Y-91119697D01*
X147340459Y-91118528D01*
X147255208Y-91116169D01*
X147195337Y-91112294D01*
X147155906Y-91106578D01*
X147131976Y-91098696D01*
X147118609Y-91088323D01*
X147104157Y-91062627D01*
X147113340Y-91023323D01*
X147116054Y-91019553D01*
X147128928Y-91009698D01*
X147152384Y-91002281D01*
X147191327Y-90996964D01*
X147250657Y-90993414D01*
X147335278Y-90991293D01*
X147450091Y-90990267D01*
X147600001Y-90990000D01*
X147652692Y-90990024D01*
G37*
G36*
X143906611Y-82329439D02*
G01*
X143999052Y-82378475D01*
X144074933Y-82459038D01*
X144120000Y-82525915D01*
X144120000Y-83573950D01*
X144120001Y-83605910D01*
X144119976Y-83838848D01*
X144119695Y-84035579D01*
X144118869Y-84199474D01*
X144117208Y-84333901D01*
X144114422Y-84442232D01*
X144110221Y-84527836D01*
X144104317Y-84594083D01*
X144096419Y-84644344D01*
X144086238Y-84681988D01*
X144073484Y-84710385D01*
X144057868Y-84732906D01*
X144039100Y-84752920D01*
X144016891Y-84773798D01*
X143972079Y-84808880D01*
X143919990Y-84838618D01*
X143855803Y-84852678D01*
X143770644Y-84851478D01*
X143687067Y-84835226D01*
X143623511Y-84805953D01*
X143618638Y-84802218D01*
X143569625Y-84755433D01*
X143525000Y-84700203D01*
X143480000Y-84634084D01*
X143480000Y-83579999D01*
X143480000Y-82525915D01*
X143525068Y-82459038D01*
X143532396Y-82448579D01*
X143610504Y-82371502D01*
X143704280Y-82325952D01*
X143805669Y-82311931D01*
X143906611Y-82329439D01*
G37*
G36*
X147642616Y-88080020D02*
G01*
X147791025Y-88080732D01*
X147904657Y-88083087D01*
X147987693Y-88087931D01*
X148044315Y-88096108D01*
X148078706Y-88108462D01*
X148095046Y-88125839D01*
X148097518Y-88149084D01*
X148090305Y-88179040D01*
X148089330Y-88182004D01*
X148083194Y-88194221D01*
X148071046Y-88203494D01*
X148048030Y-88210228D01*
X148009291Y-88214827D01*
X147949974Y-88217698D01*
X147865224Y-88219247D01*
X147750184Y-88219879D01*
X147600000Y-88220000D01*
X147565462Y-88219997D01*
X147423026Y-88219803D01*
X147314719Y-88219013D01*
X147235687Y-88217221D01*
X147181073Y-88214022D01*
X147146022Y-88209010D01*
X147125679Y-88201779D01*
X147115189Y-88191924D01*
X147109696Y-88179040D01*
X147107235Y-88170949D01*
X147102031Y-88142734D01*
X147107548Y-88121022D01*
X147127969Y-88104967D01*
X147167476Y-88093726D01*
X147230251Y-88086454D01*
X147320475Y-88082305D01*
X147442331Y-88080435D01*
X147600000Y-88080000D01*
X147642616Y-88080020D01*
G37*
G36*
X139131353Y-97500544D02*
G01*
X139243980Y-97503112D01*
X139341673Y-97507422D01*
X139416075Y-97513074D01*
X139458836Y-97519665D01*
X139475284Y-97525466D01*
X139536773Y-97558897D01*
X139594090Y-97603963D01*
X139650470Y-97676228D01*
X139686538Y-97773188D01*
X139689717Y-97873999D01*
X139661265Y-97970522D01*
X139602443Y-98054614D01*
X139514512Y-98118136D01*
X139490484Y-98129261D01*
X139456563Y-98141137D01*
X139415764Y-98149512D01*
X139361463Y-98154986D01*
X139287038Y-98158157D01*
X139185863Y-98159624D01*
X139051315Y-98159984D01*
X138955837Y-98159833D01*
X138844414Y-98158767D01*
X138761833Y-98156168D01*
X138701452Y-98151442D01*
X138656626Y-98143997D01*
X138620713Y-98133240D01*
X138587069Y-98118580D01*
X138577272Y-98113629D01*
X138491356Y-98047414D01*
X138433708Y-97958478D01*
X138408122Y-97855203D01*
X138418393Y-97745971D01*
X138432461Y-97708104D01*
X138485790Y-97627686D01*
X138559687Y-97560476D01*
X138641165Y-97519665D01*
X138666605Y-97515073D01*
X138731916Y-97509081D01*
X138823155Y-97504304D01*
X138931967Y-97501143D01*
X139050000Y-97500000D01*
X139131353Y-97500544D01*
G37*
G36*
X153851771Y-92443135D02*
G01*
X153949365Y-92447839D01*
X154023133Y-92457693D01*
X154078757Y-92473913D01*
X154121921Y-92497716D01*
X154158308Y-92530320D01*
X154193601Y-92572942D01*
X154193737Y-92573121D01*
X154242496Y-92667017D01*
X154256736Y-92767758D01*
X154239118Y-92867468D01*
X154192303Y-92958270D01*
X154118953Y-93032287D01*
X154021729Y-93081643D01*
X153986482Y-93086573D01*
X153918257Y-93090527D01*
X153824565Y-93093229D01*
X153712711Y-93094469D01*
X153590000Y-93094039D01*
X153491927Y-93092835D01*
X153381485Y-93090598D01*
X153300238Y-93087178D01*
X153241830Y-93081937D01*
X153199903Y-93074238D01*
X153168101Y-93063445D01*
X153140068Y-93048918D01*
X153118477Y-93035209D01*
X153039519Y-92959976D01*
X152992437Y-92869047D01*
X152977409Y-92769597D01*
X152994611Y-92668796D01*
X153044217Y-92573819D01*
X153126404Y-92491838D01*
X153130065Y-92489163D01*
X153152102Y-92475549D01*
X153178974Y-92465325D01*
X153216542Y-92457884D01*
X153270665Y-92452623D01*
X153347205Y-92448935D01*
X153452023Y-92446216D01*
X153590979Y-92443859D01*
X153724668Y-92442362D01*
X153851771Y-92443135D01*
G37*
G36*
X154331353Y-89900544D02*
G01*
X154443980Y-89903112D01*
X154541673Y-89907422D01*
X154616075Y-89913074D01*
X154658836Y-89919665D01*
X154675284Y-89925466D01*
X154736773Y-89958897D01*
X154794090Y-90003963D01*
X154850470Y-90076228D01*
X154886538Y-90173188D01*
X154889717Y-90273999D01*
X154861265Y-90370522D01*
X154802443Y-90454614D01*
X154714512Y-90518136D01*
X154690484Y-90529261D01*
X154656563Y-90541137D01*
X154615764Y-90549512D01*
X154561463Y-90554986D01*
X154487038Y-90558157D01*
X154385863Y-90559624D01*
X154251315Y-90559984D01*
X154155837Y-90559833D01*
X154044414Y-90558767D01*
X153961833Y-90556168D01*
X153901452Y-90551442D01*
X153856626Y-90543997D01*
X153820713Y-90533240D01*
X153787069Y-90518580D01*
X153777272Y-90513629D01*
X153691356Y-90447414D01*
X153633708Y-90358478D01*
X153608122Y-90255203D01*
X153618393Y-90145971D01*
X153632461Y-90108104D01*
X153685790Y-90027686D01*
X153759687Y-89960476D01*
X153841165Y-89919665D01*
X153866605Y-89915073D01*
X153931916Y-89909081D01*
X154023155Y-89904304D01*
X154131967Y-89901143D01*
X154250000Y-89900000D01*
X154331353Y-89900544D01*
G37*
G36*
X147939568Y-89681607D02*
G01*
X147931259Y-89707303D01*
X147878711Y-89800260D01*
X147801054Y-89878930D01*
X147710000Y-89930609D01*
X147696921Y-89935033D01*
X147591294Y-89949686D01*
X147490364Y-89930465D01*
X147399988Y-89882784D01*
X147326022Y-89812055D01*
X147274323Y-89723694D01*
X147250747Y-89623112D01*
X147255656Y-89572448D01*
X147327895Y-89572448D01*
X147333393Y-89664684D01*
X147371109Y-89751616D01*
X147441732Y-89825043D01*
X147444639Y-89827142D01*
X147531677Y-89867375D01*
X147623047Y-89873405D01*
X147710781Y-89848870D01*
X147786914Y-89797410D01*
X147843480Y-89722663D01*
X147872512Y-89628268D01*
X147874437Y-89599392D01*
X147858270Y-89507293D01*
X147812584Y-89428808D01*
X147744717Y-89369084D01*
X147662008Y-89333268D01*
X147571797Y-89326508D01*
X147481422Y-89353952D01*
X147410786Y-89404864D01*
X147353923Y-89483108D01*
X147327895Y-89572448D01*
X147255656Y-89572448D01*
X147261152Y-89515725D01*
X147282336Y-89461447D01*
X147343028Y-89374514D01*
X147424774Y-89303799D01*
X147515726Y-89261151D01*
X147604017Y-89250457D01*
X147705737Y-89269265D01*
X147797024Y-89317114D01*
X147871963Y-89388139D01*
X147924642Y-89476473D01*
X147949148Y-89576251D01*
X147947044Y-89599392D01*
X147939568Y-89681607D01*
G37*
G36*
X151517839Y-83601518D02*
G01*
X151592535Y-83634606D01*
X151621100Y-83656328D01*
X151654637Y-83689265D01*
X151679677Y-83728723D01*
X151697437Y-83780279D01*
X151709133Y-83849509D01*
X151715982Y-83941990D01*
X151719198Y-84063300D01*
X151720000Y-84219015D01*
X151719787Y-84323705D01*
X151718177Y-84448522D01*
X151714040Y-84543289D01*
X151706274Y-84613931D01*
X151693778Y-84666377D01*
X151675449Y-84706552D01*
X151650187Y-84740383D01*
X151616891Y-84773798D01*
X151572079Y-84808880D01*
X151519990Y-84838618D01*
X151455803Y-84852678D01*
X151370644Y-84851478D01*
X151287067Y-84835226D01*
X151223511Y-84805953D01*
X151218638Y-84802218D01*
X151169625Y-84755433D01*
X151125000Y-84700203D01*
X151117557Y-84688985D01*
X151104194Y-84664950D01*
X151094441Y-84636804D01*
X151087732Y-84598567D01*
X151083500Y-84544255D01*
X151081178Y-84467889D01*
X151080200Y-84363485D01*
X151080000Y-84225064D01*
X151080417Y-84102981D01*
X151082855Y-83972945D01*
X151088541Y-83873169D01*
X151098667Y-83798123D01*
X151114429Y-83742275D01*
X151137020Y-83700094D01*
X151167634Y-83666048D01*
X151207466Y-83634606D01*
X151239775Y-83616404D01*
X151325746Y-83592417D01*
X151423672Y-83587456D01*
X151517839Y-83601518D01*
G37*
G36*
X156589997Y-89300035D02*
G01*
X156678093Y-89354132D01*
X156748919Y-89440067D01*
X156751066Y-89443760D01*
X156764498Y-89470323D01*
X156774445Y-89500642D01*
X156781423Y-89540759D01*
X156785951Y-89596713D01*
X156788546Y-89674544D01*
X156789723Y-89780293D01*
X156790000Y-89920000D01*
X156789969Y-89987233D01*
X156789478Y-90109874D01*
X156787939Y-90201326D01*
X156784779Y-90267657D01*
X156779428Y-90314936D01*
X156771314Y-90349232D01*
X156759865Y-90376614D01*
X156744512Y-90403151D01*
X156734653Y-90417446D01*
X156679546Y-90474591D01*
X156614512Y-90519275D01*
X156526725Y-90549562D01*
X156420280Y-90552586D01*
X156320167Y-90521954D01*
X156234571Y-90460411D01*
X156171675Y-90370703D01*
X156165081Y-90355524D01*
X156155124Y-90323012D01*
X156148199Y-90280539D01*
X156143959Y-90222104D01*
X156142054Y-90141701D01*
X156142137Y-90033327D01*
X156143860Y-89890978D01*
X156144259Y-89864882D01*
X156146634Y-89732098D01*
X156149474Y-89632464D01*
X156153385Y-89560118D01*
X156158972Y-89509200D01*
X156166839Y-89473848D01*
X156177594Y-89448203D01*
X156191839Y-89426403D01*
X156208365Y-89405554D01*
X156293814Y-89330536D01*
X156390685Y-89288061D01*
X156491803Y-89277953D01*
X156589997Y-89300035D01*
G37*
G36*
X147706611Y-80429439D02*
G01*
X147799052Y-80478475D01*
X147874933Y-80559038D01*
X147883774Y-80572583D01*
X147896679Y-80596702D01*
X147906092Y-80625383D01*
X147912563Y-80664534D01*
X147916640Y-80720060D01*
X147918873Y-80797868D01*
X147919810Y-80903862D01*
X147920000Y-81043950D01*
X147919749Y-81157111D01*
X147918088Y-81283613D01*
X147914016Y-81379899D01*
X147906558Y-81451651D01*
X147894740Y-81504551D01*
X147877587Y-81544280D01*
X147854122Y-81576518D01*
X147823372Y-81606948D01*
X147817393Y-81612006D01*
X147767020Y-81643985D01*
X147706324Y-81671676D01*
X147705213Y-81672079D01*
X147600170Y-81689988D01*
X147495705Y-81672015D01*
X147400957Y-81621295D01*
X147325068Y-81540961D01*
X147315337Y-81525981D01*
X147302740Y-81501926D01*
X147293554Y-81472974D01*
X147287243Y-81433275D01*
X147283269Y-81376979D01*
X147281095Y-81298234D01*
X147280185Y-81191192D01*
X147280000Y-81049999D01*
X147280058Y-80958346D01*
X147280628Y-80838960D01*
X147282256Y-80750106D01*
X147285479Y-80685933D01*
X147290835Y-80640590D01*
X147298861Y-80608227D01*
X147310093Y-80582993D01*
X147325068Y-80559038D01*
X147332396Y-80548579D01*
X147410504Y-80471502D01*
X147504280Y-80425952D01*
X147605669Y-80411931D01*
X147706611Y-80429439D01*
G37*
G36*
X152866673Y-90542136D02*
G01*
X153009022Y-90543859D01*
X153030458Y-90544185D01*
X153174132Y-90546916D01*
X153284463Y-90551208D01*
X153367340Y-90558697D01*
X153428652Y-90571019D01*
X153474290Y-90589809D01*
X153510142Y-90616704D01*
X153542098Y-90653339D01*
X153576048Y-90701351D01*
X153589171Y-90721487D01*
X153601028Y-90745000D01*
X153609438Y-90773797D01*
X153614866Y-90813662D01*
X153617777Y-90870381D01*
X153618634Y-90949739D01*
X153617903Y-91057521D01*
X153616048Y-91199512D01*
X153614806Y-91284132D01*
X153612517Y-91406822D01*
X153609629Y-91498478D01*
X153605554Y-91564840D01*
X153599704Y-91611652D01*
X153591493Y-91644653D01*
X153580333Y-91669587D01*
X153565637Y-91692193D01*
X153563766Y-91694768D01*
X153513531Y-91747244D01*
X153455637Y-91787862D01*
X153374649Y-91811831D01*
X153277702Y-91815275D01*
X153182486Y-91799075D01*
X153106158Y-91764384D01*
X153076552Y-91740869D01*
X153030387Y-91685956D01*
X153000651Y-91614997D01*
X152984727Y-91520318D01*
X152980000Y-91394245D01*
X152980000Y-91204536D01*
X152774929Y-91196945D01*
X152766789Y-91196631D01*
X152640343Y-91186742D01*
X152545626Y-91166402D01*
X152475349Y-91132130D01*
X152422227Y-91080448D01*
X152378973Y-91007876D01*
X152351567Y-90927911D01*
X152347024Y-90820739D01*
X152376894Y-90720527D01*
X152438533Y-90634947D01*
X152529297Y-90571674D01*
X152544476Y-90565080D01*
X152576988Y-90555123D01*
X152619461Y-90548198D01*
X152677896Y-90543958D01*
X152758299Y-90542053D01*
X152866673Y-90542136D01*
G37*
G36*
X149892770Y-85480030D02*
G01*
X150014941Y-85480515D01*
X150105821Y-85482035D01*
X150171391Y-85485157D01*
X150217633Y-85490448D01*
X150250528Y-85498475D01*
X150276058Y-85509803D01*
X150300204Y-85525000D01*
X150322858Y-85540548D01*
X150364313Y-85571618D01*
X150395611Y-85603134D01*
X150418177Y-85640747D01*
X150433440Y-85690106D01*
X150442826Y-85756863D01*
X150447763Y-85846667D01*
X150449679Y-85965171D01*
X150450000Y-86118023D01*
X150450000Y-86553113D01*
X150396408Y-86623377D01*
X150386417Y-86635705D01*
X150332213Y-86688583D01*
X150276408Y-86726961D01*
X150262608Y-86733246D01*
X150231305Y-86743050D01*
X150189233Y-86749934D01*
X150130550Y-86754243D01*
X150049413Y-86756318D01*
X149939979Y-86756503D01*
X149796406Y-86755141D01*
X149763745Y-86754728D01*
X149621664Y-86752331D01*
X149512581Y-86748238D01*
X149430655Y-86740852D01*
X149370045Y-86728577D01*
X149324911Y-86709816D01*
X149289412Y-86682972D01*
X149257706Y-86646448D01*
X149223953Y-86598648D01*
X149210830Y-86578512D01*
X149198973Y-86554999D01*
X149190563Y-86526202D01*
X149185135Y-86486337D01*
X149182224Y-86429618D01*
X149181367Y-86350260D01*
X149182098Y-86242478D01*
X149183953Y-86100487D01*
X149185227Y-86013751D01*
X149187514Y-85891615D01*
X149190406Y-85800419D01*
X149194494Y-85734418D01*
X149200368Y-85687868D01*
X149208618Y-85655022D01*
X149219834Y-85630137D01*
X149234607Y-85607465D01*
X149258405Y-85576389D01*
X149291313Y-85543652D01*
X149331016Y-85519227D01*
X149383047Y-85501921D01*
X149452936Y-85490539D01*
X149546214Y-85483888D01*
X149668414Y-85480773D01*
X149825065Y-85480000D01*
X149892770Y-85480030D01*
G37*
G36*
X145782267Y-93080004D02*
G01*
X145957806Y-93080127D01*
X146099200Y-93080600D01*
X146210606Y-93081655D01*
X146296185Y-93083526D01*
X146360096Y-93086448D01*
X146406498Y-93090654D01*
X146439551Y-93096379D01*
X146463413Y-93103855D01*
X146482244Y-93113317D01*
X146500204Y-93125000D01*
X146522858Y-93140548D01*
X146564313Y-93171618D01*
X146595611Y-93203134D01*
X146618177Y-93240747D01*
X146633440Y-93290106D01*
X146642826Y-93356863D01*
X146647763Y-93446667D01*
X146649679Y-93565171D01*
X146650000Y-93718023D01*
X146650000Y-94153113D01*
X146596408Y-94223377D01*
X146586347Y-94235778D01*
X146532168Y-94288409D01*
X146476408Y-94326364D01*
X146423474Y-94346047D01*
X146320024Y-94355359D01*
X146217242Y-94332668D01*
X146125728Y-94281068D01*
X146056077Y-94203652D01*
X146049030Y-94191795D01*
X146029268Y-94148887D01*
X146016331Y-94097027D01*
X146008249Y-94025871D01*
X146003055Y-93925071D01*
X145995464Y-93720000D01*
X145480690Y-93720000D01*
X145392546Y-93719975D01*
X145254723Y-93719643D01*
X145148997Y-93718598D01*
X145070210Y-93716442D01*
X145013203Y-93712775D01*
X144972817Y-93707197D01*
X144943893Y-93699308D01*
X144921273Y-93688709D01*
X144899797Y-93675000D01*
X144861207Y-93646734D01*
X144795324Y-93578798D01*
X144760306Y-93500319D01*
X144750000Y-93400000D01*
X144751733Y-93354240D01*
X144771726Y-93264523D01*
X144819029Y-93191875D01*
X144899797Y-93125000D01*
X144907276Y-93119957D01*
X144925088Y-93109207D01*
X144945467Y-93100582D01*
X144972572Y-93093848D01*
X145010561Y-93088771D01*
X145063595Y-93085116D01*
X145135832Y-93082650D01*
X145231431Y-93081140D01*
X145354553Y-93080350D01*
X145509357Y-93080048D01*
X145700000Y-93080000D01*
X145782267Y-93080004D01*
G37*
G36*
X155592770Y-85480030D02*
G01*
X155714941Y-85480515D01*
X155805821Y-85482035D01*
X155871391Y-85485157D01*
X155917633Y-85490448D01*
X155950528Y-85498475D01*
X155976058Y-85509803D01*
X156000204Y-85525000D01*
X156016401Y-85536234D01*
X156074040Y-85582993D01*
X156112947Y-85632637D01*
X156137076Y-85694418D01*
X156150382Y-85777588D01*
X156156821Y-85891400D01*
X156163641Y-86100000D01*
X156326953Y-86100000D01*
X156377903Y-86100536D01*
X156487056Y-86107807D01*
X156569857Y-86125690D01*
X156635727Y-86156853D01*
X156694090Y-86203963D01*
X156750470Y-86276228D01*
X156786538Y-86373188D01*
X156789717Y-86473999D01*
X156761265Y-86570522D01*
X156702443Y-86654614D01*
X156614512Y-86718136D01*
X156590484Y-86729261D01*
X156556563Y-86741137D01*
X156515764Y-86749512D01*
X156461463Y-86754986D01*
X156387038Y-86758157D01*
X156285863Y-86759624D01*
X156151315Y-86759984D01*
X156055837Y-86759833D01*
X155944414Y-86758767D01*
X155861833Y-86756168D01*
X155801452Y-86751442D01*
X155756626Y-86743997D01*
X155720713Y-86733240D01*
X155687069Y-86718580D01*
X155617723Y-86676812D01*
X155566676Y-86623055D01*
X155532763Y-86551245D01*
X155512662Y-86454284D01*
X155503055Y-86325071D01*
X155495464Y-86120000D01*
X155305755Y-86120000D01*
X155236376Y-86118806D01*
X155127746Y-86108696D01*
X155046421Y-86086060D01*
X154984632Y-86048229D01*
X154934607Y-85992534D01*
X154916405Y-85960225D01*
X154892418Y-85874254D01*
X154887457Y-85776328D01*
X154901519Y-85682161D01*
X154934607Y-85607465D01*
X154958405Y-85576389D01*
X154991313Y-85543652D01*
X155031016Y-85519227D01*
X155083047Y-85501921D01*
X155152936Y-85490539D01*
X155246214Y-85483888D01*
X155368414Y-85480773D01*
X155525065Y-85480000D01*
X155592770Y-85480030D01*
G37*
G36*
X150908431Y-91841209D02*
G01*
X150996037Y-91905910D01*
X151010512Y-91921994D01*
X151053478Y-91983083D01*
X151080335Y-92041164D01*
X151083892Y-92061574D01*
X151089074Y-92122499D01*
X151093508Y-92212800D01*
X151096961Y-92325968D01*
X151099202Y-92455493D01*
X151100000Y-92594867D01*
X151100000Y-93080000D01*
X151291978Y-93080000D01*
X151407421Y-93084584D01*
X151524834Y-93105188D01*
X151610617Y-93144596D01*
X151667951Y-93205243D01*
X151700018Y-93289566D01*
X151710000Y-93400000D01*
X151707432Y-93458000D01*
X151684303Y-93557611D01*
X151634693Y-93632020D01*
X151555637Y-93686738D01*
X151551246Y-93688823D01*
X151520226Y-93699685D01*
X151477642Y-93707730D01*
X151417808Y-93713348D01*
X151335040Y-93716929D01*
X151223652Y-93718864D01*
X151077958Y-93719544D01*
X151004237Y-93719589D01*
X150882953Y-93719220D01*
X150792758Y-93717774D01*
X150727699Y-93714698D01*
X150681826Y-93709437D01*
X150649185Y-93701437D01*
X150623826Y-93690142D01*
X150599797Y-93675000D01*
X150594437Y-93671264D01*
X150537983Y-93623966D01*
X150491839Y-93573563D01*
X150491728Y-93573412D01*
X150480766Y-93557205D01*
X150471865Y-93538421D01*
X150464769Y-93512900D01*
X150459224Y-93476485D01*
X150454975Y-93425018D01*
X150451769Y-93354342D01*
X150449350Y-93260298D01*
X150447464Y-93138728D01*
X150445856Y-92985475D01*
X150444273Y-92796380D01*
X150444195Y-92786501D01*
X150442793Y-92599098D01*
X150441993Y-92447156D01*
X150441991Y-92326344D01*
X150442980Y-92232334D01*
X150445158Y-92160793D01*
X150448718Y-92107391D01*
X150453856Y-92067799D01*
X150460768Y-92037685D01*
X150469648Y-92012719D01*
X150480692Y-91988571D01*
X150533543Y-91910224D01*
X150614763Y-91846391D01*
X150709708Y-91812747D01*
X150810293Y-91810587D01*
X150908431Y-91841209D01*
G37*
G36*
X150966673Y-81042136D02*
G01*
X151109022Y-81043859D01*
X151128203Y-81044151D01*
X151272410Y-81046879D01*
X151383181Y-81051146D01*
X151466398Y-81058572D01*
X151527941Y-81070777D01*
X151573693Y-81089382D01*
X151609532Y-81116006D01*
X151641341Y-81152271D01*
X151675000Y-81199796D01*
X151679498Y-81206456D01*
X151690391Y-81224325D01*
X151699132Y-81244578D01*
X151705957Y-81271393D01*
X151711104Y-81308950D01*
X151714809Y-81361430D01*
X151717310Y-81433012D01*
X151718842Y-81527875D01*
X151719644Y-81650200D01*
X151719951Y-81804165D01*
X151720000Y-81993950D01*
X151719954Y-82150749D01*
X151719499Y-82320128D01*
X151718151Y-82456876D01*
X151715424Y-82565141D01*
X151710832Y-82649069D01*
X151703888Y-82712808D01*
X151694107Y-82760504D01*
X151681003Y-82796304D01*
X151664089Y-82824355D01*
X151642880Y-82848804D01*
X151616891Y-82873798D01*
X151572079Y-82908880D01*
X151519990Y-82938618D01*
X151455803Y-82952678D01*
X151370644Y-82951478D01*
X151287067Y-82935226D01*
X151223511Y-82905953D01*
X151218638Y-82902218D01*
X151169625Y-82855433D01*
X151125000Y-82800203D01*
X151117298Y-82788610D01*
X151105293Y-82767168D01*
X151096185Y-82741837D01*
X151089575Y-82707460D01*
X151085062Y-82658877D01*
X151082248Y-82590929D01*
X151080733Y-82498458D01*
X151080117Y-82376305D01*
X151080000Y-82219310D01*
X151080000Y-81704536D01*
X150874929Y-81696945D01*
X150866789Y-81696631D01*
X150740343Y-81686742D01*
X150645626Y-81666402D01*
X150575349Y-81632130D01*
X150522227Y-81580448D01*
X150478973Y-81507876D01*
X150451567Y-81427911D01*
X150447024Y-81320739D01*
X150476894Y-81220527D01*
X150538533Y-81134947D01*
X150629297Y-81071674D01*
X150644476Y-81065080D01*
X150676988Y-81055123D01*
X150719461Y-81048198D01*
X150777896Y-81043958D01*
X150858299Y-81042053D01*
X150966673Y-81042136D01*
G37*
G36*
X141390310Y-89300062D02*
G01*
X141478065Y-89353974D01*
X141548393Y-89439576D01*
X141562316Y-89467172D01*
X141579349Y-89522269D01*
X141590201Y-89597305D01*
X141596711Y-89702272D01*
X141604473Y-89895527D01*
X141797728Y-89903289D01*
X141873304Y-89907838D01*
X141980100Y-89923404D01*
X142060476Y-89951525D01*
X142122673Y-89995602D01*
X142174933Y-90059038D01*
X142183774Y-90072583D01*
X142196679Y-90096702D01*
X142206092Y-90125383D01*
X142212563Y-90164534D01*
X142216640Y-90220060D01*
X142218873Y-90297868D01*
X142219810Y-90403862D01*
X142220000Y-90543950D01*
X142219749Y-90657111D01*
X142218088Y-90783613D01*
X142214016Y-90879899D01*
X142206558Y-90951651D01*
X142194740Y-91004551D01*
X142177587Y-91044280D01*
X142154122Y-91076518D01*
X142123372Y-91106948D01*
X142117393Y-91112006D01*
X142067020Y-91143985D01*
X142006324Y-91171676D01*
X142005213Y-91172079D01*
X141900170Y-91189988D01*
X141795705Y-91172015D01*
X141700957Y-91121295D01*
X141625068Y-91040961D01*
X141609856Y-91016360D01*
X141594313Y-90979473D01*
X141585259Y-90932578D01*
X141581040Y-90865687D01*
X141580000Y-90768811D01*
X141580000Y-90563539D01*
X141363370Y-90556769D01*
X141347988Y-90556279D01*
X141254759Y-90552339D01*
X141190595Y-90546387D01*
X141145865Y-90536390D01*
X141110938Y-90520315D01*
X141076185Y-90496128D01*
X141037244Y-90464406D01*
X141002718Y-90428153D01*
X140977336Y-90386195D01*
X140959847Y-90332822D01*
X140949004Y-90262324D01*
X140943557Y-90168991D01*
X140942259Y-90047113D01*
X140943860Y-89890978D01*
X140944259Y-89864882D01*
X140946634Y-89732098D01*
X140949474Y-89632464D01*
X140953385Y-89560118D01*
X140958972Y-89509200D01*
X140966839Y-89473848D01*
X140977594Y-89448203D01*
X140991839Y-89426403D01*
X141009080Y-89404717D01*
X141094515Y-89330167D01*
X141191333Y-89287988D01*
X141292332Y-89278010D01*
X141390310Y-89300062D01*
G37*
G36*
X144572633Y-86139718D02*
G01*
X144656021Y-86198959D01*
X144718581Y-86287068D01*
X144728785Y-86309496D01*
X144740806Y-86343974D01*
X144749305Y-86385147D01*
X144754878Y-86439676D01*
X144758121Y-86514221D01*
X144759630Y-86615442D01*
X144760000Y-86750000D01*
X144759852Y-86843272D01*
X144758794Y-86954982D01*
X144756202Y-87037772D01*
X144751480Y-87098301D01*
X144744034Y-87143231D01*
X144733266Y-87179221D01*
X144718581Y-87212931D01*
X144678046Y-87280635D01*
X144624336Y-87332402D01*
X144552627Y-87366808D01*
X144455811Y-87387189D01*
X144326783Y-87396882D01*
X144123422Y-87404410D01*
X144116711Y-87617205D01*
X144116371Y-87627446D01*
X144108255Y-87747511D01*
X144091408Y-87836027D01*
X144062546Y-87900552D01*
X144018384Y-87948645D01*
X143955637Y-87987862D01*
X143874649Y-88011831D01*
X143777702Y-88015275D01*
X143682486Y-87999075D01*
X143606158Y-87964384D01*
X143576552Y-87940869D01*
X143530387Y-87885956D01*
X143500651Y-87814997D01*
X143484727Y-87720318D01*
X143480000Y-87594245D01*
X143480000Y-87404536D01*
X143274929Y-87396945D01*
X143243024Y-87395664D01*
X143151595Y-87389857D01*
X143086904Y-87380611D01*
X143038604Y-87365956D01*
X142996348Y-87343923D01*
X142983911Y-87335796D01*
X142909380Y-87262424D01*
X142862523Y-87169818D01*
X142845181Y-87067613D01*
X142859194Y-86965443D01*
X142906400Y-86872942D01*
X142933190Y-86839555D01*
X142964364Y-86808323D01*
X143000311Y-86784393D01*
X143046064Y-86766798D01*
X143106654Y-86754571D01*
X143187113Y-86746745D01*
X143292473Y-86742353D01*
X143427766Y-86740427D01*
X143598023Y-86740000D01*
X144100000Y-86740000D01*
X144100000Y-86574867D01*
X144100622Y-86519685D01*
X144108052Y-86411416D01*
X144125991Y-86329280D01*
X144157081Y-86263903D01*
X144203964Y-86205910D01*
X144278895Y-86148034D01*
X144375930Y-86112972D01*
X144476556Y-86110627D01*
X144572633Y-86139718D01*
G37*
G36*
X138867881Y-91837903D02*
G01*
X138954973Y-91898376D01*
X139018581Y-91987068D01*
X139018691Y-91987295D01*
X139031499Y-92016214D01*
X139041357Y-92047017D01*
X139048648Y-92085148D01*
X139053756Y-92136053D01*
X139057062Y-92205178D01*
X139058950Y-92297966D01*
X139059802Y-92419863D01*
X139060000Y-92576314D01*
X139060000Y-93080000D01*
X139571978Y-93080000D01*
X139726632Y-93080327D01*
X139867513Y-93082016D01*
X139977615Y-93085968D01*
X140061822Y-93093079D01*
X140125020Y-93104249D01*
X140172091Y-93120374D01*
X140207921Y-93142354D01*
X140237394Y-93171085D01*
X140265394Y-93207465D01*
X140283596Y-93239774D01*
X140307583Y-93325745D01*
X140312544Y-93423671D01*
X140298482Y-93517838D01*
X140265394Y-93592534D01*
X140240537Y-93623705D01*
X140185404Y-93669837D01*
X140114491Y-93699484D01*
X140020029Y-93715315D01*
X139894246Y-93720000D01*
X139704537Y-93720000D01*
X139696946Y-93925071D01*
X139687992Y-94048929D01*
X139668451Y-94147090D01*
X139635242Y-94219901D01*
X139585037Y-94274527D01*
X139514512Y-94318136D01*
X139490484Y-94329261D01*
X139456563Y-94341137D01*
X139415764Y-94349512D01*
X139361463Y-94354986D01*
X139287038Y-94358157D01*
X139185863Y-94359624D01*
X139051315Y-94359984D01*
X138994442Y-94359853D01*
X138847818Y-94357426D01*
X138733705Y-94350806D01*
X138646531Y-94338529D01*
X138580722Y-94319131D01*
X138530705Y-94291150D01*
X138490907Y-94253121D01*
X138455755Y-94203580D01*
X138410000Y-94130000D01*
X138403878Y-93150000D01*
X138403812Y-93139320D01*
X138402873Y-92942388D01*
X138402488Y-92755436D01*
X138402630Y-92582752D01*
X138403273Y-92428623D01*
X138404391Y-92297340D01*
X138405958Y-92193190D01*
X138407949Y-92120461D01*
X138410337Y-92083442D01*
X138429331Y-92017743D01*
X138482548Y-91931025D01*
X138557495Y-91860861D01*
X138643829Y-91818969D01*
X138655448Y-91816058D01*
X138765355Y-91809260D01*
X138867881Y-91837903D01*
G37*
G36*
X143845760Y-90551732D02*
G01*
X143935477Y-90571725D01*
X144008125Y-90619028D01*
X144075000Y-90699796D01*
X144090819Y-90725272D01*
X144106027Y-90761807D01*
X144114875Y-90808681D01*
X144118990Y-90875772D01*
X144120000Y-90972957D01*
X144120000Y-91180000D01*
X144327043Y-91180000D01*
X144400537Y-91180485D01*
X144475039Y-91183569D01*
X144526565Y-91190932D01*
X144564994Y-91204199D01*
X144600204Y-91225000D01*
X144622858Y-91240548D01*
X144664313Y-91271618D01*
X144695611Y-91303134D01*
X144718177Y-91340747D01*
X144733440Y-91390106D01*
X144742826Y-91456863D01*
X144747763Y-91546667D01*
X144749679Y-91665171D01*
X144750000Y-91818023D01*
X144750000Y-92253113D01*
X144696408Y-92323377D01*
X144686417Y-92335705D01*
X144632213Y-92388583D01*
X144576408Y-92426961D01*
X144562608Y-92433246D01*
X144531305Y-92443050D01*
X144489233Y-92449934D01*
X144430550Y-92454243D01*
X144349413Y-92456318D01*
X144239979Y-92456503D01*
X144096406Y-92455141D01*
X144065956Y-92454756D01*
X143923353Y-92452363D01*
X143813839Y-92448297D01*
X143731581Y-92440977D01*
X143670747Y-92428820D01*
X143625504Y-92410246D01*
X143590021Y-92383673D01*
X143558464Y-92347519D01*
X143525000Y-92300203D01*
X143519958Y-92292724D01*
X143509208Y-92274912D01*
X143500583Y-92254533D01*
X143493849Y-92227428D01*
X143488772Y-92189439D01*
X143485117Y-92136405D01*
X143482651Y-92064168D01*
X143481141Y-91968569D01*
X143480351Y-91845447D01*
X143480049Y-91690643D01*
X143480000Y-91500000D01*
X143480005Y-91417733D01*
X143480128Y-91242194D01*
X143480601Y-91100800D01*
X143481656Y-90989394D01*
X143483527Y-90903815D01*
X143486449Y-90839904D01*
X143490655Y-90793502D01*
X143496380Y-90760449D01*
X143503856Y-90736587D01*
X143513318Y-90717756D01*
X143525000Y-90699796D01*
X143553266Y-90661206D01*
X143621202Y-90595323D01*
X143699681Y-90560305D01*
X143800000Y-90550000D01*
X143845760Y-90551732D01*
G37*
G36*
X148767666Y-92442979D02*
G01*
X148839207Y-92445157D01*
X148892609Y-92448717D01*
X148932201Y-92453855D01*
X148962315Y-92460767D01*
X148987281Y-92469647D01*
X149011429Y-92480691D01*
X149089776Y-92533542D01*
X149153609Y-92614762D01*
X149187253Y-92709707D01*
X149189413Y-92810292D01*
X149158791Y-92908430D01*
X149094090Y-92996036D01*
X149071949Y-93016197D01*
X149011815Y-93056863D01*
X148940554Y-93082607D01*
X148848741Y-93096096D01*
X148726953Y-93100000D01*
X148563641Y-93100000D01*
X148556821Y-93308599D01*
X148555666Y-93339822D01*
X148547936Y-93445168D01*
X148532366Y-93522178D01*
X148504960Y-93580138D01*
X148461720Y-93628333D01*
X148398649Y-93676047D01*
X148378513Y-93689170D01*
X148355000Y-93701027D01*
X148326203Y-93709437D01*
X148286338Y-93714865D01*
X148229619Y-93717776D01*
X148150261Y-93718633D01*
X148042479Y-93717902D01*
X147900488Y-93716047D01*
X147813752Y-93714773D01*
X147691616Y-93712486D01*
X147600420Y-93709594D01*
X147534419Y-93705506D01*
X147487869Y-93699632D01*
X147455023Y-93691382D01*
X147430138Y-93680166D01*
X147407466Y-93665393D01*
X147376390Y-93641595D01*
X147343653Y-93608687D01*
X147319228Y-93568984D01*
X147301922Y-93516953D01*
X147290540Y-93447064D01*
X147283889Y-93353786D01*
X147280774Y-93231586D01*
X147280000Y-93074935D01*
X147280031Y-93007230D01*
X147280516Y-92885059D01*
X147282036Y-92794179D01*
X147285158Y-92728609D01*
X147290449Y-92682367D01*
X147298476Y-92649472D01*
X147309804Y-92623942D01*
X147325000Y-92599796D01*
X147328736Y-92594436D01*
X147376034Y-92537982D01*
X147426437Y-92491838D01*
X147426588Y-92491727D01*
X147442795Y-92480765D01*
X147461579Y-92471864D01*
X147487100Y-92464768D01*
X147523515Y-92459223D01*
X147574982Y-92454974D01*
X147645658Y-92451768D01*
X147739702Y-92449349D01*
X147861272Y-92447463D01*
X148014525Y-92445855D01*
X148203620Y-92444272D01*
X148213499Y-92444194D01*
X148400902Y-92442792D01*
X148552844Y-92441992D01*
X148673656Y-92441990D01*
X148767666Y-92442979D01*
G37*
G36*
X148372633Y-82339718D02*
G01*
X148456021Y-82398959D01*
X148518581Y-82487068D01*
X148533358Y-82521359D01*
X148549426Y-82580082D01*
X148557673Y-82653987D01*
X148560000Y-82755382D01*
X148560000Y-82938135D01*
X149088580Y-82944067D01*
X149167576Y-82944962D01*
X149319526Y-82947126D01*
X149438704Y-82950420D01*
X149530119Y-82955989D01*
X149598778Y-82964979D01*
X149649692Y-82978536D01*
X149687867Y-82997806D01*
X149718312Y-83023934D01*
X149746036Y-83058067D01*
X149776048Y-83101351D01*
X149789171Y-83121487D01*
X149801028Y-83145000D01*
X149809438Y-83173797D01*
X149814866Y-83213662D01*
X149817777Y-83270381D01*
X149818634Y-83349739D01*
X149817903Y-83457521D01*
X149816048Y-83599512D01*
X149814806Y-83684132D01*
X149812517Y-83806822D01*
X149809629Y-83898478D01*
X149805554Y-83964840D01*
X149799704Y-84011652D01*
X149791493Y-84044653D01*
X149780333Y-84069587D01*
X149765637Y-84092193D01*
X149763766Y-84094768D01*
X149713531Y-84147244D01*
X149655637Y-84187862D01*
X149574649Y-84211831D01*
X149477702Y-84215275D01*
X149382486Y-84199075D01*
X149306158Y-84164384D01*
X149275129Y-84139599D01*
X149229604Y-84084707D01*
X149200310Y-84013725D01*
X149184644Y-83918980D01*
X149180000Y-83792803D01*
X149180000Y-83601652D01*
X148345000Y-83595826D01*
X148197111Y-83594762D01*
X148017759Y-83593273D01*
X147871796Y-83591632D01*
X147755340Y-83589640D01*
X147664506Y-83587094D01*
X147595410Y-83583793D01*
X147544169Y-83579535D01*
X147506898Y-83574121D01*
X147479713Y-83567347D01*
X147458732Y-83559013D01*
X147440068Y-83548918D01*
X147418483Y-83535213D01*
X147339522Y-83459981D01*
X147292439Y-83369053D01*
X147277409Y-83269603D01*
X147294609Y-83168802D01*
X147344214Y-83073823D01*
X147426401Y-82991838D01*
X147439247Y-82982981D01*
X147474704Y-82965919D01*
X147522376Y-82954732D01*
X147591522Y-82947718D01*
X147691401Y-82943179D01*
X147900000Y-82936359D01*
X147900000Y-82773047D01*
X147900537Y-82722097D01*
X147907808Y-82612944D01*
X147925691Y-82530143D01*
X147956854Y-82464273D01*
X148003964Y-82405910D01*
X148078895Y-82348034D01*
X148175930Y-82312972D01*
X148276556Y-82310627D01*
X148372633Y-82339718D01*
G37*
G36*
X149889323Y-80410032D02*
G01*
X150011414Y-80410529D01*
X150102412Y-80412079D01*
X150168392Y-80415259D01*
X150215425Y-80420641D01*
X150249586Y-80428801D01*
X150276947Y-80440314D01*
X150303581Y-80455754D01*
X150315768Y-80463752D01*
X150390458Y-80537363D01*
X150437419Y-80630093D01*
X150454818Y-80732348D01*
X150440823Y-80834534D01*
X150393601Y-80927057D01*
X150360430Y-80965854D01*
X150302669Y-81011444D01*
X150230955Y-81040375D01*
X150136866Y-81055582D01*
X150011978Y-81060000D01*
X149820000Y-81060000D01*
X149820000Y-81370000D01*
X149820000Y-81680000D01*
X150027043Y-81680000D01*
X150100537Y-81680485D01*
X150175039Y-81683569D01*
X150226565Y-81690932D01*
X150264994Y-81704199D01*
X150300204Y-81725000D01*
X150338794Y-81753265D01*
X150404677Y-81821201D01*
X150439695Y-81899680D01*
X150450000Y-82000000D01*
X150447967Y-82049357D01*
X150427417Y-82137544D01*
X150379705Y-82209351D01*
X150298649Y-82276047D01*
X150278513Y-82289170D01*
X150255000Y-82301027D01*
X150226203Y-82309437D01*
X150186338Y-82314865D01*
X150129619Y-82317776D01*
X150050261Y-82318633D01*
X149942479Y-82317902D01*
X149800488Y-82316047D01*
X149713752Y-82314773D01*
X149591616Y-82312486D01*
X149500420Y-82309594D01*
X149434419Y-82305506D01*
X149387869Y-82299632D01*
X149355023Y-82291382D01*
X149330138Y-82280166D01*
X149307466Y-82265393D01*
X149279105Y-82244463D01*
X149252682Y-82221006D01*
X149231428Y-82193709D01*
X149214781Y-82158552D01*
X149202179Y-82111520D01*
X149193058Y-82048593D01*
X149186858Y-81965755D01*
X149183014Y-81858988D01*
X149180965Y-81724274D01*
X149180148Y-81557595D01*
X149180000Y-81354935D01*
X149180004Y-81280235D01*
X149180121Y-81104048D01*
X149180582Y-80962135D01*
X149181624Y-80850315D01*
X149183483Y-80764408D01*
X149186398Y-80700233D01*
X149190603Y-80653610D01*
X149196336Y-80620360D01*
X149203833Y-80596301D01*
X149213332Y-80577254D01*
X149225068Y-80559038D01*
X149228830Y-80553650D01*
X149280461Y-80496927D01*
X149340068Y-80451081D01*
X149343761Y-80448934D01*
X149370324Y-80435502D01*
X149400643Y-80425555D01*
X149440760Y-80418577D01*
X149496714Y-80414049D01*
X149574545Y-80411454D01*
X149680294Y-80410277D01*
X149820000Y-80410000D01*
X149889323Y-80410032D01*
G37*
G36*
X151497429Y-88026469D02*
G01*
X151596513Y-88076359D01*
X151674933Y-88159038D01*
X151684107Y-88173083D01*
X151695674Y-88194645D01*
X151704446Y-88220575D01*
X151710808Y-88255965D01*
X151715147Y-88305904D01*
X151717850Y-88375483D01*
X151719302Y-88469791D01*
X151719890Y-88593919D01*
X151720000Y-88752957D01*
X151720000Y-89280000D01*
X152247043Y-89280000D01*
X152354390Y-89280036D01*
X152490215Y-89280412D01*
X152594431Y-89281517D01*
X152672126Y-89283736D01*
X152728392Y-89287455D01*
X152768319Y-89293062D01*
X152796996Y-89300942D01*
X152819513Y-89311482D01*
X152840962Y-89325067D01*
X152851421Y-89332395D01*
X152928498Y-89410503D01*
X152974048Y-89504279D01*
X152988069Y-89605668D01*
X152970561Y-89706610D01*
X152921525Y-89799051D01*
X152840962Y-89874932D01*
X152816361Y-89890144D01*
X152779474Y-89905687D01*
X152732579Y-89914741D01*
X152665688Y-89918960D01*
X152568812Y-89920000D01*
X152363540Y-89920000D01*
X152356770Y-90136630D01*
X152356315Y-90150934D01*
X152352375Y-90244537D01*
X152346440Y-90308970D01*
X152336483Y-90353852D01*
X152320481Y-90388806D01*
X152296408Y-90423450D01*
X152286386Y-90435794D01*
X152232193Y-90488406D01*
X152176408Y-90526364D01*
X152123474Y-90546047D01*
X152020024Y-90555359D01*
X151917242Y-90532668D01*
X151825728Y-90481068D01*
X151756077Y-90403652D01*
X151749030Y-90391795D01*
X151729268Y-90348887D01*
X151716331Y-90297027D01*
X151708249Y-90225871D01*
X151703055Y-90125071D01*
X151695464Y-89920000D01*
X151180690Y-89920000D01*
X151092546Y-89919975D01*
X150954723Y-89919643D01*
X150848997Y-89918598D01*
X150770210Y-89916442D01*
X150713203Y-89912775D01*
X150672817Y-89907197D01*
X150643893Y-89899308D01*
X150621273Y-89888709D01*
X150599797Y-89875000D01*
X150593648Y-89870806D01*
X150547514Y-89837664D01*
X150512452Y-89805689D01*
X150486842Y-89769000D01*
X150469063Y-89721717D01*
X150457496Y-89657958D01*
X150450520Y-89571843D01*
X150446515Y-89457491D01*
X150443860Y-89309021D01*
X150442323Y-89169690D01*
X150443207Y-89044005D01*
X150448090Y-88947550D01*
X150458221Y-88874615D01*
X150474846Y-88819490D01*
X150499217Y-88776464D01*
X150532580Y-88739828D01*
X150576185Y-88703871D01*
X150581230Y-88700047D01*
X150615444Y-88677078D01*
X150651134Y-88661945D01*
X150697931Y-88652615D01*
X150765467Y-88647054D01*
X150863370Y-88643230D01*
X151080000Y-88636460D01*
X151080000Y-88431188D01*
X151080445Y-88361237D01*
X151083480Y-88285942D01*
X151090826Y-88233802D01*
X151104138Y-88194830D01*
X151125068Y-88159038D01*
X151191423Y-88085790D01*
X151288050Y-88031228D01*
X151400001Y-88012307D01*
X151497429Y-88026469D01*
G37*
G36*
X150504025Y-94340120D02*
G01*
X150651065Y-94342514D01*
X150765513Y-94349104D01*
X150852951Y-94361359D01*
X150918960Y-94380749D01*
X150969124Y-94408742D01*
X151009025Y-94446809D01*
X151044246Y-94496419D01*
X151090000Y-94570000D01*
X151095619Y-95723246D01*
X151101237Y-96876493D01*
X151315619Y-96883246D01*
X151331700Y-96883797D01*
X151451244Y-96892286D01*
X151539291Y-96909683D01*
X151603148Y-96939218D01*
X151650127Y-96984123D01*
X151687535Y-97047628D01*
X151687730Y-97048045D01*
X151699783Y-97094970D01*
X151709349Y-97173180D01*
X151716391Y-97274766D01*
X151720873Y-97391818D01*
X151722756Y-97516427D01*
X151722004Y-97640684D01*
X151718580Y-97756678D01*
X151712446Y-97856501D01*
X151703566Y-97932242D01*
X151691901Y-97975993D01*
X151668171Y-98014299D01*
X151599492Y-98088200D01*
X151519990Y-98138618D01*
X151455803Y-98152678D01*
X151370644Y-98151478D01*
X151287067Y-98135226D01*
X151223511Y-98105953D01*
X151165846Y-98057330D01*
X151123093Y-98002043D01*
X151096843Y-97934663D01*
X151083634Y-97846045D01*
X151080000Y-97727042D01*
X151080000Y-97520000D01*
X150872958Y-97520000D01*
X150799464Y-97519514D01*
X150724962Y-97516430D01*
X150673436Y-97509067D01*
X150635007Y-97495800D01*
X150599797Y-97475000D01*
X150583600Y-97463765D01*
X150525961Y-97417006D01*
X150487054Y-97367362D01*
X150462925Y-97305581D01*
X150449619Y-97222411D01*
X150443180Y-97108599D01*
X150436360Y-96900000D01*
X150273048Y-96900000D01*
X150259125Y-96899931D01*
X150172157Y-96896755D01*
X150094370Y-96889787D01*
X150041165Y-96880334D01*
X149999254Y-96863405D01*
X149922268Y-96809514D01*
X149858099Y-96737653D01*
X149819917Y-96660887D01*
X149819210Y-96658177D01*
X149811840Y-96606405D01*
X149806319Y-96524413D01*
X149802649Y-96420973D01*
X149800834Y-96304857D01*
X149800876Y-96184838D01*
X149802777Y-96069687D01*
X149806541Y-95968177D01*
X149812170Y-95889078D01*
X149819666Y-95841164D01*
X149836595Y-95799253D01*
X149890486Y-95722267D01*
X149962347Y-95658098D01*
X150039113Y-95619916D01*
X150046143Y-95618147D01*
X150105793Y-95609032D01*
X150187239Y-95602587D01*
X150275000Y-95600111D01*
X150440000Y-95600000D01*
X150440000Y-95300000D01*
X150440000Y-95000000D01*
X150274868Y-95000000D01*
X150219686Y-94999378D01*
X150111417Y-94991948D01*
X150029281Y-94974009D01*
X149963904Y-94942919D01*
X149905911Y-94896036D01*
X149848035Y-94821105D01*
X149812973Y-94724070D01*
X149810628Y-94623444D01*
X149839719Y-94527367D01*
X149898960Y-94443979D01*
X149987069Y-94381419D01*
X150009497Y-94371215D01*
X150043975Y-94359194D01*
X150085148Y-94350695D01*
X150139677Y-94345122D01*
X150214222Y-94341879D01*
X150315443Y-94340370D01*
X150450000Y-94340000D01*
X150504025Y-94340120D01*
G37*
G36*
X156241654Y-91180057D02*
G01*
X156361040Y-91180627D01*
X156449894Y-91182255D01*
X156514067Y-91185478D01*
X156559410Y-91190834D01*
X156591773Y-91198860D01*
X156617007Y-91210092D01*
X156640962Y-91225067D01*
X156646350Y-91228829D01*
X156703073Y-91280460D01*
X156748919Y-91340067D01*
X156750397Y-91342598D01*
X156759278Y-91359242D01*
X156766722Y-91378227D01*
X156772856Y-91402976D01*
X156777806Y-91436913D01*
X156781699Y-91483462D01*
X156784661Y-91546045D01*
X156786821Y-91628087D01*
X156788303Y-91733011D01*
X156789236Y-91864241D01*
X156789745Y-92025200D01*
X156789958Y-92219311D01*
X156790000Y-92450000D01*
X156790000Y-92487416D01*
X156789940Y-92712346D01*
X156789690Y-92901217D01*
X156789125Y-93057455D01*
X156788117Y-93184481D01*
X156786540Y-93285720D01*
X156784268Y-93364596D01*
X156781172Y-93424531D01*
X156777127Y-93468950D01*
X156772006Y-93501276D01*
X156765682Y-93524932D01*
X156758029Y-93543343D01*
X156748919Y-93559932D01*
X156745481Y-93565572D01*
X156697424Y-93625557D01*
X156640962Y-93674932D01*
X156569838Y-93709329D01*
X156469256Y-93723134D01*
X156367117Y-93703844D01*
X156271839Y-93653359D01*
X156191839Y-93573579D01*
X156186651Y-93566365D01*
X156175098Y-93546752D01*
X156166140Y-93522094D01*
X156159371Y-93487399D01*
X156154381Y-93437672D01*
X156150764Y-93367920D01*
X156148111Y-93273150D01*
X156146015Y-93148367D01*
X156144068Y-92988579D01*
X156138136Y-92460000D01*
X155829068Y-92460000D01*
X155520000Y-92460000D01*
X155520000Y-92667042D01*
X155519520Y-92740117D01*
X155516436Y-92814857D01*
X155509065Y-92866634D01*
X155495774Y-92905364D01*
X155474933Y-92940961D01*
X155467605Y-92951420D01*
X155389497Y-93028497D01*
X155295721Y-93074047D01*
X155194332Y-93088068D01*
X155093390Y-93070560D01*
X155000949Y-93021524D01*
X154925068Y-92940961D01*
X154915337Y-92925981D01*
X154902740Y-92901926D01*
X154893554Y-92872974D01*
X154887243Y-92833275D01*
X154883269Y-92776979D01*
X154881095Y-92698234D01*
X154880185Y-92591192D01*
X154880000Y-92450000D01*
X154880058Y-92358346D01*
X154880628Y-92238960D01*
X154882256Y-92150106D01*
X154885479Y-92085933D01*
X154890835Y-92040590D01*
X154898861Y-92008227D01*
X154910093Y-91982993D01*
X154925068Y-91959038D01*
X154954018Y-91920429D01*
X155010911Y-91868407D01*
X155082424Y-91833811D01*
X155176797Y-91813240D01*
X155302273Y-91803289D01*
X155495528Y-91795527D01*
X155503290Y-91602272D01*
X155507839Y-91526696D01*
X155523405Y-91419900D01*
X155551526Y-91339524D01*
X155595603Y-91277327D01*
X155659039Y-91225067D01*
X155674019Y-91215336D01*
X155698074Y-91202739D01*
X155727026Y-91193553D01*
X155766725Y-91187242D01*
X155823021Y-91183268D01*
X155901766Y-91181094D01*
X156008808Y-91180184D01*
X156150001Y-91180000D01*
X156241654Y-91180057D01*
G37*
G36*
X140082267Y-85480004D02*
G01*
X140257806Y-85480127D01*
X140399200Y-85480600D01*
X140510606Y-85481655D01*
X140596185Y-85483526D01*
X140660096Y-85486448D01*
X140706498Y-85490654D01*
X140739551Y-85496379D01*
X140763413Y-85503855D01*
X140782244Y-85513317D01*
X140800204Y-85525000D01*
X140805563Y-85528734D01*
X140862018Y-85576035D01*
X140908162Y-85626443D01*
X140917938Y-85640673D01*
X140926432Y-85657697D01*
X140933347Y-85680632D01*
X140938880Y-85713267D01*
X140943231Y-85759388D01*
X140946597Y-85822784D01*
X140949179Y-85907242D01*
X140951173Y-86016549D01*
X140952780Y-86154494D01*
X140954198Y-86324862D01*
X140955624Y-86531443D01*
X140961248Y-87380000D01*
X141167666Y-87380000D01*
X141239644Y-87380468D01*
X141314578Y-87383534D01*
X141366482Y-87390897D01*
X141405296Y-87404195D01*
X141440962Y-87425067D01*
X141451421Y-87432395D01*
X141528498Y-87510503D01*
X141574048Y-87604279D01*
X141588069Y-87705668D01*
X141570561Y-87806610D01*
X141521525Y-87899051D01*
X141440962Y-87974932D01*
X141416361Y-87990144D01*
X141379474Y-88005687D01*
X141332579Y-88014741D01*
X141265688Y-88018960D01*
X141168812Y-88020000D01*
X140963540Y-88020000D01*
X140956770Y-88236630D01*
X140956315Y-88250934D01*
X140952375Y-88344537D01*
X140946440Y-88408970D01*
X140936483Y-88453852D01*
X140920481Y-88488806D01*
X140896408Y-88523450D01*
X140886386Y-88535794D01*
X140832193Y-88588406D01*
X140776408Y-88626364D01*
X140723474Y-88646047D01*
X140620024Y-88655359D01*
X140517242Y-88632668D01*
X140425728Y-88581068D01*
X140356077Y-88503652D01*
X140349030Y-88491795D01*
X140329268Y-88448887D01*
X140316331Y-88397027D01*
X140308249Y-88325871D01*
X140303055Y-88225071D01*
X140295464Y-88020000D01*
X140105755Y-88020000D01*
X139994612Y-88015692D01*
X139876578Y-87995301D01*
X139790240Y-87955953D01*
X139732458Y-87895232D01*
X139700092Y-87810719D01*
X139690000Y-87700000D01*
X139695989Y-87611627D01*
X139722904Y-87521746D01*
X139774384Y-87456079D01*
X139853609Y-87412189D01*
X139963761Y-87387641D01*
X140108023Y-87380000D01*
X140300000Y-87380000D01*
X140300000Y-86750000D01*
X140300000Y-86120000D01*
X139782958Y-86120000D01*
X139691259Y-86119973D01*
X139553810Y-86119633D01*
X139448368Y-86118578D01*
X139369790Y-86116410D01*
X139312932Y-86112734D01*
X139272648Y-86107152D01*
X139243794Y-86099267D01*
X139221225Y-86088681D01*
X139199797Y-86075000D01*
X139161207Y-86046734D01*
X139095324Y-85978798D01*
X139060306Y-85900319D01*
X139050000Y-85800000D01*
X139051733Y-85754240D01*
X139071726Y-85664523D01*
X139119029Y-85591875D01*
X139199797Y-85525000D01*
X139207276Y-85519957D01*
X139225088Y-85509207D01*
X139245467Y-85500582D01*
X139272572Y-85493848D01*
X139310561Y-85488771D01*
X139363595Y-85485116D01*
X139435832Y-85482650D01*
X139531431Y-85481140D01*
X139654553Y-85480350D01*
X139809357Y-85480048D01*
X140000000Y-85480000D01*
X140082267Y-85480004D01*
G37*
G36*
X148268182Y-89604294D02*
G01*
X148250744Y-89751901D01*
X148201957Y-89890645D01*
X148124182Y-90015318D01*
X148019783Y-90120711D01*
X147891120Y-90201617D01*
X147740556Y-90252829D01*
X147693796Y-90262834D01*
X147642968Y-90273507D01*
X147618674Y-90278323D01*
X147601219Y-90276775D01*
X147553868Y-90269531D01*
X147489308Y-90258179D01*
X147392906Y-90234126D01*
X147245718Y-90168068D01*
X147123134Y-90072247D01*
X147028174Y-89948686D01*
X147010610Y-89919568D01*
X146982316Y-89883056D01*
X146953802Y-89870333D01*
X146912832Y-89873414D01*
X146856778Y-89870586D01*
X146786993Y-89832396D01*
X146717954Y-89755122D01*
X146649149Y-89638308D01*
X146598615Y-89544978D01*
X146548915Y-89474080D01*
X146504859Y-89439923D01*
X146463647Y-89441578D01*
X146422478Y-89478117D01*
X146378551Y-89548611D01*
X146333927Y-89619326D01*
X146294257Y-89652471D01*
X146258196Y-89648884D01*
X146254601Y-89646370D01*
X146241101Y-89615420D01*
X146253088Y-89561516D01*
X146291226Y-89481294D01*
X146339044Y-89409867D01*
X146407318Y-89350378D01*
X146480166Y-89327616D01*
X146553968Y-89342505D01*
X146625101Y-89395971D01*
X146627782Y-89398913D01*
X146662860Y-89446363D01*
X146705198Y-89515044D01*
X146746225Y-89591151D01*
X146767872Y-89633631D01*
X146810766Y-89708858D01*
X146845850Y-89753147D01*
X146877402Y-89771107D01*
X146909697Y-89767348D01*
X146926571Y-89757049D01*
X146937217Y-89728402D01*
X146933620Y-89673166D01*
X146930266Y-89628146D01*
X146934830Y-89568138D01*
X147020216Y-89568138D01*
X147026121Y-89586089D01*
X147043139Y-89573911D01*
X147064854Y-89554344D01*
X147107016Y-89551622D01*
X147121345Y-89561023D01*
X147133092Y-89599361D01*
X147118302Y-89656415D01*
X147078084Y-89725505D01*
X147038055Y-89781011D01*
X147093107Y-89882160D01*
X147150714Y-89970718D01*
X147235088Y-90054150D01*
X147347671Y-90124117D01*
X147380836Y-90138440D01*
X147478465Y-90163312D01*
X147589599Y-90174638D01*
X147697629Y-90171347D01*
X147785947Y-90152368D01*
X147807088Y-90144110D01*
X147943688Y-90068650D01*
X148051026Y-89967696D01*
X148126826Y-89844788D01*
X148168815Y-89703467D01*
X148174717Y-89547273D01*
X148146576Y-89405124D01*
X148082791Y-89274745D01*
X147984504Y-89164164D01*
X147852330Y-89074284D01*
X147770056Y-89045115D01*
X147661314Y-89029324D01*
X147544719Y-89028921D01*
X147435197Y-89043908D01*
X147347671Y-89074284D01*
X147246324Y-89137153D01*
X147161045Y-89216530D01*
X147093988Y-89316219D01*
X147076884Y-89351381D01*
X147053759Y-89411681D01*
X147035577Y-89473118D01*
X147023882Y-89527876D01*
X147020216Y-89568138D01*
X146934830Y-89568138D01*
X146939293Y-89509448D01*
X146968912Y-89385477D01*
X147015494Y-89273928D01*
X147074582Y-89183501D01*
X147179235Y-89077779D01*
X147301846Y-89000998D01*
X147436721Y-88953161D01*
X147578163Y-88934266D01*
X147720475Y-88944313D01*
X147857962Y-88983303D01*
X147984927Y-89051236D01*
X148095674Y-89148111D01*
X148184507Y-89273928D01*
X148199564Y-89303320D01*
X148251909Y-89453031D01*
X148262048Y-89547273D01*
X148268182Y-89604294D01*
G37*
G36*
X146472633Y-80439718D02*
G01*
X146556021Y-80498959D01*
X146618581Y-80587068D01*
X146618691Y-80587295D01*
X146631499Y-80616214D01*
X146641357Y-80647017D01*
X146648648Y-80685148D01*
X146653756Y-80736053D01*
X146657062Y-80805178D01*
X146658950Y-80897966D01*
X146659802Y-81019863D01*
X146660000Y-81176314D01*
X146660000Y-81680000D01*
X146867043Y-81680000D01*
X146940118Y-81680480D01*
X147014858Y-81683564D01*
X147066635Y-81690935D01*
X147105365Y-81704226D01*
X147140962Y-81725067D01*
X147146350Y-81728829D01*
X147203073Y-81780460D01*
X147248919Y-81840067D01*
X147251066Y-81843760D01*
X147264498Y-81870323D01*
X147274445Y-81900642D01*
X147281423Y-81940759D01*
X147285951Y-81996713D01*
X147288546Y-82074544D01*
X147289723Y-82180293D01*
X147290000Y-82320000D01*
X147289968Y-82389322D01*
X147289471Y-82511413D01*
X147287921Y-82602411D01*
X147284741Y-82668391D01*
X147279359Y-82715424D01*
X147271199Y-82749585D01*
X147259686Y-82776946D01*
X147244246Y-82803580D01*
X147231260Y-82823063D01*
X147169949Y-82886419D01*
X147088839Y-82928829D01*
X146982046Y-82952590D01*
X146843686Y-82960000D01*
X146660000Y-82960000D01*
X146660000Y-83143685D01*
X146653699Y-83269592D01*
X146629000Y-83386971D01*
X146583553Y-83475402D01*
X146515186Y-83538871D01*
X146421729Y-83581367D01*
X146398588Y-83584414D01*
X146337906Y-83587687D01*
X146246282Y-83590384D01*
X146128697Y-83592422D01*
X145990134Y-83593719D01*
X145835574Y-83594194D01*
X145670000Y-83593763D01*
X145647015Y-83593639D01*
X145465465Y-83592585D01*
X145319103Y-83591405D01*
X145203608Y-83589822D01*
X145114659Y-83587561D01*
X145047934Y-83584344D01*
X144999111Y-83579895D01*
X144963870Y-83573937D01*
X144937889Y-83566194D01*
X144916846Y-83556389D01*
X144896420Y-83544245D01*
X144884233Y-83536247D01*
X144809543Y-83462636D01*
X144762582Y-83369906D01*
X144745183Y-83267651D01*
X144759178Y-83165465D01*
X144806400Y-83072942D01*
X144839571Y-83034145D01*
X144897332Y-82988555D01*
X144969046Y-82959624D01*
X145063135Y-82944417D01*
X145188023Y-82940000D01*
X145380000Y-82940000D01*
X145380000Y-82630000D01*
X145380000Y-82320000D01*
X145172958Y-82320000D01*
X145057328Y-82316647D01*
X144968192Y-82303879D01*
X144900394Y-82278139D01*
X144844691Y-82235874D01*
X144791839Y-82173533D01*
X144779934Y-82154543D01*
X144754522Y-82076838D01*
X144748036Y-81985366D01*
X144760475Y-81896464D01*
X144791839Y-81826466D01*
X144843123Y-81765672D01*
X144898608Y-81722862D01*
X144965913Y-81696681D01*
X145054282Y-81683578D01*
X145172958Y-81679999D01*
X145380000Y-81680000D01*
X145380000Y-81472957D01*
X145380486Y-81399463D01*
X145383570Y-81324961D01*
X145390933Y-81273435D01*
X145404200Y-81235006D01*
X145425000Y-81199796D01*
X145436235Y-81183599D01*
X145482994Y-81125960D01*
X145532638Y-81087053D01*
X145594419Y-81062924D01*
X145677589Y-81049618D01*
X145791401Y-81043179D01*
X146000000Y-81036359D01*
X146000000Y-80873047D01*
X146000537Y-80822097D01*
X146007808Y-80712944D01*
X146025691Y-80630143D01*
X146056854Y-80564273D01*
X146103964Y-80505910D01*
X146178895Y-80448034D01*
X146275930Y-80412972D01*
X146376556Y-80410627D01*
X146472633Y-80439718D01*
G37*
G36*
X152866673Y-86742136D02*
G01*
X153009022Y-86743859D01*
X153028203Y-86744151D01*
X153172410Y-86746879D01*
X153283181Y-86751146D01*
X153366398Y-86758572D01*
X153427941Y-86770777D01*
X153473693Y-86789382D01*
X153509532Y-86816006D01*
X153541341Y-86852271D01*
X153575000Y-86899796D01*
X153590819Y-86925272D01*
X153606027Y-86961807D01*
X153614875Y-87008681D01*
X153618990Y-87075772D01*
X153620000Y-87172957D01*
X153620000Y-87380000D01*
X155097043Y-87380000D01*
X156574085Y-87380000D01*
X156640962Y-87425067D01*
X156651421Y-87432395D01*
X156728498Y-87510503D01*
X156774048Y-87604279D01*
X156788069Y-87705668D01*
X156770561Y-87806610D01*
X156721525Y-87899051D01*
X156640962Y-87974932D01*
X156637769Y-87977079D01*
X156620928Y-87987733D01*
X156602645Y-87996459D01*
X156579066Y-88003450D01*
X156546335Y-88008899D01*
X156500595Y-88012997D01*
X156437990Y-88015938D01*
X156354665Y-88017913D01*
X156246764Y-88019114D01*
X156110430Y-88019734D01*
X155941809Y-88019965D01*
X155737043Y-88020000D01*
X154900000Y-88020000D01*
X154900000Y-88328179D01*
X154900000Y-88636359D01*
X155108600Y-88643179D01*
X155139823Y-88644334D01*
X155245169Y-88652064D01*
X155322179Y-88667634D01*
X155380139Y-88695040D01*
X155428334Y-88738280D01*
X155476048Y-88801351D01*
X155489171Y-88821487D01*
X155501028Y-88845000D01*
X155509438Y-88873797D01*
X155514866Y-88913662D01*
X155517777Y-88970381D01*
X155518634Y-89049739D01*
X155517903Y-89157521D01*
X155516048Y-89299512D01*
X155514806Y-89384132D01*
X155512517Y-89506822D01*
X155509629Y-89598478D01*
X155505554Y-89664840D01*
X155499704Y-89711652D01*
X155491493Y-89744653D01*
X155480333Y-89769587D01*
X155465637Y-89792193D01*
X155463766Y-89794768D01*
X155413531Y-89847244D01*
X155355637Y-89887862D01*
X155274649Y-89911831D01*
X155177702Y-89915275D01*
X155082486Y-89899075D01*
X155006158Y-89864384D01*
X154974329Y-89838877D01*
X154929163Y-89783997D01*
X154900119Y-89713000D01*
X154884597Y-89618216D01*
X154880000Y-89491977D01*
X154880000Y-89300000D01*
X154395000Y-89299888D01*
X154306583Y-89299546D01*
X154172381Y-89297781D01*
X154051985Y-89294718D01*
X153951943Y-89290592D01*
X153878803Y-89285636D01*
X153839113Y-89280083D01*
X153798194Y-89263672D01*
X153722429Y-89209937D01*
X153658565Y-89137268D01*
X153619666Y-89058835D01*
X153617835Y-89051735D01*
X153608782Y-88993098D01*
X153602410Y-88912483D01*
X153600000Y-88825132D01*
X153600000Y-88660000D01*
X153098023Y-88660000D01*
X152949568Y-88659701D01*
X152809644Y-88658045D01*
X152700363Y-88654060D01*
X152616693Y-88646777D01*
X152553603Y-88635230D01*
X152506060Y-88618452D01*
X152469034Y-88595475D01*
X152437491Y-88565333D01*
X152406400Y-88527057D01*
X152397791Y-88515145D01*
X152355304Y-88420725D01*
X152345757Y-88317974D01*
X152367308Y-88216527D01*
X152418118Y-88126016D01*
X152496348Y-88056076D01*
X152508205Y-88049029D01*
X152551113Y-88029267D01*
X152602973Y-88016330D01*
X152674129Y-88008248D01*
X152774929Y-88003054D01*
X152980000Y-87995463D01*
X152980000Y-87700000D01*
X152980000Y-87404536D01*
X152774929Y-87396945D01*
X152766789Y-87396631D01*
X152640343Y-87386742D01*
X152545626Y-87366402D01*
X152475349Y-87332130D01*
X152422227Y-87280448D01*
X152378973Y-87207876D01*
X152351567Y-87127911D01*
X152347024Y-87020739D01*
X152376894Y-86920527D01*
X152438533Y-86834947D01*
X152529297Y-86771674D01*
X152544476Y-86765080D01*
X152576988Y-86755123D01*
X152619461Y-86748198D01*
X152677896Y-86743958D01*
X152758299Y-86742053D01*
X152866673Y-86742136D01*
G37*
G36*
X139053650Y-88642014D02*
G01*
X139207182Y-88642847D01*
X139396381Y-88644272D01*
X139398310Y-88644287D01*
X139587053Y-88645870D01*
X139739994Y-88647479D01*
X139861290Y-88649368D01*
X139955098Y-88651793D01*
X140025578Y-88655008D01*
X140076886Y-88659268D01*
X140113181Y-88664826D01*
X140138620Y-88671937D01*
X140157362Y-88680857D01*
X140173564Y-88691838D01*
X140194472Y-88708404D01*
X140269477Y-88793835D01*
X140311944Y-88890694D01*
X140322047Y-88991806D01*
X140299962Y-89089998D01*
X140245866Y-89178093D01*
X140159933Y-89248918D01*
X140158250Y-89249902D01*
X140134246Y-89262321D01*
X140106681Y-89272004D01*
X140070349Y-89279372D01*
X140020046Y-89284847D01*
X139950564Y-89288849D01*
X139856700Y-89291799D01*
X139733247Y-89294119D01*
X139575000Y-89296229D01*
X139060000Y-89302458D01*
X139060000Y-89921229D01*
X139060000Y-90540000D01*
X139370000Y-90540000D01*
X139680000Y-90540000D01*
X139680000Y-90332957D01*
X139680481Y-90259882D01*
X139683565Y-90185142D01*
X139690936Y-90133365D01*
X139704227Y-90094635D01*
X139725068Y-90059038D01*
X139732396Y-90048579D01*
X139810504Y-89971502D01*
X139904280Y-89925952D01*
X140005669Y-89911931D01*
X140106611Y-89929439D01*
X140199052Y-89978475D01*
X140274933Y-90059038D01*
X140290145Y-90083639D01*
X140305688Y-90120526D01*
X140314742Y-90167421D01*
X140318961Y-90234312D01*
X140320000Y-90331188D01*
X140320000Y-90536460D01*
X140536631Y-90543230D01*
X140552013Y-90543720D01*
X140645242Y-90547660D01*
X140709406Y-90553612D01*
X140754136Y-90563609D01*
X140789063Y-90579684D01*
X140823816Y-90603871D01*
X140859019Y-90632105D01*
X140890804Y-90663710D01*
X140915126Y-90699909D01*
X140932980Y-90745759D01*
X140945358Y-90806318D01*
X140953255Y-90886643D01*
X140957665Y-90991792D01*
X140959582Y-91126823D01*
X140960000Y-91296793D01*
X140960000Y-91797541D01*
X141475000Y-91803770D01*
X141487329Y-91803920D01*
X141642968Y-91806031D01*
X141764179Y-91808381D01*
X141856166Y-91811391D01*
X141924134Y-91815483D01*
X141973289Y-91821076D01*
X142008837Y-91828593D01*
X142035983Y-91838454D01*
X142059933Y-91851081D01*
X142081553Y-91864810D01*
X142160501Y-91940049D01*
X142207572Y-92030981D01*
X142222592Y-92130432D01*
X142205383Y-92231228D01*
X142155771Y-92326195D01*
X142073580Y-92408161D01*
X142066366Y-92413349D01*
X142046753Y-92424902D01*
X142022095Y-92433860D01*
X141987400Y-92440629D01*
X141937673Y-92445619D01*
X141867921Y-92449236D01*
X141773151Y-92451889D01*
X141648368Y-92453985D01*
X141488580Y-92455932D01*
X140960000Y-92461864D01*
X140960000Y-92644617D01*
X140953954Y-92767282D01*
X140929306Y-92885856D01*
X140883751Y-92975149D01*
X140815242Y-93038909D01*
X140721729Y-93080885D01*
X140666447Y-93094563D01*
X140609909Y-93095765D01*
X140541165Y-93080334D01*
X140499254Y-93063405D01*
X140422268Y-93009514D01*
X140358099Y-92937653D01*
X140319917Y-92860887D01*
X140315352Y-92825582D01*
X140311105Y-92753689D01*
X140307417Y-92649778D01*
X140304381Y-92517902D01*
X140302090Y-92362112D01*
X140300636Y-92186461D01*
X140300112Y-91995000D01*
X140300000Y-91200000D01*
X139505000Y-91199888D01*
X139349106Y-91199561D01*
X139162029Y-91198254D01*
X138997711Y-91196023D01*
X138859598Y-91192951D01*
X138751138Y-91189117D01*
X138675780Y-91184604D01*
X138636970Y-91179492D01*
X138572052Y-91149588D01*
X138497587Y-91085825D01*
X138440177Y-91004083D01*
X138410337Y-90916557D01*
X138410200Y-90915556D01*
X138407833Y-90876529D01*
X138405864Y-90802020D01*
X138404320Y-90696317D01*
X138403226Y-90563710D01*
X138402609Y-90408486D01*
X138402495Y-90234934D01*
X138402909Y-90047342D01*
X138403878Y-89850000D01*
X138410000Y-88870000D01*
X138455755Y-88796419D01*
X138456407Y-88795377D01*
X138513531Y-88731077D01*
X138588572Y-88680691D01*
X138589767Y-88680113D01*
X138613856Y-88669177D01*
X138638969Y-88660395D01*
X138669436Y-88653572D01*
X138709587Y-88648513D01*
X138763754Y-88645023D01*
X138836266Y-88642907D01*
X138931455Y-88641969D01*
X139053650Y-88642014D01*
G37*
G36*
X148975978Y-84228661D02*
G01*
X149064789Y-84279350D01*
X149136200Y-84352250D01*
X149180335Y-84441164D01*
X149184927Y-84466604D01*
X149190919Y-84531915D01*
X149195696Y-84623154D01*
X149198857Y-84731966D01*
X149200000Y-84850000D01*
X149199456Y-84931352D01*
X149196888Y-85043979D01*
X149192578Y-85141672D01*
X149186926Y-85216074D01*
X149180335Y-85258835D01*
X149163406Y-85300746D01*
X149109515Y-85377732D01*
X149037654Y-85441901D01*
X148960888Y-85480083D01*
X148940215Y-85483628D01*
X148878750Y-85488834D01*
X148787948Y-85493295D01*
X148674357Y-85496781D01*
X148544525Y-85499056D01*
X148405000Y-85499888D01*
X147920000Y-85500000D01*
X147920000Y-85797731D01*
X147920000Y-86095463D01*
X148125072Y-86103054D01*
X148133212Y-86103368D01*
X148259658Y-86113257D01*
X148354375Y-86133597D01*
X148424652Y-86167869D01*
X148477774Y-86219551D01*
X148521028Y-86292123D01*
X148546955Y-86365682D01*
X148553493Y-86473209D01*
X148525507Y-86574499D01*
X148465608Y-86661701D01*
X148376408Y-86726961D01*
X148362608Y-86733246D01*
X148331305Y-86743050D01*
X148289233Y-86749934D01*
X148230550Y-86754243D01*
X148149413Y-86756318D01*
X148039979Y-86756503D01*
X147896406Y-86755141D01*
X147865956Y-86754756D01*
X147723353Y-86752363D01*
X147613839Y-86748297D01*
X147531581Y-86740977D01*
X147470747Y-86728820D01*
X147425504Y-86710246D01*
X147390021Y-86683673D01*
X147358464Y-86647519D01*
X147325000Y-86600203D01*
X147309182Y-86574727D01*
X147293974Y-86538192D01*
X147285126Y-86491318D01*
X147281011Y-86424227D01*
X147280000Y-86327042D01*
X147280000Y-86120000D01*
X147072958Y-86120000D01*
X146999464Y-86119514D01*
X146924962Y-86116430D01*
X146873436Y-86109067D01*
X146835007Y-86095800D01*
X146799797Y-86075000D01*
X146783600Y-86063765D01*
X146725961Y-86017006D01*
X146687054Y-85967362D01*
X146662925Y-85905581D01*
X146649619Y-85822411D01*
X146643180Y-85708599D01*
X146636360Y-85500000D01*
X146328180Y-85500000D01*
X146020000Y-85500000D01*
X146020000Y-86017042D01*
X146019974Y-86108741D01*
X146019634Y-86246190D01*
X146018579Y-86351632D01*
X146016411Y-86430210D01*
X146012735Y-86487068D01*
X146007153Y-86527352D01*
X145999268Y-86556206D01*
X145988682Y-86578775D01*
X145975000Y-86600203D01*
X145946735Y-86638793D01*
X145878799Y-86704676D01*
X145800320Y-86739694D01*
X145700000Y-86750000D01*
X145654241Y-86748267D01*
X145564524Y-86728274D01*
X145491876Y-86680971D01*
X145425000Y-86600203D01*
X145419958Y-86592724D01*
X145409208Y-86574912D01*
X145400583Y-86554533D01*
X145393849Y-86527428D01*
X145388772Y-86489439D01*
X145385117Y-86436405D01*
X145382651Y-86364168D01*
X145381141Y-86268569D01*
X145380351Y-86145447D01*
X145380049Y-85990643D01*
X145380000Y-85799999D01*
X145380005Y-85717733D01*
X145380128Y-85542194D01*
X145380601Y-85400800D01*
X145381656Y-85289394D01*
X145383527Y-85203815D01*
X145386449Y-85139904D01*
X145390655Y-85093502D01*
X145396380Y-85060449D01*
X145403856Y-85036587D01*
X145413318Y-85017756D01*
X145425000Y-84999796D01*
X145436235Y-84983599D01*
X145482994Y-84925960D01*
X145532638Y-84887053D01*
X145594419Y-84862924D01*
X145677589Y-84849618D01*
X145791401Y-84843179D01*
X146000000Y-84836359D01*
X146000000Y-84673047D01*
X146000537Y-84622097D01*
X146007808Y-84512944D01*
X146025691Y-84430143D01*
X146056854Y-84364273D01*
X146103964Y-84305910D01*
X146178895Y-84248034D01*
X146275930Y-84212972D01*
X146376556Y-84210627D01*
X146472633Y-84239718D01*
X146556021Y-84298959D01*
X146618581Y-84387068D01*
X146633738Y-84422376D01*
X146649584Y-84480962D01*
X146657710Y-84554859D01*
X146660000Y-84656314D01*
X146660000Y-84840000D01*
X146970000Y-84840000D01*
X147280000Y-84840000D01*
X147280000Y-84632957D01*
X147280481Y-84559882D01*
X147283565Y-84485142D01*
X147290936Y-84433365D01*
X147304227Y-84394635D01*
X147325068Y-84359038D01*
X147332396Y-84348579D01*
X147410504Y-84271502D01*
X147504280Y-84225952D01*
X147605669Y-84211931D01*
X147706611Y-84229439D01*
X147799052Y-84278475D01*
X147874933Y-84359038D01*
X147890684Y-84384621D01*
X147905957Y-84421450D01*
X147914846Y-84468505D01*
X147918984Y-84535703D01*
X147920000Y-84632957D01*
X147920000Y-84840000D01*
X148230000Y-84840000D01*
X148540000Y-84840000D01*
X148540000Y-84656314D01*
X148540001Y-84656191D01*
X148549785Y-84508041D01*
X148580270Y-84392275D01*
X148633196Y-84306059D01*
X148710301Y-84246557D01*
X148813327Y-84210935D01*
X148879646Y-84206378D01*
X148975978Y-84228661D01*
G37*
G36*
X149753142Y-88497583D02*
G01*
X149755466Y-88574101D01*
X149757202Y-88672605D01*
X149758433Y-88796098D01*
X149759245Y-88947581D01*
X149759721Y-89130058D01*
X149759945Y-89346530D01*
X149760000Y-89600000D01*
X149759975Y-89780765D01*
X149759811Y-90008122D01*
X149759421Y-90200575D01*
X149758720Y-90361126D01*
X149757624Y-90492777D01*
X149756050Y-90598531D01*
X149753913Y-90681389D01*
X149751130Y-90744354D01*
X149747616Y-90790428D01*
X149743287Y-90822613D01*
X149738060Y-90843913D01*
X149731850Y-90857328D01*
X149724573Y-90865861D01*
X149705741Y-90878624D01*
X149654508Y-90910310D01*
X149574579Y-90958479D01*
X149469118Y-91021261D01*
X149341289Y-91096788D01*
X149194258Y-91183190D01*
X149031189Y-91278599D01*
X148855245Y-91381146D01*
X148669592Y-91488961D01*
X148565150Y-91549380D01*
X148368940Y-91662158D01*
X148189185Y-91764501D01*
X148028454Y-91854992D01*
X147889312Y-91932212D01*
X147774329Y-91994741D01*
X147686071Y-92041161D01*
X147627106Y-92070053D01*
X147600000Y-92080000D01*
X147593984Y-92078317D01*
X147556584Y-92060880D01*
X147489908Y-92026239D01*
X147397674Y-91976516D01*
X147283600Y-91913838D01*
X147151403Y-91840329D01*
X147004802Y-91758114D01*
X146847515Y-91669318D01*
X146683260Y-91576064D01*
X146515754Y-91480479D01*
X146348717Y-91384687D01*
X146185865Y-91290812D01*
X146030918Y-91200980D01*
X145887593Y-91117314D01*
X145759607Y-91041941D01*
X145650680Y-90976984D01*
X145564529Y-90924569D01*
X145504872Y-90886820D01*
X145475428Y-90865861D01*
X145470238Y-90860289D01*
X145463714Y-90848669D01*
X145458198Y-90830074D01*
X145453606Y-90801502D01*
X145449854Y-90759950D01*
X145446859Y-90702416D01*
X145444535Y-90625898D01*
X145442799Y-90527394D01*
X145441568Y-90403901D01*
X145440756Y-90252418D01*
X145440280Y-90069941D01*
X145440056Y-89853469D01*
X145440000Y-89600000D01*
X145440026Y-89419234D01*
X145440190Y-89191877D01*
X145440580Y-88999424D01*
X145441281Y-88838873D01*
X145442377Y-88707222D01*
X145443951Y-88601468D01*
X145446088Y-88518610D01*
X145448871Y-88455645D01*
X145449131Y-88452234D01*
X145630000Y-88452234D01*
X145630000Y-89600000D01*
X145630000Y-90747765D01*
X146610000Y-91313745D01*
X146743488Y-91390784D01*
X146917084Y-91490804D01*
X147077916Y-91583278D01*
X147222859Y-91666423D01*
X147348794Y-91738452D01*
X147452597Y-91797582D01*
X147531147Y-91842027D01*
X147581322Y-91870003D01*
X147600000Y-91879725D01*
X147610472Y-91874463D01*
X147652533Y-91851192D01*
X147723803Y-91810975D01*
X147821161Y-91755596D01*
X147941485Y-91686840D01*
X148081653Y-91606493D01*
X148238542Y-91516338D01*
X148409032Y-91418160D01*
X148590000Y-91313745D01*
X149570000Y-90747765D01*
X149570000Y-89600000D01*
X149570000Y-88452234D01*
X148590000Y-87886254D01*
X148456513Y-87809215D01*
X148282917Y-87709195D01*
X148122085Y-87616721D01*
X147977142Y-87533576D01*
X147851207Y-87461547D01*
X147747404Y-87402417D01*
X147668854Y-87357972D01*
X147618679Y-87329996D01*
X147600000Y-87320274D01*
X147589529Y-87325536D01*
X147547468Y-87348807D01*
X147476198Y-87389024D01*
X147378840Y-87444403D01*
X147258516Y-87513159D01*
X147118348Y-87593506D01*
X146961459Y-87683661D01*
X146790969Y-87781839D01*
X146610000Y-87886254D01*
X145630000Y-88452234D01*
X145449131Y-88452234D01*
X145452385Y-88409571D01*
X145456714Y-88377386D01*
X145461941Y-88356086D01*
X145468151Y-88342671D01*
X145475428Y-88334138D01*
X145483636Y-88327691D01*
X145525951Y-88299573D01*
X145596949Y-88255538D01*
X145692913Y-88197710D01*
X145810124Y-88128214D01*
X145944866Y-88049174D01*
X146093419Y-87962717D01*
X146252065Y-87870965D01*
X146417087Y-87776045D01*
X146584767Y-87680081D01*
X146751387Y-87585197D01*
X146913227Y-87493518D01*
X147066572Y-87407170D01*
X147207701Y-87328277D01*
X147332899Y-87258963D01*
X147438445Y-87201354D01*
X147520623Y-87157573D01*
X147575714Y-87129747D01*
X147600000Y-87120000D01*
X147606017Y-87121682D01*
X147643417Y-87139119D01*
X147710093Y-87173760D01*
X147802327Y-87223483D01*
X147916401Y-87286161D01*
X148048598Y-87359670D01*
X148195199Y-87441885D01*
X148352486Y-87530681D01*
X148516741Y-87623935D01*
X148684247Y-87719520D01*
X148851284Y-87815312D01*
X149014136Y-87909187D01*
X149169083Y-87999019D01*
X149312408Y-88082685D01*
X149440394Y-88158058D01*
X149549321Y-88223015D01*
X149635472Y-88275430D01*
X149695129Y-88313179D01*
X149724573Y-88334138D01*
X149729763Y-88339710D01*
X149736287Y-88351330D01*
X149741803Y-88369925D01*
X149746395Y-88398497D01*
X149750147Y-88440049D01*
X149750781Y-88452234D01*
X149753142Y-88497583D01*
G37*
G36*
X148155995Y-94343206D02*
G01*
X148252450Y-94348089D01*
X148325385Y-94358220D01*
X148380510Y-94374845D01*
X148423536Y-94399216D01*
X148460172Y-94432579D01*
X148496129Y-94476184D01*
X148499953Y-94481229D01*
X148522922Y-94515443D01*
X148538055Y-94551133D01*
X148547385Y-94597930D01*
X148552946Y-94665466D01*
X148556770Y-94763369D01*
X148563540Y-94980000D01*
X148768812Y-94980000D01*
X148838763Y-94980444D01*
X148914058Y-94983479D01*
X148966198Y-94990825D01*
X149005170Y-95004137D01*
X149040962Y-95025067D01*
X149051421Y-95032395D01*
X149128498Y-95110503D01*
X149174048Y-95204279D01*
X149188069Y-95305668D01*
X149170561Y-95406610D01*
X149121525Y-95499051D01*
X149040962Y-95574932D01*
X149026917Y-95584106D01*
X149005355Y-95595673D01*
X148979425Y-95604445D01*
X148944035Y-95610807D01*
X148894096Y-95615146D01*
X148824517Y-95617849D01*
X148730209Y-95619301D01*
X148606081Y-95619889D01*
X148447043Y-95620000D01*
X147920000Y-95620000D01*
X147920000Y-95930000D01*
X147920000Y-96240000D01*
X148111978Y-96240000D01*
X148200743Y-96241953D01*
X148303185Y-96253283D01*
X148380836Y-96277400D01*
X148442287Y-96317352D01*
X148496129Y-96376184D01*
X148499953Y-96381229D01*
X148522922Y-96415443D01*
X148538055Y-96451133D01*
X148547385Y-96497930D01*
X148552946Y-96565466D01*
X148556770Y-96663369D01*
X148563540Y-96880000D01*
X148768812Y-96880000D01*
X148838763Y-96880444D01*
X148914058Y-96883479D01*
X148966198Y-96890825D01*
X149005170Y-96904137D01*
X149040962Y-96925067D01*
X149046350Y-96928829D01*
X149103073Y-96980460D01*
X149148919Y-97040067D01*
X149149668Y-97041348D01*
X149162157Y-97065380D01*
X149171894Y-97092892D01*
X149179301Y-97129102D01*
X149184803Y-97179227D01*
X149188823Y-97248484D01*
X149191782Y-97342090D01*
X149194106Y-97465261D01*
X149196216Y-97623214D01*
X149202432Y-98136428D01*
X149409816Y-98143214D01*
X149451774Y-98144751D01*
X149538686Y-98150056D01*
X149598428Y-98158529D01*
X149640300Y-98171885D01*
X149673600Y-98191838D01*
X149747788Y-98262874D01*
X149801608Y-98355695D01*
X149823400Y-98454487D01*
X149813966Y-98552349D01*
X149774108Y-98642375D01*
X149704627Y-98717663D01*
X149606324Y-98771308D01*
X149603615Y-98772232D01*
X149579988Y-98777712D01*
X149543797Y-98782364D01*
X149492297Y-98786233D01*
X149422745Y-98789364D01*
X149332398Y-98791802D01*
X149218514Y-98793592D01*
X149078348Y-98794780D01*
X148909156Y-98795410D01*
X148708197Y-98795528D01*
X148472726Y-98795178D01*
X148200000Y-98794406D01*
X146870000Y-98790000D01*
X146796420Y-98744245D01*
X146784233Y-98736247D01*
X146709543Y-98662636D01*
X146662582Y-98569906D01*
X146645183Y-98467651D01*
X146659178Y-98365465D01*
X146706400Y-98272942D01*
X146739571Y-98234145D01*
X146797332Y-98188555D01*
X146869046Y-98159624D01*
X146963135Y-98144417D01*
X147088023Y-98140000D01*
X147280000Y-98140000D01*
X147280000Y-97932957D01*
X147280481Y-97859882D01*
X147283565Y-97785142D01*
X147290936Y-97733365D01*
X147304227Y-97694635D01*
X147325068Y-97659038D01*
X147332396Y-97648579D01*
X147410504Y-97571502D01*
X147504280Y-97525952D01*
X147605669Y-97511931D01*
X147706611Y-97529439D01*
X147799052Y-97578475D01*
X147874933Y-97659038D01*
X147890684Y-97684621D01*
X147905957Y-97721450D01*
X147914846Y-97768505D01*
X147918984Y-97835703D01*
X147920000Y-97932957D01*
X147920000Y-98140000D01*
X148230000Y-98140000D01*
X148540000Y-98140000D01*
X148540000Y-97830000D01*
X148540000Y-97520000D01*
X148332958Y-97520000D01*
X148259883Y-97519519D01*
X148185143Y-97516435D01*
X148133366Y-97509064D01*
X148094636Y-97495773D01*
X148059039Y-97474932D01*
X148017985Y-97443917D01*
X147967041Y-97387131D01*
X147933179Y-97315611D01*
X147913024Y-97221137D01*
X147903200Y-97095491D01*
X147895348Y-96900000D01*
X147102674Y-96899888D01*
X146918728Y-96899401D01*
X146742735Y-96897978D01*
X146586410Y-96895712D01*
X146453819Y-96892696D01*
X146349029Y-96889024D01*
X146276105Y-96884789D01*
X146239113Y-96880083D01*
X146198194Y-96863672D01*
X146122429Y-96809937D01*
X146058565Y-96737268D01*
X146019666Y-96658835D01*
X146015074Y-96633395D01*
X146009082Y-96568084D01*
X146004305Y-96476845D01*
X146001144Y-96368033D01*
X146000000Y-96249999D01*
X146000545Y-96168647D01*
X146003113Y-96056020D01*
X146007423Y-95958327D01*
X146013075Y-95883925D01*
X146019666Y-95841164D01*
X146036595Y-95799253D01*
X146090486Y-95722267D01*
X146162347Y-95658098D01*
X146239113Y-95619916D01*
X146259786Y-95616371D01*
X146321251Y-95611165D01*
X146412053Y-95606704D01*
X146525644Y-95603218D01*
X146655476Y-95600943D01*
X146795000Y-95600111D01*
X147280000Y-95600000D01*
X147280000Y-95082957D01*
X147280027Y-94991258D01*
X147280367Y-94853809D01*
X147281422Y-94748367D01*
X147283590Y-94669789D01*
X147287266Y-94612931D01*
X147292848Y-94572647D01*
X147300733Y-94543793D01*
X147311319Y-94521224D01*
X147325000Y-94499796D01*
X147329194Y-94493647D01*
X147362336Y-94447513D01*
X147394311Y-94412451D01*
X147431000Y-94386841D01*
X147478283Y-94369062D01*
X147542042Y-94357495D01*
X147628157Y-94350519D01*
X147742509Y-94346514D01*
X147890979Y-94343859D01*
X148030310Y-94342322D01*
X148155995Y-94343206D01*
G37*
G36*
X148108695Y-87911300D02*
G01*
X148250674Y-87992005D01*
X148397901Y-88076088D01*
X148546212Y-88161165D01*
X148691445Y-88244853D01*
X148829434Y-88324768D01*
X148956017Y-88398529D01*
X149067029Y-88463751D01*
X149158306Y-88518052D01*
X149225684Y-88559048D01*
X149265000Y-88584356D01*
X149320000Y-88622723D01*
X149320000Y-89054941D01*
X149320322Y-89152212D01*
X149322746Y-89307979D01*
X149325803Y-89382268D01*
X149327614Y-89426267D01*
X149335005Y-89508685D01*
X149345000Y-89556843D01*
X149355588Y-89589179D01*
X149359215Y-89621394D01*
X149345000Y-89634929D01*
X149344768Y-89635013D01*
X149336385Y-89648110D01*
X149329965Y-89682631D01*
X149325312Y-89742290D01*
X149322231Y-89830799D01*
X149320525Y-89951871D01*
X149320000Y-90109217D01*
X149319955Y-90163407D01*
X149319162Y-90307059D01*
X149317196Y-90416436D01*
X149313818Y-90495862D01*
X149308784Y-90549662D01*
X149301856Y-90582161D01*
X149292792Y-90597683D01*
X149292767Y-90597704D01*
X149270284Y-90612108D01*
X149216688Y-90644464D01*
X149135479Y-90692714D01*
X149030159Y-90754801D01*
X148904230Y-90828664D01*
X148761191Y-90912247D01*
X148604545Y-91003490D01*
X148437792Y-91100336D01*
X148316461Y-91170448D01*
X148143188Y-91269608D01*
X148036211Y-91330000D01*
X147988123Y-91357147D01*
X147853961Y-91431592D01*
X147743395Y-91491473D01*
X147659120Y-91535316D01*
X147603831Y-91561648D01*
X147580222Y-91568997D01*
X147579085Y-91568514D01*
X147551107Y-91553685D01*
X147493345Y-91521413D01*
X147410046Y-91474156D01*
X147305455Y-91414375D01*
X147183818Y-91344531D01*
X147158595Y-91330000D01*
X147310000Y-91330000D01*
X147443250Y-91405000D01*
X147454294Y-91411163D01*
X147520627Y-91445961D01*
X147573832Y-91470324D01*
X147603250Y-91479302D01*
X147605252Y-91479102D01*
X147638237Y-91467161D01*
X147693421Y-91440505D01*
X147760000Y-91404302D01*
X147890000Y-91330000D01*
X147745000Y-91324123D01*
X147669548Y-91322187D01*
X147556768Y-91321884D01*
X147455000Y-91324123D01*
X147310000Y-91330000D01*
X147158595Y-91330000D01*
X147049381Y-91267082D01*
X146906388Y-91184491D01*
X146759086Y-91099216D01*
X146611720Y-91013718D01*
X146468536Y-90930457D01*
X146333779Y-90851894D01*
X146211695Y-90780488D01*
X146106530Y-90718700D01*
X146022529Y-90668989D01*
X145963937Y-90633817D01*
X145935000Y-90615643D01*
X145880000Y-90577276D01*
X145880000Y-89600000D01*
X145880000Y-88650000D01*
X145960425Y-88650000D01*
X145960425Y-89600000D01*
X145960425Y-90550000D01*
X146105213Y-90632765D01*
X146108523Y-90634658D01*
X146166665Y-90668001D01*
X146252871Y-90717555D01*
X146361060Y-90779816D01*
X146485148Y-90851284D01*
X146619052Y-90928455D01*
X146756688Y-91007828D01*
X146797087Y-91031070D01*
X146921426Y-91101770D01*
X147032069Y-91163438D01*
X147124851Y-91213837D01*
X147195608Y-91250731D01*
X147240176Y-91271885D01*
X147254391Y-91275063D01*
X147252388Y-91256331D01*
X147263407Y-91215000D01*
X147263996Y-91213884D01*
X147275132Y-91200925D01*
X147296195Y-91191725D01*
X147333201Y-91185657D01*
X147392161Y-91182097D01*
X147479090Y-91180420D01*
X147600000Y-91180000D01*
X147610151Y-91180001D01*
X147728366Y-91180492D01*
X147813040Y-91182287D01*
X147870186Y-91186009D01*
X147905818Y-91192285D01*
X147925950Y-91201740D01*
X147936594Y-91215000D01*
X147944788Y-91237480D01*
X147945631Y-91275000D01*
X147942547Y-91285100D01*
X147943334Y-91298391D01*
X147943589Y-91298287D01*
X147964557Y-91286650D01*
X148015954Y-91257349D01*
X148093934Y-91212599D01*
X148194651Y-91154613D01*
X148314256Y-91085607D01*
X148448904Y-91007794D01*
X148594748Y-90923391D01*
X149239495Y-90550000D01*
X149239748Y-90062360D01*
X149239663Y-89921308D01*
X149238951Y-89799777D01*
X149237214Y-89708040D01*
X149234066Y-89640758D01*
X149229118Y-89592589D01*
X149221982Y-89558191D01*
X149212270Y-89532223D01*
X149199596Y-89509345D01*
X149193316Y-89499555D01*
X149159667Y-89456411D01*
X149131790Y-89433454D01*
X149106095Y-89433431D01*
X149061422Y-89465324D01*
X149009308Y-89534031D01*
X148950852Y-89638308D01*
X148902194Y-89724768D01*
X148832423Y-89814340D01*
X148762208Y-89864841D01*
X148692029Y-89875964D01*
X148622364Y-89847404D01*
X148588990Y-89816583D01*
X148544829Y-89761713D01*
X148503156Y-89698660D01*
X148472153Y-89639978D01*
X148460000Y-89598224D01*
X148462373Y-89585690D01*
X148488817Y-89554028D01*
X148529727Y-89540000D01*
X148539721Y-89552390D01*
X148564143Y-89591242D01*
X148596768Y-89647352D01*
X148598321Y-89650097D01*
X148644633Y-89723469D01*
X148684746Y-89764083D01*
X148722527Y-89770934D01*
X148761846Y-89743019D01*
X148806570Y-89679333D01*
X148860568Y-89578871D01*
X148918118Y-89476634D01*
X148988616Y-89385727D01*
X149058237Y-89334588D01*
X149127157Y-89323097D01*
X149195550Y-89351134D01*
X149240000Y-89382268D01*
X149239788Y-89016134D01*
X149239576Y-88650000D01*
X149094788Y-88567234D01*
X149092584Y-88565974D01*
X149035112Y-88533018D01*
X148949456Y-88483783D01*
X148841740Y-88421795D01*
X148718090Y-88350581D01*
X148584631Y-88273666D01*
X148447485Y-88194576D01*
X148341857Y-88133903D01*
X148210573Y-88059623D01*
X148109322Y-88004091D01*
X148035639Y-87966055D01*
X147987060Y-87944261D01*
X147961119Y-87937456D01*
X147955353Y-87944388D01*
X147956444Y-87969959D01*
X147937868Y-88001740D01*
X147934235Y-88003376D01*
X147896116Y-88009683D01*
X147828636Y-88014368D01*
X147740462Y-88017431D01*
X147640260Y-88018872D01*
X147536696Y-88018690D01*
X147438435Y-88016886D01*
X147354144Y-88013460D01*
X147292487Y-88008411D01*
X147262133Y-88001740D01*
X147248108Y-87984887D01*
X147244648Y-87944388D01*
X147242913Y-87938297D01*
X147223946Y-87940400D01*
X147183160Y-87957076D01*
X147118088Y-87989579D01*
X147026266Y-88039162D01*
X146905230Y-88107076D01*
X146752516Y-88194576D01*
X146745041Y-88198888D01*
X146607938Y-88277950D01*
X146474856Y-88354645D01*
X146351917Y-88425447D01*
X146245248Y-88486830D01*
X146160971Y-88535268D01*
X146105213Y-88567234D01*
X145960425Y-88650000D01*
X145880000Y-88650000D01*
X145880000Y-88622723D01*
X145935000Y-88584356D01*
X145935932Y-88583709D01*
X145976392Y-88557761D01*
X146044755Y-88516215D01*
X146136859Y-88461455D01*
X146248539Y-88395865D01*
X146375632Y-88321827D01*
X146513973Y-88241724D01*
X146659398Y-88157940D01*
X146807745Y-88072857D01*
X146954849Y-87988860D01*
X147096545Y-87908329D01*
X147173205Y-87865000D01*
X147327399Y-87865000D01*
X147328857Y-87867122D01*
X147357551Y-87872195D01*
X147416841Y-87876281D01*
X147499924Y-87879008D01*
X147600000Y-87880000D01*
X147639862Y-87879849D01*
X147734240Y-87878149D01*
X147809024Y-87874858D01*
X147857411Y-87870350D01*
X147872602Y-87865000D01*
X147871607Y-87863787D01*
X147846292Y-87845683D01*
X147796351Y-87815820D01*
X147731422Y-87780000D01*
X147600000Y-87710000D01*
X147468579Y-87780000D01*
X147459414Y-87784905D01*
X147395924Y-87820267D01*
X147348706Y-87848899D01*
X147327399Y-87865000D01*
X147173205Y-87865000D01*
X147228671Y-87833650D01*
X147347062Y-87767205D01*
X147447554Y-87711377D01*
X147525984Y-87668550D01*
X147578187Y-87641106D01*
X147600001Y-87631428D01*
X147600224Y-87631443D01*
X147623269Y-87641839D01*
X147676546Y-87669912D01*
X147755891Y-87713278D01*
X147857140Y-87769553D01*
X147976129Y-87836355D01*
X148026798Y-87865000D01*
X148108695Y-87911300D01*
G37*
G36*
X145391752Y-94674128D02*
G01*
X145396946Y-94774928D01*
X145404537Y-94980000D01*
X145594246Y-94980000D01*
X145663625Y-94981193D01*
X145772255Y-94991303D01*
X145853580Y-95013939D01*
X145915369Y-95051770D01*
X145965394Y-95107465D01*
X145983596Y-95139774D01*
X146007583Y-95225745D01*
X146012544Y-95323671D01*
X145998482Y-95417838D01*
X145965394Y-95492534D01*
X145949390Y-95514622D01*
X145927910Y-95540746D01*
X145903803Y-95562150D01*
X145873332Y-95579305D01*
X145832759Y-95592682D01*
X145778348Y-95602750D01*
X145706361Y-95609979D01*
X145613060Y-95614840D01*
X145494709Y-95617802D01*
X145347570Y-95619336D01*
X145167905Y-95619912D01*
X144951978Y-95620000D01*
X144120000Y-95620000D01*
X144120000Y-96250000D01*
X144120000Y-96880000D01*
X144327043Y-96880000D01*
X144442673Y-96883352D01*
X144531809Y-96896120D01*
X144599607Y-96921860D01*
X144655310Y-96964125D01*
X144708162Y-97026466D01*
X144720067Y-97045456D01*
X144745479Y-97123161D01*
X144751965Y-97214633D01*
X144739526Y-97303535D01*
X144708162Y-97373533D01*
X144656878Y-97434327D01*
X144601393Y-97477137D01*
X144534088Y-97503318D01*
X144445719Y-97516421D01*
X144327043Y-97520000D01*
X144120000Y-97520000D01*
X144120000Y-97727042D01*
X144119515Y-97800536D01*
X144116431Y-97875038D01*
X144109068Y-97926564D01*
X144095801Y-97964993D01*
X144075000Y-98000203D01*
X144063766Y-98016400D01*
X144017007Y-98074039D01*
X143967363Y-98112946D01*
X143905582Y-98137075D01*
X143822412Y-98150381D01*
X143708600Y-98156820D01*
X143500000Y-98163640D01*
X143499889Y-98326820D01*
X143499816Y-98340170D01*
X143496602Y-98427645D01*
X143489584Y-98506433D01*
X143480084Y-98560887D01*
X143461417Y-98605465D01*
X143408634Y-98678804D01*
X143339691Y-98741665D01*
X143268126Y-98780049D01*
X143264000Y-98781295D01*
X143174084Y-98790892D01*
X143075510Y-98775636D01*
X142987343Y-98738357D01*
X142983881Y-98736184D01*
X142918399Y-98677385D01*
X142873718Y-98595385D01*
X142848148Y-98485661D01*
X142840000Y-98343685D01*
X142840000Y-98160000D01*
X142656315Y-98160000D01*
X142618258Y-98159550D01*
X142488384Y-98148248D01*
X142388597Y-98120017D01*
X142313015Y-98072561D01*
X142255755Y-98003580D01*
X142248024Y-97990856D01*
X142234489Y-97964638D01*
X142224612Y-97934860D01*
X142217820Y-97895448D01*
X142213537Y-97840329D01*
X142211189Y-97763430D01*
X142210202Y-97658678D01*
X142210000Y-97520000D01*
X142210004Y-97498568D01*
X142210375Y-97363885D01*
X142211716Y-97262331D01*
X142214546Y-97187863D01*
X142219380Y-97134444D01*
X142226736Y-97096031D01*
X142237131Y-97066586D01*
X142251082Y-97040067D01*
X142264787Y-97018482D01*
X142340019Y-96939521D01*
X142430947Y-96892438D01*
X142530397Y-96877408D01*
X142631198Y-96894608D01*
X142726177Y-96944213D01*
X142808162Y-97026400D01*
X142817019Y-97039246D01*
X142834081Y-97074703D01*
X142845268Y-97122375D01*
X142852282Y-97191521D01*
X142856821Y-97291400D01*
X142863641Y-97500000D01*
X143171821Y-97500000D01*
X143480000Y-97500000D01*
X143480000Y-97202268D01*
X143480000Y-96904536D01*
X143274929Y-96896945D01*
X143243024Y-96895664D01*
X143151595Y-96889857D01*
X143086904Y-96880611D01*
X143038604Y-96865956D01*
X142996348Y-96843923D01*
X142976774Y-96830941D01*
X142913513Y-96769857D01*
X142871151Y-96688848D01*
X142847408Y-96582071D01*
X142840000Y-96443685D01*
X142840000Y-96260000D01*
X142221230Y-96260000D01*
X141602459Y-96260000D01*
X141596230Y-96775000D01*
X141596080Y-96787328D01*
X141593969Y-96942967D01*
X141591619Y-97064178D01*
X141588609Y-97156165D01*
X141584517Y-97224133D01*
X141578924Y-97273288D01*
X141571407Y-97308836D01*
X141561546Y-97335982D01*
X141548919Y-97359932D01*
X141535214Y-97381517D01*
X141459982Y-97460478D01*
X141369054Y-97507561D01*
X141269604Y-97522591D01*
X141168803Y-97505391D01*
X141073824Y-97455786D01*
X140991839Y-97373599D01*
X140982982Y-97360753D01*
X140965920Y-97325296D01*
X140954733Y-97277624D01*
X140947719Y-97208478D01*
X140943180Y-97108599D01*
X140936360Y-96900000D01*
X140773048Y-96900000D01*
X140759125Y-96899931D01*
X140672157Y-96896755D01*
X140594370Y-96889787D01*
X140541165Y-96880334D01*
X140499254Y-96863405D01*
X140422268Y-96809514D01*
X140358099Y-96737653D01*
X140319917Y-96660887D01*
X140319210Y-96658177D01*
X140311840Y-96606405D01*
X140306319Y-96524413D01*
X140302649Y-96420973D01*
X140300834Y-96304857D01*
X140300876Y-96184838D01*
X140302777Y-96069687D01*
X140306541Y-95968177D01*
X140312170Y-95889078D01*
X140319666Y-95841164D01*
X140336595Y-95799253D01*
X140390486Y-95722267D01*
X140462347Y-95658098D01*
X140539113Y-95619916D01*
X140545935Y-95618194D01*
X140605483Y-95609057D01*
X140686856Y-95602594D01*
X140774529Y-95600111D01*
X140939057Y-95600000D01*
X140944529Y-94441452D01*
X140945671Y-94205443D01*
X140946813Y-93996635D01*
X140948034Y-93821574D01*
X140949034Y-93720000D01*
X141600000Y-93720000D01*
X141600000Y-94660000D01*
X141600000Y-95600000D01*
X142540000Y-95600000D01*
X143480000Y-95600000D01*
X143480000Y-94660000D01*
X143480000Y-93720000D01*
X142540000Y-93720000D01*
X141600000Y-93720000D01*
X140949034Y-93720000D01*
X140949457Y-93677076D01*
X140951207Y-93559957D01*
X140953407Y-93467031D01*
X140956182Y-93395113D01*
X140959655Y-93341020D01*
X140963951Y-93301566D01*
X140969193Y-93273567D01*
X140975506Y-93253838D01*
X140983014Y-93239195D01*
X140991839Y-93226452D01*
X140995354Y-93221848D01*
X141043661Y-93170701D01*
X141099797Y-93125000D01*
X141111390Y-93117297D01*
X141132832Y-93105292D01*
X141158163Y-93096184D01*
X141192540Y-93089574D01*
X141241123Y-93085061D01*
X141309071Y-93082247D01*
X141401542Y-93080732D01*
X141523695Y-93080116D01*
X141680690Y-93080000D01*
X142195464Y-93080000D01*
X142203055Y-92874928D01*
X142212293Y-92748646D01*
X142232077Y-92650934D01*
X142265588Y-92578558D01*
X142316145Y-92524420D01*
X142387069Y-92481419D01*
X142409497Y-92471215D01*
X142443975Y-92459194D01*
X142485148Y-92450695D01*
X142539677Y-92445122D01*
X142614222Y-92441879D01*
X142715443Y-92440370D01*
X142850000Y-92440000D01*
X142943273Y-92440148D01*
X143054983Y-92441206D01*
X143137773Y-92443798D01*
X143198302Y-92448520D01*
X143243232Y-92455966D01*
X143279222Y-92466734D01*
X143312932Y-92481419D01*
X143380636Y-92521954D01*
X143432403Y-92575664D01*
X143466809Y-92647373D01*
X143487190Y-92744189D01*
X143496883Y-92873217D01*
X143504411Y-93076578D01*
X143717206Y-93083289D01*
X143781551Y-93085692D01*
X143862002Y-93091136D01*
X143917656Y-93099923D01*
X143958004Y-93113824D01*
X143992535Y-93134606D01*
X144023706Y-93159463D01*
X144069838Y-93214596D01*
X144099485Y-93285509D01*
X144115316Y-93379971D01*
X144120000Y-93505754D01*
X144120000Y-93695463D01*
X144325072Y-93703054D01*
X144356977Y-93704335D01*
X144448406Y-93710142D01*
X144513097Y-93719388D01*
X144561397Y-93734043D01*
X144603653Y-93756076D01*
X144623227Y-93769058D01*
X144686488Y-93830142D01*
X144728850Y-93911151D01*
X144752593Y-94017928D01*
X144760000Y-94156314D01*
X144760000Y-94340000D01*
X144943686Y-94340000D01*
X144981979Y-94340455D01*
X145111822Y-94351777D01*
X145211533Y-94380012D01*
X145286953Y-94427441D01*
X145343924Y-94496347D01*
X145350971Y-94508204D01*
X145370733Y-94551112D01*
X145383670Y-94602972D01*
X145390147Y-94660000D01*
X145391752Y-94674128D01*
G37*
%TD*%
M02*
