M48
; DRILL file {KiCad 9.0.2} date 2026-06-24T13:40:05-0400
; FORMAT={-:-/ absolute / metric / decimal}
; #@! TF.CreationDate,2026-06-24T13:40:05-04:00
; #@! TF.GenerationSoftware,Kicad,Pcbnew,9.0.2
; #@! TF.FileFunction,Plated,1,2,PTH
FMAT,2
METRIC
; #@! TA.AperFunction,Plated,PTH,ComponentDrill
T1C0.800
; #@! TA.AperFunction,Plated,PTH,ComponentDrill
T2C1.000
; #@! TA.AperFunction,Plated,PTH,ComponentDrill
T3C1.020
; #@! TA.AperFunction,Plated,PTH,ComponentDrill
T4C1.300
%
G90
G05
T1
X166.125Y-69.725
X166.125Y-82.425
T2
X168.435Y-85.55
X168.435Y-92.35
X168.435Y-100.408
X168.435Y-108.467
X170.975Y-73.225
X170.975Y-79.275
X170.975Y-85.55
X170.975Y-92.35
X170.975Y-100.408
X170.975Y-108.467
X173.515Y-73.225
X173.515Y-79.275
X173.515Y-85.55
X173.515Y-92.35
X173.515Y-100.408
X173.515Y-108.467
X176.055Y-73.225
X176.055Y-79.275
X176.055Y-85.55
X176.055Y-92.35
X176.055Y-100.408
X176.055Y-108.467
T3
X136.35Y-61.66
X136.35Y-64.2
X136.35Y-66.74
X136.35Y-69.28
X136.35Y-71.82
X136.35Y-74.36
X136.35Y-76.9
X136.35Y-79.44
X136.35Y-81.98
X136.35Y-84.52
X136.35Y-87.06
X136.35Y-89.6
X136.35Y-92.14
X136.35Y-94.68
X136.35Y-97.22
X136.35Y-99.76
X136.35Y-102.3
X136.35Y-104.84
X136.35Y-107.38
X136.35Y-109.92
X136.35Y-112.46
X136.35Y-115.0
X159.21Y-61.66
X159.21Y-64.2
X159.21Y-66.74
X159.21Y-69.28
X159.21Y-71.82
X159.21Y-74.36
X159.21Y-76.9
X159.21Y-79.44
X159.21Y-81.98
X159.21Y-84.52
X159.21Y-87.06
X159.21Y-89.6
X159.21Y-92.14
X159.21Y-94.68
X159.21Y-97.22
X159.21Y-99.76
X159.21Y-102.3
X159.21Y-104.84
X159.21Y-107.38
X159.21Y-109.92
X159.21Y-112.46
X159.21Y-115.0
X161.75Y-61.66
X161.75Y-64.17
X161.75Y-66.74
X161.75Y-69.28
X161.75Y-71.82
X161.75Y-74.36
X161.75Y-76.9
X161.75Y-79.44
X161.75Y-81.98
X161.75Y-84.52
X161.75Y-87.06
X161.75Y-89.6
X161.75Y-92.14
X161.75Y-94.68
X161.75Y-97.22
X161.75Y-99.76
X161.75Y-102.3
X161.75Y-104.84
X161.75Y-107.38
X161.75Y-109.92
X161.75Y-112.46
X161.75Y-115.0
T4
X171.49Y-63.677
X176.57Y-63.677
M30
