%TF.GenerationSoftware,KiCad,Pcbnew,9.0.2*%
%TF.CreationDate,2026-06-24T13:40:08-04:00*%
%TF.ProjectId,NaviCore_V1,4e617669-436f-4726-955f-56312e6b6963,rev?*%
%TF.SameCoordinates,Original*%
%TF.FileFunction,Soldermask,Top*%
%TF.FilePolarity,Negative*%
%FSLAX46Y46*%
G04 Gerber Fmt 4.6, Leading zero omitted, Abs format (unit mm)*
G04 Created by KiCad (PCBNEW 9.0.2) date 2026-06-24 13:40:08*
%MOMM*%
%LPD*%
G01*
G04 APERTURE LIST*
G04 Aperture macros list*
%AMRoundRect*
0 Rectangle with rounded corners*
0 $1 Rounding radius*
0 $2 $3 $4 $5 $6 $7 $8 $9 X,Y pos of 4 corners*
0 Add a 4 corners polygon primitive as box body*
4,1,4,$2,$3,$4,$5,$6,$7,$8,$9,$2,$3,0*
0 Add four circle primitives for the rounded corners*
1,1,$1+$1,$2,$3*
1,1,$1+$1,$4,$5*
1,1,$1+$1,$6,$7*
1,1,$1+$1,$8,$9*
0 Add four rect primitives between the rounded corners*
20,1,$1+$1,$2,$3,$4,$5,0*
20,1,$1+$1,$4,$5,$6,$7,0*
20,1,$1+$1,$6,$7,$8,$9,0*
20,1,$1+$1,$8,$9,$2,$3,0*%
G04 Aperture macros list end*
%ADD10C,3.200000*%
%ADD11R,1.700000X1.700000*%
%ADD12C,1.700000*%
%ADD13RoundRect,0.250000X1.050000X1.050000X-1.050000X1.050000X-1.050000X-1.050000X1.050000X-1.050000X0*%
%ADD14C,2.600000*%
%ADD15C,1.600000*%
%ADD16RoundRect,0.102000X-0.765000X-0.765000X0.765000X-0.765000X0.765000X0.765000X-0.765000X0.765000X0*%
%ADD17C,1.734000*%
G04 APERTURE END LIST*
D10*
%TO.C,H3*%
X185000000Y-121175000D03*
%TD*%
D11*
%TO.C,J5*%
X176055000Y-100408334D03*
D12*
X173515000Y-100408334D03*
X170975000Y-100408334D03*
X168435000Y-100408334D03*
%TD*%
D10*
%TO.C,H1*%
X185000000Y-56500000D03*
%TD*%
D11*
%TO.C,J6*%
X176055000Y-108466667D03*
D12*
X173515000Y-108466667D03*
X170975000Y-108466667D03*
X168435000Y-108466667D03*
%TD*%
D13*
%TO.C,J7*%
X176570000Y-63677500D03*
D14*
X171490000Y-63677500D03*
%TD*%
D10*
%TO.C,H4*%
X137025000Y-121125000D03*
%TD*%
D15*
%TO.C,R1*%
X166125000Y-69725000D03*
X166125000Y-82425000D03*
%TD*%
D11*
%TO.C,J2*%
X176055000Y-79275000D03*
D12*
X173515000Y-79275000D03*
X170975000Y-79275000D03*
%TD*%
D11*
%TO.C,J1*%
X176055000Y-73225000D03*
D12*
X173515000Y-73225000D03*
X170975000Y-73225000D03*
%TD*%
D16*
%TO.C,U1*%
X136350000Y-61660000D03*
D17*
X136350000Y-64200000D03*
X136350000Y-66740000D03*
X136350000Y-69280000D03*
X136350000Y-71820000D03*
X136350000Y-74360000D03*
X136350000Y-76900000D03*
X136350000Y-79440000D03*
X136350000Y-81980000D03*
X136350000Y-84520000D03*
X136350000Y-87060000D03*
X136350000Y-89600000D03*
X136350000Y-92140000D03*
X136350000Y-94680000D03*
X136350000Y-97220000D03*
X136350000Y-99760000D03*
X136350000Y-102300000D03*
X136350000Y-104840000D03*
X136350000Y-107380000D03*
X136350000Y-109920000D03*
X136350000Y-112460000D03*
X136350000Y-115000000D03*
X159210000Y-61660000D03*
X161750000Y-61660000D03*
X159210000Y-64200000D03*
X161750000Y-64170000D03*
X159210000Y-66740000D03*
X161750000Y-66740000D03*
X159210000Y-69280000D03*
X161750000Y-69280000D03*
X159210000Y-71820000D03*
X161750000Y-71820000D03*
X159210000Y-74360000D03*
X161750000Y-74360000D03*
X159210000Y-76900000D03*
X161750000Y-76900000D03*
X159210000Y-79440000D03*
X161750000Y-79440000D03*
X159210000Y-81980000D03*
X161750000Y-81980000D03*
X159210000Y-84520000D03*
X161750000Y-84520000D03*
X159210000Y-87060000D03*
X161750000Y-87060000D03*
X159210000Y-89600000D03*
X161750000Y-89600000D03*
X159210000Y-92140000D03*
X161750000Y-92140000D03*
X159210000Y-94680000D03*
X161750000Y-94680000D03*
X159210000Y-97220000D03*
X161750000Y-97220000D03*
X159210000Y-99760000D03*
X161750000Y-99760000D03*
X159210000Y-102300000D03*
X161750000Y-102300000D03*
X159210000Y-104840000D03*
X161750000Y-104840000D03*
X159210000Y-107380000D03*
X161750000Y-107380000D03*
X159210000Y-109920000D03*
X161750000Y-109920000D03*
X159210000Y-112460000D03*
X161750000Y-112460000D03*
X159210000Y-115000000D03*
X161750000Y-115000000D03*
%TD*%
D11*
%TO.C,J3*%
X176055000Y-85550000D03*
D12*
X173515000Y-85550000D03*
X170975000Y-85550000D03*
X168435000Y-85550000D03*
%TD*%
D11*
%TO.C,J4*%
X176055000Y-92350000D03*
D12*
X173515000Y-92350000D03*
X170975000Y-92350000D03*
X168435000Y-92350000D03*
%TD*%
D10*
%TO.C,H2*%
X136975000Y-56475000D03*
%TD*%
M02*
