<svg xmlns="http://www.w3.org/2000/svg" width="800" height="688" viewBox="0 0 400 344" role="img" aria-label="NaviCore — PCB artwork">
  <defs>
    
  </defs>
  
  <g color="#000000">
    <g transform="translate(100,4)" fill="currentColor" stroke="currentColor">
      
      <g fill="none" stroke-width="3" stroke-linecap="round">
        <path d="M22 100 H7"></path><path d="M22 86 H13 V79"></path><path d="M22 114 H13 V121"></path>
        <path d="M178 100 H193"></path><path d="M178 86 H187 V79"></path><path d="M178 114 H187 V121"></path>
      </g>
      <g stroke="none">
        <circle cx="5" cy="100" r="4"></circle><circle cx="13" cy="76" r="3.4"></circle><circle cx="13" cy="124" r="3.4"></circle>
        <circle cx="195" cy="100" r="4"></circle><circle cx="187" cy="76" r="3.4"></circle><circle cx="187" cy="124" r="3.4"></circle>
      </g>
      
      <path fill-rule="evenodd" stroke="none" d="M100,12 L173.9,55 L173.9,145 L100,188 L26.1,145 L26.1,55 Z&#xA;           M100,24 L163.5,61 L163.5,139 L100,176 L36.5,139 L36.5,61 Z"></path>
      <polygon points="100,32 159,66 159,134 100,168 41,134 41,66" fill="none" stroke-width="2.4"></polygon>
      
      <g stroke="none">
        <g id="tk"><rect x="98" y="14" width="4" height="9" rx="1"></rect></g>
        <use href="#tk" transform="rotate(60 100 100)"></use><use href="#tk" transform="rotate(120 100 100)"></use>
        <use href="#tk" transform="rotate(180 100 100)"></use><use href="#tk" transform="rotate(240 100 100)"></use>
        <use href="#tk" transform="rotate(300 100 100)"></use>
      </g>
      
      <g stroke="none">
        <rect x="86" y="40" width="28" height="6" rx="3"></rect><rect x="80" y="49" width="40" height="6" rx="3"></rect>
        <rect x="86" y="154" width="28" height="6" rx="3"></rect><rect x="80" y="145" width="40" height="6" rx="3"></rect>
      </g>
      
      <path d="M40 100 Q47 82 54 100 T68 100 T82 100" fill="none" stroke-width="4" stroke-linecap="round"></path>
      <path d="M118 100 Q125 118 132 100 T146 100 T160 100" fill="none" stroke-width="4" stroke-linecap="round"></path>
      
      <circle cx="100" cy="100" r="23" fill="none" stroke-width="3.4"></circle>
      <circle cx="100" cy="100" r="14" fill="none" stroke-width="2.6"></circle>
      <circle cx="100" cy="100" r="6" stroke="none"></circle>
    </g>
    <text class="wm" x="200" y="272" text-anchor="middle" font-size="72" letter-spacing="0.5" fill="currentColor">NaviCore</text>
    <rect x="82" y="294" width="236" height="3" rx="1.5" fill="currentColor"></rect>
    <text class="tag" x="200" y="320" text-anchor="middle" font-size="15" letter-spacing="3" fill="currentColor">ASTROMECH ANIMATION CTRL</text>
  </g>
</svg>